<svg width="65" height="64" viewBox="0 0 65 64" fill="none" xmlns="http://www.w3.org/2000/svg">
<path d="M56.8486 0.00854492H63.4147C64.2784 0.00854492 64.9756 0.705738 64.9756 1.56943V8.13553H56.8486V0.00854492Z" fill="white"/>
<path d="M55.8486 16.2625V17.2625H56.8486H63.9756V62.4726C63.9756 62.7702 63.7372 63.0085 63.4396 63.0085H2.51159C2.21395 63.0085 1.97559 62.7702 1.97559 62.4726V1.54455C1.97559 1.24691 2.21395 1.00854 2.51159 1.00854H47.7216V8.13553V9.13553H48.7216H55.8486V16.2625Z" stroke="white" stroke-width="2" stroke-miterlimit="10"/>
<path d="M54.6846 27.4165V29.1943H52.9068V41.6387H54.6846V38.0831H56.4624V27.4165H54.6846Z" fill="#F2F2F2"/>
<path d="M47.5735 25.6387V29.1943H49.3513V27.4165H52.9068H54.6846V25.6387H47.5735Z" fill="#F2F2F2"/>
<path d="M52.9068 41.6387H51.129V43.4165H52.9068V41.6387Z" fill="#F2F2F2"/>
<path d="M49.3513 43.4165H47.5735V45.1943H49.3513V43.4165Z" fill="#F2F2F2"/>
<path d="M35.129 13.1841V16.7498H36.9068V13.1841H35.129Z" fill="#E0E0E0"/>
<path d="M35.1189 16.7498H33.3411V18.5276H35.1189V16.7498Z" fill="#E0E0E0"/>
<path d="M35.129 9.62854H33.3411V13.1841H35.129V9.62854Z" fill="#E0E0E0"/>
<path d="M28.0078 16.7498H29.7855V13.1841H28.0078V16.7498Z" fill="#E0E0E0"/>
<path d="M28.0078 16.7498H26.23V18.5276H28.0078V16.7498Z" fill="#E0E0E0"/>
<path d="M28.0078 9.62854H26.23V13.1841H28.0078V9.62854Z" fill="#E0E0E0"/>
<path d="M20.8966 16.7498H22.6744V13.1841H20.8966V16.7498Z" fill="#E0E0E0"/>
<path d="M20.8966 16.7498H19.1189V18.5276H20.8966V16.7498Z" fill="#E0E0E0"/>
<path d="M20.8966 9.62854H19.1189V13.1841H20.8966V9.62854Z" fill="#E0E0E0"/>
<path d="M49.3513 27.4165V29.1943H47.5735V25.6387V22.0831H44.0179V25.6387H45.7957V48.7498H42.2401V50.5276H40.4624V52.3155H35.129V54.0933H17.3411V55.8711H40.4624V54.0933H44.0179V50.5276H47.5735V46.972H49.3513V45.1943H47.5735V43.4165V30.972H51.129V29.1943H52.9068V27.4165H49.3513Z" fill="#C7C7C7"/>
<path d="M15.5633 20.3054V22.0831H20.8966V20.3054H15.5633Z" fill="white"/>
<path d="M15.5633 23.8609V38.0831H17.3411V36.3054H19.1189V27.4165H20.8966V23.8609H15.5633Z" fill="white"/>
<path d="M54.6846 38.0831V41.6387H56.4624V38.0831H54.6846Z" fill="#E0E0E0"/>
<path d="M54.6846 41.6387H52.9068V43.4165H54.6846V41.6387Z" fill="#E0E0E0"/>
<path d="M54.6846 27.4165H52.9068V29.1943H54.6846V27.4165Z" fill="#E0E0E0"/>
<path d="M49.3513 43.4165V45.1943H52.9068V43.4165H51.129H49.3513Z" fill="#E0E0E0"/>
<path d="M44.0179 22.0831H20.8966H15.5633H10.23V23.8609H15.5633H20.8966H40.4624V45.1943H38.6846V46.972H36.9068V48.7498H31.5633V50.5276H28.0078V52.3155H13.7855V54.0933H17.3411H35.129V52.3155H40.4624V50.5276H42.2401V48.7498H45.7957V25.6387H44.0179V22.0831Z" fill="#E0E0E0"/>
<path d="M20.8966 20.3054V22.0831H44.0179H47.5735V20.3054H20.8966Z" fill="#F2F2F2"/>
<path d="M20.8966 23.8609V27.4165H19.1189V36.3054H17.3411V38.0831H15.5633V23.8609H10.23V50.5276H12.0078V52.3155H13.7855H28.0078V50.5276H31.5633V48.7498H36.9068V46.972H38.6846V45.1943H40.4624V23.8609H20.8966Z" fill="#F2F2F2"/>
<path d="M15.5633 22.0831V20.3054H10.23V22.0831H15.5633Z" fill="#F2F2F2"/>
</svg>
