<svg width="17" height="16" viewBox="0 0 17 16" fill="none" xmlns="http://www.w3.org/2000/svg">
<path d="M14.9448 0.00854492H16.5864C16.8023 0.00854492 16.9766 0.182843 16.9766 0.398765V2.04029H14.9448V0.00854492Z" fill="white"/>
<path d="M14.5943 4.07204V4.42204H14.9443H16.6261V15.6245C16.6261 15.6437 16.6113 15.6585 16.5921 15.6585H1.36007C1.34089 15.6585 1.32607 15.6437 1.32607 15.6245V0.392545C1.32607 0.373365 1.34089 0.358545 1.36007 0.358545H12.5626V2.04029V2.39029H12.9126H14.5943V4.07204Z" stroke="white" stroke-width="0.7" stroke-miterlimit="10"/>
<path d="M14.4032 6.85983V7.30427H13.9588V10.4154H14.4032V9.52649H14.8476V6.85983H14.4032Z" fill="white"/>
<path d="M12.6254 6.41538V7.30427H13.0699V6.85983H13.9588H14.4032V6.41538H12.6254Z" fill="white"/>
<path d="M13.9588 10.4154H13.5143V10.8598H13.9588V10.4154Z" fill="white"/>
<path d="M13.0699 10.8598H12.6254V11.3043H13.0699V10.8598Z" fill="white"/>
<path d="M9.51431 3.30173V4.19316H9.95876V3.30173H9.51431Z" fill="white"/>
<path d="M9.51177 4.19316H9.06733V4.6376H9.51177V4.19316Z" fill="white"/>
<path d="M9.51431 2.41284H9.06733V3.30173H9.51431V2.41284Z" fill="white"/>
<path d="M7.734 4.19316H8.17844V3.30173H7.734V4.19316Z" fill="white"/>
<path d="M7.734 4.19316H7.28955V4.6376H7.734V4.19316Z" fill="white"/>
<path d="M7.734 2.41284H7.28955V3.30173H7.734V2.41284Z" fill="white"/>
<path d="M5.95622 4.19316H6.40066V3.30173H5.95622V4.19316Z" fill="white"/>
<path d="M5.95622 4.19316H5.51177V4.6376H5.95622V4.19316Z" fill="white"/>
<path d="M5.95622 2.41284H5.51177V3.30173H5.95622V2.41284Z" fill="white"/>
<path d="M13.0699 6.85983V7.30427H12.6254V6.41538V5.52649H11.7365V6.41538H12.181V12.1932H11.2921V12.6376H10.8476V13.0846H9.51431V13.529H5.06733V13.9735H10.8476V13.529H11.7365V12.6376H12.6254V11.7487H13.0699V11.3043H12.6254V10.8598V7.74871H13.5143V7.30427H13.9588V6.85983H13.0699Z" fill="white"/>
<path d="M4.62288 5.08205V5.52649H5.95622V5.08205H4.62288Z" fill="white"/>
<path d="M4.62288 5.97094V9.52649H5.06733V9.08205H5.51177V6.85983H5.95622V5.97094H4.62288Z" fill="white"/>
<path d="M14.4032 9.52649V10.4154H14.8476V9.52649H14.4032Z" fill="white"/>
<path d="M14.4032 10.4154H13.9588V10.8598H14.4032V10.4154Z" fill="white"/>
<path d="M14.4032 6.85983H13.9588V7.30427H14.4032V6.85983Z" fill="white"/>
<path d="M13.0699 10.8598V11.3043H13.9588V10.8598H13.5143H13.0699Z" fill="white"/>
<path d="M11.7365 5.52649H5.95622H4.62288H3.28955V5.97094H4.62288H5.95622H10.8476V11.3043H10.4032V11.7487H9.95876V12.1932H8.62288V12.6376H7.734V13.0846H4.17844V13.529H5.06733H9.51431V13.0846H10.8476V12.6376H11.2921V12.1932H12.181V6.41538H11.7365V5.52649Z" fill="white"/>
<path d="M5.95622 5.08205V5.52649H11.7365H12.6254V5.08205H5.95622Z" fill="white"/>
<path d="M5.95622 5.97094V6.85983H5.51177V9.08205H5.06733V9.52649H4.62288V5.97094H3.28955V12.6376H3.734V13.0846H4.17844H7.734V12.6376H8.62288V12.1932H9.95876V11.7487H10.4032V11.3043H10.8476V5.97094H5.95622Z" fill="white"/>
<path d="M4.62288 5.52649V5.08205H3.28955V5.52649H4.62288Z" fill="white"/>
</svg>
