<svg width="33" height="32" viewBox="0 0 33 32" fill="none" xmlns="http://www.w3.org/2000/svg">
<path d="M28.9126 0.00854492H32.1956C32.6275 0.00854492 32.9761 0.357142 32.9761 0.788985V4.07204H28.9126V0.00854492Z" fill="white"/>
<path d="M28.4121 8.13553V8.63553H28.9121H32.4756V31.2405C32.4756 31.3894 32.3564 31.5085 32.2076 31.5085H1.74359C1.59477 31.5085 1.47559 31.3894 1.47559 31.2405V0.776545C1.47559 0.627727 1.59477 0.508545 1.74359 0.508545H24.3486V4.07204V4.57204H24.8486H28.4121V8.13553Z" stroke="white" stroke-miterlimit="10"/>
<path d="M27.8298 13.7131V14.6019H26.941V20.8242H27.8298V19.0464H28.7187V13.7131H27.8298Z" fill="#F2F2F2"/>
<path d="M24.2743 12.8242V14.6019H25.1632V13.7131H26.941H27.8298V12.8242H24.2743Z" fill="#F2F2F2"/>
<path d="M26.941 20.8242H26.0521V21.7131H26.941V20.8242Z" fill="#F2F2F2"/>
<path d="M25.1632 21.7131H24.2743V22.6019H25.1632V21.7131Z" fill="#F2F2F2"/>
<path d="M18.0521 6.59687V8.37973H18.941V6.59687H18.0521Z" fill="#E0E0E0"/>
<path d="M18.047 8.37973H17.1581V9.26861H18.047V8.37973Z" fill="#E0E0E0"/>
<path d="M18.0521 4.81909H17.1581V6.59687H18.0521V4.81909Z" fill="#E0E0E0"/>
<path d="M14.4914 8.37973H15.3803V6.59687H14.4914V8.37973Z" fill="#E0E0E0"/>
<path d="M14.4914 8.37973H13.6025V9.26861H14.4914V8.37973Z" fill="#E0E0E0"/>
<path d="M14.4914 4.81909H13.6025V6.59687H14.4914V4.81909Z" fill="#E0E0E0"/>
<path d="M10.9359 8.37973H11.8248V6.59687H10.9359V8.37973Z" fill="#E0E0E0"/>
<path d="M10.9359 8.37973H10.047V9.26861H10.9359V8.37973Z" fill="#E0E0E0"/>
<path d="M10.9359 4.81909H10.047V6.59687H10.9359V4.81909Z" fill="#E0E0E0"/>
<path d="M25.1632 13.7131V14.6019H24.2743V12.8242V11.0464H22.4965V12.8242H23.3854V24.3797H21.6076V25.2686H20.7187V26.1626H18.0521V27.0515H9.1581V27.9404H20.7187V27.0515H22.4965V25.2686H24.2743V23.4908H25.1632V22.6019H24.2743V21.7131V15.4908H26.0521V14.6019H26.941V13.7131H25.1632Z" fill="#C7C7C7"/>
<path d="M8.26921 10.1575V11.0464H10.9359V10.1575H8.26921Z" fill="white"/>
<path d="M8.26921 11.9353V19.0464H9.1581V18.1575H10.047V13.7131H10.9359V11.9353H8.26921Z" fill="white"/>
<path d="M27.8298 19.0464V20.8242H28.7187V19.0464H27.8298Z" fill="#E0E0E0"/>
<path d="M27.8298 20.8242H26.941V21.7131H27.8298V20.8242Z" fill="#E0E0E0"/>
<path d="M27.8298 13.7131H26.941V14.6019H27.8298V13.7131Z" fill="#E0E0E0"/>
<path d="M25.1632 21.7131V22.6019H26.941V21.7131H26.0521H25.1632Z" fill="#E0E0E0"/>
<path d="M22.4965 11.0464H10.9359H8.26921H5.60254V11.9353H8.26921H10.9359H20.7187V22.6019H19.8298V23.4908H18.941V24.3797H16.2692V25.2686H14.4914V26.1626H7.38032V27.0515H9.1581H18.0521V26.1626H20.7187V25.2686H21.6076V24.3797H23.3854V12.8242H22.4965V11.0464Z" fill="#E0E0E0"/>
<path d="M10.9359 10.1575V11.0464H22.4965H24.2743V10.1575H10.9359Z" fill="#F2F2F2"/>
<path d="M10.9359 11.9353V13.7131H10.047V18.1575H9.1581V19.0464H8.26921V11.9353H5.60254V25.2686H6.49143V26.1626H7.38032H14.4914V25.2686H16.2692V24.3797H18.941V23.4908H19.8298V22.6019H20.7187V11.9353H10.9359Z" fill="#F2F2F2"/>
<path d="M8.26921 11.0464V10.1575H5.60254V11.0464H8.26921Z" fill="#F2F2F2"/>
</svg>
