<svg width="403" height="61" viewBox="0 0 403 61" fill="none" xmlns="http://www.w3.org/2000/svg">
<path d="M15.9457 52.4306L11.3657 45.3006H13.4857L16.8757 50.7006L20.2957 45.3006H22.4157L17.8057 52.4306V57.1706H15.9457V52.4306Z" fill="white"/>
<path d="M21.8057 52.8406C21.8057 50.4806 23.7157 48.5606 26.0857 48.5606C28.4557 48.5606 30.3657 50.4706 30.3657 52.8406C30.3657 55.2106 28.4557 57.1306 26.0857 57.1306C23.7157 57.1306 21.8057 55.2206 21.8057 52.8506V52.8406ZM28.6257 52.8406C28.6257 50.9406 27.6257 49.7206 26.0757 49.7206C24.5257 49.7206 23.5357 50.9406 23.5357 52.8406C23.5357 54.7406 24.5357 55.9506 26.0757 55.9506C27.6157 55.9506 28.6357 54.7306 28.6357 52.8406H28.6257Z" fill="white"/>
<path d="M32.5857 48.5506H34.2957V53.6906C34.2957 55.0806 34.7157 55.8106 35.8857 55.8106C37.0557 55.8406 38.0257 54.9206 38.0657 53.7506C38.0657 53.6406 38.0657 53.5406 38.0457 53.4306V48.5306H39.8057V57.1006H38.0957V55.7406C37.5757 56.7406 36.5257 57.3406 35.4057 57.2806C33.4057 57.2806 32.6657 56.1406 32.6657 54.1606L32.5857 48.5506Z" fill="white"/>
<path d="M42.5057 48.5506H44.2157V49.8806C44.6757 48.9706 45.6157 48.4106 46.6357 48.4306C46.7957 48.4206 46.9657 48.4206 47.1257 48.4306V50.2106C46.8857 50.1306 46.6457 50.1006 46.3957 50.1006C45.2457 50.0406 44.2657 50.9306 44.2057 52.0806C44.2057 52.2006 44.2057 52.3106 44.2157 52.4306V57.1206H42.5057V48.5506Z" fill="white"/>
<path d="M52.5657 48.5506H54.3657L56.1657 54.9706L58.1657 48.5506H59.8057L61.8057 54.9706L63.6457 48.5506H65.4257L62.7557 57.1206H61.0657L59.0657 50.8906L56.9957 57.1206H55.3357L52.5657 48.5506Z" fill="white"/>
<path d="M66.2657 52.8406C66.2657 50.4806 68.1757 48.5606 70.5457 48.5606C72.9157 48.5606 74.8257 50.4706 74.8257 52.8406C74.8257 55.2106 72.9157 57.1306 70.5457 57.1306C68.1757 57.1306 66.2657 55.2206 66.2657 52.8506V52.8406ZM73.0857 52.8406C73.0857 50.9406 72.0857 49.7206 70.5357 49.7206C68.9857 49.7206 67.9957 50.9406 67.9957 52.8406C67.9957 54.7406 68.9957 55.9506 70.5357 55.9506C72.0757 55.9506 73.0857 54.7306 73.0857 52.8406Z" fill="white"/>
<path d="M76.9857 48.5506H78.6957V49.8806C79.1557 48.9706 80.0957 48.4106 81.1157 48.4306C81.2757 48.4206 81.4457 48.4206 81.6057 48.4306V50.2106C81.3657 50.1306 81.1257 50.1006 80.8757 50.1006C79.7257 50.0406 78.7457 50.9306 78.6857 52.0806C78.6857 52.2006 78.6857 52.3106 78.6957 52.4306V57.1206H76.9857V48.5506Z" fill="white"/>
<path d="M83.0857 45.2706H84.8057V52.4306L88.3457 48.5506H90.5657L86.8057 52.4306L90.9657 57.1106H88.7357L84.8057 52.4306V57.0906H83.0957V45.2706H83.0857Z" fill="white"/>
<path d="M92.4857 48.5506H94.2057V49.8806C94.7857 48.9106 95.8557 48.3506 96.9857 48.4306C99.4057 48.4306 100.636 50.3106 100.636 52.8706C100.636 55.4306 99.3057 57.3206 96.9657 57.3206C95.8357 57.3806 94.7757 56.7806 94.2357 55.7806V60.2806H92.5157L92.4857 48.5506ZM98.8957 52.8306C98.8957 50.8806 98.0257 49.7106 96.4857 49.7106C94.9457 49.7106 94.1857 50.8906 94.1857 52.8606C94.1857 54.8306 94.9057 55.9706 96.5057 55.9706C98.1057 55.9706 98.8957 54.8406 98.8957 52.8306Z" fill="white"/>
<path d="M102.806 45.2706H104.526V57.1206H102.806V45.2706Z" fill="white"/>
<path d="M112.286 55.9206C111.576 56.8506 110.456 57.3606 109.286 57.2806C107.456 57.2806 106.576 56.2806 106.576 55.0006C106.576 52.5406 109.076 52.4906 110.836 52.1906C112.116 51.9806 112.296 51.8806 112.296 51.2806C112.296 50.3806 111.696 49.7506 110.536 49.7506C109.636 49.6106 108.806 50.2306 108.666 51.1206C108.656 51.2006 108.646 51.2806 108.646 51.3606H106.996C107.186 49.5006 108.176 48.3606 110.546 48.3606C112.916 48.3606 114.006 49.5006 114.006 51.7906V57.0906H112.296V55.9206H112.286ZM112.286 52.9206C110.526 53.3806 108.286 53.2406 108.286 54.7106C108.286 55.4606 108.926 55.9506 109.816 55.9506C111.066 56.0706 112.176 55.1606 112.296 53.9106C112.296 53.8306 112.306 53.7506 112.306 53.6706L112.286 52.9206Z" fill="white"/>
<path d="M123.726 53.9606C123.606 56.1106 122.246 57.2806 120.006 57.2806C117.276 57.2806 116.006 55.4706 116.006 52.8406C116.006 50.2106 117.416 48.3906 120.006 48.3906C122.246 48.3906 123.616 49.5906 123.736 51.7406H122.036C122.036 50.6706 121.166 49.8006 120.096 49.8006C120.056 49.8006 120.016 49.8006 119.986 49.8006C118.516 49.8006 117.696 50.8006 117.696 52.8006C117.696 54.8006 118.516 55.8006 119.986 55.8006C121.016 55.9006 121.926 55.1506 122.026 54.1206C122.026 54.0406 122.036 53.9706 122.026 53.8906L123.716 53.9606H123.726Z" fill="white"/>
<path d="M133.226 54.1906C133.086 55.9806 131.756 57.2806 129.496 57.2806C126.696 57.2806 125.496 55.5006 125.496 52.8406C125.496 50.1806 126.806 48.4306 129.476 48.4306C132.146 48.4306 133.246 50.1306 133.246 52.8706V53.1406H127.246C127.246 55.0006 128.116 55.9406 129.456 55.9406C130.496 56.0706 131.436 55.3306 131.556 54.2906C131.556 54.2706 131.556 54.2506 131.556 54.2306L133.216 54.1906H133.226ZM131.546 51.9806C131.676 50.8806 130.896 49.8906 129.806 49.7506C129.696 49.7406 129.586 49.7306 129.476 49.7406C128.196 49.7406 127.416 50.4706 127.236 51.9806H131.546Z" fill="white"/>
<path d="M136.326 54.9206C136.926 54.8906 137.436 55.3606 137.466 55.9606C137.466 55.9906 137.466 56.0306 137.466 56.0606C137.486 56.6706 137.016 57.1806 136.406 57.2006C136.376 57.2006 136.356 57.2006 136.326 57.2006C135.696 57.2006 135.186 56.6906 135.186 56.0606C135.186 55.4306 135.696 54.9206 136.326 54.9206Z" fill="white"/>
<path d="M144.476 45.2706H149.476C151.636 45.2706 152.856 46.4906 152.856 48.2006C152.876 49.2206 152.336 50.1706 151.446 50.6706C152.746 51.0906 153.636 52.3006 153.646 53.6706C153.646 55.7606 152.196 57.0706 149.896 57.0706H144.506L144.476 45.2706ZM149.066 50.2706C149.986 50.3806 150.816 49.7106 150.926 48.7906C150.926 48.7006 150.936 48.6206 150.926 48.5306C150.976 47.6506 150.296 46.8906 149.416 46.8406C149.326 46.8406 149.246 46.8406 149.156 46.8406H146.316V50.2206L149.056 50.2606L149.066 50.2706ZM149.756 55.6206C150.736 55.7406 151.626 55.0306 151.746 54.0506C151.746 53.9706 151.756 53.8806 151.756 53.8006C151.816 52.7506 151.006 51.8606 149.966 51.8006C149.896 51.8006 149.826 51.8006 149.756 51.8006H146.406V55.6106H149.756V55.6206Z" fill="white"/>
<path d="M163.016 54.1906C162.876 55.9806 161.546 57.2806 159.286 57.2806C156.486 57.2806 155.286 55.5006 155.286 52.8406C155.286 50.1806 156.606 48.3906 159.286 48.3906C161.966 48.3906 163.046 50.0906 163.046 52.8306V53.1006H157.046C157.096 54.9606 157.916 55.9006 159.256 55.9006C160.306 56.0206 161.256 55.2706 161.376 54.2206C161.376 54.2106 161.376 54.2006 161.376 54.1906H163.016ZM161.336 51.9806C161.466 50.8806 160.686 49.8906 159.596 49.7506C159.496 49.7406 159.386 49.7306 159.276 49.7406C157.996 49.7406 157.206 50.4706 157.036 51.9806H161.336Z" fill="white"/>
<path d="M165.496 49.9606H164.296V48.5506H165.496V46.3506H167.206V48.5506H169.206V49.9606H167.206V54.4306C167.116 55.0206 167.516 55.5806 168.116 55.6806C168.216 55.7006 168.326 55.7006 168.426 55.6806C168.706 55.6806 168.986 55.6506 169.256 55.6006V57.1206C168.886 57.2006 168.506 57.2406 168.126 57.2506C166.476 57.2506 165.496 56.4506 165.496 54.5306V49.9606Z" fill="white"/>
<path d="M171.156 49.9606H169.956V48.5506H171.156V46.3506H172.876V48.5506H174.876V49.9606H172.876V54.4306C172.876 55.2906 173.286 55.6806 174.086 55.6806C174.366 55.6806 174.646 55.6506 174.926 55.6006V57.1206C174.546 57.2006 174.166 57.2406 173.786 57.2506C172.136 57.2506 171.156 56.4506 171.156 54.5306V49.9606Z" fill="white"/>
<path d="M183.866 54.1906C183.726 55.9806 182.396 57.2806 180.136 57.2806C177.336 57.2806 176.136 55.5006 176.136 52.8406C176.136 50.1806 177.466 48.3906 180.136 48.3906C182.806 48.3906 183.896 50.0906 183.896 52.8306V53.1006H177.896C177.896 54.9606 178.766 55.9006 180.106 55.9006C181.146 56.0306 182.086 55.2906 182.206 54.2506C182.206 54.2306 182.206 54.2106 182.206 54.1906H183.866ZM182.186 51.9806C182.316 50.8806 181.536 49.8906 180.446 49.7506C180.346 49.7406 180.236 49.7306 180.126 49.7406C178.836 49.7406 178.056 50.4706 177.876 51.9806H182.186Z" fill="white"/>
<path d="M186.296 48.5506H188.006V49.8806C188.466 48.9706 189.406 48.4106 190.426 48.4306C190.596 48.4206 190.756 48.4206 190.926 48.4306V50.2106C190.686 50.1306 190.436 50.1006 190.186 50.1006C189.036 50.0406 188.056 50.9306 187.996 52.0806C187.996 52.2006 187.996 52.3106 188.006 52.4306V57.1206H186.296V48.5506Z" fill="white"/>
<path d="M191.956 54.9206C192.556 54.8906 193.066 55.3606 193.096 55.9606C193.096 55.9906 193.096 56.0306 193.096 56.0606C193.116 56.6706 192.646 57.1806 192.036 57.2006C192.006 57.2006 191.986 57.2006 191.956 57.2006C191.326 57.2006 190.816 56.6906 190.816 56.0606C190.816 55.4306 191.326 54.9206 191.956 54.9206Z" fill="white"/>
<path d="M13.3356 37.4806C13.1856 37.2306 13.0356 36.9606 12.9056 36.6906C12.7656 36.4306 12.6456 36.1606 12.5456 35.8806C10.6056 30.7806 8.69559 25.7306 6.80559 20.7206C4.91559 15.7106 2.97559 10.6606 0.975586 5.55062C0.985586 5.48062 0.985586 5.42062 0.975586 5.35062C0.975586 5.29062 0.975586 5.23062 0.975586 5.17062C0.975586 4.75062 1.24559 4.54062 1.80559 4.54062H9.04559C9.57559 4.55062 10.0256 4.92062 10.1556 5.43062L17.0456 25.9206L23.4156 5.43062C23.5756 4.89062 24.0856 4.54062 24.6456 4.57062H31.9656C32.2256 4.55062 32.4756 4.62062 32.6956 4.76062C32.8356 4.89062 32.9156 5.08062 32.9056 5.27062C32.9056 5.35062 32.9056 5.44062 32.9056 5.52062V5.58062L28.9056 17.0606L31.9056 25.9006L39.1856 5.43062C39.3456 4.89062 39.8656 4.53062 40.4256 4.57062H47.5056C47.7656 4.55062 48.0256 4.61062 48.2356 4.76062C48.3856 4.89062 48.4656 5.08062 48.4556 5.27062C48.4556 5.35062 48.4556 5.44062 48.4556 5.52062V5.58062C47.4556 8.22062 46.3856 10.8606 45.3256 13.4806L42.1156 21.3606C41.0456 23.9806 39.9756 26.6106 38.9256 29.2406C37.8756 31.8706 36.8056 34.4306 35.8056 37.1006C35.7156 37.3106 35.5756 37.5006 35.4056 37.6506C35.1956 37.8506 34.9256 37.9606 34.6356 37.9506H29.1256C28.8656 37.9706 28.5956 37.9006 28.3756 37.7606C28.1956 37.6406 28.0656 37.4606 28.0056 37.2606L24.4456 27.9006C23.9356 29.2606 23.4456 30.6006 22.9356 31.9006C22.4256 33.2006 21.9356 34.5506 21.4556 35.9006C21.3756 36.1106 21.2956 36.3306 21.1956 36.5606C21.1056 36.7906 20.9856 37.0106 20.8456 37.2106C20.7256 37.4106 20.5656 37.5806 20.3856 37.7206C20.2156 37.8606 20.0056 37.9306 19.7856 37.9206H14.2756C13.9056 37.9806 13.5256 37.8106 13.3356 37.4806Z" fill="white"/>
<path d="M47.6656 23.6906C47.6656 21.0506 48.3456 18.4506 49.6656 16.1606C50.3056 15.0706 51.0756 14.0606 51.9656 13.1606C52.8656 12.2706 53.8656 11.5106 54.9656 10.8806C57.2556 9.57062 59.8456 8.88062 62.4856 8.88062C64.4556 8.87062 66.4056 9.25062 68.2256 10.0206C69.9756 10.7406 71.5656 11.8006 72.9056 13.1406C74.2456 14.4806 75.3156 16.0706 76.0556 17.8206C77.3456 20.9206 77.5656 24.3706 76.6856 27.6106C75.6856 31.3306 73.2556 34.5006 69.9256 36.4306C67.6656 37.7406 65.0956 38.4306 62.4856 38.4306C61.1356 38.4306 59.7856 38.2606 58.4856 37.9106C57.2456 37.5806 56.0556 37.0906 54.9456 36.4406C52.7556 35.1706 50.9356 33.3506 49.6656 31.1606C49.0256 30.0506 48.5256 28.8606 48.1856 27.6206C47.8356 26.3406 47.6656 25.0206 47.6656 23.6906ZM55.8756 23.6906C55.8756 24.6406 56.0256 25.5806 56.3356 26.4706C56.6256 27.2906 57.0656 28.0506 57.6456 28.7106C58.1956 29.3406 58.8856 29.8506 59.6456 30.2006C60.4956 30.5806 61.4256 30.7706 62.3556 30.7506C63.2656 30.7606 64.1656 30.5806 64.9956 30.2006C65.7656 29.8606 66.4456 29.3506 66.9956 28.7106C67.5856 28.0506 68.0256 27.2706 68.3056 26.4306C68.8956 24.6306 68.8956 22.7006 68.3056 20.9006C68.0356 20.0606 67.6056 19.2906 67.0456 18.6106C66.5056 17.9506 65.8156 17.4206 65.0456 17.0506C64.2256 16.6506 63.3156 16.4606 62.4056 16.4706C61.4656 16.4506 60.5456 16.6506 59.6956 17.0506C58.9256 17.4206 58.2456 17.9506 57.6956 18.6106C57.1256 19.2906 56.6756 20.0606 56.3856 20.9006C56.0556 21.7906 55.8856 22.7406 55.8756 23.6906Z" fill="white"/>
<path d="M81.6856 11.0406C81.6856 10.7906 81.7456 10.5406 81.8556 10.3106C81.9556 10.1006 82.0956 9.91062 82.2756 9.76062C82.6356 9.52062 83.0556 9.38062 83.4856 9.38062H86.8856C87.1156 9.37062 87.3556 9.42062 87.5556 9.54062C87.7256 9.64062 87.8656 9.78062 87.9756 9.94062C88.0956 10.1206 88.1856 10.3006 88.2656 10.5006C88.3456 10.7206 88.4456 10.9306 88.5656 11.1306L88.7556 11.5706C88.8356 11.8106 88.9356 12.0606 89.0456 12.3406C89.1556 12.6206 89.2456 12.8806 89.3456 13.1306C89.4456 13.3806 89.5056 13.5306 89.5356 13.6106C89.9856 13.1106 90.4156 12.6106 90.8356 12.0506C91.2356 11.5106 91.6756 11.0006 92.1456 10.5306C92.6056 10.0906 93.1256 9.72062 93.6956 9.43062C94.3156 9.12062 95.0056 8.97062 95.6956 8.98062C96.4256 8.98062 97.1456 9.03062 97.8656 9.16062C98.4856 9.27062 99.0956 9.45062 99.6756 9.69062C100.266 9.93062 100.836 10.2306 101.376 10.5806C101.936 10.9406 102.546 11.3606 103.206 11.8406C104.206 12.3906 104.436 13.2206 103.796 14.3106L101.806 17.7506C101.566 18.1606 101.166 18.4606 100.706 18.5806C100.226 18.6806 99.7156 18.6106 99.2856 18.3806C98.7056 17.8006 98.0256 17.3206 97.2856 16.9706C96.5656 16.6606 95.7856 16.5006 95.0056 16.5106C94.4856 16.5006 93.9556 16.5806 93.4656 16.7606C93.0256 16.9206 92.6156 17.1606 92.2556 17.4606C91.8856 17.7806 91.5456 18.1506 91.2556 18.5406C90.9456 18.9606 90.6256 19.4206 90.3156 19.9306V36.2206C90.3456 36.6906 90.1956 37.1506 89.8956 37.5106C89.5156 37.8406 89.0156 38.0006 88.5156 37.9506H83.4556C82.6156 38.0806 81.8256 37.5006 81.6956 36.6606C81.6756 36.5106 81.6756 36.3606 81.6956 36.2206V11.0406H81.6856Z" fill="white"/>
<path d="M107.586 1.91062C107.586 1.72062 107.666 1.53062 107.776 1.37062C107.916 1.20062 108.096 1.08062 108.306 1.02062C108.636 0.930621 108.966 0.890621 109.306 0.900621H114.686C114.926 0.890621 115.176 0.940621 115.396 1.04062C115.576 1.13062 115.726 1.25062 115.846 1.41062C115.956 1.55062 116.026 1.72062 116.066 1.90062C116.106 2.06062 116.126 2.22062 116.126 2.38062V19.0306L124.226 10.0306C124.566 9.62062 125.076 9.38062 125.616 9.38062H132.526C133.356 9.38062 133.766 9.70062 133.766 10.3806C133.766 10.5206 133.746 10.6506 133.686 10.7806C133.596 10.9406 133.486 11.1006 133.356 11.2306L124.116 21.0006L135.806 35.9106H135.756C135.936 36.0706 136.076 36.2806 136.176 36.5006C136.246 36.6706 136.286 36.8606 136.296 37.0506C136.336 37.3206 136.226 37.5906 136.016 37.7606C135.766 37.9106 135.466 37.9706 135.176 37.9506H127.566C127.296 37.9506 127.046 37.8406 126.846 37.6606C126.566 37.4006 126.316 37.1006 126.106 36.7806L118.746 26.3706L116.256 28.9506V36.2206C116.256 36.3806 116.236 36.5406 116.196 36.6906C116.156 36.8906 116.086 37.0906 115.976 37.2706C115.856 37.4606 115.696 37.6306 115.506 37.7506C115.276 37.9006 115.016 37.9706 114.746 37.9506H109.096C108.846 37.9506 108.606 37.8806 108.396 37.7406C108.216 37.6106 108.056 37.4506 107.936 37.2606C107.836 37.1006 107.756 36.9306 107.696 36.7506C107.656 36.6606 107.626 36.5706 107.616 36.4706L107.586 1.91062Z" fill="white"/>
<path d="M193.956 34.4306C193.556 34.8306 193.106 35.2706 192.616 35.7306C192.116 36.2106 191.586 36.6506 191.016 37.0406C190.426 37.4406 189.796 37.7806 189.126 38.0406C188.426 38.3006 187.686 38.4406 186.936 38.4306C183.126 38.4706 179.476 36.9206 176.866 34.1506C175.616 32.7806 174.626 31.1906 173.966 29.4506C172.576 25.7006 172.576 21.5806 173.966 17.8306C174.626 16.1006 175.616 14.5106 176.866 13.1506C178.116 11.8106 179.626 10.7506 181.306 10.0306C183.086 9.26062 184.996 8.87062 186.936 8.89062C187.706 8.89062 188.466 9.00062 189.196 9.25062C189.856 9.48062 190.486 9.79062 191.066 10.1706C191.626 10.5406 192.136 10.9706 192.616 11.4406C193.096 11.9206 193.536 12.3806 193.956 12.8306V2.58062C193.946 2.14062 194.106 1.70062 194.396 1.37062C194.746 1.02062 195.226 0.830621 195.716 0.870621H200.806C201.016 0.870621 201.226 0.920621 201.426 1.00062C201.646 1.08062 201.846 1.20062 202.026 1.35062C202.206 1.50062 202.346 1.68062 202.456 1.89062C202.576 2.10062 202.636 2.34062 202.626 2.58062V36.2206C202.626 37.3806 202.026 37.9506 200.806 37.9506H196.396C196.156 37.9606 195.916 37.9306 195.696 37.8406C195.536 37.7706 195.386 37.6506 195.286 37.5106C195.156 37.3506 195.056 37.1706 194.976 36.9806C194.886 36.7606 194.776 36.5106 194.646 36.2206L193.956 34.4306ZM181.026 23.6906C181.026 24.6406 181.176 25.5806 181.486 26.4706C181.766 27.3006 182.216 28.0606 182.806 28.7106C183.386 29.3406 184.086 29.8506 184.866 30.2006C185.706 30.5806 186.616 30.7606 187.536 30.7506C188.466 30.7506 189.386 30.5806 190.246 30.2406C191.066 29.9106 191.826 29.4206 192.466 28.8106C193.096 28.1906 193.606 27.4606 193.976 26.6606C194.366 25.8206 194.586 24.9206 194.626 24.0006V23.6906C194.626 22.7506 194.446 21.8106 194.086 20.9406C193.736 20.0906 193.226 19.3106 192.586 18.6506C191.946 17.9906 191.176 17.4606 190.336 17.0906C189.456 16.7006 188.496 16.5006 187.536 16.5106C186.616 16.5006 185.696 16.6906 184.866 17.0906C184.076 17.4606 183.376 17.9906 182.806 18.6506C182.226 19.3206 181.786 20.1006 181.496 20.9406C181.186 21.8206 181.026 22.7506 181.026 23.6906Z" fill="white"/>
<path d="M259.636 34.5306C258.336 35.7606 256.836 36.7406 255.186 37.4306C253.516 38.1106 251.736 38.4506 249.936 38.4306C245.976 38.4506 242.156 36.9306 239.296 34.1906C237.906 32.8306 236.786 31.2206 236.016 29.4306C235.206 27.5906 234.796 25.6106 234.806 23.6006C234.796 21.0406 235.436 18.5306 236.666 16.2906C237.256 15.2006 237.986 14.1906 238.826 13.2906C239.666 12.3906 240.616 11.6106 241.666 10.9706C243.866 9.62062 246.406 8.91062 248.986 8.92062C250.206 8.92062 251.426 9.08062 252.606 9.41062C253.756 9.73062 254.866 10.2006 255.896 10.8106C257.946 12.0106 259.656 13.7006 260.896 15.7306C261.516 16.7206 261.996 17.8006 262.326 18.9206C262.666 20.0606 262.836 21.2306 262.836 22.4206V24.3306C262.836 24.7506 262.726 25.1606 262.496 25.5106C262.236 25.8406 261.856 26.0606 261.446 26.1206C260.736 26.2506 260.016 26.3106 259.296 26.2906H243.096C243.206 27.1506 243.516 27.9806 244.006 28.7006C244.436 29.3106 244.976 29.8306 245.596 30.2406C246.186 30.6106 246.826 30.8906 247.506 31.0606C248.126 31.2206 248.776 31.3006 249.416 31.3106C249.976 31.3106 250.536 31.2506 251.086 31.1406C251.646 31.0306 252.196 30.8806 252.736 30.6906C253.236 30.5106 253.726 30.2906 254.196 30.0406C254.586 29.8306 254.946 29.5706 255.266 29.2606C255.456 29.1006 255.666 28.9506 255.886 28.8206C256.056 28.7206 256.246 28.6706 256.436 28.6706C256.656 28.6706 256.866 28.7506 257.036 28.8806C257.286 29.0506 257.516 29.2506 257.726 29.4606L260.106 32.1606C260.246 32.3106 260.356 32.4906 260.426 32.6906C260.466 32.8506 260.486 33.0106 260.486 33.1706C260.486 33.4506 260.406 33.7206 260.246 33.9506C260.076 34.1706 259.866 34.3706 259.636 34.5306ZM248.806 15.7906C248.226 15.7906 247.646 15.9106 247.106 16.1406C246.546 16.3706 246.036 16.6906 245.566 17.0706C245.086 17.4706 244.646 17.9106 244.266 18.4006C243.906 18.8706 243.596 19.3806 243.336 19.9106H254.806C254.516 19.3506 254.176 18.8006 253.806 18.2906C253.446 17.8006 253.026 17.3606 252.546 16.9806C252.056 16.6006 251.516 16.3106 250.926 16.1106C250.246 15.8906 249.526 15.7806 248.806 15.7906Z" fill="white"/>
<path d="M301.806 4.92062C301.796 4.53062 301.966 4.16062 302.276 3.92062C302.676 3.63062 303.116 3.41062 303.586 3.25062L308.686 1.43062H309.086C309.526 1.37062 309.956 1.56062 310.206 1.92062C310.416 2.31062 310.506 2.75062 310.486 3.19062V10.2806H314.236C314.666 10.2606 315.086 10.4106 315.406 10.7006C315.726 11.0506 315.896 11.5206 315.856 11.9906V16.3306C315.896 16.8306 315.736 17.3306 315.406 17.7106C315.096 18.0106 314.666 18.1706 314.236 18.1506H310.486V36.2406C310.516 36.7206 310.336 37.2006 309.986 37.5306C309.596 37.8406 309.116 38.0006 308.616 37.9706H303.536C302.696 38.0906 301.926 37.5106 301.806 36.6706C301.786 36.5206 301.786 36.3706 301.806 36.2206V18.1306H300.166C299.006 18.1306 298.436 17.5206 298.436 16.3106V11.9706C298.326 11.1406 298.906 10.3706 299.736 10.2606C299.876 10.2406 300.026 10.2406 300.166 10.2606H301.806V4.92062Z" fill="white"/>
<path d="M345.926 37.5706C345.746 37.7306 345.536 37.8406 345.306 37.8906C345.106 37.9306 344.896 37.9506 344.686 37.9606H341.286C341.046 37.9606 340.806 37.9106 340.586 37.8106C340.396 37.7106 340.236 37.5806 340.096 37.4206C339.956 37.2506 339.846 37.0606 339.756 36.8606C339.666 36.6506 339.596 36.4306 339.536 36.2106L338.806 33.3306C338.516 33.8806 338.186 34.4106 337.806 34.9106C337.346 35.5406 336.796 36.1006 336.176 36.5806C335.456 37.1306 334.666 37.5606 333.816 37.8806C332.806 38.2406 331.736 38.4206 330.666 38.4006C327.506 38.4506 324.496 37.1006 322.436 34.7106C321.436 33.5306 320.656 32.1706 320.156 30.7106C319.606 29.1506 319.336 27.5006 319.346 25.8406V11.1106C319.316 10.6506 319.446 10.1906 319.716 9.82062C320.026 9.50062 320.456 9.34062 320.896 9.38062H326.096C326.566 9.33062 327.036 9.45062 327.426 9.71062C327.716 10.0706 327.846 10.5306 327.786 10.9806V25.6406C327.786 26.2806 327.936 26.9106 328.226 27.4806C328.516 28.0606 328.906 28.5806 329.376 29.0106C329.856 29.4506 330.416 29.8106 331.016 30.0606C331.606 30.3106 332.226 30.4406 332.866 30.4406C333.446 30.4306 334.016 30.3006 334.546 30.0606C335.126 29.8106 335.666 29.4706 336.146 29.0606C336.626 28.6306 337.036 28.1206 337.346 27.5506C337.656 26.9906 337.816 26.3606 337.816 25.7206V11.0506C337.816 10.7906 337.866 10.5206 337.966 10.2806C338.046 10.0406 338.196 9.83062 338.406 9.69062C338.576 9.58062 338.756 9.50062 338.956 9.45062C339.146 9.40062 339.346 9.38062 339.546 9.38062H344.636C345.146 9.33062 345.646 9.50062 346.026 9.85062C346.326 10.2006 346.476 10.6506 346.456 11.1106V36.2906C346.456 36.5706 346.396 36.8406 346.266 37.0806C346.146 37.3106 345.966 37.5106 345.736 37.6406L345.926 37.5706Z" fill="white"/>
<path d="M351.906 11.0406C351.906 10.7906 351.966 10.5406 352.076 10.3106C352.176 10.1006 352.316 9.91062 352.496 9.76062C352.856 9.54062 353.276 9.42062 353.706 9.43062H357.106C357.336 9.42062 357.576 9.47062 357.776 9.59062C357.946 9.69062 358.086 9.83062 358.196 9.99062C358.316 10.1706 358.406 10.3506 358.486 10.5506C358.576 10.7706 358.676 10.9806 358.796 11.1806C358.796 11.2406 358.886 11.3906 358.976 11.6206C359.066 11.8506 359.156 12.1106 359.266 12.3906C359.376 12.6706 359.466 12.9306 359.566 13.1806C359.666 13.4306 359.726 13.5806 359.756 13.6606C360.206 13.1606 360.636 12.6606 361.056 12.1006C361.456 11.5606 361.896 11.0506 362.366 10.5806C362.826 10.1206 363.346 9.73062 363.926 9.43062C364.546 9.12062 365.236 8.97062 365.926 8.98062C366.656 8.98062 367.376 9.03062 368.096 9.16062C368.716 9.27062 369.326 9.45062 369.906 9.69062C370.496 9.93062 371.066 10.2306 371.606 10.5806C372.166 10.9406 372.786 11.3606 373.446 11.8406C374.236 12.1606 374.626 13.0606 374.306 13.8606C374.236 14.0306 374.146 14.1806 374.026 14.3106L371.976 17.8006C371.736 18.2106 371.336 18.5106 370.876 18.6306C370.396 18.7306 369.896 18.6606 369.456 18.4306C368.876 17.8506 368.196 17.3706 367.456 17.0206C366.736 16.7006 365.956 16.5506 365.176 16.5606C364.656 16.5506 364.126 16.6306 363.636 16.8106C363.196 16.9706 362.796 17.2106 362.436 17.5106C362.066 17.8306 361.726 18.1906 361.436 18.5906C361.126 19.0106 360.806 19.4706 360.496 19.9806V36.2206C360.526 36.6906 360.376 37.1506 360.076 37.5106C359.696 37.8406 359.196 38.0006 358.696 37.9506H353.636C352.796 38.0806 352.006 37.5006 351.876 36.6606C351.856 36.5106 351.856 36.3606 351.876 36.2206L351.906 11.0406Z" fill="white"/>
<path d="M399.566 34.5306C398.266 35.7606 396.756 36.7406 395.106 37.4306C393.446 38.1106 391.666 38.4506 389.866 38.4306C385.906 38.4506 382.086 36.9306 379.226 34.1906C377.826 32.8306 376.706 31.2206 375.936 29.4306C375.116 27.5806 374.706 25.5806 374.726 23.5606C374.726 21.0106 375.356 18.4906 376.576 16.2506C377.166 15.1606 377.896 14.1506 378.736 13.2506C381.366 10.4506 385.046 8.86062 388.896 8.88062C390.116 8.88062 391.336 9.04062 392.516 9.37062C394.826 10.0206 396.926 11.2406 398.636 12.9306C399.476 13.7706 400.196 14.7206 400.806 15.7406C401.416 16.7406 401.896 17.8106 402.236 18.9306C402.596 20.0606 402.786 21.2406 402.806 22.4306V24.3406C402.806 24.7606 402.686 25.1706 402.456 25.5206C402.206 25.8406 401.856 26.0506 401.456 26.1306C400.746 26.2606 400.036 26.3206 399.316 26.3006H383.006C383.116 27.1606 383.426 27.9906 383.916 28.7106C384.336 29.3206 384.876 29.8406 385.496 30.2506C386.086 30.6206 386.736 30.9006 387.416 31.0706C388.036 31.2306 388.686 31.3106 389.326 31.3206C389.886 31.3206 390.436 31.2606 390.986 31.1506C391.546 31.0406 392.106 30.8906 392.646 30.7006C393.146 30.5206 393.636 30.3006 394.106 30.0506C394.496 29.8406 394.856 29.5806 395.176 29.2706C395.366 29.1006 395.576 28.9606 395.796 28.8306C395.966 28.7306 396.156 28.6806 396.346 28.6806C396.556 28.6806 396.766 28.7606 396.936 28.8906C397.186 29.0606 397.416 29.2506 397.626 29.4706L400.016 32.1706C400.156 32.3206 400.256 32.5006 400.326 32.7006C400.376 32.8606 400.396 33.0206 400.396 33.1806C400.396 33.4606 400.316 33.7406 400.146 33.9606C399.986 34.1806 399.786 34.3706 399.566 34.5306ZM388.736 15.7906C388.156 15.7906 387.576 15.9106 387.036 16.1406C386.486 16.3806 385.966 16.6906 385.496 17.0706C385.016 17.4706 384.586 17.9306 384.206 18.4306C383.846 18.9006 383.536 19.4106 383.276 19.9406H394.806C394.516 19.3706 394.186 18.8306 393.806 18.3206C393.446 17.8306 393.016 17.3906 392.546 17.0106C392.056 16.6306 391.516 16.3406 390.926 16.1406C390.226 15.9006 389.476 15.7806 388.736 15.7906Z" fill="white"/>
<path d="M159.376 32.4406H153.886V37.9306H159.376V32.4406Z" fill="white"/>
<path d="M223.696 9.38062H218.206V14.8706H223.696V9.38062Z" fill="white"/>
<path d="M267.716 9.42062H262.226V14.9106H267.716V9.42062Z" fill="white"/>
<path d="M274.926 14.8506H267.556V36.2206C267.466 37.0906 268.086 37.8706 268.956 37.9606C269.096 37.9806 269.236 37.9706 269.376 37.9506H274.466C274.666 37.9506 274.866 37.9306 275.056 37.8906C275.256 37.8306 275.446 37.7506 275.616 37.6406C275.816 37.4906 275.966 37.2906 276.046 37.0506C276.146 36.8106 276.196 36.5506 276.196 36.2906V21.6606C276.236 21.0006 276.426 20.3606 276.746 19.7806C277.056 19.2206 277.466 18.7106 277.936 18.2806C278.396 17.8606 278.926 17.5306 279.496 17.2806C280.016 17.0506 280.576 16.9306 281.146 16.9206C281.786 16.9206 282.416 17.0506 283.006 17.3006C283.606 17.5406 284.156 17.8806 284.636 18.3006C285.166 18.7906 285.586 19.3806 285.886 20.0406C286.116 20.5506 286.236 21.1106 286.236 21.6706V36.3606C286.176 36.8106 286.306 37.2706 286.596 37.6306C286.986 37.8906 287.456 38.0006 287.916 37.9506H293.116C293.556 37.9906 293.996 37.8306 294.296 37.5106C294.566 37.1406 294.696 36.6806 294.666 36.2206V21.4806C294.676 19.8306 294.406 18.1806 293.856 16.6206C293.356 15.1606 292.576 13.8006 291.576 12.6206C290.586 11.4806 289.376 10.5606 288.006 9.93062C286.546 9.25062 284.966 8.91062 283.356 8.93062C282.276 8.91062 281.206 9.09062 280.196 9.46062C279.346 9.77062 278.556 10.2106 277.836 10.7606C277.216 11.2406 276.666 11.8006 276.206 12.4306C275.856 12.9006 275.546 13.4006 275.276 13.9206C275.246 13.9806 275.216 14.0406 275.196 14.1106L274.926 14.8506Z" fill="white"/>
<path d="M223.646 14.8306L220.196 25.8306C220.096 25.5606 219.936 25.1106 219.716 24.4706C219.496 23.8306 219.246 23.0806 218.976 22.2206C218.706 21.3606 218.396 20.4106 218.066 19.3906C217.736 18.3706 217.396 17.3206 217.066 16.2806C216.736 15.2406 216.406 14.2206 216.066 13.2306C215.726 12.2406 215.476 11.3506 215.216 10.5506C215.116 10.1906 214.896 9.87062 214.596 9.65062C214.306 9.44062 213.956 9.33062 213.596 9.34062H207.806C207.106 9.34062 206.656 9.56062 206.466 9.99062C206.286 10.5206 206.346 11.0906 206.636 11.5706L217.006 36.9506C217.116 37.2306 217.306 37.4806 217.556 37.6606C217.956 37.8606 218.396 37.9506 218.836 37.9106H221.506C221.866 37.9306 222.216 37.8306 222.506 37.6306C222.736 37.4406 222.936 37.2106 223.086 36.9506L232.326 14.7906L223.646 14.8306Z" fill="white"/>
<path d="M170.266 36.9406L158.456 6.48062L157.896 5.19062C157.776 5.04062 157.636 4.90062 157.486 4.78062C157.306 4.63062 157.076 4.54062 156.836 4.54062H151.076C150.946 4.54062 150.816 4.57062 150.696 4.62062C150.556 4.67062 150.426 4.74062 150.306 4.83062C150.196 4.91062 150.086 5.02062 150.006 5.13062C149.936 5.21062 149.886 5.31062 149.856 5.42062L137.646 37.0506C137.526 37.3506 137.556 37.5806 137.746 37.7306C137.946 37.8806 138.196 37.9606 138.456 37.9506H145.086C145.616 37.9806 146.096 37.6406 146.236 37.1206L147.106 34.8406C147.396 34.0806 147.686 33.3206 147.966 32.5506H153.966V25.3306H150.496C150.786 24.5706 151.076 23.7406 151.366 22.8706C151.656 22.0006 151.946 21.1006 152.236 20.2006C152.526 19.3006 152.806 18.4106 153.096 17.5206C153.386 16.6306 153.676 15.8106 153.966 15.0506L161.656 37.1206C161.736 37.3706 161.886 37.6006 162.096 37.7606C162.336 37.9006 162.616 37.9706 162.896 37.9506H169.356C169.666 37.9906 169.976 37.8806 170.206 37.6706C170.376 37.4606 170.396 37.1706 170.266 36.9406Z" fill="white"/>
</svg>
