<svg width="172" height="17" viewBox="0 0 172 17" fill="none" xmlns="http://www.w3.org/2000/svg">
<path d="M6.06999 16.168C6.0061 16.0615 5.94221 15.9465 5.88684 15.8315C5.82721 15.7208 5.7761 15.6058 5.73351 15.4866C4.90723 13.3144 4.09374 11.1635 3.28875 9.02967C2.48377 6.89583 1.6575 4.74496 0.805664 2.56853C0.809923 2.53871 0.809923 2.51316 0.805664 2.48334C0.805664 2.45779 0.805664 2.43223 0.805664 2.40668C0.805664 2.22779 0.920662 2.13835 1.15918 2.13835H4.24281C4.46854 2.14261 4.6602 2.3002 4.71557 2.51742L7.65013 11.2444L10.3632 2.51742C10.4314 2.28742 10.6486 2.13835 10.8871 2.15113H14.0048C14.1155 2.14261 14.222 2.17242 14.3157 2.23205C14.3753 2.28742 14.4094 2.36835 14.4052 2.44927C14.4052 2.48334 14.4052 2.52168 14.4052 2.55575V2.5813L12.7015 7.47082L13.9792 11.2359L17.0799 2.51742C17.1481 2.28742 17.3695 2.13409 17.6081 2.15113H20.6235C20.7343 2.14261 20.845 2.16817 20.9345 2.23205C20.9983 2.28742 21.0324 2.36835 21.0282 2.44927C21.0282 2.48334 21.0282 2.52168 21.0282 2.55575V2.5813C20.6022 3.70572 20.1465 4.83014 19.695 5.94604L18.3278 9.30226C17.8721 10.4182 17.4164 11.5383 16.9692 12.6585C16.522 13.7786 16.0662 14.869 15.6403 16.0062C15.602 16.0956 15.5424 16.1765 15.47 16.2404C15.3805 16.3256 15.2655 16.3725 15.142 16.3682H12.7952C12.6845 16.3767 12.5695 16.3469 12.4758 16.2873C12.3991 16.2362 12.3437 16.1595 12.3182 16.0743L10.8019 12.0877C10.5847 12.667 10.376 13.2377 10.1588 13.7914C9.94156 14.3451 9.73286 14.9201 9.52842 15.4951C9.49435 15.5845 9.46028 15.6782 9.41769 15.7762C9.37935 15.8741 9.32824 15.9678 9.26862 16.053C9.21751 16.1382 9.14936 16.2106 9.07269 16.2702C9.00029 16.3299 8.91085 16.3597 8.81715 16.3554H6.47035C6.31276 16.381 6.15091 16.3086 6.06999 16.168Z" fill="white"/>
<path d="M20.6917 10.2946C20.6917 9.17022 20.9813 8.06284 21.5435 7.08749C21.8161 6.62325 22.1441 6.19307 22.5231 5.80975C22.9064 5.43068 23.3324 5.10699 23.8009 4.83866C24.7762 4.28071 25.8793 3.98683 27.0038 3.98683C27.8428 3.98257 28.6733 4.14442 29.4485 4.47237C30.1939 4.77903 30.8711 5.2305 31.4418 5.80123C32.0125 6.37196 32.4683 7.04916 32.7834 7.79452C33.3329 9.11485 33.4266 10.5843 33.0518 11.9642C32.6258 13.5486 31.5909 14.8988 30.1726 15.7208C29.21 16.2788 28.1154 16.5726 27.0038 16.5726C26.4288 16.5726 25.8538 16.5002 25.3001 16.3512C24.772 16.2106 24.2651 16.0019 23.7923 15.7251C22.8596 15.1842 22.0844 14.409 21.5435 13.4762C21.2709 13.0035 21.058 12.4966 20.9132 11.9685C20.7641 11.4233 20.6917 10.8611 20.6917 10.2946ZM24.1885 10.2946C24.1885 10.6993 24.2523 11.0996 24.3844 11.4787C24.5079 11.8279 24.6953 12.1516 24.9423 12.4327C25.1766 12.7011 25.4705 12.9183 25.7942 13.0674C26.1562 13.2292 26.5523 13.3101 26.9484 13.3016C27.336 13.3059 27.7193 13.2292 28.0728 13.0674C28.4008 12.9225 28.6904 12.7053 28.9246 12.4327C29.1759 12.1516 29.3633 11.8194 29.4826 11.4617C29.7339 10.695 29.7339 9.87298 29.4826 9.10634C29.3676 8.74857 29.1844 8.42061 28.9459 8.13099C28.7159 7.84988 28.4221 7.62415 28.0941 7.46656C27.7449 7.29619 27.3573 7.21527 26.9697 7.21953C26.5693 7.21101 26.1775 7.29619 25.8154 7.46656C25.4875 7.62415 25.1979 7.84988 24.9636 8.13099C24.7208 8.42061 24.5292 8.74857 24.4057 9.10634C24.2651 9.4854 24.1927 9.89002 24.1885 10.2946Z" fill="white"/>
<path d="M35.1813 4.90681C35.1813 4.80033 35.2069 4.69385 35.2537 4.59589C35.2963 4.50644 35.356 4.42552 35.4326 4.36163C35.586 4.25941 35.7648 4.19978 35.948 4.19978H37.3961C37.4941 4.19553 37.5963 4.21682 37.6815 4.26793C37.7539 4.31052 37.8135 4.37015 37.8604 4.4383C37.9115 4.51496 37.9498 4.59163 37.9839 4.67681C38.0179 4.77051 38.0605 4.85995 38.1116 4.94514L38.1926 5.13254C38.2266 5.23476 38.2692 5.34124 38.3161 5.4605C38.3629 5.57975 38.4013 5.69049 38.4439 5.79697C38.4864 5.90345 38.512 5.96734 38.5248 6.00141C38.7164 5.78845 38.8996 5.57549 39.0785 5.33698C39.2488 5.10699 39.4362 4.88977 39.6364 4.68959C39.8323 4.50219 40.0538 4.3446 40.2966 4.22108C40.5607 4.08905 40.8545 4.02516 41.1484 4.02942C41.4593 4.02942 41.766 4.05071 42.0727 4.10608C42.3367 4.15293 42.5965 4.2296 42.8436 4.33182C43.0949 4.43404 43.3376 4.56181 43.5676 4.71088C43.8061 4.86421 44.0659 5.0431 44.347 5.24754C44.773 5.48179 44.8709 5.8353 44.5983 6.29955L43.7508 7.7647C43.6486 7.93933 43.4782 8.0671 43.2823 8.11821C43.0778 8.1608 42.8606 8.13099 42.6775 8.03303C42.4304 7.786 42.1408 7.58156 41.8256 7.43249C41.519 7.30045 41.1868 7.23231 40.8545 7.23657C40.6331 7.23231 40.4073 7.26638 40.1986 7.34304C40.0112 7.41119 39.8366 7.51341 39.6833 7.64119C39.5257 7.77748 39.3809 7.93507 39.2574 8.10118C39.1253 8.28006 38.989 8.47598 38.857 8.6932V15.6314C38.8698 15.8315 38.8059 16.0275 38.6781 16.1808C38.5163 16.3214 38.3033 16.3895 38.0904 16.3682H35.9352C35.5774 16.4236 35.241 16.1765 35.1856 15.8188C35.1771 15.7549 35.1771 15.691 35.1856 15.6314V4.90681H35.1813Z" fill="white"/>
<path d="M46.2126 1.01819C46.2126 0.937269 46.2466 0.856345 46.2935 0.788198C46.3531 0.715793 46.4298 0.664683 46.5192 0.639128C46.6598 0.600795 46.8003 0.583759 46.9451 0.588018H49.2366C49.3388 0.583759 49.4453 0.605054 49.539 0.647646C49.6156 0.685978 49.6795 0.737088 49.7306 0.805235C49.7775 0.864863 49.8073 0.937269 49.8243 1.01393C49.8414 1.08208 49.8499 1.15023 49.8499 1.21837V8.30987L53.2998 4.47663C53.4446 4.30201 53.6618 4.19978 53.8918 4.19978H56.8349C57.1884 4.19978 57.363 4.33608 57.363 4.6257C57.363 4.68533 57.3545 4.7407 57.329 4.79607C57.2906 4.86421 57.2438 4.93236 57.1884 4.98773L53.253 9.14893L58.2319 15.4993H58.2106C58.2873 15.5675 58.3469 15.6569 58.3895 15.7506C58.4193 15.823 58.4364 15.904 58.4406 15.9849C58.4576 16.0999 58.4108 16.2149 58.3214 16.2873C58.2149 16.3512 58.0871 16.3767 57.9636 16.3682H54.7224C54.6074 16.3682 54.5009 16.3214 54.4157 16.2447C54.2964 16.134 54.19 16.0062 54.1005 15.8699L50.9658 11.4361L49.9053 12.535V15.6314C49.9053 15.6995 49.8967 15.7677 49.8797 15.8315C49.8627 15.9167 49.8329 16.0019 49.786 16.0786C49.7349 16.1595 49.6667 16.2319 49.5858 16.283C49.4879 16.3469 49.3771 16.3767 49.2621 16.3682H46.8557C46.7492 16.3682 46.647 16.3384 46.5576 16.2788C46.4809 16.2234 46.4127 16.1552 46.3616 16.0743C46.319 16.0062 46.285 15.9338 46.2594 15.8571C46.2424 15.8188 46.2296 15.7804 46.2253 15.7378L46.2126 1.01819Z" fill="white"/>
<path d="M82.9989 14.869C82.8286 15.0393 82.6369 15.2267 82.4282 15.4227C82.2152 15.6271 81.9895 15.8145 81.7467 15.9806C81.4954 16.151 81.2271 16.2958 80.9418 16.4065C80.6436 16.5173 80.3284 16.5769 80.009 16.5726C78.3863 16.5897 76.8317 15.9295 75.72 14.7497C75.1876 14.1662 74.766 13.489 74.4849 12.7479C73.8928 11.1507 73.8928 9.39596 74.4849 7.79877C74.766 7.06194 75.1876 6.38473 75.72 5.80549C76.2524 5.23476 76.8956 4.78329 77.6111 4.47663C78.3692 4.14868 79.1827 3.98257 80.009 3.99109C80.337 3.99109 80.6607 4.03794 80.9716 4.14442C81.2527 4.24238 81.521 4.37441 81.768 4.53626C82.0065 4.69385 82.2238 4.87699 82.4282 5.07717C82.6326 5.28161 82.82 5.47753 82.9989 5.6692V1.30356C82.9947 1.11615 83.0628 0.92875 83.1863 0.788198C83.3354 0.639128 83.5398 0.558204 83.7485 0.57524H85.9165C86.0059 0.57524 86.0953 0.596536 86.1805 0.630609C86.2742 0.664683 86.3594 0.715792 86.4361 0.77968C86.5127 0.843567 86.5724 0.920232 86.6192 1.00967C86.6703 1.09912 86.6959 1.20134 86.6916 1.30356V15.6314C86.6916 16.1254 86.4361 16.3682 85.9165 16.3682H84.0382C83.9359 16.3725 83.8337 16.3597 83.74 16.3214C83.6719 16.2915 83.608 16.2404 83.5654 16.1808C83.51 16.1127 83.4674 16.036 83.4334 15.9551C83.395 15.8614 83.3482 15.7549 83.2928 15.6314L82.9989 14.869ZM77.4918 10.2946C77.4918 10.6993 77.5557 11.0996 77.6878 11.4787C77.807 11.8322 77.9987 12.1559 78.25 12.4327C78.497 12.7011 78.7951 12.9183 79.1273 13.0674C79.4851 13.2292 79.8727 13.3059 80.2645 13.3016C80.6607 13.3016 81.0525 13.2292 81.4188 13.0844C81.768 12.9438 82.0917 12.7351 82.3643 12.4753C82.6326 12.2113 82.8499 11.9003 83.0075 11.5596C83.1736 11.2018 83.2673 10.8185 83.2843 10.4267V10.2946C83.2843 9.89428 83.2076 9.49392 83.0543 9.12337C82.9052 8.76134 82.688 8.42913 82.4154 8.14803C82.1428 7.86692 81.8149 7.64119 81.4571 7.4836C81.0823 7.31749 80.6734 7.23231 80.2645 7.23657C79.8727 7.23231 79.4809 7.31323 79.1273 7.4836C78.7909 7.64119 78.4927 7.86692 78.25 8.14803C78.0029 8.43339 77.8155 8.7656 77.692 9.12337C77.56 9.49818 77.4918 9.89428 77.4918 10.2946Z" fill="white"/>
<path d="M110.973 14.9116C110.419 15.4354 109.781 15.8528 109.078 16.1467C108.366 16.4364 107.608 16.5812 106.842 16.5726C105.155 16.5812 103.528 15.9338 102.31 14.7668C101.718 14.1875 101.241 13.5018 100.913 12.7394C100.568 11.9557 100.393 11.1124 100.398 10.2563C100.393 9.16597 100.666 8.09692 101.19 7.14286C101.441 6.67862 101.752 6.24844 102.11 5.86512C102.468 5.48179 102.872 5.14958 103.319 4.87699C104.256 4.30201 105.338 3.9996 106.437 4.00386C106.957 4.00386 107.476 4.07201 107.979 4.21256C108.469 4.34886 108.941 4.54904 109.38 4.80885C110.253 5.31994 110.982 6.03974 111.51 6.90435C111.774 7.32601 111.978 7.786 112.119 8.26302C112.264 8.74857 112.336 9.24689 112.336 9.75373V10.5672C112.336 10.7461 112.289 10.9207 112.191 11.0698C112.08 11.2104 111.919 11.3041 111.744 11.3296C111.442 11.385 111.135 11.4105 110.828 11.402H103.928C103.975 11.7683 104.107 12.1218 104.316 12.4285C104.499 12.6883 104.729 12.9098 104.993 13.0844C105.245 13.242 105.517 13.3612 105.807 13.4336C106.071 13.5018 106.348 13.5359 106.62 13.5401C106.859 13.5401 107.097 13.5146 107.332 13.4677C107.57 13.4209 107.804 13.357 108.034 13.2761C108.247 13.1994 108.456 13.1057 108.656 12.9992C108.822 12.9098 108.976 12.799 109.112 12.667C109.193 12.5988 109.282 12.535 109.376 12.4796C109.448 12.437 109.529 12.4157 109.61 12.4157C109.704 12.4157 109.793 12.4498 109.866 12.5051C109.972 12.5776 110.07 12.6627 110.16 12.7522L111.173 13.9022C111.233 13.966 111.28 14.0427 111.31 14.1279C111.327 14.196 111.335 14.2642 111.335 14.3323C111.335 14.4516 111.301 14.5666 111.233 14.6645C111.16 14.7582 111.071 14.8434 110.973 14.9116ZM106.36 6.92991C106.113 6.92991 105.866 6.98102 105.636 7.07898C105.398 7.17694 105.181 7.31323 104.98 7.47508C104.776 7.64544 104.589 7.83285 104.427 8.04155C104.273 8.24173 104.141 8.45894 104.031 8.68468H108.916C108.792 8.44617 108.648 8.21191 108.49 7.9947C108.337 7.786 108.158 7.59859 107.953 7.43675C107.745 7.2749 107.515 7.15138 107.263 7.0662C106.974 6.9725 106.667 6.92565 106.36 6.92991Z" fill="white"/>
<path d="M128.934 2.3002C128.93 2.13409 129.002 1.9765 129.134 1.87428C129.305 1.75077 129.492 1.65707 129.692 1.58892L131.864 0.813753H132.035C132.222 0.788198 132.405 0.869122 132.512 1.02245C132.601 1.18856 132.639 1.37596 132.631 1.56337V4.58311H134.228C134.411 4.57459 134.59 4.63848 134.726 4.76199C134.863 4.91107 134.935 5.11125 134.918 5.31143V7.1599C134.935 7.37286 134.867 7.58582 134.726 7.74766C134.594 7.87544 134.411 7.94359 134.228 7.93507H132.631V15.6399C132.644 15.8443 132.567 16.0488 132.418 16.1893C132.252 16.3214 132.047 16.3895 131.834 16.3767H129.671C129.313 16.4278 128.985 16.1808 128.934 15.823C128.925 15.7591 128.925 15.6953 128.934 15.6314V7.92655H128.235C127.741 7.92655 127.499 7.66674 127.499 7.15138V5.30291C127.452 4.9494 127.699 4.62144 128.052 4.57459C128.112 4.56607 128.176 4.56607 128.235 4.57459H128.934V2.3002Z" fill="white"/>
<path d="M147.725 16.2064C147.649 16.2745 147.559 16.3214 147.461 16.3426C147.376 16.3597 147.287 16.3682 147.197 16.3725H145.749C145.647 16.3725 145.545 16.3512 145.451 16.3086C145.37 16.266 145.302 16.2106 145.242 16.1425C145.183 16.0701 145.136 15.9891 145.097 15.904C145.059 15.8145 145.029 15.7208 145.004 15.6271L144.693 14.4005C144.569 14.6347 144.429 14.8605 144.267 15.0734C144.071 15.3417 143.837 15.5803 143.573 15.7847C143.266 16.019 142.93 16.2021 142.568 16.3384C142.137 16.4917 141.682 16.5684 141.226 16.5599C139.88 16.5812 138.598 16.0062 137.721 14.9882C137.295 14.4857 136.962 13.9064 136.75 13.2846C136.515 12.6201 136.4 11.9174 136.405 11.2104V4.93662C136.392 4.7407 136.447 4.54478 136.562 4.38719C136.694 4.2509 136.877 4.18275 137.065 4.19978H139.279C139.48 4.17849 139.68 4.2296 139.846 4.34034C139.969 4.49367 140.025 4.68959 139.999 4.88125V11.1252C139.999 11.3978 140.063 11.6661 140.187 11.9089C140.31 12.1559 140.476 12.3774 140.676 12.5605C140.881 12.7479 141.119 12.9012 141.375 13.0077C141.626 13.1142 141.89 13.1696 142.163 13.1696C142.41 13.1653 142.653 13.1099 142.878 13.0077C143.125 12.9012 143.355 12.7564 143.56 12.5818C143.764 12.3987 143.939 12.1814 144.071 11.9387C144.203 11.7002 144.271 11.4318 144.271 11.1593V4.91106C144.271 4.80033 144.292 4.68533 144.335 4.58311C144.369 4.48089 144.433 4.39145 144.522 4.33182C144.595 4.28497 144.672 4.2509 144.757 4.2296C144.838 4.2083 144.923 4.19978 145.008 4.19978H147.176C147.393 4.17849 147.606 4.2509 147.768 4.39997C147.896 4.54904 147.96 4.7407 147.951 4.93662V15.6612C147.951 15.7804 147.926 15.8954 147.87 15.9977C147.819 16.0956 147.742 16.1808 147.644 16.2362L147.725 16.2064Z" fill="white"/>
<path d="M150.272 4.90681C150.272 4.80033 150.298 4.69385 150.345 4.59589C150.387 4.50644 150.447 4.42552 150.524 4.36163C150.677 4.26793 150.856 4.21682 151.039 4.22108H152.487C152.585 4.21682 152.687 4.23812 152.772 4.28923C152.845 4.33182 152.905 4.39145 152.951 4.45959C153.002 4.53626 153.041 4.61292 153.075 4.69811C153.113 4.79181 153.156 4.88125 153.207 4.96643C153.207 4.99199 153.245 5.05588 153.284 5.15384C153.322 5.2518 153.36 5.36254 153.407 5.48179C153.454 5.60105 153.492 5.71179 153.535 5.81827C153.577 5.92474 153.603 5.98863 153.616 6.02271C153.807 5.80975 153.991 5.59679 154.169 5.35828C154.34 5.12828 154.527 4.91106 154.727 4.71088C154.923 4.51496 155.145 4.34886 155.392 4.22108C155.656 4.08905 155.95 4.02516 156.244 4.02942C156.555 4.02942 156.861 4.05071 157.168 4.10608C157.432 4.15293 157.692 4.2296 157.939 4.33182C158.19 4.43404 158.433 4.56181 158.663 4.71088C158.901 4.86421 159.165 5.0431 159.447 5.24754C159.783 5.38383 159.949 5.76716 159.813 6.10789C159.783 6.18029 159.745 6.24418 159.694 6.29955L158.82 7.786C158.718 7.96062 158.548 8.0884 158.352 8.13951C158.148 8.1821 157.935 8.15228 157.747 8.05432C157.5 7.80729 157.211 7.60285 156.895 7.45378C156.589 7.31749 156.256 7.2536 155.924 7.25786C155.703 7.2536 155.477 7.28767 155.268 7.36434C155.081 7.43249 154.911 7.53471 154.757 7.66248C154.6 7.79877 154.455 7.9521 154.331 8.12247C154.199 8.30136 154.063 8.49728 153.931 8.71449V15.6314C153.944 15.8315 153.88 16.0275 153.752 16.1808C153.59 16.3214 153.377 16.3895 153.164 16.3682H151.009C150.651 16.4236 150.315 16.1765 150.26 15.8188C150.251 15.7549 150.251 15.691 150.26 15.6314L150.272 4.90681Z" fill="white"/>
<path d="M170.572 14.9116C170.018 15.4354 169.375 15.8528 168.672 16.1467C167.965 16.4364 167.207 16.5812 166.44 16.5726C164.753 16.5812 163.126 15.9338 161.908 14.7668C161.312 14.1875 160.835 13.5018 160.507 12.7394C160.158 11.9515 159.983 11.0996 159.992 10.2393C159.992 9.15319 160.26 8.07988 160.78 7.12583C161.031 6.66158 161.342 6.2314 161.7 5.84808C162.82 4.65552 164.387 3.97831 166.027 3.98683C166.547 3.98683 167.066 4.05497 167.569 4.19553C168.553 4.47237 169.447 4.99199 170.175 5.71179C170.533 6.06956 170.84 6.47418 171.1 6.90861C171.359 7.33453 171.564 7.79026 171.709 8.26728C171.862 8.74857 171.943 9.25115 171.951 9.75799V10.5715C171.951 10.7504 171.9 10.925 171.802 11.0741C171.696 11.2104 171.547 11.2998 171.376 11.3339C171.074 11.3892 170.772 11.4148 170.465 11.4063H163.518C163.565 11.7726 163.697 12.1261 163.906 12.4327C164.085 12.6925 164.315 12.914 164.579 13.0887C164.83 13.2462 165.107 13.3655 165.397 13.4379C165.661 13.506 165.938 13.5401 166.21 13.5444C166.449 13.5444 166.683 13.5188 166.917 13.472C167.156 13.4251 167.394 13.3612 167.624 13.2803C167.837 13.2036 168.046 13.1099 168.246 13.0035C168.412 12.914 168.565 12.8033 168.702 12.6713C168.783 12.5988 168.872 12.5392 168.966 12.4838C169.038 12.4413 169.119 12.42 169.2 12.42C169.289 12.42 169.379 12.454 169.451 12.5094C169.558 12.5818 169.656 12.6627 169.745 12.7564L170.763 13.9064C170.823 13.9703 170.865 14.047 170.895 14.1321C170.916 14.2003 170.925 14.2684 170.925 14.3366C170.925 14.4558 170.891 14.5751 170.819 14.6688C170.75 14.7625 170.665 14.8434 170.572 14.9116ZM165.959 6.92991C165.712 6.92991 165.465 6.98102 165.235 7.07898C165.001 7.1812 164.779 7.31323 164.579 7.47508C164.374 7.64544 164.191 7.84137 164.029 8.05432C163.876 8.2545 163.744 8.47172 163.633 8.69746H168.544C168.421 8.45469 168.28 8.22469 168.118 8.00747C167.965 7.79877 167.782 7.61137 167.582 7.44952C167.373 7.28768 167.143 7.16416 166.892 7.07898C166.593 6.97676 166.274 6.92565 165.959 6.92991Z" fill="white"/>
<path d="M68.2708 14.0214H65.9325V16.3597H68.2708V14.0214Z" fill="white"/>
<path d="M95.6657 4.19978H93.3274V6.53806H95.6657V4.19978Z" fill="white"/>
<path d="M114.414 4.21682H112.076V6.5551H114.414V4.21682Z" fill="white"/>
<path d="M117.485 6.52955H114.346V15.6314C114.308 16.0019 114.572 16.3341 114.943 16.3725C115.002 16.381 115.062 16.3767 115.122 16.3682H117.289C117.375 16.3682 117.46 16.3597 117.541 16.3426C117.626 16.3171 117.707 16.283 117.779 16.2362C117.864 16.1723 117.928 16.0871 117.962 15.9849C118.005 15.8827 118.026 15.7719 118.026 15.6612V9.43003C118.043 9.14893 118.124 8.87634 118.261 8.62931C118.393 8.3908 118.567 8.17358 118.767 7.99044C118.963 7.81155 119.189 7.671 119.432 7.56452C119.653 7.46656 119.892 7.41545 120.135 7.41119C120.407 7.41119 120.675 7.46656 120.927 7.57304C121.182 7.67526 121.417 7.82007 121.621 7.99896C121.847 8.20765 122.026 8.45894 122.153 8.74005C122.251 8.95727 122.302 9.19578 122.302 9.43429V15.691C122.277 15.8827 122.332 16.0786 122.456 16.2319C122.622 16.3426 122.822 16.3895 123.018 16.3682H125.233C125.42 16.3852 125.608 16.3171 125.735 16.1808C125.85 16.0232 125.906 15.8273 125.893 15.6314V9.35337C125.897 8.65061 125.782 7.94785 125.548 7.28342C125.335 6.66158 125.003 6.08233 124.577 5.57975C124.155 5.09421 123.64 4.70237 123.056 4.43404C122.434 4.14442 121.762 3.9996 121.076 4.00812C120.616 3.9996 120.16 4.07627 119.73 4.23386C119.368 4.36589 119.031 4.5533 118.725 4.78755C118.461 4.99199 118.226 5.2305 118.031 5.49883C117.881 5.69901 117.749 5.91197 117.634 6.13344C117.622 6.159 117.609 6.18455 117.6 6.21437L117.485 6.52955Z" fill="white"/>
<path d="M95.6444 6.52103L94.175 11.2061C94.1324 11.0911 94.0642 10.8994 93.9705 10.6269C93.8768 10.3543 93.7704 10.0348 93.6554 9.66855C93.5404 9.30226 93.4083 8.89764 93.2678 8.4632C93.1272 8.02877 92.9824 7.58156 92.8419 7.13861C92.7013 6.69565 92.5608 6.26122 92.4159 5.83956C92.2711 5.4179 92.1646 5.03884 92.0539 4.69811C92.0113 4.54478 91.9176 4.40848 91.7898 4.31478C91.6663 4.22534 91.5173 4.17849 91.3639 4.18275H88.8979C88.5997 4.18275 88.4081 4.27645 88.3271 4.45959C88.2505 4.68533 88.276 4.9281 88.3995 5.13254L92.8163 15.9423C92.8632 16.0615 92.9441 16.168 93.0506 16.2447C93.2209 16.3299 93.4083 16.3682 93.5957 16.3512H94.7329C94.8863 16.3597 95.0353 16.3171 95.1588 16.2319C95.2568 16.151 95.342 16.053 95.4059 15.9423L99.3413 6.50399L95.6444 6.52103Z" fill="white"/>
<path d="M72.909 15.938L67.8789 2.96463L67.6404 2.4152C67.5893 2.35131 67.5297 2.29168 67.4658 2.24057C67.3891 2.17668 67.2911 2.13835 67.1889 2.13835H64.7357C64.6803 2.13835 64.6249 2.15113 64.5738 2.17243C64.5142 2.19372 64.4588 2.22353 64.4077 2.26187C64.3608 2.29594 64.314 2.34279 64.2799 2.38964C64.2501 2.42372 64.2288 2.46631 64.216 2.51316L59.0156 15.9849C58.9645 16.1127 58.9773 16.2106 59.0582 16.2745C59.1434 16.3384 59.2499 16.3725 59.3606 16.3682H62.1844C62.4101 16.381 62.6146 16.2362 62.6742 16.0147L63.0448 15.0436C63.1683 14.7199 63.2918 14.3962 63.4111 14.0683H65.9665V10.9931H64.4886C64.6121 10.6694 64.7356 10.3159 64.8592 9.94539C64.9827 9.57484 65.1062 9.19152 65.2297 8.8082C65.3532 8.42487 65.4725 8.04581 65.596 7.66674C65.7195 7.28768 65.843 6.93842 65.9665 6.61473L69.2418 16.0147C69.2759 16.1212 69.3398 16.2191 69.4292 16.2873C69.5315 16.3469 69.6507 16.3767 69.77 16.3682H72.5214C72.6534 16.3852 72.7855 16.3384 72.8834 16.2489C72.9558 16.1595 72.9643 16.036 72.909 15.938Z" fill="white"/>
</svg>
