<svg width="85" height="85" viewBox="0 0 85 85" fill="none" xmlns="http://www.w3.org/2000/svg">
<g clip-path="url(#clip0_310_15008)">
<path fill-rule="evenodd" clip-rule="evenodd" d="M16.9627 67.1655V65.5045C16.9627 62.6954 14.6642 60.3967 11.8549 60.3967C9.04556 60.3967 6.74707 62.6952 6.74707 65.5045V67.1655C6.74707 69.9748 9.04556 72.2733 11.8549 72.2733C14.664 72.2733 16.9627 69.9747 16.9627 67.1655Z" fill="#FFBFB1"/>
<path fill-rule="evenodd" clip-rule="evenodd" d="M27.1777 67.1655C27.1777 69.9748 29.4762 72.2733 32.2855 72.2733C35.0947 72.2733 37.3933 69.9747 37.3933 67.1655V65.5045C37.3933 62.6954 35.0949 60.3967 32.2855 60.3967C29.4762 60.3967 27.1779 62.6952 27.1779 65.5045L27.1777 67.1655Z" fill="#FFBFB1"/>
<path fill-rule="evenodd" clip-rule="evenodd" d="M47.6086 67.1655C47.6086 69.9748 49.9071 72.2733 52.7164 72.2733C55.5255 72.2733 57.824 69.9747 57.824 67.1655V65.5045C57.824 62.6954 55.5255 60.3967 52.7162 60.3967C49.9069 60.3967 47.6084 62.6952 47.6084 65.5045V67.1655H47.6086Z" fill="#FFBFB1"/>
<path fill-rule="evenodd" clip-rule="evenodd" d="M68.0391 67.1655C68.0391 69.9748 70.3375 72.2733 73.1469 72.2733C75.956 72.2733 78.2547 69.9747 78.2547 67.1655V65.5045C78.2547 62.6954 75.9562 60.3967 73.1469 60.3967C70.3375 60.3967 68.0392 62.6952 68.0392 65.5045V67.1655H68.0391Z" fill="#FFBFB1"/>
<path fill-rule="evenodd" clip-rule="evenodd" d="M22.0908 83.34H42.4777V82.647C42.1214 77.3284 37.6943 73.1245 32.2853 73.1245C26.8658 73.1245 22.4316 77.345 22.091 82.6785L22.0908 83.34Z" fill="#EFF0F2"/>
<path fill-rule="evenodd" clip-rule="evenodd" d="M1.66016 83.34H22.047V82.647C21.6908 77.3284 17.2636 73.1245 11.8547 73.1245C6.43493 73.1245 2.00099 77.345 1.66032 82.6785L1.66016 83.34Z" fill="#AEB2BC"/>
<path fill-rule="evenodd" clip-rule="evenodd" d="M42.5215 83.34H62.9084V82.647C62.5521 77.3284 58.125 73.1245 52.716 73.1245C47.2963 73.1245 42.8623 77.345 42.5217 82.6785V83.34H42.5215Z" fill="#AEB2BC"/>
<path fill-rule="evenodd" clip-rule="evenodd" d="M62.9521 83.34H83.339V82.647C82.9828 77.3284 78.5556 73.1245 73.1467 73.1245C67.7271 73.1245 63.2931 77.345 62.9523 82.6785L62.9521 83.34Z" fill="#EFF0F2"/>
<path fill-rule="evenodd" clip-rule="evenodd" d="M30.6294 31.543H54.3698H57.8146V24.9023H27.1846V31.543H30.6294Z" fill="#AEB2BC"/>
<path fill-rule="evenodd" clip-rule="evenodd" d="M37.5195 8.28335C37.5195 11.0322 39.7607 13.2812 42.5 13.2812C45.2393 13.2812 47.4805 11.0321 47.4805 8.28335V6.65806C47.4805 3.90934 45.2393 1.66016 42.5 1.66016C39.7607 1.66016 37.5195 3.90917 37.5195 6.65806V8.28335Z" fill="#FFBFB1"/>
<path fill-rule="evenodd" clip-rule="evenodd" d="M52.4609 24.0723C52.4609 18.571 48.0013 14.1113 42.5 14.1113C36.9987 14.1113 32.5391 18.571 32.5391 24.0723H42.5H52.4609Z" fill="#4156F6"/>
<path fill-rule="evenodd" clip-rule="evenodd" d="M43.9526 78.0878C45.7386 75.1143 48.9951 73.1246 52.7162 73.1246V72.2792C52.714 72.2792 52.7119 72.2792 52.7097 72.2792C49.9019 72.2792 47.6047 69.9821 47.6047 67.1743V65.5141C47.6047 64.8962 47.716 64.303 47.9195 63.7537C48.6375 61.8019 50.518 60.3994 52.7104 60.3969L54.37 31.543H30.6299L32.2894 60.3969C34.7962 60.3987 36.8955 62.2308 37.3165 64.6221C37.3681 64.912 37.395 65.2101 37.395 65.5143V67.1744C37.395 69.9821 35.0977 72.2794 32.29 72.2794V73.1247C37.697 73.1271 42.1218 77.3301 42.4779 82.6472V83.3401H42.522V82.6787C42.6288 81.0071 43.1376 79.4449 43.9526 78.0878Z" fill="#D6D8E0"/>
<path d="M22.1011 82.6788C22.4417 77.348 26.8732 73.1299 32.2899 73.1299C37.696 73.1299 42.1207 77.3314 42.4768 82.6472M42.5314 82.5349C42.9419 77.2725 47.3422 73.1301 52.7099 73.1301C58.1333 73.1301 62.5692 77.3587 62.9001 82.6987M62.9464 82.5971C63.3269 77.305 67.7408 73.1301 73.1298 73.1301C78.7686 73.1301 83.3397 77.7012 83.3399 83.34H1.66016C1.66016 77.7012 6.23121 73.1301 11.8701 73.1301C17.29 73.1301 21.7168 77.3507 22.0587 82.676M32.2899 60.409C35.0978 60.409 37.3949 62.7064 37.3949 65.514V67.1742C37.3949 69.9818 35.0976 72.2792 32.2899 72.2792C29.4821 72.2792 27.185 69.982 27.185 67.1742V65.514C27.185 62.7064 29.4823 60.409 32.2899 60.409ZM32.2899 60.409L30.6701 32.2438M52.7099 60.409C55.5178 60.409 57.8149 62.7064 57.8149 65.514V67.1742C57.8149 69.9818 55.5176 72.2792 52.7099 72.2792C49.9021 72.2792 47.605 69.982 47.605 67.1742V65.514C47.605 62.7064 49.9021 60.409 52.7099 60.409ZM52.7099 60.409L54.3302 32.2389M32.5391 24.0722C32.5391 18.571 36.9988 14.1113 42.5 14.1113C48.0013 14.1113 52.461 18.571 52.461 24.0722M49.9701 31.5429H57.815V24.9023H27.185V31.5429H35.0287M8.81607 16.6015H13.6144M12.8197 31.5429L16.9752 29.1436M12.8197 1.66016L16.9752 4.05941M78.2347 16.6015H73.4362M74.2311 31.5429L70.0756 29.1436M74.2311 1.66016L70.0756 4.05941M42.4987 31.5429H42.5M11.8701 60.409C14.6779 60.409 16.9751 62.7064 16.9751 65.514V67.1742C16.9751 69.9818 14.6778 72.2792 11.8701 72.2792C9.06227 72.2792 6.76512 69.982 6.76512 67.1742V65.514C6.76512 62.7064 9.06244 60.409 11.8701 60.409ZM73.1296 60.409C75.9374 60.409 78.2346 62.7064 78.2346 65.514V67.1742C78.2346 69.9818 75.9373 72.2792 73.1296 72.2792C70.3218 72.2792 68.0246 69.982 68.0246 67.1742V65.514C68.0246 62.7064 70.322 60.409 73.1296 60.409ZM42.5 1.66016C45.2393 1.66016 47.4805 3.90934 47.4805 6.65806V8.28335C47.4805 11.0321 45.2393 13.2812 42.5 13.2812C39.7608 13.2812 37.5196 11.0322 37.5196 8.28335V6.65806C37.5196 3.90917 39.7608 1.66016 42.5 1.66016Z" stroke="#1B2A41" stroke-width="3" stroke-miterlimit="2.6131" stroke-linecap="round" stroke-linejoin="round"/>
</g>
<defs>
<clipPath id="clip0_310_15008">
<rect width="85" height="85" fill="white"/>
</clipPath>
</defs>
</svg>
