<svg width="87" height="87" viewBox="0 0 87 87" fill="none" xmlns="http://www.w3.org/2000/svg">
<g clip-path="url(#clip0_310_15027)">
<g clip-path="url(#clip1_310_15027)">
<path d="M43.5001 75.5645C61.2089 75.5645 75.5647 61.2087 75.5647 43.4999C75.5647 25.7911 61.2089 11.4353 43.5001 11.4353C25.7914 11.4353 11.4355 25.7911 11.4355 43.4999C11.4355 61.2087 25.7914 75.5645 43.5001 75.5645Z" fill="white"/>
<path d="M16.4221 14.8162C8.29083 14.8162 1.69922 21.4078 1.69922 29.539V29.5409H31.145V29.539C31.145 21.4078 24.5534 14.8162 16.4221 14.8162Z" fill="#4156F6"/>
<path d="M16.4217 1.69922C13.4102 1.69922 10.9688 4.14049 10.9688 7.15218V9.36338C10.9688 12.3749 13.4102 14.8163 16.4217 14.8163C19.4332 14.8163 21.8747 12.3749 21.8747 9.36338V7.15218C21.8747 4.14049 19.4332 1.69922 16.4217 1.69922Z" fill="#FFBFB1"/>
<path d="M70.5784 14.8162C78.7096 14.8162 85.3012 21.4078 85.3012 29.539V29.5409H55.8555V29.539C55.8555 21.4078 62.4471 14.8162 70.5784 14.8162Z" fill="#4156F6"/>
<path d="M70.578 1.69922C73.5895 1.69922 76.0309 4.14049 76.0309 7.15218V9.36338C76.0309 12.3749 73.5895 14.8163 70.578 14.8163C67.5664 14.8163 65.125 12.3749 65.125 9.36338V7.15218C65.125 4.14049 67.5664 1.69922 70.578 1.69922Z" fill="#FFBFB1"/>
<path d="M43.5002 70.5759C35.369 70.5759 28.7773 77.1675 28.7773 85.2988V85.3007H58.2231V85.2988C58.2231 77.1675 51.6315 70.5759 43.5002 70.5759Z" fill="#4156F6"/>
<path d="M43.4998 57.459C40.4883 57.459 38.0469 59.9003 38.0469 62.9119V65.1231C38.0469 68.1347 40.4881 70.5761 43.4998 70.5761C46.5114 70.5761 48.9528 68.1348 48.9528 65.1231V62.9119C48.9528 59.9003 46.5114 57.459 43.4998 57.459Z" fill="#FFBFB1"/>
<path d="M59.8125 47.5781C62.0648 47.5781 63.8906 45.7523 63.8906 43.5C63.8906 41.2477 62.0648 39.4219 59.8125 39.4219C57.5602 39.4219 55.7344 41.2477 55.7344 43.5C55.7344 45.7523 57.5602 47.5781 59.8125 47.5781Z" fill="white"/>
<path d="M43.5 47.5781C45.7523 47.5781 47.5781 45.7523 47.5781 43.5C47.5781 41.2477 45.7523 39.4219 43.5 39.4219C41.2477 39.4219 39.4219 41.2477 39.4219 43.5C39.4219 45.7523 41.2477 47.5781 43.5 47.5781Z" fill="white"/>
<path d="M27.1875 47.5781C29.4398 47.5781 31.2656 45.7523 31.2656 43.5C31.2656 41.2477 29.4398 39.4219 27.1875 39.4219C24.9352 39.4219 23.1094 41.2477 23.1094 43.5C23.1094 45.7523 24.9352 47.5781 27.1875 47.5781Z" fill="white"/>
<path d="M75.9877 14.0337C77.072 12.7795 77.7301 11.1474 77.7301 9.36337V7.15218C77.7301 3.20846 74.5216 0 70.5779 0C66.6342 0 63.4257 3.20846 63.4257 7.15218V9.36337C63.4257 11.1474 64.0838 12.7797 65.1681 14.0337C64.1375 14.3943 63.1537 14.8549 62.2279 15.4038C58.9471 13.2111 55.3487 11.6272 51.5157 10.6937C50.6031 10.4709 49.6848 11.0308 49.4627 11.9426C49.2406 12.8544 49.7999 13.7735 50.7117 13.9956C53.768 14.7399 56.6591 15.9443 59.3325 17.5833C56.1478 20.5808 54.1558 24.832 54.1558 29.5409C54.1558 30.4794 54.9165 31.2401 55.855 31.2401H71.2878C72.9978 35.1038 73.8655 39.2227 73.8655 43.5C73.8655 56.5675 65.6828 67.99 53.4081 72.2115C52.0564 71.1855 50.5416 70.3643 48.91 69.7934C49.9942 68.5392 50.6524 66.9071 50.6524 65.1231V62.9119C50.6524 58.9683 47.4439 55.7599 43.5002 55.7599C39.5565 55.7599 36.348 58.9683 36.348 62.9119V65.1231C36.348 66.9071 37.0061 68.5394 38.0904 69.7935C36.4586 70.3645 34.9438 71.1859 33.592 72.2119C21.3242 67.9891 13.1346 56.5456 13.1346 43.5C13.1346 39.222 14.0028 35.1035 15.7127 31.2401H31.145C32.0835 31.2401 32.8442 30.4775 32.8442 29.539C32.8442 24.831 30.8522 20.5801 27.6674 17.583C30.3511 15.9375 33.2547 14.7304 36.3264 13.9863C37.2385 13.7654 37.7988 12.8469 37.5781 11.935C37.3572 11.023 36.4386 10.4629 35.5266 10.6835C31.6762 11.6159 28.0646 13.2036 24.7726 15.4041C23.8467 14.8549 22.8626 14.3943 21.8317 14.0337C22.916 12.7795 23.5739 11.1474 23.5739 9.36337V7.15218C23.5743 3.20846 20.3658 0 16.4221 0C12.4784 0 9.26992 3.20846 9.26992 7.15218V9.36337C9.26992 11.1474 9.92803 12.7797 11.0123 14.0337C4.60709 16.2749 0 22.3789 0 29.5409C0 30.4794 0.76074 31.2401 1.69922 31.2401H12.032C10.5088 35.1356 9.73618 39.2475 9.73618 43.5C9.73618 50.8143 12.0366 57.7743 16.3888 63.6274C20.1407 68.6731 25.1094 72.506 30.8649 74.821C28.5012 77.6667 27.0779 81.3204 27.0779 85.3008C27.0779 86.2391 27.8386 87 28.7771 87H58.2229C59.1614 87 59.9221 86.2374 59.9221 85.2989C59.9221 81.3176 58.4976 77.6631 56.1322 74.8173C61.8135 72.5135 66.8656 68.6362 70.5553 63.7024C74.9442 57.8339 77.2638 50.8481 77.2638 43.4998C77.2638 39.2479 76.4908 35.1358 74.9675 31.24H85.3008C86.2393 31.24 87 30.4774 87 29.5389C87 22.3785 82.3929 16.2749 75.9877 14.0337ZM12.6684 9.36337V7.15218C12.6684 5.08236 14.3523 3.39844 16.4221 3.39844C18.4919 3.39844 20.1758 5.08236 20.1758 7.15218V9.36337C20.1758 11.4332 18.4919 13.1171 16.4221 13.1171C14.3523 13.1169 12.6684 11.433 12.6684 9.36337ZM14.7229 16.628V21.1621C14.7229 22.1004 15.4836 22.8613 16.4221 22.8613C17.3606 22.8613 18.1213 22.1005 18.1213 21.1621V16.6282C23.9464 17.3908 28.5734 22.0151 29.3355 27.8417H3.50855C4.26997 22.0158 8.89745 17.3908 14.7229 16.628ZM39.7463 65.1231V62.9119C39.7463 60.8421 41.4302 59.1583 43.5 59.1583C45.5698 59.1583 47.2537 60.8421 47.2537 62.9119V65.1231C47.2537 67.1929 45.5698 68.8768 43.5 68.8768C41.4302 68.8768 39.7463 67.1929 39.7463 65.1231ZM30.5864 83.6016C31.3479 77.7758 35.9753 73.1505 41.8008 72.3879V76.9218C41.8008 77.8601 42.5615 78.621 43.5 78.621C44.4385 78.621 45.1992 77.8601 45.1992 76.9218V72.3879C51.0243 73.1505 55.6515 77.7749 56.4134 83.6016H30.5864ZM66.8242 9.36337V7.15218C66.8242 5.08236 68.5081 3.39844 70.5779 3.39844C72.6477 3.39844 74.3316 5.08236 74.3316 7.15218V9.36337C74.3316 11.4332 72.6477 13.1171 70.5779 13.1171C68.5081 13.1169 66.8242 11.433 66.8242 9.36337ZM57.6643 27.8417C58.4259 22.0159 63.0533 17.3908 68.8787 16.6282V21.1622C68.8787 22.1005 69.6394 22.8615 70.5779 22.8615C71.5164 22.8615 72.2771 22.1007 72.2771 21.1622V16.6282C78.1022 17.3908 82.7292 22.0151 83.4913 27.8417H57.6643Z" fill="#1B2A41"/>
<path d="M65.5898 43.5C65.5898 40.3143 62.9982 37.7227 59.8125 37.7227C56.6268 37.7227 54.0352 40.3143 54.0352 43.5C54.0352 46.6857 56.6268 49.2773 59.8125 49.2773C62.9982 49.2773 65.5898 46.6857 65.5898 43.5ZM57.4336 43.5C57.4336 42.1882 58.5007 41.1211 59.8125 41.1211C61.1243 41.1211 62.1914 42.1882 62.1914 43.5C62.1914 44.8118 61.1243 45.8789 59.8125 45.8789C58.5007 45.8789 57.4336 44.8118 57.4336 43.5Z" fill="#1B2A41"/>
<path d="M43.5 49.2773C46.6857 49.2773 49.2773 46.6857 49.2773 43.5C49.2773 40.3143 46.6857 37.7227 43.5 37.7227C40.3143 37.7227 37.7227 40.3143 37.7227 43.5C37.7227 46.6857 40.3143 49.2773 43.5 49.2773ZM43.5 41.1211C44.8118 41.1211 45.8789 42.1882 45.8789 43.5C45.8789 44.8118 44.8118 45.8789 43.5 45.8789C42.1882 45.8789 41.1211 44.8118 41.1211 43.5C41.1211 42.1882 42.1882 41.1211 43.5 41.1211Z" fill="#1B2A41"/>
<path d="M27.1875 37.7227C24.0018 37.7227 21.4102 40.3143 21.4102 43.5C21.4102 46.6857 24.0018 49.2773 27.1875 49.2773C30.3732 49.2773 32.9648 46.6857 32.9648 43.5C32.9648 40.3143 30.3732 37.7227 27.1875 37.7227ZM27.1875 45.8789C25.8757 45.8789 24.8086 44.8118 24.8086 43.5C24.8086 42.1882 25.8757 41.1211 27.1875 41.1211C28.4993 41.1211 29.5664 42.1882 29.5664 43.5C29.5664 44.8118 28.4993 45.8789 27.1875 45.8789Z" fill="#1B2A41"/>
<path d="M43.5225 13.135C43.9694 13.135 44.4078 12.9532 44.7238 12.6371C45.0399 12.3211 45.2217 11.8827 45.2217 11.4358C45.2217 10.9889 45.0399 10.5505 44.7238 10.2344C44.4078 9.91856 43.9694 9.73657 43.5225 9.73657C43.0739 9.73657 42.6372 9.91839 42.3211 10.2344C42.0034 10.5505 41.8232 10.9889 41.8232 11.4358C41.8232 11.8827 42.0034 12.3211 42.3211 12.6371C42.6372 12.953 43.0739 13.135 43.5225 13.135Z" fill="black"/>
</g>
</g>
<defs>
<clipPath id="clip0_310_15027">
<rect width="87" height="87" fill="white"/>
</clipPath>
<clipPath id="clip1_310_15027">
<rect width="87" height="87" fill="white"/>
</clipPath>
</defs>
</svg>
