<svg width="87" height="87" viewBox="0 0 87 87" fill="none" xmlns="http://www.w3.org/2000/svg">
<g clip-path="url(#clip0_310_14934)">
<mask id="mask0_310_14934" style="mask-type:luminance" maskUnits="userSpaceOnUse" x="0" y="0" width="87" height="87">
<path d="M0 2.28882e-05H87V87H0V2.28882e-05Z" fill="white"/>
</mask>
<g mask="url(#mask0_310_14934)">
<path d="M39.457 57.3082L43.9442 60.2638C46.5545 61.983 49.7606 62.5436 52.7995 61.8119L76.2893 85.3018L85.3006 61.4836L70.7689 46.9518C70.7689 44.2578 70.4431 41.5975 69.8136 39.0234L39.457 57.3082Z" fill="#FFBFB1"/>
<path d="M73.715 29.3586C72.1233 27.7669 69.5429 27.7669 67.9514 29.3586C69.5429 27.7669 69.5429 25.1865 67.9514 23.595C66.3597 22.0033 63.7793 22.0033 62.1876 23.595C63.7793 22.0033 63.7793 19.4229 62.1876 17.8313C60.5961 16.2398 58.0157 16.2398 56.424 17.8313C58.0157 16.2398 58.0157 13.6593 56.424 12.0677C54.8324 10.476 52.2519 10.476 50.6604 12.0677L43.6014 19.1267L22.051 43.8837L1.74023 64.1945L9.79556 85.2148L36.0662 58.9442C37.5425 57.4679 39.5448 56.6386 41.6328 56.6386C48.3981 56.6386 54.8861 53.9511 59.6699 49.1673L73.715 35.1222C75.3066 33.5307 75.3066 30.9501 73.715 29.3586Z" fill="#FFBFB1"/>
<path d="M15.8955 50.0391L30.4333 64.5769L36.0659 58.9443C36.2413 58.769 36.4244 58.6035 36.6137 58.4468L22.0508 43.8838L15.8955 50.0391Z" fill="#4156F6"/>
<path d="M61.832 70.8438L78.2468 54.429L72.0914 48.2737L55.6768 64.6885L61.832 70.8438Z" fill="#4156F6"/>
<path d="M27.8141 38.1202L21.6947 32.0008C20.1031 30.4092 20.1031 27.8287 21.6947 26.2372C23.2862 24.6456 25.8668 24.6456 27.4583 26.2372L33.5777 32.3566C35.1694 33.9481 35.1694 36.5286 33.5777 38.1202C31.9862 39.7119 29.4058 39.7119 27.8141 38.1202Z" fill="#FFBFB1"/>
<path d="M33.5778 32.3565L27.4584 26.2371C25.8667 24.6455 25.8667 22.0651 27.4584 20.4736C29.0499 18.8819 31.6305 18.8819 33.222 20.4736L39.3414 26.593C40.933 28.1845 40.933 30.7649 39.3414 32.3565C37.7499 33.9482 35.1695 33.9482 33.5778 32.3565Z" fill="#FFBFB1"/>
<path d="M39.3415 26.5929L33.2221 20.4735C31.6304 18.8818 31.6304 16.3014 33.2221 14.7099C34.8136 13.1182 37.3942 13.1182 38.9856 14.7099L45.105 20.8293C46.6967 22.4208 46.6967 25.0012 45.105 26.5929C43.5136 28.1845 40.9331 28.1845 39.3415 26.5929Z" fill="#FFBFB1"/>
<path d="M22.0505 43.8839L18.4437 40.2771C16.8521 38.6855 16.8521 36.105 18.4437 34.5134C20.0352 32.9219 22.6157 32.9219 24.2073 34.5134L27.8141 38.1203C29.4058 39.7118 29.4058 42.2922 27.8141 43.8839C26.2226 45.4756 23.6422 45.4756 22.0505 43.8839Z" fill="#FFBFB1"/>
<path d="M54.0011 60.6102C53.5826 60.1918 52.9767 60.0204 52.4016 60.1599C49.8301 60.7788 47.088 60.2997 44.879 58.8445L43.9587 58.2384C50.3487 57.7008 56.2845 54.9554 60.8709 50.3688L69.351 41.8889C70.0805 43.6518 70.474 45.5363 70.51 47.4515L55.6764 62.2855L54.0011 60.6102ZM18.2985 50.0392L22.0506 46.287L34.1854 58.4216L30.4331 62.1738L18.2985 50.0392ZM19.6453 35.715C20.1087 35.2517 20.7172 35.0201 21.3257 35.0201C21.9333 35.0201 22.5413 35.2512 23.0042 35.7134L26.6126 39.3219C27.0614 39.7706 27.3088 40.3674 27.3088 41.0021C27.3088 41.6367 27.0616 42.2335 26.6126 42.6824C26.1639 43.1312 25.5671 43.3784 24.9324 43.3784C24.2981 43.3784 23.7017 43.1315 23.2531 42.6831L19.6453 39.0755C18.7189 38.1489 18.7189 36.6414 19.6453 35.715ZM22.8964 27.4387C23.3452 26.99 23.942 26.7427 24.5766 26.7427C25.2114 26.7427 25.8082 26.99 26.257 27.4387L32.3764 33.5581C33.3028 34.4847 33.3028 35.9923 32.3764 36.9187C31.4498 37.8451 29.9424 37.8453 29.0156 36.9187L22.8964 30.7995C21.9698 29.8729 21.9698 28.3652 22.8964 27.4387ZM28.66 21.6752C29.1232 21.2118 29.7317 20.9802 30.3404 20.9802C30.9487 20.9802 31.5573 21.212 32.0205 21.6752L38.1399 27.7944C39.0665 28.721 39.0664 30.2287 38.1399 31.1551C37.6912 31.6039 37.0944 31.8511 36.4598 31.8511C35.8253 31.8511 35.2287 31.604 34.7801 31.1556C34.7799 31.1554 34.7797 31.1553 34.7794 31.1551L28.66 25.0357C28.2112 24.5868 27.964 23.9902 27.964 23.3554C27.964 22.7207 28.2112 22.1239 28.66 21.6752ZM34.4238 15.9114C34.8725 15.4627 35.4691 15.2156 36.1039 15.2156C36.7386 15.2156 37.3354 15.4627 37.7841 15.9116L43.9037 22.031C44.3525 22.4797 44.5995 23.0765 44.5995 23.7112C44.5995 24.346 44.3525 24.9426 43.9035 25.3915C43.4548 25.8403 42.858 26.0875 42.2233 26.0875C41.5888 26.0875 40.9924 25.8405 40.5437 25.392C40.5435 25.3919 40.5433 25.3917 40.5431 25.3914L34.4236 19.272C33.9748 18.8232 33.7276 18.2264 33.7276 17.5918C33.7276 16.9571 33.9748 16.3604 34.4238 15.9114ZM51.8616 13.2693C52.3104 12.8205 52.9072 12.5733 53.5418 12.5733C54.1765 12.5733 54.7732 12.8205 55.222 13.2693C55.6709 13.7182 55.918 14.3148 55.918 14.9497C55.918 15.5845 55.6709 16.1811 55.222 16.6298L51.488 20.3639C50.8244 21.0276 50.8244 22.1035 51.488 22.7671C52.1515 23.4306 53.2275 23.4306 53.8912 22.7671L57.6252 19.0331C58.074 18.5841 58.6706 18.337 59.3054 18.337C59.9402 18.337 60.5368 18.5841 60.9856 19.0331C61.9122 19.9596 61.9122 21.467 60.9856 22.3936L55.2839 28.0953C54.6203 28.759 54.6203 29.835 55.2839 30.4985C55.6155 30.8304 56.0505 30.9962 56.4854 30.9962C56.9202 30.9962 57.3552 30.8304 57.6869 30.4985L63.3888 24.7966C63.8376 24.3479 64.4343 24.1006 65.069 24.1006C65.7038 24.1006 66.3006 24.3479 66.7493 24.7966C67.1983 25.2454 67.4453 25.8422 67.4453 26.477C67.4453 27.1116 67.1983 27.7084 66.7493 28.1572L61.0474 33.8589C60.3839 34.5226 60.3839 35.5986 61.0474 36.2621C61.3793 36.594 61.8141 36.7598 62.2491 36.7598C62.684 36.7598 63.1188 36.594 63.4506 36.2621L69.1524 30.5602C70.0788 29.6338 71.5865 29.6338 72.5129 30.5602C73.4395 31.4866 73.4395 32.9943 72.5129 33.9207L58.4679 47.9658C53.971 52.4628 47.9922 54.9394 41.6323 54.9394C39.9102 54.9394 38.2584 55.3929 36.8103 56.2403L26.9751 46.4051C27.7319 46.1194 28.4265 45.6746 29.0156 45.0855C30.1045 43.9966 30.7048 42.5495 30.7069 41.0102C32.1821 41.0073 33.6564 40.4447 34.7794 39.3217C35.9024 38.1987 36.465 36.7245 36.4677 35.2494C38.0072 35.2472 39.4543 34.647 40.5431 33.5581C41.666 32.4351 42.2288 30.9609 42.2315 29.4856C43.7708 29.4836 45.2179 28.8832 46.3066 27.7946C47.3973 26.7038 47.998 25.2537 47.998 23.7112C47.998 22.1688 47.3973 20.7185 46.3067 19.6278L45.9049 19.2259L51.8616 13.2693ZM73.9134 47.6932C73.9063 44.7832 73.2205 41.9234 71.9129 39.327L74.9161 36.3238C77.1676 34.0723 77.1674 30.4086 74.916 28.1572C73.7929 27.0342 72.3187 26.4715 70.8436 26.4688C70.8414 24.9293 70.2412 23.4823 69.1525 22.3936C68.0288 21.2699 66.5534 20.7073 65.0773 20.7053C65.0753 19.2291 64.5125 17.7537 63.3888 16.6298C62.3006 15.5418 60.8546 14.9417 59.3163 14.9388C59.3134 13.4005 58.7132 11.9544 57.6252 10.8663C56.5345 9.77554 55.0844 9.17486 53.5418 9.17486C51.9993 9.17486 50.5492 9.77554 49.4586 10.8663L43.5018 16.8229L40.1873 13.5085C39.0966 12.4178 37.6463 11.8172 36.1039 11.8172C34.5614 11.8172 33.1113 12.4178 32.0207 13.5084C30.9319 14.5972 30.3315 16.0443 30.3295 17.5836C28.8542 17.5865 27.38 18.1491 26.257 19.2721C25.1688 20.3601 24.5686 21.8062 24.5657 23.3445C23.0274 23.3474 21.5814 23.9475 20.4932 25.0357C18.6339 26.895 18.3118 29.7165 19.5231 31.9114C18.6888 32.1841 17.9043 32.6499 17.2423 33.3119C14.9906 35.5636 14.9906 39.2271 17.2423 41.4787L19.6475 43.8839L0.538449 62.993C-0.125096 63.6567 -0.125096 64.7327 0.538449 65.3962C0.870306 65.7279 1.30514 65.8939 1.73997 65.8939C2.1748 65.8939 2.6098 65.7279 2.94148 65.3962L15.8953 52.4424L28.0299 64.577L8.59359 84.0134C7.93005 84.6771 7.93022 85.753 8.59359 86.4165C8.92545 86.7482 9.36045 86.9143 9.79528 86.9143C10.2301 86.9143 10.6649 86.7482 10.9968 86.4165L37.2674 60.146C37.7513 59.6619 38.3022 59.2697 38.8983 58.9747L43.0097 61.6827C45.729 63.4739 49.0443 64.1736 52.2407 63.656L75.0879 86.5032C75.4196 86.8349 75.8546 87.0009 76.2894 87.0009C76.7243 87.0009 77.1593 86.8349 77.4909 86.5032C78.1547 85.8397 78.1547 84.7637 77.4909 84.1L64.2347 70.8437L65.8372 69.2412C66.5007 68.5777 66.5007 67.5017 65.8372 66.838C65.1737 66.1746 64.0977 66.1746 63.4342 66.838L61.8316 68.4407L58.0794 64.6885L72.091 50.6769L75.8432 54.4291L74.2443 56.0281C73.5807 56.6918 73.5807 57.7676 74.2443 58.4313C74.5761 58.763 75.0109 58.9288 75.4458 58.9288C75.8806 58.9288 76.3156 58.763 76.6473 58.4313L78.2463 56.8322L84.0992 62.6851C84.4311 63.0168 84.8659 63.1828 85.3007 63.1828C85.7356 63.1828 86.1705 63.0168 86.5022 62.6851C87.166 62.0216 87.1658 60.9456 86.5022 60.2819L73.9134 47.6932Z" fill="#1B2A41"/>
<path d="M68.8371 61.4352C68.521 61.7513 68.3392 62.188 68.3392 62.6366C68.3392 63.0835 68.521 63.5219 68.8371 63.8379C69.1531 64.154 69.5915 64.3358 70.0384 64.3358C70.487 64.3358 70.9237 64.154 71.2398 63.8379C71.5558 63.5219 71.7376 63.0835 71.7376 62.6366C71.7376 62.188 71.5558 61.7513 71.2398 61.4352C70.9237 61.1192 70.4853 60.9374 70.0384 60.9374C69.5915 60.9374 69.1531 61.1192 68.8371 61.4352Z" fill="#1B2A41"/>
<path d="M11.4795 13.8818C11.8114 14.2136 12.2462 14.3795 12.681 14.3795C13.1159 14.3795 13.5509 14.2136 13.8827 13.8818C14.5463 13.2182 14.5463 12.1423 13.8827 11.4786L5.88416 3.48019C5.22061 2.81664 4.14467 2.81664 3.48112 3.48019C2.81741 4.14373 2.81741 5.21967 3.48112 5.88339L11.4795 13.8818Z" fill="#1B2A41"/>
<path d="M20.7305 9.26248C21.6689 9.26248 22.4297 8.50174 22.4297 7.56327V1.69824C22.4297 0.759764 21.6689 -0.000976562 20.7305 -0.000976562C19.792 -0.000976562 19.0312 0.759764 19.0312 1.69824V7.56327C19.0312 8.50174 19.792 9.26248 20.7305 9.26248Z" fill="#1B2A41"/>
<path d="M1.69922 22.4288H7.56424C8.50272 22.4288 9.26346 21.6681 9.26346 20.7296C9.26346 19.7911 8.50272 19.0304 7.56424 19.0304H1.69922C0.76074 19.0304 0 19.7911 0 20.7296C0 21.6681 0.76074 22.4288 1.69922 22.4288Z" fill="#1B2A41"/>
<path d="M74.3188 14.3794C74.7537 14.3794 75.1887 14.2136 75.5204 13.8817L83.5189 5.88331C84.1825 5.21976 84.1825 4.14382 83.5189 3.4801C82.8552 2.81656 81.7793 2.81656 81.1157 3.4801L73.1173 11.4787C72.4536 12.1422 72.4536 13.2182 73.1173 13.8817C73.449 14.2136 73.884 14.3794 74.3188 14.3794Z" fill="#1B2A41"/>
<path d="M66.2695 9.26248C67.208 9.26248 67.9687 8.50174 67.9687 7.56327V1.69824C67.9687 0.759764 67.208 -0.000976562 66.2695 -0.000976562C65.331 -0.000976562 64.5703 0.759764 64.5703 1.69824V7.56327C64.5703 8.50174 65.331 9.26248 66.2695 9.26248Z" fill="#1B2A41"/>
<path d="M77.7366 20.7296C77.7366 21.6681 78.4973 22.4288 79.4358 22.4288H85.3008C86.2393 22.4288 87.0001 21.6681 87.0001 20.7296C87.0001 19.7911 86.2393 19.0304 85.3008 19.0304H79.4358C78.4973 19.0304 77.7366 19.7911 77.7366 20.7296Z" fill="#1B2A41"/>
</g>
</g>
<defs>
<clipPath id="clip0_310_14934">
<rect width="87" height="87" fill="white"/>
</clipPath>
</defs>
</svg>
