<svg width="32" height="33" viewBox="0 0 32 33" fill="none" xmlns="http://www.w3.org/2000/svg">
<path d="M27.936 0.0527344H31.2191C31.6509 0.0527344 31.9995 0.401331 31.9995 0.833175V4.11623H27.936V0.0527344Z" fill="#1B2A41"/>
<path fill-rule="evenodd" clip-rule="evenodd" d="M27.9365 4.11623V8.17972H32V31.2847C32 31.7097 31.657 32.0527 31.232 32.0527H0.768C0.34304 32.0527 0 31.7097 0 31.2847V0.820734C0 0.395774 0.34304 0.0527344 0.768 0.0527344H23.873V4.11623H27.9365ZM17.0765 4.86328H16.1825V6.64106H17.0765V8.42392H17.9654V6.64106H17.0765V4.86328ZM25.9654 14.6461H25.0765V15.535H23.2987V21.7572H24.1876H25.0765V20.8684H25.9654V14.6461ZM24.1876 22.6461V23.535H23.2987V25.3128H21.5209V27.0957H19.7431V27.9846H8.18251V27.0957H6.40473V26.2068H5.51584V25.3128H4.62695V11.9795V11.0906V10.2017H7.29362H9.96029H23.2987V11.0906V12.8684H26.8543V13.7572H27.7431V19.0906V20.8684H26.8543V21.7572H25.9654V22.6461H24.1876ZM16.1825 8.42392H17.0714V9.3128H16.1825V8.42392ZM14.4047 8.42392H13.5158V6.64106H14.4047V8.42392ZM13.5158 8.42392H12.627V9.3128H13.5158V8.42392ZM13.5158 4.86328V6.64106H12.627V4.86328H13.5158ZM9.96029 8.42392H10.8492V6.64106H9.96029V4.86328H9.0714V6.64106H9.96029V8.42392ZM9.96029 8.42392V9.3128H9.0714V8.42392H9.96029Z" fill="#1B2A41"/>
</svg>
