<svg width="63" height="64" viewBox="0 0 63 64" fill="none" xmlns="http://www.w3.org/2000/svg">
<path d="M55 0.552734H61.4635C62.3137 0.552734 63 1.23903 63 2.08923V8.55273H55V0.552734Z" fill="#1B2A41"/>
<path fill-rule="evenodd" clip-rule="evenodd" d="M55 8.55273V16.5527H63V62.0407C63 62.8774 62.3246 63.5527 61.488 63.5527H1.512C0.67536 63.5527 0 62.8774 0 62.0407V2.06473C0 1.22809 0.67536 0.552734 1.512 0.552734H47V8.55273H55ZM33.6199 10.0225H31.8599V13.5225H33.6199V17.0325H35.3699V13.5225H33.6199V10.0225ZM51.1199 29.2825H49.3699V31.0325H45.8699V43.2825H47.6199H49.3699V41.5325H51.1199V29.2825ZM47.6199 45.0325V46.7825H45.8699V50.2825H42.3699V53.7925H38.8699V55.5425H16.1099V53.7925H12.6099V52.0425H10.8599V50.2825H9.10986V24.0325V22.2825V20.5325H14.3599H19.6099H45.8699V22.2825V25.7825H52.8699V27.5325H54.6199V38.0325V41.5325H52.8699V43.2825H51.1199V45.0325H47.6199ZM31.8599 17.0325H33.6099V18.7825H31.8599V17.0325ZM28.3599 17.0325H26.6099V13.5225H28.3599V17.0325ZM26.6099 17.0325H24.8599V18.7825H26.6099V17.0325ZM26.6099 10.0225V13.5225H24.8599V10.0225H26.6099ZM19.6099 17.0325H21.3599V13.5225H19.6099V10.0225H17.8599V13.5225H19.6099V17.0325ZM19.6099 17.0325V18.7825H17.8599V17.0325H19.6099Z" fill="#1B2A41"/>
</svg>
