<svg width="483" height="66" viewBox="0 0 483 66" fill="none" xmlns="http://www.w3.org/2000/svg">
<g clip-path="url(#clip0_2203_11331)">
<path d="M96.1401 55.6374L91.5601 48.5074H93.6801L97.0701 53.9074L100.49 48.5074H102.61L98.0001 55.6374V60.3774H96.1401V55.6374Z" fill="#1B2A41"/>
<path d="M102 56.0474C102 53.6874 103.91 51.7674 106.28 51.7674C108.65 51.7674 110.56 53.6774 110.56 56.0474C110.56 58.4174 108.65 60.3374 106.28 60.3374C103.91 60.3374 102 58.4274 102 56.0574V56.0474ZM108.82 56.0474C108.82 54.1474 107.82 52.9274 106.27 52.9274C104.72 52.9274 103.73 54.1474 103.73 56.0474C103.73 57.9474 104.73 59.1574 106.27 59.1574C107.81 59.1574 108.83 57.9374 108.83 56.0474H108.82Z" fill="#1B2A41"/>
<path d="M112.78 51.7574H114.49V56.8974C114.49 58.2874 114.91 59.0174 116.08 59.0174C117.25 59.0474 118.22 58.1274 118.26 56.9574C118.26 56.8474 118.26 56.7474 118.24 56.6374V51.7374H120V60.3074H118.29V58.9474C117.77 59.9474 116.72 60.5474 115.6 60.4874C113.6 60.4874 112.86 59.3474 112.86 57.3674L112.78 51.7574Z" fill="#1B2A41"/>
<path d="M122.7 51.7574H124.41V53.0874C124.87 52.1774 125.81 51.6174 126.83 51.6374C126.99 51.6274 127.16 51.6274 127.32 51.6374V53.4174C127.08 53.3374 126.84 53.3074 126.59 53.3074C125.44 53.2474 124.46 54.1374 124.4 55.2874C124.4 55.4074 124.4 55.5174 124.41 55.6374V60.3274H122.7V51.7574Z" fill="#1B2A41"/>
<path d="M132.76 51.7574H134.56L136.36 58.1774L138.36 51.7574H140L142 58.1774L143.84 51.7574H145.62L142.95 60.3274H141.26L139.26 54.0974L137.19 60.3274H135.53L132.76 51.7574Z" fill="#1B2A41"/>
<path d="M146.46 56.0474C146.46 53.6874 148.37 51.7674 150.74 51.7674C153.11 51.7674 155.02 53.6774 155.02 56.0474C155.02 58.4174 153.11 60.3374 150.74 60.3374C148.37 60.3374 146.46 58.4274 146.46 56.0574V56.0474ZM153.28 56.0474C153.28 54.1474 152.28 52.9274 150.73 52.9274C149.18 52.9274 148.19 54.1474 148.19 56.0474C148.19 57.9474 149.19 59.1574 150.73 59.1574C152.27 59.1574 153.28 57.9374 153.28 56.0474Z" fill="#1B2A41"/>
<path d="M157.18 51.7574H158.89V53.0874C159.35 52.1774 160.29 51.6174 161.31 51.6374C161.47 51.6274 161.64 51.6274 161.8 51.6374V53.4174C161.56 53.3374 161.32 53.3074 161.07 53.3074C159.92 53.2474 158.94 54.1374 158.88 55.2874C158.88 55.4074 158.88 55.5174 158.89 55.6374V60.3274H157.18V51.7574Z" fill="#1B2A41"/>
<path d="M163.28 48.4774H165V55.6374L168.54 51.7574H170.76L167 55.6374L171.16 60.3174H168.93L165 55.6374V60.2974H163.29V48.4774H163.28Z" fill="#1B2A41"/>
<path d="M172.68 51.7574H174.4V53.0874C174.98 52.1174 176.05 51.5574 177.18 51.6374C179.6 51.6374 180.83 53.5174 180.83 56.0774C180.83 58.6374 179.5 60.5274 177.16 60.5274C176.03 60.5874 174.97 59.9874 174.43 58.9874V63.4874H172.71L172.68 51.7574ZM179.09 56.0374C179.09 54.0874 178.22 52.9174 176.68 52.9174C175.14 52.9174 174.38 54.0974 174.38 56.0674C174.38 58.0374 175.1 59.1774 176.7 59.1774C178.3 59.1774 179.09 58.0474 179.09 56.0374Z" fill="#1B2A41"/>
<path d="M183 48.4774H184.72V60.3274H183V48.4774Z" fill="#1B2A41"/>
<path d="M192.48 59.1274C191.77 60.0574 190.65 60.5674 189.48 60.4874C187.65 60.4874 186.77 59.4874 186.77 58.2074C186.77 55.7474 189.27 55.6974 191.03 55.3974C192.31 55.1874 192.49 55.0874 192.49 54.4874C192.49 53.5874 191.89 52.9574 190.73 52.9574C189.83 52.8174 189 53.4374 188.86 54.3274C188.85 54.4074 188.84 54.4874 188.84 54.5674H187.19C187.38 52.7074 188.37 51.5674 190.74 51.5674C193.11 51.5674 194.2 52.7074 194.2 54.9974V60.2974H192.49V59.1274H192.48ZM192.48 56.1274C190.72 56.5874 188.48 56.4474 188.48 57.9174C188.48 58.6674 189.12 59.1574 190.01 59.1574C191.26 59.2774 192.37 58.3674 192.49 57.1174C192.49 57.0374 192.5 56.9574 192.5 56.8774L192.48 56.1274Z" fill="#1B2A41"/>
<path d="M203.92 57.1674C203.8 59.3174 202.44 60.4874 200.2 60.4874C197.47 60.4874 196.2 58.6774 196.2 56.0474C196.2 53.4174 197.61 51.5974 200.2 51.5974C202.44 51.5974 203.81 52.7974 203.93 54.9474H202.23C202.23 53.8774 201.36 53.0074 200.29 53.0074C200.25 53.0074 200.21 53.0074 200.18 53.0074C198.71 53.0074 197.89 54.0074 197.89 56.0074C197.89 58.0074 198.71 59.0074 200.18 59.0074C201.21 59.1074 202.12 58.3574 202.22 57.3274C202.22 57.2474 202.23 57.1774 202.22 57.0974L203.91 57.1674H203.92Z" fill="#1B2A41"/>
<path d="M213.42 57.3974C213.28 59.1874 211.95 60.4874 209.69 60.4874C206.89 60.4874 205.69 58.7074 205.69 56.0474C205.69 53.3874 207 51.6374 209.67 51.6374C212.34 51.6374 213.44 53.3374 213.44 56.0774V56.3474H207.44C207.44 58.2074 208.31 59.1474 209.65 59.1474C210.69 59.2774 211.63 58.5374 211.75 57.4974C211.75 57.4774 211.75 57.4574 211.75 57.4374L213.41 57.3974H213.42ZM211.74 55.1874C211.87 54.0874 211.09 53.0974 210 52.9574C209.89 52.9474 209.78 52.9374 209.67 52.9474C208.39 52.9474 207.61 53.6774 207.43 55.1874H211.74Z" fill="#1B2A41"/>
<path d="M216.52 58.1274C217.12 58.0974 217.63 58.5674 217.66 59.1674C217.66 59.1974 217.66 59.2374 217.66 59.2674C217.68 59.8774 217.21 60.3874 216.6 60.4074C216.57 60.4074 216.55 60.4074 216.52 60.4074C215.89 60.4074 215.38 59.8974 215.38 59.2674C215.38 58.6374 215.89 58.1274 216.52 58.1274Z" fill="#1B2A41"/>
<path d="M224.67 48.4774H229.67C231.83 48.4774 233.05 49.6974 233.05 51.4074C233.07 52.4274 232.53 53.3774 231.64 53.8774C232.94 54.2974 233.83 55.5074 233.84 56.8774C233.84 58.9674 232.39 60.2774 230.09 60.2774H224.7L224.67 48.4774ZM229.26 53.4774C230.18 53.5874 231.01 52.9174 231.12 51.9974C231.12 51.9074 231.13 51.8274 231.12 51.7374C231.17 50.8574 230.49 50.0974 229.61 50.0474C229.52 50.0474 229.44 50.0474 229.35 50.0474H226.51V53.4274L229.25 53.4674L229.26 53.4774ZM229.95 58.8274C230.93 58.9474 231.82 58.2374 231.94 57.2574C231.94 57.1774 231.95 57.0874 231.95 57.0074C232.01 55.9574 231.2 55.0674 230.16 55.0074C230.09 55.0074 230.02 55.0074 229.95 55.0074H226.6V58.8174H229.95V58.8274Z" fill="#1B2A41"/>
<path d="M243.21 57.3974C243.07 59.1874 241.74 60.4874 239.48 60.4874C236.68 60.4874 235.48 58.7074 235.48 56.0474C235.48 53.3874 236.8 51.5974 239.48 51.5974C242.16 51.5974 243.24 53.2974 243.24 56.0374V56.3074H237.24C237.29 58.1674 238.11 59.1074 239.45 59.1074C240.5 59.2274 241.45 58.4774 241.57 57.4274C241.57 57.4174 241.57 57.4074 241.57 57.3974H243.21ZM241.53 55.1874C241.66 54.0874 240.88 53.0974 239.79 52.9574C239.69 52.9474 239.58 52.9374 239.47 52.9474C238.19 52.9474 237.4 53.6774 237.23 55.1874H241.53Z" fill="#1B2A41"/>
<path d="M245.69 53.1674H244.49V51.7574H245.69V49.5574H247.4V51.7574H249.4V53.1674H247.4V57.6374C247.31 58.2274 247.71 58.7874 248.31 58.8874C248.41 58.9074 248.52 58.9074 248.62 58.8874C248.9 58.8874 249.18 58.8574 249.45 58.8074V60.3274C249.08 60.4074 248.7 60.4474 248.32 60.4574C246.67 60.4574 245.69 59.6574 245.69 57.7374V53.1674Z" fill="#1B2A41"/>
<path d="M251.35 53.1674H250.15V51.7574H251.35V49.5574H253.07V51.7574H255.07V53.1674H253.07V57.6374C253.07 58.4974 253.48 58.8874 254.28 58.8874C254.56 58.8874 254.84 58.8574 255.12 58.8074V60.3274C254.74 60.4074 254.36 60.4474 253.98 60.4574C252.33 60.4574 251.35 59.6574 251.35 57.7374V53.1674Z" fill="#1B2A41"/>
<path d="M264.06 57.3974C263.92 59.1874 262.59 60.4874 260.33 60.4874C257.53 60.4874 256.33 58.7074 256.33 56.0474C256.33 53.3874 257.66 51.5974 260.33 51.5974C263 51.5974 264.09 53.2974 264.09 56.0374V56.3074H258.09C258.09 58.1674 258.96 59.1074 260.3 59.1074C261.34 59.2374 262.28 58.4974 262.4 57.4574C262.4 57.4374 262.4 57.4174 262.4 57.3974H264.06ZM262.38 55.1874C262.51 54.0874 261.73 53.0974 260.64 52.9574C260.54 52.9474 260.43 52.9374 260.32 52.9474C259.03 52.9474 258.25 53.6774 258.07 55.1874H262.38Z" fill="#1B2A41"/>
<path d="M266.49 51.7574H268.2V53.0874C268.66 52.1774 269.6 51.6174 270.62 51.6374C270.79 51.6274 270.95 51.6274 271.12 51.6374V53.4174C270.88 53.3374 270.63 53.3074 270.38 53.3074C269.23 53.2474 268.25 54.1374 268.19 55.2874C268.19 55.4074 268.19 55.5174 268.2 55.6374V60.3274H266.49V51.7574Z" fill="#1B2A41"/>
<path d="M272.15 58.1274C272.75 58.0974 273.26 58.5674 273.29 59.1674C273.29 59.1974 273.29 59.2374 273.29 59.2674C273.31 59.8774 272.84 60.3874 272.23 60.4074C272.2 60.4074 272.18 60.4074 272.15 60.4074C271.52 60.4074 271.01 59.8974 271.01 59.2674C271.01 58.6374 271.52 58.1274 272.15 58.1274Z" fill="#1B2A41"/>
<path d="M55 0.494019H61.4635C62.3137 0.494019 63 1.18032 63 2.03051V8.49402H55V0.494019Z" fill="#1B2A41"/>
<path fill-rule="evenodd" clip-rule="evenodd" d="M55 8.49402V16.494H63V61.982C63 62.8187 62.3246 63.494 61.488 63.494H1.512C0.67536 63.494 0 62.8187 0 61.982V2.00602C0 1.16938 0.67536 0.494019 1.512 0.494019H47V8.49402H55ZM33.6199 9.96375H31.8599V13.4637H33.6199V16.9737H35.3699V13.4637H33.6199V9.96375ZM51.1199 29.2237H49.3699V30.9737H45.8699V43.2237H47.6199H49.3699V41.4737H51.1199V29.2237ZM47.6199 44.9737V46.7237H45.8699V50.2237H42.3699V53.7337H38.8699V55.4837H16.1099V53.7337H12.6099V51.9837H10.8599V50.2237H9.10986V23.9737V22.2237V20.4737H14.3599H19.6099H45.8699V22.2237V25.7237H52.8699V27.4737H54.6199V37.9737V41.4737H52.8699V43.2237H51.1199V44.9737H47.6199ZM31.8599 16.9737H33.6099V18.7237H31.8599V16.9737ZM28.3599 16.9737H26.6099V13.4637H28.3599V16.9737ZM26.6099 16.9737H24.8599V18.7237H26.6099V16.9737ZM26.6099 9.96375V13.4637H24.8599V9.96375H26.6099ZM19.6099 16.9737H21.3599V13.4637H19.6099V9.96375H17.8599V13.4637H19.6099V16.9737ZM19.6099 16.9737V18.7237H17.8599V16.9737H19.6099Z" fill="#1B2A41"/>
<path d="M93.5299 40.6874C93.3799 40.4374 93.2299 40.1674 93.0999 39.8974C92.9599 39.6374 92.8399 39.3674 92.7399 39.0874C90.7999 33.9874 88.8899 28.9374 86.9999 23.9274C85.1099 18.9174 83.1699 13.8674 81.1699 8.75741C81.1799 8.68741 81.1799 8.62741 81.1699 8.55741C81.1699 8.49741 81.1699 8.43741 81.1699 8.37741C81.1699 7.95741 81.4399 7.74741 81.9999 7.74741H89.2399C89.7699 7.75741 90.2199 8.12741 90.3499 8.63741L97.2399 29.1274L103.61 8.63741C103.77 8.09741 104.28 7.74741 104.84 7.77741H112.16C112.42 7.75741 112.67 7.82741 112.89 7.96741C113.03 8.09741 113.11 8.28741 113.1 8.47741C113.1 8.55741 113.1 8.64741 113.1 8.72741V8.78741L109.1 20.2674L112.1 29.1074L119.38 8.63741C119.54 8.09741 120.06 7.73741 120.62 7.77741H127.7C127.96 7.75741 128.22 7.81741 128.43 7.96741C128.58 8.09741 128.66 8.28741 128.65 8.47741C128.65 8.55741 128.65 8.64741 128.65 8.72741V8.78741C127.65 11.4274 126.58 14.0674 125.52 16.6874L122.31 24.5674C121.24 27.1874 120.17 29.8174 119.12 32.4474C118.07 35.0774 117 37.6374 116 40.3074C115.91 40.5174 115.77 40.7074 115.6 40.8574C115.39 41.0574 115.12 41.1674 114.83 41.1574H109.32C109.06 41.1774 108.79 41.1074 108.57 40.9674C108.39 40.8474 108.26 40.6674 108.2 40.4674L104.64 31.1074C104.13 32.4674 103.64 33.8074 103.13 35.1074C102.62 36.4074 102.13 37.7574 101.65 39.1074C101.57 39.3174 101.49 39.5374 101.39 39.7674C101.3 39.9974 101.18 40.2174 101.04 40.4174C100.92 40.6174 100.76 40.7874 100.58 40.9274C100.41 41.0674 100.2 41.1374 99.9799 41.1274H94.4699C94.0999 41.1874 93.7199 41.0174 93.5299 40.6874Z" fill="#1B2A41"/>
<path d="M127.86 26.8974C127.86 24.2574 128.54 21.6574 129.86 19.3674C130.5 18.2774 131.27 17.2674 132.16 16.3674C133.06 15.4774 134.06 14.7174 135.16 14.0874C137.45 12.7774 140.04 12.0874 142.68 12.0874C144.65 12.0774 146.6 12.4574 148.42 13.2274C150.17 13.9474 151.76 15.0074 153.1 16.3474C154.44 17.6874 155.51 19.2774 156.25 21.0274C157.54 24.1274 157.76 27.5774 156.88 30.8174C155.88 34.5374 153.45 37.7074 150.12 39.6374C147.86 40.9474 145.29 41.6374 142.68 41.6374C141.33 41.6374 139.98 41.4674 138.68 41.1174C137.44 40.7874 136.25 40.2974 135.14 39.6474C132.95 38.3774 131.13 36.5574 129.86 34.3674C129.22 33.2574 128.72 32.0674 128.38 30.8274C128.03 29.5474 127.86 28.2274 127.86 26.8974ZM136.07 26.8974C136.07 27.8474 136.22 28.7874 136.53 29.6774C136.82 30.4974 137.26 31.2574 137.84 31.9174C138.39 32.5474 139.08 33.0574 139.84 33.4074C140.69 33.7874 141.62 33.9774 142.55 33.9574C143.46 33.9674 144.36 33.7874 145.19 33.4074C145.96 33.0674 146.64 32.5574 147.19 31.9174C147.78 31.2574 148.22 30.4774 148.5 29.6374C149.09 27.8374 149.09 25.9074 148.5 24.1074C148.23 23.2674 147.8 22.4974 147.24 21.8174C146.7 21.1574 146.01 20.6274 145.24 20.2574C144.42 19.8574 143.51 19.6674 142.6 19.6774C141.66 19.6574 140.74 19.8574 139.89 20.2574C139.12 20.6274 138.44 21.1574 137.89 21.8174C137.32 22.4974 136.87 23.2674 136.58 24.1074C136.25 24.9974 136.08 25.9474 136.07 26.8974Z" fill="#1B2A41"/>
<path d="M161.88 14.2474C161.88 13.9974 161.94 13.7474 162.05 13.5174C162.15 13.3074 162.29 13.1174 162.47 12.9674C162.83 12.7274 163.25 12.5874 163.68 12.5874H167.08C167.31 12.5774 167.55 12.6274 167.75 12.7474C167.92 12.8474 168.06 12.9874 168.17 13.1474C168.29 13.3274 168.38 13.5074 168.46 13.7074C168.54 13.9274 168.64 14.1374 168.76 14.3374L168.95 14.7774C169.03 15.0174 169.13 15.2674 169.24 15.5474C169.35 15.8274 169.44 16.0874 169.54 16.3374C169.64 16.5874 169.7 16.7374 169.73 16.8174C170.18 16.3174 170.61 15.8174 171.03 15.2574C171.43 14.7174 171.87 14.2074 172.34 13.7374C172.8 13.2974 173.32 12.9274 173.89 12.6374C174.51 12.3274 175.2 12.1774 175.89 12.1874C176.62 12.1874 177.34 12.2374 178.06 12.3674C178.68 12.4774 179.29 12.6574 179.87 12.8974C180.46 13.1374 181.03 13.4374 181.57 13.7874C182.13 14.1474 182.74 14.5674 183.4 15.0474C184.4 15.5974 184.63 16.4274 183.99 17.5174L182 20.9574C181.76 21.3674 181.36 21.6674 180.9 21.7874C180.42 21.8874 179.91 21.8174 179.48 21.5874C178.9 21.0074 178.22 20.5274 177.48 20.1774C176.76 19.8674 175.98 19.7074 175.2 19.7174C174.68 19.7074 174.15 19.7874 173.66 19.9674C173.22 20.1274 172.81 20.3674 172.45 20.6674C172.08 20.9874 171.74 21.3574 171.45 21.7474C171.14 22.1674 170.82 22.6274 170.51 23.1374V39.4274C170.54 39.8974 170.39 40.3574 170.09 40.7174C169.71 41.0474 169.21 41.2074 168.71 41.1574H163.65C162.81 41.2874 162.02 40.7074 161.89 39.8674C161.87 39.7174 161.87 39.5674 161.89 39.4274V14.2474H161.88Z" fill="#1B2A41"/>
<path d="M187.78 5.11741C187.78 4.92741 187.86 4.73741 187.97 4.57741C188.11 4.40741 188.29 4.28741 188.5 4.22741C188.83 4.13741 189.16 4.09741 189.5 4.10741H194.88C195.12 4.09741 195.37 4.14741 195.59 4.24741C195.77 4.33741 195.92 4.45741 196.04 4.61741C196.15 4.75741 196.22 4.92741 196.26 5.10741C196.3 5.26741 196.32 5.42741 196.32 5.58741V22.2374L204.42 13.2374C204.76 12.8274 205.27 12.5874 205.81 12.5874H212.72C213.55 12.5874 213.96 12.9074 213.96 13.5874C213.96 13.7274 213.94 13.8574 213.88 13.9874C213.79 14.1474 213.68 14.3074 213.55 14.4374L204.31 24.2074L216 39.1174H215.95C216.13 39.2774 216.27 39.4874 216.37 39.7074C216.44 39.8774 216.48 40.0674 216.49 40.2574C216.53 40.5274 216.42 40.7974 216.21 40.9674C215.96 41.1174 215.66 41.1774 215.37 41.1574H207.76C207.49 41.1574 207.24 41.0474 207.04 40.8674C206.76 40.6074 206.51 40.3074 206.3 39.9874L198.94 29.5774L196.45 32.1574V39.4274C196.45 39.5874 196.43 39.7474 196.39 39.8974C196.35 40.0974 196.28 40.2974 196.17 40.4774C196.05 40.6674 195.89 40.8374 195.7 40.9574C195.47 41.1074 195.21 41.1774 194.94 41.1574H189.29C189.04 41.1574 188.8 41.0874 188.59 40.9474C188.41 40.8174 188.25 40.6574 188.13 40.4674C188.03 40.3074 187.95 40.1374 187.89 39.9574C187.85 39.8674 187.82 39.7774 187.81 39.6774L187.78 5.11741Z" fill="#1B2A41"/>
<path d="M274.15 37.6374C273.75 38.0374 273.3 38.4774 272.81 38.9374C272.31 39.4174 271.78 39.8574 271.21 40.2474C270.62 40.6474 269.99 40.9874 269.32 41.2474C268.62 41.5074 267.88 41.6474 267.13 41.6374C263.32 41.6774 259.67 40.1274 257.06 37.3574C255.81 35.9874 254.82 34.3974 254.16 32.6574C252.77 28.9074 252.77 24.7874 254.16 21.0374C254.82 19.3074 255.81 17.7174 257.06 16.3574C258.31 15.0174 259.82 13.9574 261.5 13.2374C263.28 12.4674 265.19 12.0774 267.13 12.0974C267.9 12.0974 268.66 12.2074 269.39 12.4574C270.05 12.6874 270.68 12.9974 271.26 13.3774C271.82 13.7474 272.33 14.1774 272.81 14.6474C273.29 15.1274 273.73 15.5874 274.15 16.0374V5.78741C274.14 5.34741 274.3 4.90741 274.59 4.57741C274.94 4.22741 275.42 4.03741 275.91 4.07741H281C281.21 4.07741 281.42 4.12741 281.62 4.20741C281.84 4.28741 282.04 4.40741 282.22 4.55741C282.4 4.70741 282.54 4.88741 282.65 5.09741C282.77 5.30741 282.83 5.54741 282.82 5.78741V39.4274C282.82 40.5874 282.22 41.1574 281 41.1574H276.59C276.35 41.1674 276.11 41.1374 275.89 41.0474C275.73 40.9774 275.58 40.8574 275.48 40.7174C275.35 40.5574 275.25 40.3774 275.17 40.1874C275.08 39.9674 274.97 39.7174 274.84 39.4274L274.15 37.6374ZM261.22 26.8974C261.22 27.8474 261.37 28.7874 261.68 29.6774C261.96 30.5074 262.41 31.2674 263 31.9174C263.58 32.5474 264.28 33.0574 265.06 33.4074C265.9 33.7874 266.81 33.9674 267.73 33.9574C268.66 33.9574 269.58 33.7874 270.44 33.4474C271.26 33.1174 272.02 32.6274 272.66 32.0174C273.29 31.3974 273.8 30.6674 274.17 29.8674C274.56 29.0274 274.78 28.1274 274.82 27.2074V26.8974C274.82 25.9574 274.64 25.0174 274.28 24.1474C273.93 23.2974 273.42 22.5174 272.78 21.8574C272.14 21.1974 271.37 20.6674 270.53 20.2974C269.65 19.9074 268.69 19.7074 267.73 19.7174C266.81 19.7074 265.89 19.8974 265.06 20.2974C264.27 20.6674 263.57 21.1974 263 21.8574C262.42 22.5274 261.98 23.3074 261.69 24.1474C261.38 25.0274 261.22 25.9574 261.22 26.8974Z" fill="#1B2A41"/>
<path d="M339.83 37.7374C338.53 38.9674 337.03 39.9474 335.38 40.6374C333.71 41.3174 331.93 41.6574 330.13 41.6374C326.17 41.6574 322.35 40.1374 319.49 37.3974C318.1 36.0374 316.98 34.4274 316.21 32.6374C315.4 30.7974 314.99 28.8174 315 26.8074C314.99 24.2474 315.63 21.7374 316.86 19.4974C317.45 18.4074 318.18 17.3974 319.02 16.4974C319.86 15.5974 320.81 14.8174 321.86 14.1774C324.06 12.8274 326.6 12.1174 329.18 12.1274C330.4 12.1274 331.62 12.2874 332.8 12.6174C333.95 12.9374 335.06 13.4074 336.09 14.0174C338.14 15.2174 339.85 16.9074 341.09 18.9374C341.71 19.9274 342.19 21.0074 342.52 22.1274C342.86 23.2674 343.03 24.4374 343.03 25.6274V27.5374C343.03 27.9574 342.92 28.3674 342.69 28.7174C342.43 29.0474 342.05 29.2674 341.64 29.3274C340.93 29.4574 340.21 29.5174 339.49 29.4974H323.29C323.4 30.3574 323.71 31.1874 324.2 31.9074C324.63 32.5174 325.17 33.0374 325.79 33.4474C326.38 33.8174 327.02 34.0974 327.7 34.2674C328.32 34.4274 328.97 34.5074 329.61 34.5174C330.17 34.5174 330.73 34.4574 331.28 34.3474C331.84 34.2374 332.39 34.0874 332.93 33.8974C333.43 33.7174 333.92 33.4974 334.39 33.2474C334.78 33.0374 335.14 32.7774 335.46 32.4674C335.65 32.3074 335.86 32.1574 336.08 32.0274C336.25 31.9274 336.44 31.8774 336.63 31.8774C336.85 31.8774 337.06 31.9574 337.23 32.0874C337.48 32.2574 337.71 32.4574 337.92 32.6674L340.3 35.3674C340.44 35.5174 340.55 35.6974 340.62 35.8974C340.66 36.0574 340.68 36.2174 340.68 36.3774C340.68 36.6574 340.6 36.9274 340.44 37.1574C340.27 37.3774 340.06 37.5774 339.83 37.7374ZM329 18.9974C328.42 18.9974 327.84 19.1174 327.3 19.3474C326.74 19.5774 326.23 19.8974 325.76 20.2774C325.28 20.6774 324.84 21.1174 324.46 21.6074C324.1 22.0774 323.79 22.5874 323.53 23.1174H335C334.71 22.5574 334.37 22.0074 334 21.4974C333.64 21.0074 333.22 20.5674 332.74 20.1874C332.25 19.8074 331.71 19.5174 331.12 19.3174C330.44 19.0974 329.72 18.9874 329 18.9974Z" fill="#1B2A41"/>
<path d="M382 8.12741C381.99 7.73741 382.16 7.36741 382.47 7.12741C382.87 6.83741 383.31 6.61741 383.78 6.45741L388.88 4.63741H389.28C389.72 4.57741 390.15 4.76741 390.4 5.12741C390.61 5.51741 390.7 5.95741 390.68 6.39741V13.4874H394.43C394.86 13.4674 395.28 13.6174 395.6 13.9074C395.92 14.2574 396.09 14.7274 396.05 15.1974V19.5374C396.09 20.0374 395.93 20.5374 395.6 20.9174C395.29 21.2174 394.86 21.3774 394.43 21.3574H390.68V39.4474C390.71 39.9274 390.53 40.4074 390.18 40.7374C389.79 41.0474 389.31 41.2074 388.81 41.1774H383.73C382.89 41.2974 382.12 40.7174 382 39.8774C381.98 39.7274 381.98 39.5774 382 39.4274V21.3374H380.36C379.2 21.3374 378.63 20.7274 378.63 19.5174V15.1774C378.52 14.3474 379.1 13.5774 379.93 13.4674C380.07 13.4474 380.22 13.4474 380.36 13.4674H382V8.12741Z" fill="#1B2A41"/>
<path d="M426.12 40.7774C425.94 40.9374 425.73 41.0474 425.5 41.0974C425.3 41.1374 425.09 41.1574 424.88 41.1674H421.48C421.24 41.1674 421 41.1174 420.78 41.0174C420.59 40.9174 420.43 40.7874 420.29 40.6274C420.15 40.4574 420.04 40.2674 419.95 40.0674C419.86 39.8574 419.79 39.6374 419.73 39.4174L419 36.5374C418.71 37.0874 418.38 37.6174 418 38.1174C417.54 38.7474 416.99 39.3074 416.37 39.7874C415.65 40.3374 414.86 40.7674 414.01 41.0874C413 41.4474 411.93 41.6274 410.86 41.6074C407.7 41.6574 404.69 40.3074 402.63 37.9174C401.63 36.7374 400.85 35.3774 400.35 33.9174C399.8 32.3574 399.53 30.7074 399.54 29.0474V14.3174C399.51 13.8574 399.64 13.3974 399.91 13.0274C400.22 12.7074 400.65 12.5474 401.09 12.5874H406.29C406.76 12.5374 407.23 12.6574 407.62 12.9174C407.91 13.2774 408.04 13.7374 407.98 14.1874V28.8474C407.98 29.4874 408.13 30.1174 408.42 30.6874C408.71 31.2674 409.1 31.7874 409.57 32.2174C410.05 32.6574 410.61 33.0174 411.21 33.2674C411.8 33.5174 412.42 33.6474 413.06 33.6474C413.64 33.6374 414.21 33.5074 414.74 33.2674C415.32 33.0174 415.86 32.6774 416.34 32.2674C416.82 31.8374 417.23 31.3274 417.54 30.7574C417.85 30.1974 418.01 29.5674 418.01 28.9274V14.2574C418.01 13.9974 418.06 13.7274 418.16 13.4874C418.24 13.2474 418.39 13.0374 418.6 12.8974C418.77 12.7874 418.95 12.7074 419.15 12.6574C419.34 12.6074 419.54 12.5874 419.74 12.5874H424.83C425.34 12.5374 425.84 12.7074 426.22 13.0574C426.52 13.4074 426.67 13.8574 426.65 14.3174V39.4974C426.65 39.7774 426.59 40.0474 426.46 40.2874C426.34 40.5174 426.16 40.7174 425.93 40.8474L426.12 40.7774Z" fill="#1B2A41"/>
<path d="M432.1 14.2474C432.1 13.9974 432.16 13.7474 432.27 13.5174C432.37 13.3074 432.51 13.1174 432.69 12.9674C433.05 12.7474 433.47 12.6274 433.9 12.6374H437.3C437.53 12.6274 437.77 12.6774 437.97 12.7974C438.14 12.8974 438.28 13.0374 438.39 13.1974C438.51 13.3774 438.6 13.5574 438.68 13.7574C438.77 13.9774 438.87 14.1874 438.99 14.3874C438.99 14.4474 439.08 14.5974 439.17 14.8274C439.26 15.0574 439.35 15.3174 439.46 15.5974C439.57 15.8774 439.66 16.1374 439.76 16.3874C439.86 16.6374 439.92 16.7874 439.95 16.8674C440.4 16.3674 440.83 15.8674 441.25 15.3074C441.65 14.7674 442.09 14.2574 442.56 13.7874C443.02 13.3274 443.54 12.9374 444.12 12.6374C444.74 12.3274 445.43 12.1774 446.12 12.1874C446.85 12.1874 447.57 12.2374 448.29 12.3674C448.91 12.4774 449.52 12.6574 450.1 12.8974C450.69 13.1374 451.26 13.4374 451.8 13.7874C452.36 14.1474 452.98 14.5674 453.64 15.0474C454.43 15.3674 454.82 16.2674 454.5 17.0674C454.43 17.2374 454.34 17.3874 454.22 17.5174L452.17 21.0074C451.93 21.4174 451.53 21.7174 451.07 21.8374C450.59 21.9374 450.09 21.8674 449.65 21.6374C449.07 21.0574 448.39 20.5774 447.65 20.2274C446.93 19.9074 446.15 19.7574 445.37 19.7674C444.85 19.7574 444.32 19.8374 443.83 20.0174C443.39 20.1774 442.99 20.4174 442.63 20.7174C442.26 21.0374 441.92 21.3974 441.63 21.7974C441.32 22.2174 441 22.6774 440.69 23.1874V39.4274C440.72 39.8974 440.57 40.3574 440.27 40.7174C439.89 41.0474 439.39 41.2074 438.89 41.1574H433.83C432.99 41.2874 432.2 40.7074 432.07 39.8674C432.05 39.7174 432.05 39.5674 432.07 39.4274L432.1 14.2474Z" fill="#1B2A41"/>
<path d="M479.76 37.7374C478.46 38.9674 476.95 39.9474 475.3 40.6374C473.64 41.3174 471.86 41.6574 470.06 41.6374C466.1 41.6574 462.28 40.1374 459.42 37.3974C458.02 36.0374 456.9 34.4274 456.13 32.6374C455.31 30.7874 454.9 28.7874 454.92 26.7674C454.92 24.2174 455.55 21.6974 456.77 19.4574C457.36 18.3674 458.09 17.3574 458.93 16.4574C461.56 13.6574 465.24 12.0674 469.09 12.0874C470.31 12.0874 471.53 12.2474 472.71 12.5774C475.02 13.2274 477.12 14.4474 478.83 16.1374C479.67 16.9774 480.39 17.9274 481 18.9474C481.61 19.9474 482.09 21.0174 482.43 22.1374C482.79 23.2674 482.98 24.4474 483 25.6374V27.5474C483 27.9674 482.88 28.3774 482.65 28.7274C482.4 29.0474 482.05 29.2574 481.65 29.3374C480.94 29.4674 480.23 29.5274 479.51 29.5074H463.2C463.31 30.3674 463.62 31.1974 464.11 31.9174C464.53 32.5274 465.07 33.0474 465.69 33.4574C466.28 33.8274 466.93 34.1074 467.61 34.2774C468.23 34.4374 468.88 34.5174 469.52 34.5274C470.08 34.5274 470.63 34.4674 471.18 34.3574C471.74 34.2474 472.3 34.0974 472.84 33.9074C473.34 33.7274 473.83 33.5074 474.3 33.2574C474.69 33.0474 475.05 32.7874 475.37 32.4774C475.56 32.3074 475.77 32.1674 475.99 32.0374C476.16 31.9374 476.35 31.8874 476.54 31.8874C476.75 31.8874 476.96 31.9674 477.13 32.0974C477.38 32.2674 477.61 32.4574 477.82 32.6774L480.21 35.3774C480.35 35.5274 480.45 35.7074 480.52 35.9074C480.57 36.0674 480.59 36.2274 480.59 36.3874C480.59 36.6674 480.51 36.9474 480.34 37.1674C480.18 37.3874 479.98 37.5774 479.76 37.7374ZM468.93 18.9974C468.35 18.9974 467.77 19.1174 467.23 19.3474C466.68 19.5874 466.16 19.8974 465.69 20.2774C465.21 20.6774 464.78 21.1374 464.4 21.6374C464.04 22.1074 463.73 22.6174 463.47 23.1474H475C474.71 22.5774 474.38 22.0374 474 21.5274C473.64 21.0374 473.21 20.5974 472.74 20.2174C472.25 19.8374 471.71 19.5474 471.12 19.3474C470.42 19.1074 469.67 18.9874 468.93 18.9974Z" fill="#1B2A41"/>
<path d="M239.57 35.6474H234.08V41.1374H239.57V35.6474Z" fill="#1B2A41"/>
<path d="M303.89 12.5874H298.4V18.0774H303.89V12.5874Z" fill="#1B2A41"/>
<path d="M347.91 12.6274H342.42V18.1174H347.91V12.6274Z" fill="#1B2A41"/>
<path d="M355.12 18.0574H347.75V39.4274C347.66 40.2974 348.28 41.0774 349.15 41.1674C349.29 41.1874 349.43 41.1774 349.57 41.1574H354.66C354.86 41.1574 355.06 41.1374 355.25 41.0974C355.45 41.0374 355.64 40.9574 355.81 40.8474C356.01 40.6974 356.16 40.4974 356.24 40.2574C356.34 40.0174 356.39 39.7574 356.39 39.4974V24.8674C356.43 24.2074 356.62 23.5674 356.94 22.9874C357.25 22.4274 357.66 21.9174 358.13 21.4874C358.59 21.0674 359.12 20.7374 359.69 20.4874C360.21 20.2574 360.77 20.1374 361.34 20.1274C361.98 20.1274 362.61 20.2574 363.2 20.5074C363.8 20.7474 364.35 21.0874 364.83 21.5074C365.36 21.9974 365.78 22.5874 366.08 23.2474C366.31 23.7574 366.43 24.3174 366.43 24.8774V39.5674C366.37 40.0174 366.5 40.4774 366.79 40.8374C367.18 41.0974 367.65 41.2074 368.11 41.1574H373.31C373.75 41.1974 374.19 41.0374 374.49 40.7174C374.76 40.3474 374.89 39.8874 374.86 39.4274V24.6874C374.87 23.0374 374.6 21.3874 374.05 19.8274C373.55 18.3674 372.77 17.0074 371.77 15.8274C370.78 14.6874 369.57 13.7674 368.2 13.1374C366.74 12.4574 365.16 12.1174 363.55 12.1374C362.47 12.1174 361.4 12.2974 360.39 12.6674C359.54 12.9774 358.75 13.4174 358.03 13.9674C357.41 14.4474 356.86 15.0074 356.4 15.6374C356.05 16.1074 355.74 16.6074 355.47 17.1274C355.44 17.1874 355.41 17.2474 355.39 17.3174L355.12 18.0574Z" fill="#1B2A41"/>
<path d="M303.84 18.0374L300.39 29.0374C300.29 28.7674 300.13 28.3174 299.91 27.6774C299.69 27.0374 299.44 26.2874 299.17 25.4274C298.9 24.5674 298.59 23.6174 298.26 22.5974C297.93 21.5774 297.59 20.5274 297.26 19.4874C296.93 18.4474 296.6 17.4274 296.26 16.4374C295.92 15.4474 295.67 14.5574 295.41 13.7574C295.31 13.3974 295.09 13.0774 294.79 12.8574C294.5 12.6474 294.15 12.5374 293.79 12.5474H288C287.3 12.5474 286.85 12.7674 286.66 13.1974C286.48 13.7274 286.54 14.2974 286.83 14.7774L297.2 40.1574C297.31 40.4374 297.5 40.6874 297.75 40.8674C298.15 41.0674 298.59 41.1574 299.03 41.1174H301.7C302.06 41.1374 302.41 41.0374 302.7 40.8374C302.93 40.6474 303.13 40.4174 303.28 40.1574L312.52 17.9974L303.84 18.0374Z" fill="#1B2A41"/>
<path d="M250.46 40.1474L238.65 9.68741L238.09 8.39741C237.97 8.24741 237.83 8.10741 237.68 7.98741C237.5 7.83741 237.27 7.74741 237.03 7.74741H231.27C231.14 7.74741 231.01 7.77741 230.89 7.82741C230.75 7.87741 230.62 7.94741 230.5 8.03741C230.39 8.11741 230.28 8.22741 230.2 8.33741C230.13 8.41741 230.08 8.51741 230.05 8.62741L217.84 40.2574C217.72 40.5574 217.75 40.7874 217.94 40.9374C218.14 41.0874 218.39 41.1674 218.65 41.1574H225.28C225.81 41.1874 226.29 40.8474 226.43 40.3274L227.3 38.0474C227.59 37.2874 227.88 36.5274 228.16 35.7574H234.16V28.5374H230.69C230.98 27.7774 231.27 26.9474 231.56 26.0774C231.85 25.2074 232.14 24.3074 232.43 23.4074C232.72 22.5074 233 21.6174 233.29 20.7274C233.58 19.8374 233.87 19.0174 234.16 18.2574L241.85 40.3274C241.93 40.5774 242.08 40.8074 242.29 40.9674C242.53 41.1074 242.81 41.1774 243.09 41.1574H249.55C249.86 41.1974 250.17 41.0874 250.4 40.8774C250.57 40.6674 250.59 40.3774 250.46 40.1474Z" fill="#1B2A41"/>
</g>
<defs>
<clipPath id="clip0_2203_11331">
<rect width="483" height="64.5" fill="white" transform="translate(0 0.637451)"/>
</clipPath>
</defs>
</svg>
