<svg width="16" height="17" viewBox="0 0 16 17" fill="none" xmlns="http://www.w3.org/2000/svg">
<path d="M13.9683 0.0527344H15.6098C15.8257 0.0527344 16 0.227033 16 0.442954V2.08448H13.9683V0.0527344Z" fill="#1B2A41"/>
<path fill-rule="evenodd" clip-rule="evenodd" d="M13.9683 2.08448V4.11623H16V15.6687C16 15.8812 15.8285 16.0527 15.616 16.0527H0.384C0.17152 16.0527 0 15.8812 0 15.6687V0.436734C0 0.224254 0.17152 0.0527344 0.384 0.0527344H11.9365V2.08448H13.9683ZM8.53824 2.45764H8.09126V3.34653H8.53824V4.23796H8.98268V3.34653H8.53824V2.45764ZM12.9827 7.34907H12.5382V7.79351H11.6494V10.9046H12.0938H12.5382V10.4602H12.9827V7.34907ZM12.0938 11.3491V11.7935H11.6494V12.6824H10.7605V13.5738H9.87157V14.0183H4.09125V13.5738H3.20237V13.1294H2.75792V12.6824H2.31348V6.01574V5.57129V5.12685H3.64681H4.98014H11.6494V5.57129V6.46018H13.4271V6.90462H13.8716V9.57129V10.4602H13.4271V10.9046H12.9827V11.3491H12.0938ZM8.09126 4.23796H8.5357V4.6824H8.09126V4.23796ZM7.20237 4.23796H6.75792V3.34653H7.20237V4.23796ZM6.75792 4.23796H6.31348V4.6824H6.75792V4.23796ZM6.75792 2.45764V3.34653H6.31348V2.45764H6.75792ZM4.98014 4.23796H5.42459V3.34653H4.98014V2.45764H4.5357V3.34653H4.98014V4.23796ZM4.98014 4.23796V4.6824H4.5357V4.23796H4.98014Z" fill="#1B2A41"/>
</svg>
