<svg width="402" height="60" viewBox="0 0 402 60" fill="none" xmlns="http://www.w3.org/2000/svg">
<path d="M14.9701 51.7027L10.3901 44.5727H12.5101L15.9001 49.9727L19.3201 44.5727H21.4401L16.8301 51.7027V56.4427H14.9701V51.7027Z" fill="#1B2A41"/>
<path d="M20.8301 52.1127C20.8301 49.7527 22.7401 47.8327 25.1101 47.8327C27.4801 47.8327 29.3901 49.7427 29.3901 52.1127C29.3901 54.4827 27.4801 56.4027 25.1101 56.4027C22.7401 56.4027 20.8301 54.4927 20.8301 52.1227V52.1127ZM27.6501 52.1127C27.6501 50.2127 26.6501 48.9927 25.1001 48.9927C23.5501 48.9927 22.5601 50.2127 22.5601 52.1127C22.5601 54.0127 23.5601 55.2227 25.1001 55.2227C26.6401 55.2227 27.6601 54.0027 27.6601 52.1127H27.6501Z" fill="#1B2A41"/>
<path d="M31.6101 47.8227H33.3201V52.9627C33.3201 54.3527 33.7401 55.0827 34.9101 55.0827C36.0801 55.1127 37.0501 54.1927 37.0901 53.0227C37.0901 52.9127 37.0901 52.8127 37.0701 52.7027V47.8027H38.8301V56.3727H37.1201V55.0127C36.6001 56.0127 35.5501 56.6127 34.4301 56.5527C32.4301 56.5527 31.6901 55.4127 31.6901 53.4327L31.6101 47.8227Z" fill="#1B2A41"/>
<path d="M41.5301 47.8227H43.2401V49.1527C43.7001 48.2427 44.6401 47.6827 45.6601 47.7027C45.8201 47.6927 45.9901 47.6927 46.1501 47.7027V49.4827C45.9101 49.4027 45.6701 49.3727 45.4201 49.3727C44.2701 49.3127 43.2901 50.2027 43.2301 51.3527C43.2301 51.4727 43.2301 51.5827 43.2401 51.7027V56.3927H41.5301V47.8227Z" fill="#1B2A41"/>
<path d="M51.5901 47.8227H53.3901L55.1901 54.2427L57.1901 47.8227H58.8301L60.8301 54.2427L62.6701 47.8227H64.4501L61.7801 56.3927H60.0901L58.0901 50.1627L56.0201 56.3927H54.3601L51.5901 47.8227Z" fill="#1B2A41"/>
<path d="M65.2901 52.1127C65.2901 49.7527 67.2001 47.8327 69.5701 47.8327C71.9401 47.8327 73.8501 49.7427 73.8501 52.1127C73.8501 54.4827 71.9401 56.4027 69.5701 56.4027C67.2001 56.4027 65.2901 54.4927 65.2901 52.1227V52.1127ZM72.1101 52.1127C72.1101 50.2127 71.1101 48.9927 69.5601 48.9927C68.0101 48.9927 67.0201 50.2127 67.0201 52.1127C67.0201 54.0127 68.0201 55.2227 69.5601 55.2227C71.1001 55.2227 72.1101 54.0027 72.1101 52.1127Z" fill="#1B2A41"/>
<path d="M76.0101 47.8227H77.7201V49.1527C78.1801 48.2427 79.1201 47.6827 80.1401 47.7027C80.3001 47.6927 80.4701 47.6927 80.6301 47.7027V49.4827C80.3901 49.4027 80.1501 49.3727 79.9001 49.3727C78.7501 49.3127 77.7701 50.2027 77.7101 51.3527C77.7101 51.4727 77.7101 51.5827 77.7201 51.7027V56.3927H76.0101V47.8227Z" fill="#1B2A41"/>
<path d="M82.1101 44.5427H83.8301V51.7027L87.3701 47.8227H89.5901L85.8301 51.7027L89.9901 56.3827H87.7601L83.8301 51.7027V56.3627H82.1201V44.5427H82.1101Z" fill="#1B2A41"/>
<path d="M91.5101 47.8227H93.2301V49.1527C93.8101 48.1827 94.8801 47.6227 96.0101 47.7027C98.4301 47.7027 99.6601 49.5827 99.6601 52.1427C99.6601 54.7027 98.3301 56.5927 95.9901 56.5927C94.8601 56.6527 93.8001 56.0527 93.2601 55.0527V59.5527H91.5401L91.5101 47.8227ZM97.9201 52.1027C97.9201 50.1527 97.0501 48.9827 95.5101 48.9827C93.9701 48.9827 93.2101 50.1627 93.2101 52.1327C93.2101 54.1027 93.9301 55.2427 95.5301 55.2427C97.1301 55.2427 97.9201 54.1127 97.9201 52.1027Z" fill="#1B2A41"/>
<path d="M101.83 44.5427H103.55V56.3927H101.83V44.5427Z" fill="#1B2A41"/>
<path d="M111.31 55.1927C110.6 56.1227 109.48 56.6327 108.31 56.5527C106.48 56.5527 105.6 55.5527 105.6 54.2727C105.6 51.8127 108.1 51.7627 109.86 51.4627C111.14 51.2527 111.32 51.1527 111.32 50.5527C111.32 49.6527 110.72 49.0227 109.56 49.0227C108.66 48.8827 107.83 49.5027 107.69 50.3927C107.68 50.4727 107.67 50.5527 107.67 50.6327H106.02C106.21 48.7727 107.2 47.6327 109.57 47.6327C111.94 47.6327 113.03 48.7727 113.03 51.0627V56.3627H111.32V55.1927H111.31ZM111.31 52.1927C109.55 52.6527 107.31 52.5127 107.31 53.9827C107.31 54.7327 107.95 55.2227 108.84 55.2227C110.09 55.3427 111.2 54.4327 111.32 53.1827C111.32 53.1027 111.33 53.0227 111.33 52.9427L111.31 52.1927Z" fill="#1B2A41"/>
<path d="M122.75 53.2327C122.63 55.3827 121.27 56.5527 119.03 56.5527C116.3 56.5527 115.03 54.7427 115.03 52.1127C115.03 49.4827 116.44 47.6627 119.03 47.6627C121.27 47.6627 122.64 48.8627 122.76 51.0127H121.06C121.06 49.9427 120.19 49.0727 119.12 49.0727C119.08 49.0727 119.04 49.0727 119.01 49.0727C117.54 49.0727 116.72 50.0727 116.72 52.0727C116.72 54.0727 117.54 55.0727 119.01 55.0727C120.04 55.1727 120.95 54.4227 121.05 53.3927C121.05 53.3127 121.06 53.2427 121.05 53.1627L122.74 53.2327H122.75Z" fill="#1B2A41"/>
<path d="M132.25 53.4627C132.11 55.2527 130.78 56.5527 128.52 56.5527C125.72 56.5527 124.52 54.7727 124.52 52.1127C124.52 49.4527 125.83 47.7027 128.5 47.7027C131.17 47.7027 132.27 49.4027 132.27 52.1427V52.4127H126.27C126.27 54.2727 127.14 55.2127 128.48 55.2127C129.52 55.3427 130.46 54.6027 130.58 53.5627C130.58 53.5427 130.58 53.5227 130.58 53.5027L132.24 53.4627H132.25ZM130.57 51.2527C130.7 50.1527 129.92 49.1627 128.83 49.0227C128.72 49.0127 128.61 49.0027 128.5 49.0127C127.22 49.0127 126.44 49.7427 126.26 51.2527H130.57Z" fill="#1B2A41"/>
<path d="M135.35 54.1927C135.95 54.1627 136.46 54.6327 136.49 55.2327C136.49 55.2627 136.49 55.3027 136.49 55.3327C136.51 55.9427 136.04 56.4527 135.43 56.4727C135.4 56.4727 135.38 56.4727 135.35 56.4727C134.72 56.4727 134.21 55.9627 134.21 55.3327C134.21 54.7027 134.72 54.1927 135.35 54.1927Z" fill="#1B2A41"/>
<path d="M143.5 44.5427H148.5C150.66 44.5427 151.88 45.7627 151.88 47.4727C151.9 48.4927 151.36 49.4427 150.47 49.9427C151.77 50.3627 152.66 51.5727 152.67 52.9427C152.67 55.0327 151.22 56.3427 148.92 56.3427H143.53L143.5 44.5427ZM148.09 49.5427C149.01 49.6527 149.84 48.9827 149.95 48.0627C149.95 47.9727 149.96 47.8927 149.95 47.8027C150 46.9227 149.32 46.1627 148.44 46.1127C148.35 46.1127 148.27 46.1127 148.18 46.1127H145.34V49.4927L148.08 49.5327L148.09 49.5427ZM148.78 54.8927C149.76 55.0127 150.65 54.3027 150.77 53.3227C150.77 53.2427 150.78 53.1527 150.78 53.0727C150.84 52.0227 150.03 51.1327 148.99 51.0727C148.92 51.0727 148.85 51.0727 148.78 51.0727H145.43V54.8827H148.78V54.8927Z" fill="#1B2A41"/>
<path d="M162.04 53.4627C161.9 55.2527 160.57 56.5527 158.31 56.5527C155.51 56.5527 154.31 54.7727 154.31 52.1127C154.31 49.4527 155.63 47.6627 158.31 47.6627C160.99 47.6627 162.07 49.3627 162.07 52.1027V52.3727H156.07C156.12 54.2327 156.94 55.1727 158.28 55.1727C159.33 55.2927 160.28 54.5427 160.4 53.4927C160.4 53.4827 160.4 53.4727 160.4 53.4627H162.04ZM160.36 51.2527C160.49 50.1527 159.71 49.1627 158.62 49.0227C158.52 49.0127 158.41 49.0027 158.3 49.0127C157.02 49.0127 156.23 49.7427 156.06 51.2527H160.36Z" fill="#1B2A41"/>
<path d="M164.52 49.2327H163.32V47.8227H164.52V45.6227H166.23V47.8227H168.23V49.2327H166.23V53.7027C166.14 54.2927 166.54 54.8527 167.14 54.9527C167.24 54.9727 167.35 54.9727 167.45 54.9527C167.73 54.9527 168.01 54.9227 168.28 54.8727V56.3927C167.91 56.4727 167.53 56.5127 167.15 56.5227C165.5 56.5227 164.52 55.7227 164.52 53.8027V49.2327Z" fill="#1B2A41"/>
<path d="M170.18 49.2327H168.98V47.8227H170.18V45.6227H171.9V47.8227H173.9V49.2327H171.9V53.7027C171.9 54.5627 172.31 54.9527 173.11 54.9527C173.39 54.9527 173.67 54.9227 173.95 54.8727V56.3927C173.57 56.4727 173.19 56.5127 172.81 56.5227C171.16 56.5227 170.18 55.7227 170.18 53.8027V49.2327Z" fill="#1B2A41"/>
<path d="M182.89 53.4627C182.75 55.2527 181.42 56.5527 179.16 56.5527C176.36 56.5527 175.16 54.7727 175.16 52.1127C175.16 49.4527 176.49 47.6627 179.16 47.6627C181.83 47.6627 182.92 49.3627 182.92 52.1027V52.3727H176.92C176.92 54.2327 177.79 55.1727 179.13 55.1727C180.17 55.3027 181.11 54.5627 181.23 53.5227C181.23 53.5027 181.23 53.4827 181.23 53.4627H182.89ZM181.21 51.2527C181.34 50.1527 180.56 49.1627 179.47 49.0227C179.37 49.0127 179.26 49.0027 179.15 49.0127C177.86 49.0127 177.08 49.7427 176.9 51.2527H181.21Z" fill="#1B2A41"/>
<path d="M185.32 47.8227H187.03V49.1527C187.49 48.2427 188.43 47.6827 189.45 47.7027C189.62 47.6927 189.78 47.6927 189.95 47.7027V49.4827C189.71 49.4027 189.46 49.3727 189.21 49.3727C188.06 49.3127 187.08 50.2027 187.02 51.3527C187.02 51.4727 187.02 51.5827 187.03 51.7027V56.3927H185.32V47.8227Z" fill="#1B2A41"/>
<path d="M190.98 54.1927C191.58 54.1627 192.09 54.6327 192.12 55.2327C192.12 55.2627 192.12 55.3027 192.12 55.3327C192.14 55.9427 191.67 56.4527 191.06 56.4727C191.03 56.4727 191.01 56.4727 190.98 56.4727C190.35 56.4727 189.84 55.9627 189.84 55.3327C189.84 54.7027 190.35 54.1927 190.98 54.1927Z" fill="#1B2A41"/>
<path d="M12.36 36.7527C12.21 36.5027 12.06 36.2327 11.93 35.9627C11.79 35.7027 11.67 35.4327 11.57 35.1527C9.63 30.0527 7.72 25.0027 5.83 19.9927C3.94 14.9827 2 9.93272 0 4.82272C0.01 4.75272 0.01 4.69272 0 4.62272C0 4.56272 0 4.50272 0 4.44272C0 4.02272 0.270002 3.81272 0.830002 3.81272H8.07C8.6 3.82272 9.05 4.19272 9.18 4.70272L16.07 25.1927L22.44 4.70272C22.6 4.16272 23.11 3.81272 23.67 3.84272H30.99C31.25 3.82272 31.5 3.89272 31.72 4.03272C31.86 4.16272 31.94 4.35272 31.93 4.54272C31.93 4.62272 31.93 4.71272 31.93 4.79272V4.85272L27.93 16.3327L30.93 25.1727L38.21 4.70272C38.37 4.16272 38.89 3.80272 39.45 3.84272H46.53C46.79 3.82272 47.05 3.88272 47.26 4.03272C47.41 4.16272 47.49 4.35272 47.48 4.54272C47.48 4.62272 47.48 4.71272 47.48 4.79272V4.85272C46.48 7.49271 45.41 10.1327 44.35 12.7527L41.14 20.6327C40.07 23.2527 39 25.8827 37.95 28.5127C36.9 31.1427 35.83 33.7027 34.83 36.3727C34.74 36.5827 34.6 36.7727 34.43 36.9227C34.22 37.1227 33.95 37.2327 33.66 37.2227H28.15C27.89 37.2427 27.62 37.1727 27.4 37.0327C27.22 36.9127 27.09 36.7327 27.03 36.5327L23.47 27.1727C22.96 28.5327 22.47 29.8727 21.96 31.1727C21.45 32.4727 20.96 33.8227 20.48 35.1727C20.4 35.3827 20.32 35.6027 20.22 35.8327C20.13 36.0627 20.01 36.2827 19.87 36.4827C19.75 36.6827 19.59 36.8527 19.41 36.9927C19.24 37.1327 19.03 37.2027 18.81 37.1927H13.3C12.93 37.2527 12.55 37.0827 12.36 36.7527Z" fill="#1B2A41"/>
<path d="M46.69 22.9627C46.69 20.3227 47.37 17.7227 48.69 15.4327C49.33 14.3427 50.1 13.3327 50.99 12.4327C51.89 11.5427 52.89 10.7827 53.99 10.1527C56.28 8.84271 58.87 8.15271 61.51 8.15271C63.48 8.14271 65.43 8.52271 67.25 9.29272C69 10.0127 70.59 11.0727 71.93 12.4127C73.27 13.7527 74.34 15.3427 75.08 17.0927C76.37 20.1927 76.59 23.6427 75.71 26.8827C74.71 30.6027 72.28 33.7727 68.95 35.7027C66.69 37.0127 64.12 37.7027 61.51 37.7027C60.16 37.7027 58.81 37.5327 57.51 37.1827C56.27 36.8527 55.08 36.3627 53.97 35.7127C51.78 34.4427 49.96 32.6227 48.69 30.4327C48.05 29.3227 47.55 28.1327 47.21 26.8927C46.86 25.6127 46.69 24.2927 46.69 22.9627ZM54.9 22.9627C54.9 23.9127 55.05 24.8527 55.36 25.7427C55.65 26.5627 56.09 27.3227 56.67 27.9827C57.22 28.6127 57.91 29.1227 58.67 29.4727C59.52 29.8527 60.45 30.0427 61.38 30.0227C62.29 30.0327 63.19 29.8527 64.02 29.4727C64.79 29.1327 65.47 28.6227 66.02 27.9827C66.61 27.3227 67.05 26.5427 67.33 25.7027C67.92 23.9027 67.92 21.9727 67.33 20.1727C67.06 19.3327 66.63 18.5627 66.07 17.8827C65.53 17.2227 64.84 16.6927 64.07 16.3227C63.25 15.9227 62.34 15.7327 61.43 15.7427C60.49 15.7227 59.57 15.9227 58.72 16.3227C57.95 16.6927 57.27 17.2227 56.72 17.8827C56.15 18.5627 55.7 19.3327 55.41 20.1727C55.08 21.0627 54.91 22.0127 54.9 22.9627Z" fill="#1B2A41"/>
<path d="M80.71 10.3127C80.71 10.0627 80.77 9.81271 80.88 9.58272C80.98 9.37271 81.12 9.18271 81.3 9.03271C81.66 8.79272 82.08 8.65271 82.51 8.65271H85.91C86.14 8.64271 86.38 8.69271 86.58 8.81271C86.75 8.91271 86.89 9.05272 87 9.21272C87.12 9.39272 87.21 9.57271 87.29 9.77271C87.37 9.99271 87.47 10.2027 87.59 10.4027L87.78 10.8427C87.86 11.0827 87.96 11.3327 88.07 11.6127C88.18 11.8927 88.27 12.1527 88.37 12.4027C88.47 12.6527 88.53 12.8027 88.56 12.8827C89.01 12.3827 89.44 11.8827 89.86 11.3227C90.26 10.7827 90.7 10.2727 91.17 9.80272C91.63 9.36272 92.15 8.99271 92.72 8.70271C93.34 8.39271 94.03 8.24271 94.72 8.25272C95.45 8.25272 96.17 8.30271 96.89 8.43271C97.51 8.54271 98.12 8.72272 98.7 8.96272C99.29 9.20271 99.86 9.50271 100.4 9.85271C100.96 10.2127 101.57 10.6327 102.23 11.1127C103.23 11.6627 103.46 12.4927 102.82 13.5827L100.83 17.0227C100.59 17.4327 100.19 17.7327 99.73 17.8527C99.25 17.9527 98.74 17.8827 98.31 17.6527C97.73 17.0727 97.05 16.5927 96.31 16.2427C95.59 15.9327 94.81 15.7727 94.03 15.7827C93.51 15.7727 92.98 15.8527 92.49 16.0327C92.05 16.1927 91.64 16.4327 91.28 16.7327C90.91 17.0527 90.57 17.4227 90.28 17.8127C89.97 18.2327 89.65 18.6927 89.34 19.2027V35.4927C89.37 35.9627 89.22 36.4227 88.92 36.7827C88.54 37.1127 88.04 37.2727 87.54 37.2227H82.48C81.64 37.3527 80.85 36.7727 80.72 35.9327C80.7 35.7827 80.7 35.6327 80.72 35.4927V10.3127H80.71Z" fill="#1B2A41"/>
<path d="M106.61 1.18272C106.61 0.992716 106.69 0.802716 106.8 0.642716C106.94 0.472716 107.12 0.352715 107.33 0.292715C107.66 0.202715 107.99 0.162716 108.33 0.172716H113.71C113.95 0.162716 114.2 0.212715 114.42 0.312715C114.6 0.402715 114.75 0.522716 114.87 0.682716C114.98 0.822716 115.05 0.992715 115.09 1.17272C115.13 1.33272 115.15 1.49272 115.15 1.65272V18.3027L123.25 9.30272C123.59 8.89272 124.1 8.65272 124.64 8.65272H131.55C132.38 8.65272 132.79 8.97272 132.79 9.65272C132.79 9.79272 132.77 9.92272 132.71 10.0527C132.62 10.2127 132.51 10.3727 132.38 10.5027L123.14 20.2727L134.83 35.1827H134.78C134.96 35.3427 135.1 35.5527 135.2 35.7727C135.27 35.9427 135.31 36.1327 135.32 36.3227C135.36 36.5927 135.25 36.8627 135.04 37.0327C134.79 37.1827 134.49 37.2427 134.2 37.2227H126.59C126.32 37.2227 126.07 37.1127 125.87 36.9327C125.59 36.6727 125.34 36.3727 125.13 36.0527L117.77 25.6427L115.28 28.2227V35.4927C115.28 35.6527 115.26 35.8127 115.22 35.9627C115.18 36.1627 115.11 36.3627 115 36.5427C114.88 36.7327 114.72 36.9027 114.53 37.0227C114.3 37.1727 114.04 37.2427 113.77 37.2227H108.12C107.87 37.2227 107.63 37.1527 107.42 37.0127C107.24 36.8827 107.08 36.7227 106.96 36.5327C106.86 36.3727 106.78 36.2027 106.72 36.0227C106.68 35.9327 106.65 35.8427 106.64 35.7427L106.61 1.18272Z" fill="#1B2A41"/>
<path d="M192.98 33.7027C192.58 34.1027 192.13 34.5427 191.64 35.0027C191.14 35.4827 190.61 35.9227 190.04 36.3127C189.45 36.7127 188.82 37.0527 188.15 37.3127C187.45 37.5727 186.71 37.7127 185.96 37.7027C182.15 37.7427 178.5 36.1927 175.89 33.4227C174.64 32.0527 173.65 30.4627 172.99 28.7227C171.6 24.9727 171.6 20.8527 172.99 17.1027C173.65 15.3727 174.64 13.7827 175.89 12.4227C177.14 11.0827 178.65 10.0227 180.33 9.30272C182.11 8.53272 184.02 8.14272 185.96 8.16272C186.73 8.16272 187.49 8.27272 188.22 8.52272C188.88 8.75272 189.51 9.06272 190.09 9.44272C190.65 9.81272 191.16 10.2427 191.64 10.7127C192.12 11.1927 192.56 11.6527 192.98 12.1027V1.85272C192.97 1.41272 193.13 0.972715 193.42 0.642716C193.77 0.292716 194.25 0.102716 194.74 0.142716H199.83C200.04 0.142716 200.25 0.192715 200.45 0.272715C200.67 0.352715 200.87 0.472716 201.05 0.622716C201.23 0.772716 201.37 0.952716 201.48 1.16272C201.6 1.37272 201.66 1.61272 201.65 1.85272V35.4927C201.65 36.6527 201.05 37.2227 199.83 37.2227H195.42C195.18 37.2327 194.94 37.2027 194.72 37.1127C194.56 37.0427 194.41 36.9227 194.31 36.7827C194.18 36.6227 194.08 36.4427 194 36.2527C193.91 36.0327 193.8 35.7827 193.67 35.4927L192.98 33.7027ZM180.05 22.9627C180.05 23.9127 180.2 24.8527 180.51 25.7427C180.79 26.5727 181.24 27.3327 181.83 27.9827C182.41 28.6127 183.11 29.1227 183.89 29.4727C184.73 29.8527 185.64 30.0327 186.56 30.0227C187.49 30.0227 188.41 29.8527 189.27 29.5127C190.09 29.1827 190.85 28.6927 191.49 28.0827C192.12 27.4627 192.63 26.7327 193 25.9327C193.39 25.0927 193.61 24.1927 193.65 23.2727V22.9627C193.65 22.0227 193.47 21.0827 193.11 20.2127C192.76 19.3627 192.25 18.5827 191.61 17.9227C190.97 17.2627 190.2 16.7327 189.36 16.3627C188.48 15.9727 187.52 15.7727 186.56 15.7827C185.64 15.7727 184.72 15.9627 183.89 16.3627C183.1 16.7327 182.4 17.2627 181.83 17.9227C181.25 18.5927 180.81 19.3727 180.52 20.2127C180.21 21.0927 180.05 22.0227 180.05 22.9627Z" fill="#1B2A41"/>
<path d="M258.66 33.8027C257.36 35.0327 255.86 36.0127 254.21 36.7027C252.54 37.3827 250.76 37.7227 248.96 37.7027C245 37.7227 241.18 36.2027 238.32 33.4627C236.93 32.1027 235.81 30.4927 235.04 28.7027C234.23 26.8627 233.82 24.8827 233.83 22.8727C233.82 20.3127 234.46 17.8027 235.69 15.5627C236.28 14.4727 237.01 13.4627 237.85 12.5627C238.69 11.6627 239.64 10.8827 240.69 10.2427C242.89 8.89272 245.43 8.18272 248.01 8.19272C249.23 8.19272 250.45 8.35272 251.63 8.68272C252.78 9.00272 253.89 9.47272 254.92 10.0827C256.97 11.2827 258.68 12.9727 259.92 15.0027C260.54 15.9927 261.02 17.0727 261.35 18.1927C261.69 19.3327 261.86 20.5027 261.86 21.6927V23.6027C261.86 24.0227 261.75 24.4327 261.52 24.7827C261.26 25.1127 260.88 25.3327 260.47 25.3927C259.76 25.5227 259.04 25.5827 258.32 25.5627H242.12C242.23 26.4227 242.54 27.2527 243.03 27.9727C243.46 28.5827 244 29.1027 244.62 29.5127C245.21 29.8827 245.85 30.1627 246.53 30.3327C247.15 30.4927 247.8 30.5727 248.44 30.5827C249 30.5827 249.56 30.5227 250.11 30.4127C250.67 30.3027 251.22 30.1527 251.76 29.9627C252.26 29.7827 252.75 29.5627 253.22 29.3127C253.61 29.1027 253.97 28.8427 254.29 28.5327C254.48 28.3727 254.69 28.2227 254.91 28.0927C255.08 27.9927 255.27 27.9427 255.46 27.9427C255.68 27.9427 255.89 28.0227 256.06 28.1527C256.31 28.3227 256.54 28.5227 256.75 28.7327L259.13 31.4327C259.27 31.5827 259.38 31.7627 259.45 31.9627C259.49 32.1227 259.51 32.2827 259.51 32.4427C259.51 32.7227 259.43 32.9927 259.27 33.2227C259.1 33.4427 258.89 33.6427 258.66 33.8027ZM247.83 15.0627C247.25 15.0627 246.67 15.1827 246.13 15.4127C245.57 15.6427 245.06 15.9627 244.59 16.3427C244.11 16.7427 243.67 17.1827 243.29 17.6727C242.93 18.1427 242.62 18.6527 242.36 19.1827H253.83C253.54 18.6227 253.2 18.0727 252.83 17.5627C252.47 17.0727 252.05 16.6327 251.57 16.2527C251.08 15.8727 250.54 15.5827 249.95 15.3827C249.27 15.1627 248.55 15.0527 247.83 15.0627Z" fill="#1B2A41"/>
<path d="M300.83 4.19272C300.82 3.80272 300.99 3.43272 301.3 3.19272C301.7 2.90272 302.14 2.68272 302.61 2.52272L307.71 0.702715H308.11C308.55 0.642715 308.98 0.832715 309.23 1.19272C309.44 1.58272 309.53 2.02272 309.51 2.46272V9.55272H313.26C313.69 9.53272 314.11 9.68272 314.43 9.97272C314.75 10.3227 314.92 10.7927 314.88 11.2627V15.6027C314.92 16.1027 314.76 16.6027 314.43 16.9827C314.12 17.2827 313.69 17.4427 313.26 17.4227H309.51V35.5127C309.54 35.9927 309.36 36.4727 309.01 36.8027C308.62 37.1127 308.14 37.2727 307.64 37.2427H302.56C301.72 37.3627 300.95 36.7827 300.83 35.9427C300.81 35.7927 300.81 35.6427 300.83 35.4927V17.4027H299.19C298.03 17.4027 297.46 16.7927 297.46 15.5827V11.2427C297.35 10.4127 297.93 9.64272 298.76 9.53272C298.9 9.51272 299.05 9.51272 299.19 9.53272H300.83V4.19272Z" fill="#1B2A41"/>
<path d="M344.95 36.8427C344.77 37.0027 344.56 37.1127 344.33 37.1627C344.13 37.2027 343.92 37.2227 343.71 37.2327H340.31C340.07 37.2327 339.83 37.1827 339.61 37.0827C339.42 36.9827 339.26 36.8527 339.12 36.6927C338.98 36.5227 338.87 36.3327 338.78 36.1327C338.69 35.9227 338.62 35.7027 338.56 35.4827L337.83 32.6027C337.54 33.1527 337.21 33.6827 336.83 34.1827C336.37 34.8127 335.82 35.3727 335.2 35.8527C334.48 36.4027 333.69 36.8327 332.84 37.1527C331.83 37.5127 330.76 37.6927 329.69 37.6727C326.53 37.7227 323.52 36.3727 321.46 33.9827C320.46 32.8027 319.68 31.4427 319.18 29.9827C318.63 28.4227 318.36 26.7727 318.37 25.1127V10.3827C318.34 9.92272 318.47 9.46272 318.74 9.09272C319.05 8.77272 319.48 8.61272 319.92 8.65272H325.12C325.59 8.60272 326.06 8.72272 326.45 8.98272C326.74 9.34272 326.87 9.80272 326.81 10.2527V24.9127C326.81 25.5527 326.96 26.1827 327.25 26.7527C327.54 27.3327 327.93 27.8527 328.4 28.2827C328.88 28.7227 329.44 29.0827 330.04 29.3327C330.63 29.5827 331.25 29.7127 331.89 29.7127C332.47 29.7027 333.04 29.5727 333.57 29.3327C334.15 29.0827 334.69 28.7427 335.17 28.3327C335.65 27.9027 336.06 27.3927 336.37 26.8227C336.68 26.2627 336.84 25.6327 336.84 24.9927V10.3227C336.84 10.0627 336.89 9.79272 336.99 9.55272C337.07 9.31272 337.22 9.10272 337.43 8.96272C337.6 8.85272 337.78 8.77272 337.98 8.72272C338.17 8.67272 338.37 8.65272 338.57 8.65272H343.66C344.17 8.60272 344.67 8.77272 345.05 9.12272C345.35 9.47272 345.5 9.92272 345.48 10.3827V35.5627C345.48 35.8427 345.42 36.1127 345.29 36.3527C345.17 36.5827 344.99 36.7827 344.76 36.9127L344.95 36.8427Z" fill="#1B2A41"/>
<path d="M350.93 10.3127C350.93 10.0627 350.99 9.81271 351.1 9.58272C351.2 9.37271 351.34 9.18271 351.52 9.03271C351.88 8.81271 352.3 8.69271 352.73 8.70271H356.13C356.36 8.69271 356.6 8.74271 356.8 8.86271C356.97 8.96272 357.11 9.10272 357.22 9.26272C357.34 9.44272 357.43 9.62271 357.51 9.82271C357.6 10.0427 357.7 10.2527 357.82 10.4527C357.82 10.5127 357.91 10.6627 358 10.8927C358.09 11.1227 358.18 11.3827 358.29 11.6627C358.4 11.9427 358.49 12.2027 358.59 12.4527C358.69 12.7027 358.75 12.8527 358.78 12.9327C359.23 12.4327 359.66 11.9327 360.08 11.3727C360.48 10.8327 360.92 10.3227 361.39 9.85271C361.85 9.39271 362.37 9.00272 362.95 8.70271C363.57 8.39271 364.26 8.24271 364.95 8.25272C365.68 8.25272 366.4 8.30271 367.12 8.43271C367.74 8.54271 368.35 8.72272 368.93 8.96272C369.52 9.20271 370.09 9.50271 370.63 9.85271C371.19 10.2127 371.81 10.6327 372.47 11.1127C373.26 11.4327 373.65 12.3327 373.33 13.1327C373.26 13.3027 373.17 13.4527 373.05 13.5827L371 17.0727C370.76 17.4827 370.36 17.7827 369.9 17.9027C369.42 18.0027 368.92 17.9327 368.48 17.7027C367.9 17.1227 367.22 16.6427 366.48 16.2927C365.76 15.9727 364.98 15.8227 364.2 15.8327C363.68 15.8227 363.15 15.9027 362.66 16.0827C362.22 16.2427 361.82 16.4827 361.46 16.7827C361.09 17.1027 360.75 17.4627 360.46 17.8627C360.15 18.2827 359.83 18.7427 359.52 19.2527V35.4927C359.55 35.9627 359.4 36.4227 359.1 36.7827C358.72 37.1127 358.22 37.2727 357.72 37.2227H352.66C351.82 37.3527 351.03 36.7727 350.9 35.9327C350.88 35.7827 350.88 35.6327 350.9 35.4927L350.93 10.3127Z" fill="#1B2A41"/>
<path d="M398.59 33.8027C397.29 35.0327 395.78 36.0127 394.13 36.7027C392.47 37.3827 390.69 37.7227 388.89 37.7027C384.93 37.7227 381.11 36.2027 378.25 33.4627C376.85 32.1027 375.73 30.4927 374.96 28.7027C374.14 26.8527 373.73 24.8527 373.75 22.8327C373.75 20.2827 374.38 17.7627 375.6 15.5227C376.19 14.4327 376.92 13.4227 377.76 12.5227C380.39 9.72272 384.07 8.13272 387.92 8.15272C389.14 8.15272 390.36 8.31272 391.54 8.64272C393.85 9.29272 395.95 10.5127 397.66 12.2027C398.5 13.0427 399.22 13.9927 399.83 15.0127C400.44 16.0127 400.92 17.0827 401.26 18.2027C401.62 19.3327 401.81 20.5127 401.83 21.7027V23.6127C401.83 24.0327 401.71 24.4427 401.48 24.7927C401.23 25.1127 400.88 25.3227 400.48 25.4027C399.77 25.5327 399.06 25.5927 398.34 25.5727H382.03C382.14 26.4327 382.45 27.2627 382.94 27.9827C383.36 28.5927 383.9 29.1127 384.52 29.5227C385.11 29.8927 385.76 30.1727 386.44 30.3427C387.06 30.5027 387.71 30.5827 388.35 30.5927C388.91 30.5927 389.46 30.5327 390.01 30.4227C390.57 30.3127 391.13 30.1627 391.67 29.9727C392.17 29.7927 392.66 29.5727 393.13 29.3227C393.52 29.1127 393.88 28.8527 394.2 28.5427C394.39 28.3727 394.6 28.2327 394.82 28.1027C394.99 28.0027 395.18 27.9527 395.37 27.9527C395.58 27.9527 395.79 28.0327 395.96 28.1627C396.21 28.3327 396.44 28.5227 396.65 28.7427L399.04 31.4427C399.18 31.5927 399.28 31.7727 399.35 31.9727C399.4 32.1327 399.42 32.2927 399.42 32.4527C399.42 32.7327 399.34 33.0127 399.17 33.2327C399.01 33.4527 398.81 33.6427 398.59 33.8027ZM387.76 15.0627C387.18 15.0627 386.6 15.1827 386.06 15.4127C385.51 15.6527 384.99 15.9627 384.52 16.3427C384.04 16.7427 383.61 17.2027 383.23 17.7027C382.87 18.1727 382.56 18.6827 382.3 19.2127H393.83C393.54 18.6427 393.21 18.1027 392.83 17.5927C392.47 17.1027 392.04 16.6627 391.57 16.2827C391.08 15.9027 390.54 15.6127 389.95 15.4127C389.25 15.1727 388.5 15.0527 387.76 15.0627Z" fill="#1B2A41"/>
<path d="M158.4 31.7127H152.91V37.2027H158.4V31.7127Z" fill="#1B2A41"/>
<path d="M222.72 8.65272H217.23V14.1427H222.72V8.65272Z" fill="#1B2A41"/>
<path d="M266.74 8.69272H261.25V14.1827H266.74V8.69272Z" fill="#1B2A41"/>
<path d="M273.95 14.1227H266.58V35.4927C266.49 36.3627 267.11 37.1427 267.98 37.2327C268.12 37.2527 268.26 37.2427 268.4 37.2227H273.49C273.69 37.2227 273.89 37.2027 274.08 37.1627C274.28 37.1027 274.47 37.0227 274.64 36.9127C274.84 36.7627 274.99 36.5627 275.07 36.3227C275.17 36.0827 275.22 35.8227 275.22 35.5627V20.9327C275.26 20.2727 275.45 19.6327 275.77 19.0527C276.08 18.4927 276.49 17.9827 276.96 17.5527C277.42 17.1327 277.95 16.8027 278.52 16.5527C279.04 16.3227 279.6 16.2027 280.17 16.1927C280.81 16.1927 281.44 16.3227 282.03 16.5727C282.63 16.8127 283.18 17.1527 283.66 17.5727C284.19 18.0627 284.61 18.6527 284.91 19.3127C285.14 19.8227 285.26 20.3827 285.26 20.9427V35.6327C285.2 36.0827 285.33 36.5427 285.62 36.9027C286.01 37.1627 286.48 37.2727 286.94 37.2227H292.14C292.58 37.2627 293.02 37.1027 293.32 36.7827C293.59 36.4127 293.72 35.9527 293.69 35.4927V20.7527C293.7 19.1027 293.43 17.4527 292.88 15.8927C292.38 14.4327 291.6 13.0727 290.6 11.8927C289.61 10.7527 288.4 9.83272 287.03 9.20272C285.57 8.52272 283.99 8.18272 282.38 8.20272C281.3 8.18272 280.23 8.36272 279.22 8.73272C278.37 9.04272 277.58 9.48272 276.86 10.0327C276.24 10.5127 275.69 11.0727 275.23 11.7027C274.88 12.1727 274.57 12.6727 274.3 13.1927C274.27 13.2527 274.24 13.3127 274.22 13.3827L273.95 14.1227Z" fill="#1B2A41"/>
<path d="M222.67 14.1027L219.22 25.1027C219.12 24.8327 218.96 24.3827 218.74 23.7427C218.52 23.1027 218.27 22.3527 218 21.4927C217.73 20.6327 217.42 19.6827 217.09 18.6627C216.76 17.6427 216.42 16.5927 216.09 15.5527C215.76 14.5127 215.43 13.4927 215.09 12.5027C214.75 11.5127 214.5 10.6227 214.24 9.82271C214.14 9.46272 213.92 9.14272 213.62 8.92272C213.33 8.71272 212.98 8.60271 212.62 8.61271H206.83C206.13 8.61271 205.68 8.83272 205.49 9.26272C205.31 9.79272 205.37 10.3627 205.66 10.8427L216.03 36.2227C216.14 36.5027 216.33 36.7527 216.58 36.9327C216.98 37.1327 217.42 37.2227 217.86 37.1827H220.53C220.89 37.2027 221.24 37.1027 221.53 36.9027C221.76 36.7127 221.96 36.4827 222.11 36.2227L231.35 14.0627L222.67 14.1027Z" fill="#1B2A41"/>
<path d="M169.29 36.2127L157.48 5.75272L156.92 4.46272C156.8 4.31272 156.66 4.17272 156.51 4.05272C156.33 3.90272 156.1 3.81272 155.86 3.81272H150.1C149.97 3.81272 149.84 3.84272 149.72 3.89272C149.58 3.94272 149.45 4.01272 149.33 4.10272C149.22 4.18272 149.11 4.29272 149.03 4.40272C148.96 4.48272 148.91 4.58272 148.88 4.69272L136.67 36.3227C136.55 36.6227 136.58 36.8527 136.77 37.0027C136.97 37.1527 137.22 37.2327 137.48 37.2227H144.11C144.64 37.2527 145.12 36.9127 145.26 36.3927L146.13 34.1127C146.42 33.3527 146.71 32.5927 146.99 31.8227H152.99V24.6027H149.52C149.81 23.8427 150.1 23.0127 150.39 22.1427C150.68 21.2727 150.97 20.3727 151.26 19.4727C151.55 18.5727 151.83 17.6827 152.12 16.7927C152.41 15.9027 152.7 15.0827 152.99 14.3227L160.68 36.3927C160.76 36.6427 160.91 36.8727 161.12 37.0327C161.36 37.1727 161.64 37.2427 161.92 37.2227H168.38C168.69 37.2627 169 37.1527 169.23 36.9427C169.4 36.7327 169.42 36.4427 169.29 36.2127Z" fill="#1B2A41"/>
</svg>
