<svg width="172" height="17" viewBox="0 0 172 17" fill="none" xmlns="http://www.w3.org/2000/svg">
<path d="M6.0944 16.4401C6.03051 16.3336 5.96662 16.2186 5.91126 16.1036C5.85163 15.9929 5.80052 15.8779 5.75793 15.7587C4.93165 13.5865 4.11815 11.4356 3.31317 9.30177C2.50819 7.16793 1.68191 5.01705 0.830078 2.84062C0.834337 2.81081 0.834337 2.78525 0.830078 2.75544C0.830078 2.72988 0.830078 2.70433 0.830078 2.67877C0.830078 2.49989 0.945076 2.41045 1.18359 2.41045H4.26722C4.49296 2.41471 4.68462 2.57229 4.73999 2.78951L7.67455 11.5165L10.3876 2.78951C10.4558 2.55952 10.673 2.41045 10.9115 2.42322H14.0292C14.14 2.41471 14.2464 2.44452 14.3401 2.50415C14.3998 2.55952 14.4338 2.64044 14.4296 2.72137C14.4296 2.75544 14.4296 2.79377 14.4296 2.82784V2.8534L12.7259 7.74291L14.0037 11.508L17.1043 2.78951C17.1725 2.55952 17.394 2.40619 17.6325 2.42322H20.6479C20.7587 2.41471 20.8694 2.44026 20.9589 2.50415C21.0228 2.55952 21.0568 2.64044 21.0526 2.72137C21.0526 2.75544 21.0526 2.79377 21.0526 2.82784V2.8534C20.6266 3.97782 20.1709 5.10223 19.7194 6.21813L18.3523 9.57435C17.8965 10.6903 17.4408 11.8104 16.9936 12.9306C16.5464 14.0507 16.0906 15.1411 15.6647 16.2783C15.6264 16.3677 15.5668 16.4486 15.4944 16.5125C15.4049 16.5977 15.2899 16.6446 15.1664 16.6403H12.8196C12.7089 16.6488 12.5939 16.619 12.5002 16.5594C12.4235 16.5083 12.3681 16.4316 12.3426 16.3464L10.8263 12.3598C10.6091 12.9391 10.4004 13.5098 10.1832 14.0635C9.96597 14.6172 9.75728 15.1922 9.55284 15.7672C9.51877 15.8566 9.48469 15.9503 9.4421 16.0483C9.40377 16.1462 9.35266 16.2399 9.29303 16.3251C9.24192 16.4103 9.17377 16.4827 9.09711 16.5423C9.0247 16.602 8.93526 16.6318 8.84156 16.6275H6.49476C6.33717 16.6531 6.17532 16.5807 6.0944 16.4401Z" fill="#1B2A41"/>
<path d="M20.7161 10.5667C20.7161 9.44232 21.0057 8.33494 21.5679 7.35959C21.8405 6.89534 22.1685 6.46517 22.5475 6.08184C22.9309 5.70278 23.3568 5.37908 23.8253 5.11075C24.8006 4.5528 25.9037 4.25892 27.0282 4.25892C27.8672 4.25466 28.6978 4.41651 29.4729 4.74447C30.2183 5.05113 30.8955 5.5026 31.4662 6.07332C32.0369 6.64405 32.4927 7.32126 32.8078 8.06661C33.3573 9.38695 33.451 10.8564 33.0762 12.2363C32.6503 13.8207 31.6153 15.1709 30.197 15.9929C29.2344 16.5509 28.1398 16.8447 27.0282 16.8447C26.4532 16.8447 25.8782 16.7723 25.3245 16.6233C24.7964 16.4827 24.2895 16.274 23.8168 15.9972C22.884 15.4563 22.1088 14.6811 21.5679 13.7483C21.2953 13.2756 21.0824 12.7687 20.9376 12.2406C20.7885 11.6954 20.7161 11.1332 20.7161 10.5667ZM24.2129 10.5667C24.2129 10.9714 24.2768 11.3717 24.4088 11.7508C24.5323 12.1 24.7197 12.4237 24.9667 12.7048C25.201 12.9732 25.4949 13.1904 25.8186 13.3394C26.1806 13.5013 26.5767 13.5822 26.9728 13.5737C27.3604 13.578 27.7437 13.5013 28.0972 13.3394C28.4252 13.1946 28.7148 12.9774 28.9491 12.7048C29.2003 12.4237 29.3877 12.0915 29.507 11.7337C29.7583 10.9671 29.7583 10.1451 29.507 9.37843C29.392 9.02066 29.2089 8.69271 28.9703 8.40308C28.7404 8.12198 28.4465 7.89624 28.1185 7.73866C27.7693 7.56829 27.3817 7.48736 26.9941 7.49162C26.5937 7.48311 26.2019 7.56829 25.8399 7.73866C25.5119 7.89624 25.2223 8.12198 24.988 8.40308C24.7453 8.69271 24.5536 9.02066 24.4301 9.37843C24.2895 9.7575 24.2171 10.1621 24.2129 10.5667Z" fill="#1B2A41"/>
<path d="M35.2058 5.1789C35.2058 5.07242 35.2313 4.96594 35.2782 4.86798C35.3208 4.77854 35.3804 4.69761 35.457 4.63373C35.6104 4.53151 35.7893 4.47188 35.9724 4.47188H37.4205C37.5185 4.46762 37.6207 4.48892 37.7059 4.54003C37.7783 4.58262 37.8379 4.64225 37.8848 4.71039C37.9359 4.78706 37.9742 4.86372 38.0083 4.9489C38.0424 5.04261 38.0849 5.13205 38.1361 5.21723L38.217 5.40464C38.2511 5.50686 38.2936 5.61333 38.3405 5.73259C38.3874 5.85185 38.4257 5.96259 38.4683 6.06906C38.5109 6.17554 38.5364 6.23943 38.5492 6.2735C38.7409 6.06055 38.924 5.84759 39.1029 5.60908C39.2733 5.37908 39.4607 5.16186 39.6608 4.96168C39.8568 4.77428 40.0782 4.61669 40.321 4.49318C40.5851 4.36114 40.879 4.29725 41.1728 4.30151C41.4838 4.30151 41.7904 4.32281 42.0971 4.37818C42.3611 4.42503 42.6209 4.50169 42.868 4.60391C43.1193 4.70613 43.362 4.83391 43.592 4.98298C43.8306 5.13631 44.0904 5.31519 44.3715 5.51963C44.7974 5.75389 44.8953 6.1074 44.6228 6.57164L43.7752 8.0368C43.673 8.21142 43.5026 8.3392 43.3067 8.39031C43.1022 8.4329 42.885 8.40308 42.7019 8.30512C42.4548 8.05809 42.1652 7.85365 41.85 7.70458C41.5434 7.57255 41.2112 7.5044 40.879 7.50866C40.6575 7.5044 40.4317 7.53847 40.223 7.61514C40.0356 7.68329 39.861 7.78551 39.7077 7.91328C39.5501 8.04957 39.4053 8.20716 39.2818 8.37327C39.1497 8.55215 39.0134 8.74808 38.8814 8.96529V15.9035C38.8942 16.1036 38.8303 16.2996 38.7025 16.4529C38.5407 16.5934 38.3277 16.6616 38.1148 16.6403H35.9596C35.6019 16.6957 35.2654 16.4486 35.21 16.0909C35.2015 16.027 35.2015 15.9631 35.21 15.9035V5.1789H35.2058Z" fill="#1B2A41"/>
<path d="M46.237 1.29029C46.237 1.20936 46.2711 1.12844 46.3179 1.06029C46.3775 0.987887 46.4542 0.936777 46.5436 0.911222C46.6842 0.87289 46.8247 0.855853 46.9696 0.860112H49.261C49.3632 0.855853 49.4697 0.877149 49.5634 0.919741C49.64 0.958073 49.7039 1.00918 49.755 1.07733C49.8019 1.13696 49.8317 1.20936 49.8487 1.28603C49.8658 1.35417 49.8743 1.42232 49.8743 1.49047V8.58197L53.3242 4.74873C53.469 4.5741 53.6862 4.47188 53.9162 4.47188H56.8593C57.2128 4.47188 57.3875 4.60817 57.3875 4.8978C57.3875 4.95742 57.3789 5.01279 57.3534 5.06816C57.3151 5.13631 57.2682 5.20446 57.2128 5.25982L53.2774 9.42102L58.2563 15.7714H58.235C58.3117 15.8396 58.3713 15.929 58.4139 16.0227C58.4437 16.0951 58.4608 16.1761 58.465 16.257C58.4821 16.372 58.4352 16.487 58.3458 16.5594C58.2393 16.6233 58.1115 16.6488 57.988 16.6403H54.7468C54.6318 16.6403 54.5253 16.5934 54.4401 16.5168C54.3209 16.406 54.2144 16.2783 54.1249 16.142L50.9902 11.7082L49.9297 12.8071V15.9035C49.9297 15.9716 49.9212 16.0398 49.9041 16.1036C49.8871 16.1888 49.8573 16.274 49.8104 16.3507C49.7593 16.4316 49.6912 16.504 49.6102 16.5551C49.5123 16.619 49.4015 16.6488 49.2865 16.6403H46.8801C46.7736 16.6403 46.6714 16.6105 46.582 16.5509C46.5053 16.4955 46.4372 16.4273 46.3861 16.3464C46.3435 16.2783 46.3094 16.2059 46.2838 16.1292C46.2668 16.0909 46.254 16.0525 46.2498 16.0099L46.237 1.29029Z" fill="#1B2A41"/>
<path d="M83.0233 15.1411C82.853 15.3114 82.6613 15.4988 82.4526 15.6948C82.2397 15.8992 82.0139 16.0866 81.7711 16.2527C81.5199 16.4231 81.2515 16.5679 80.9662 16.6786C80.668 16.7894 80.3529 16.849 80.0334 16.8447C78.4107 16.8618 76.8561 16.2016 75.7444 15.0218C75.212 14.4383 74.7904 13.7611 74.5093 13.02C73.9173 11.4228 73.9173 9.66805 74.5093 8.07087C74.7904 7.33403 75.212 6.65683 75.7444 6.07758C76.2768 5.50686 76.92 5.05539 77.6355 4.74873C78.3936 4.42077 79.2071 4.25466 80.0334 4.26318C80.3614 4.26318 80.6851 4.31003 80.996 4.41651C81.2771 4.51447 81.5454 4.64651 81.7924 4.80835C82.031 4.96594 82.2482 5.14909 82.4526 5.34927C82.6571 5.55371 82.8445 5.74963 83.0233 5.94129V1.57565C83.0191 1.38825 83.0872 1.20085 83.2107 1.06029C83.3598 0.911222 83.5643 0.830298 83.773 0.847335H85.9409C86.0303 0.847335 86.1197 0.868631 86.2049 0.902704C86.2986 0.936777 86.3838 0.987887 86.4605 1.05177C86.5371 1.11566 86.5968 1.19233 86.6436 1.28177C86.6947 1.37121 86.7203 1.47343 86.716 1.57565V15.9035C86.716 16.3975 86.4605 16.6403 85.9409 16.6403H84.0626C83.9604 16.6446 83.8581 16.6318 83.7644 16.5934C83.6963 16.5636 83.6324 16.5125 83.5898 16.4529C83.5344 16.3848 83.4919 16.3081 83.4578 16.2272C83.4194 16.1335 83.3726 16.027 83.3172 15.9035L83.0233 15.1411ZM77.5163 10.5667C77.5163 10.9714 77.5801 11.3717 77.7122 11.7508C77.8314 12.1043 78.0231 12.428 78.2744 12.7048C78.5214 12.9732 78.8195 13.1904 79.1518 13.3394C79.5095 13.5013 79.8971 13.578 80.289 13.5737C80.6851 13.5737 81.0769 13.5013 81.4432 13.3565C81.7924 13.2159 82.1161 13.0072 82.3887 12.7474C82.6571 12.4834 82.8743 12.1724 83.0319 11.8317C83.198 11.4739 83.2917 11.0906 83.3087 10.6988V10.5667C83.3087 10.1664 83.232 9.76602 83.0787 9.39547C82.9296 9.03344 82.7124 8.70122 82.4398 8.42012C82.1673 8.13902 81.8393 7.91328 81.4815 7.75569C81.1067 7.58958 80.6978 7.5044 80.289 7.50866C79.8971 7.5044 79.5053 7.58533 79.1518 7.75569C78.8153 7.91328 78.5172 8.13902 78.2744 8.42012C78.0273 8.70548 77.8399 9.0377 77.7164 9.39547C77.5844 9.77027 77.5163 10.1664 77.5163 10.5667Z" fill="#1B2A41"/>
<path d="M110.997 15.1837C110.444 15.7075 109.805 16.1249 109.102 16.4188C108.391 16.7084 107.633 16.8533 106.866 16.8447C105.179 16.8533 103.552 16.2059 102.334 15.0389C101.742 14.4596 101.265 13.7739 100.937 13.0115C100.592 12.2278 100.418 11.3845 100.422 10.5284C100.418 9.43806 100.69 8.36901 101.214 7.41496C101.465 6.95071 101.776 6.52054 102.134 6.13721C102.492 5.75389 102.897 5.42167 103.344 5.14909C104.281 4.5741 105.363 4.2717 106.461 4.27596C106.981 4.27596 107.501 4.34411 108.003 4.48466C108.493 4.62095 108.966 4.82113 109.405 5.08094C110.278 5.59204 111.006 6.31184 111.534 7.17645C111.798 7.5981 112.003 8.05809 112.143 8.53512C112.288 9.02066 112.36 9.51898 112.36 10.0258V10.8393C112.36 11.0182 112.314 11.1928 112.216 11.3419C112.105 11.4825 111.943 11.5762 111.768 11.6017C111.466 11.6571 111.159 11.6826 110.853 11.6741H103.953C104 12.0404 104.132 12.3939 104.34 12.7006C104.524 12.9604 104.754 13.1819 105.018 13.3565C105.269 13.5141 105.542 13.6333 105.831 13.7057C106.095 13.7739 106.372 13.808 106.645 13.8122C106.883 13.8122 107.122 13.7867 107.356 13.7398C107.594 13.693 107.829 13.6291 108.059 13.5481C108.272 13.4715 108.48 13.3778 108.681 13.2713C108.847 13.1819 109 13.0711 109.136 12.9391C109.217 12.8709 109.307 12.8071 109.4 12.7517C109.473 12.7091 109.554 12.6878 109.635 12.6878C109.728 12.6878 109.818 12.7219 109.89 12.7772C109.997 12.8496 110.095 12.9348 110.184 13.0243L111.198 14.1742C111.257 14.2381 111.304 14.3148 111.334 14.4C111.351 14.4681 111.36 14.5363 111.36 14.6044C111.36 14.7237 111.325 14.8387 111.257 14.9366C111.185 15.0303 111.095 15.1155 110.997 15.1837ZM106.385 7.202C106.138 7.202 105.891 7.25311 105.661 7.35107C105.422 7.44903 105.205 7.58532 105.005 7.74717C104.8 7.91754 104.613 8.10494 104.451 8.31364C104.298 8.51382 104.166 8.73104 104.055 8.95677H108.94C108.817 8.71826 108.672 8.48401 108.514 8.26679C108.361 8.05809 108.182 7.87069 107.978 7.70884C107.769 7.54699 107.539 7.42348 107.288 7.33829C106.998 7.24459 106.691 7.19774 106.385 7.202Z" fill="#1B2A41"/>
<path d="M128.958 2.57229C128.954 2.40619 129.027 2.2486 129.159 2.14638C129.329 2.02286 129.516 1.92916 129.717 1.86101L131.889 1.08585H132.059C132.246 1.06029 132.43 1.14122 132.536 1.29455C132.626 1.46065 132.664 1.64806 132.655 1.83546V4.8552H134.253C134.436 4.84669 134.615 4.91057 134.751 5.03409C134.887 5.18316 134.96 5.38334 134.942 5.58352V7.432C134.96 7.64495 134.891 7.85791 134.751 8.01976C134.619 8.14753 134.436 8.21568 134.253 8.20716H132.655V15.912C132.668 16.1164 132.591 16.3209 132.442 16.4614C132.276 16.5934 132.072 16.6616 131.859 16.6488H129.695C129.337 16.6999 129.009 16.4529 128.958 16.0951C128.95 16.0312 128.95 15.9674 128.958 15.9035V8.19864H128.26C127.766 8.19864 127.523 7.93884 127.523 7.42348V5.575C127.476 5.22149 127.723 4.89354 128.077 4.84669C128.136 4.83817 128.2 4.83817 128.26 4.84669H128.958V2.57229Z" fill="#1B2A41"/>
<path d="M147.75 16.4785C147.673 16.5466 147.584 16.5934 147.486 16.6147C147.401 16.6318 147.311 16.6403 147.222 16.6446H145.774C145.671 16.6446 145.569 16.6233 145.475 16.5807C145.394 16.5381 145.326 16.4827 145.267 16.4146C145.207 16.3422 145.16 16.2612 145.122 16.1761C145.084 16.0866 145.054 15.9929 145.028 15.8992L144.717 14.6726C144.594 14.9068 144.453 15.1326 144.291 15.3455C144.095 15.6138 143.861 15.8524 143.597 16.0568C143.29 16.291 142.954 16.4742 142.592 16.6105C142.162 16.7638 141.706 16.8405 141.25 16.832C139.904 16.8533 138.622 16.2783 137.745 15.2603C137.319 14.7578 136.987 14.1785 136.774 13.5567C136.54 12.8922 136.425 12.1895 136.429 11.4825V5.20871C136.416 5.01279 136.472 4.81687 136.587 4.65928C136.719 4.52299 136.902 4.45484 137.089 4.47188H139.304C139.504 4.45058 139.704 4.50169 139.87 4.61243C139.994 4.76576 140.049 4.96168 140.024 5.15335V11.3973C140.024 11.6699 140.088 11.9382 140.211 12.181C140.335 12.428 140.501 12.6495 140.701 12.8326C140.905 13.02 141.144 13.1733 141.399 13.2798C141.651 13.3863 141.915 13.4417 142.187 13.4417C142.434 13.4374 142.677 13.382 142.903 13.2798C143.15 13.1733 143.38 13.0285 143.584 12.8539C143.789 12.6708 143.963 12.4535 144.095 12.2108C144.227 11.9723 144.296 11.7039 144.296 11.4313V5.18316C144.296 5.07242 144.317 4.95742 144.359 4.8552C144.394 4.75298 144.457 4.66354 144.547 4.60391C144.619 4.55706 144.696 4.52299 144.781 4.50169C144.862 4.4804 144.947 4.47188 145.032 4.47188H147.2C147.418 4.45058 147.631 4.52299 147.792 4.67206C147.92 4.82113 147.984 5.01279 147.976 5.20871V15.9333C147.976 16.0525 147.95 16.1675 147.895 16.2698C147.843 16.3677 147.767 16.4529 147.669 16.5083L147.75 16.4785Z" fill="#1B2A41"/>
<path d="M150.297 5.1789C150.297 5.07242 150.322 4.96594 150.369 4.86798C150.412 4.77854 150.471 4.69761 150.548 4.63373C150.701 4.54003 150.88 4.48892 151.063 4.49318H152.512C152.609 4.48892 152.712 4.51021 152.797 4.56132C152.869 4.60391 152.929 4.66354 152.976 4.73169C153.027 4.80835 153.065 4.88502 153.099 4.9702C153.138 5.0639 153.18 5.15335 153.231 5.23853C153.231 5.26408 153.27 5.32797 153.308 5.42593C153.346 5.52389 153.385 5.63463 153.432 5.75389C153.478 5.87314 153.517 5.98388 153.559 6.09036C153.602 6.19684 153.627 6.26073 153.64 6.2948C153.832 6.08184 154.015 5.86888 154.194 5.63037C154.364 5.40038 154.552 5.18316 154.752 4.98298C154.948 4.78706 155.169 4.62095 155.416 4.49318C155.68 4.36114 155.974 4.29725 156.268 4.30151C156.579 4.30151 156.886 4.32281 157.192 4.37818C157.456 4.42503 157.716 4.50169 157.963 4.60391C158.215 4.70613 158.457 4.83391 158.687 4.98298C158.926 5.13631 159.19 5.31519 159.471 5.51963C159.807 5.65593 159.974 6.03925 159.837 6.37998C159.807 6.45239 159.769 6.51628 159.718 6.57164L158.845 8.05809C158.743 8.23272 158.572 8.36049 158.376 8.4116C158.172 8.45419 157.959 8.42438 157.772 8.32642C157.525 8.07939 157.235 7.87495 156.92 7.72588C156.613 7.58958 156.281 7.5257 155.949 7.52996C155.727 7.5257 155.501 7.55977 155.293 7.63643C155.105 7.70458 154.935 7.8068 154.782 7.93458C154.624 8.07087 154.479 8.2242 154.356 8.39457C154.224 8.57345 154.087 8.76937 153.955 8.98659V15.9035C153.968 16.1036 153.904 16.2996 153.776 16.4529C153.615 16.5934 153.402 16.6616 153.189 16.6403H151.034C150.676 16.6957 150.339 16.4486 150.284 16.0909C150.275 16.027 150.275 15.9631 150.284 15.9035L150.297 5.1789Z" fill="#1B2A41"/>
<path d="M170.596 15.1837C170.042 15.7075 169.399 16.1249 168.696 16.4188C167.989 16.7084 167.231 16.8533 166.465 16.8447C164.778 16.8533 163.151 16.2059 161.933 15.0389C161.337 14.4596 160.859 13.7739 160.532 13.0115C160.182 12.2235 160.008 11.3717 160.016 10.5114C160.016 9.42528 160.284 8.35197 160.804 7.39792C161.055 6.93367 161.366 6.5035 161.724 6.12017C162.844 4.92761 164.412 4.2504 166.051 4.25892C166.571 4.25892 167.091 4.32707 167.593 4.46762C168.577 4.74447 169.471 5.26408 170.2 5.98388C170.558 6.34165 170.864 6.74627 171.124 7.18071C171.384 7.60662 171.588 8.06235 171.733 8.53938C171.886 9.02066 171.967 9.52324 171.976 10.0301V10.8436C171.976 11.0225 171.925 11.1971 171.827 11.3462C171.72 11.4825 171.571 11.5719 171.401 11.606C171.098 11.6613 170.796 11.6869 170.489 11.6784H163.543C163.59 12.0447 163.722 12.3982 163.93 12.7048C164.109 12.9646 164.339 13.1861 164.603 13.3607C164.855 13.5183 165.131 13.6376 165.421 13.71C165.685 13.7781 165.962 13.8122 166.235 13.8165C166.473 13.8165 166.707 13.7909 166.942 13.7441C167.18 13.6972 167.419 13.6333 167.649 13.5524C167.862 13.4757 168.07 13.382 168.27 13.2756C168.437 13.1861 168.59 13.0754 168.726 12.9433C168.807 12.8709 168.896 12.8113 168.99 12.7559C169.063 12.7134 169.144 12.6921 169.224 12.6921C169.314 12.6921 169.403 12.7261 169.476 12.7815C169.582 12.8539 169.68 12.9348 169.77 13.0285L170.788 14.1785C170.847 14.2424 170.89 14.3191 170.92 14.4042C170.941 14.4724 170.949 14.5405 170.949 14.6087C170.949 14.7279 170.915 14.8472 170.843 14.9409C170.775 15.0346 170.69 15.1155 170.596 15.1837ZM165.983 7.202C165.736 7.202 165.489 7.25311 165.259 7.35107C165.025 7.45329 164.803 7.58532 164.603 7.74717C164.399 7.91754 164.216 8.11346 164.054 8.32642C163.901 8.5266 163.768 8.74382 163.658 8.96955H168.569C168.445 8.72678 168.304 8.49679 168.143 8.27957C167.989 8.07087 167.806 7.88347 167.606 7.72162C167.397 7.55977 167.167 7.43625 166.916 7.35107C166.618 7.24885 166.298 7.19774 165.983 7.202Z" fill="#1B2A41"/>
<path d="M68.2952 14.2935H65.9569V16.6318H68.2952V14.2935Z" fill="#1B2A41"/>
<path d="M95.6901 4.47188H93.3518V6.81016H95.6901V4.47188Z" fill="#1B2A41"/>
<path d="M114.439 4.48892H112.101V6.82719H114.439V4.48892Z" fill="#1B2A41"/>
<path d="M117.51 6.80164H114.371V15.9035C114.332 16.274 114.596 16.6062 114.967 16.6446C115.027 16.6531 115.086 16.6488 115.146 16.6403H117.314C117.399 16.6403 117.484 16.6318 117.565 16.6147C117.65 16.5892 117.731 16.5551 117.804 16.5083C117.889 16.4444 117.953 16.3592 117.987 16.257C118.029 16.1548 118.051 16.044 118.051 15.9333V9.70213C118.068 9.42102 118.149 9.14844 118.285 8.90141C118.417 8.66289 118.592 8.44568 118.792 8.26253C118.988 8.08365 119.213 7.94309 119.456 7.83662C119.678 7.73866 119.916 7.68754 120.159 7.68329C120.432 7.68329 120.7 7.73866 120.951 7.84513C121.207 7.94735 121.441 8.09217 121.645 8.27105C121.871 8.47975 122.05 8.73104 122.178 9.01214C122.276 9.22936 122.327 9.46787 122.327 9.70639V15.9631C122.301 16.1548 122.357 16.3507 122.48 16.504C122.646 16.6147 122.846 16.6616 123.042 16.6403H125.257C125.445 16.6573 125.632 16.5892 125.76 16.4529C125.875 16.2953 125.93 16.0994 125.917 15.9035V9.62546C125.922 8.9227 125.807 8.21994 125.572 7.55551C125.359 6.93367 125.027 6.35443 124.601 5.85185C124.18 5.3663 123.664 4.97446 123.081 4.70613C122.459 4.41651 121.786 4.2717 121.1 4.28022C120.64 4.2717 120.185 4.34836 119.754 4.50595C119.392 4.63799 119.056 4.82539 118.749 5.05964C118.485 5.26408 118.251 5.5026 118.055 5.77092C117.906 5.9711 117.774 6.18406 117.659 6.40554C117.646 6.43109 117.633 6.45665 117.625 6.48646L117.51 6.80164Z" fill="#1B2A41"/>
<path d="M95.6688 6.79312L94.1994 11.4782C94.1568 11.3632 94.0886 11.1715 93.9949 10.899C93.9012 10.6264 93.7948 10.3069 93.6798 9.94064C93.5648 9.57435 93.4327 9.16973 93.2922 8.7353C93.1516 8.30086 93.0068 7.85365 92.8663 7.4107C92.7257 6.96775 92.5852 6.53331 92.4404 6.11166C92.2955 5.69 92.1891 5.31093 92.0783 4.9702C92.0357 4.81687 91.942 4.68058 91.8143 4.58688C91.6907 4.49743 91.5417 4.45058 91.3883 4.45484H88.9223C88.6241 4.45484 88.4325 4.54854 88.3516 4.73169C88.2749 4.95742 88.3004 5.2002 88.424 5.40464L92.8407 16.2144C92.8876 16.3336 92.9685 16.4401 93.075 16.5168C93.2453 16.602 93.4327 16.6403 93.6201 16.6233H94.7573C94.9107 16.6318 95.0597 16.5892 95.1833 16.504C95.2812 16.4231 95.3664 16.3251 95.4303 16.2144L99.3657 6.77609L95.6688 6.79312Z" fill="#1B2A41"/>
<path d="M72.9334 16.2101L67.9033 3.23672L67.6648 2.68729C67.6137 2.6234 67.5541 2.56378 67.4902 2.51267C67.4135 2.44878 67.3156 2.41045 67.2133 2.41045H64.7601C64.7047 2.41045 64.6493 2.42322 64.5982 2.44452C64.5386 2.46582 64.4832 2.49563 64.4321 2.53396C64.3853 2.56804 64.3384 2.61489 64.3043 2.66174C64.2745 2.69581 64.2532 2.7384 64.2404 2.78525L59.04 16.257C58.9889 16.3847 59.0017 16.4827 59.0826 16.5466C59.1678 16.6105 59.2743 16.6446 59.385 16.6403H62.2088C62.4346 16.6531 62.639 16.5083 62.6986 16.2868L63.0692 15.3157C63.1927 14.992 63.3162 14.6683 63.4355 14.3404H65.991V11.2652H64.513C64.6366 10.9415 64.7601 10.588 64.8836 10.2175C65.0071 9.84694 65.1306 9.46361 65.2541 9.08029C65.3776 8.69697 65.4969 8.3179 65.6204 7.93884C65.7439 7.55977 65.8674 7.21052 65.991 6.88682L69.2663 16.2868C69.3003 16.3933 69.3642 16.4912 69.4537 16.5594C69.5559 16.619 69.6751 16.6488 69.7944 16.6403H72.5458C72.6778 16.6573 72.8099 16.6105 72.9078 16.521C72.9802 16.4316 72.9888 16.3081 72.9334 16.2101Z" fill="#1B2A41"/>
</svg>
