<svg width="185" height="48" viewBox="0 0 185 48" fill="none" xmlns="http://www.w3.org/2000/svg">
<path d="M16.7396 25.9564H9.97251L13.5697 14.1944L16.7396 25.9564ZM6.80268 37.8615L8.93964 30.6755H17.63L19.7669 37.8615H26.9614L19.3039 10.6193C18.8765 8.83174 18.0218 8.25973 16.1341 8.25973H5.5205V10.7265H6.37528C7.65746 10.7265 8.29855 11.1198 8.29855 12.1208C8.29855 12.7286 8.29855 13.1576 7.65746 14.6234L0 37.8615" fill="white"/>
<path d="M36.0435 37.8615V10.4405C36.0435 9.01049 35.1887 8.25973 33.7285 8.25973H27.1395V10.7265H27.5669C28.849 10.7265 29.4901 11.2628 29.4901 12.4068V37.8615M47.9037 37.8615V10.4405C47.9037 9.01049 47.0489 8.25973 45.5886 8.25973H38.9996V10.7265H39.427C40.7092 10.7265 41.3503 11.2628 41.3503 12.4068V37.8615" fill="white"/>
<path d="M60.0131 10.8695C60.0131 8.90324 58.5173 7.75921 56.2022 7.75921C53.6735 7.75921 52.3913 8.90324 52.3913 10.8695C52.3913 12.8716 53.6735 14.0514 56.2022 14.0514C58.5173 14.0514 60.0131 12.8716 60.0131 10.8695ZM59.7994 37.8615V17.8767C59.7994 16.4824 58.9447 15.6959 57.6625 15.6959H51.0735V18.0912H51.5009C52.7831 18.0912 53.2105 18.6275 53.2105 19.843V37.8615M75.4705 27.1005V31.5336C74.1883 32.8206 72.7281 33.5356 71.4459 33.5356C70.1637 33.5356 69.5226 32.9278 69.5226 31.2476C69.5226 29.4243 69.95 28.7092 71.4459 28.1372C72.5144 27.7082 73.5829 27.4222 75.4705 27.1005ZM66.1391 21.8093L66.7802 21.5591C68.4898 20.8798 69.5226 20.6295 70.8048 20.3793C71.4459 20.3078 72.3007 20.2005 72.7281 20.2005C74.8651 20.2005 75.4705 20.9155 75.4705 22.8461V23.3824C72.5144 23.8829 71.6596 24.0259 69.95 24.4191C69.0952 24.6336 68.2405 24.9196 67.4213 25.2772C64.6788 26.3854 63.3967 28.4947 63.3967 31.8553C63.3967 36.0382 65.1062 38.0402 68.9172 38.0402C70.413 38.0402 71.8733 37.6827 72.9418 37.0035C74.0103 36.5029 74.4377 36.2527 75.6842 35.0729V35.7522C75.6842 37.1465 76.3253 37.79 77.6075 37.79H83.9828V35.5019H83.7691C82.4869 35.5019 81.8458 34.9299 81.8458 33.7859V22.9533C81.8458 17.3047 79.9225 15.3742 74.4377 15.3742C72.5144 15.3742 70.8404 15.5887 69.1309 15.9819C67.4213 16.3752 66.6021 16.6969 64.6789 17.698M93.9197 37.8615V22.8461C95.4156 21.4518 96.4484 20.9155 97.9443 20.9155C99.4402 20.9155 99.8676 21.5591 99.8676 23.8114V37.8615H106.457V22.7388C106.457 19.6285 106.029 18.3057 105.174 17.1259C104.106 15.9819 102.859 15.4457 100.936 15.4457C98.4073 15.4457 96.484 16.3752 93.5279 18.9492V17.7695C93.5279 16.3752 92.8868 15.6959 91.6046 15.6959H85.2293V18.0912H85.443C86.7252 18.0912 87.3663 18.6275 87.3663 19.843V37.8615" fill="white"/>
<path d="M126.796 33.697H117.136L126.555 20.3637V15.7575H112.547C110.856 15.7575 110.132 16.4848 110.132 18.1818V22.303H112.547V21.8182C112.547 20.606 113.271 20.1212 114.479 20.1212H119.551L109.89 33.4545V38.0606H126.796" fill="white"/>
<path d="M164.23 36.6062V11.6363C164.23 9.69695 163.264 8.96973 161.574 8.96973H155.777V11.6363H156.502C157.468 11.6363 157.951 12.1212 157.951 13.3333V36.6062H164.23ZM167.611 36.6062H173.649V17.697C173.649 15.7576 172.683 15.0303 170.993 15.0303H167.611V36.6062ZM154.57 36.6062V15.0303H151.189C149.256 15.0303 148.532 15.7576 148.532 17.697V36.6062H154.57ZM181.136 24.0001C181.136 35.6364 172.683 44.3636 161.091 44.3636C149.498 44.3636 141.045 35.8789 141.045 24.0001C141.045 12.3637 149.498 3.63637 161.091 3.63637C172.683 3.63637 181.136 12.3637 181.136 24.0001ZM185 24.0001C185 10.1819 174.857 0 161.091 0C147.566 0 137.181 10.1819 137.181 24.0001C137.181 37.8183 147.566 48 161.091 48C174.857 48 185 37.8183 185 24.0001Z" fill="white"/>
</svg>
