<svg width="74" height="46" viewBox="0 0 74 46" fill="none" xmlns="http://www.w3.org/2000/svg">
<path fill-rule="evenodd" clip-rule="evenodd" d="M0 45.8058V0.311768H17.7368C24.789 0.311768 30.9873 4.89954 32.9326 11.5583L33.4575 13.3549C35.5734 20.5826 35.4401 28.2685 33.0741 35.4226L33.191 35.0707C31.0748 41.4715 25.0015 45.8058 18.1532 45.8058H0ZM14.9375 38.3161C18.5075 38.3161 21.6984 36.1142 22.9063 32.8113L22.977 32.6234C24.9223 27.3151 25.0808 21.5281 23.4311 16.1258L22.698 13.7354C21.6234 10.2159 18.3284 7.80526 14.5875 7.80526H10.4428V38.3203L14.9375 38.3161ZM40.089 45.8058V0.311768H60.8958C72.8926 0.311768 77.1371 15.9251 66.7401 21.8021L65.4946 22.5063L66.3777 22.8662C78.6325 27.8757 74.9918 45.8058 61.7163 45.8058H40.089ZM55.0514 18.3441C58.1673 18.3441 60.6957 15.8598 60.6957 12.7945C60.6957 9.73308 58.1673 7.24876 55.0514 7.24876H50.5361V18.3441H55.0514ZM55.8972 37.7596C59.017 37.7596 61.5454 35.2711 61.5454 32.2139C61.5454 29.1486 59.017 26.6643 55.8972 26.6643H50.5361V37.7596H55.8972Z" fill="#1B2A41"/>
</svg>
