<svg width="95" height="48" viewBox="0 0 95 48" fill="none" xmlns="http://www.w3.org/2000/svg">
<path fill-rule="evenodd" clip-rule="evenodd" d="M3.84512 2.52801C5.09564 3.71074 6.3979 4.08673 7.67134 4.3235C8.39304 4.45515 9.11281 4.50229 9.83499 4.51854C10.8697 4.5413 11.9005 4.50825 12.9352 4.41289C14.9049 4.23193 16.8742 3.9242 18.8425 3.57041C22.7879 2.86229 26.7291 2.20185 30.6778 2.27337C34.7726 2.34922 38.867 2.36005 42.9613 2.45757C46.844 2.55022 50.7259 2.64341 54.6079 2.53668C58.4954 2.42995 62.3797 2.25224 66.2672 2.5643C70.245 2.88396 74.2218 2.69434 78.2001 2.39581C80.0872 2.25224 81.9808 2.17314 83.865 2.68621C84.8485 2.95711 85.8301 3.28434 86.8127 3.63976C87.7743 3.98705 88.7394 4.15229 89.7035 4.36088C90.5931 4.55159 91.4653 4.25035 92.3493 3.805C92.9855 3.98867 93.4794 5.26838 93.8303 7.64412C94.0209 9.15138 94.2112 10.6581 94.4018 12.1648C94.7631 16.1827 94.9586 20.3577 94.9894 24.6845C95.038 29.0101 94.9198 33.2458 94.6334 37.3911C94.4711 38.9666 94.3089 40.5416 94.1468 42.1176C93.8404 44.6218 93.3718 46.0889 92.7416 46.5191C92.2523 46.4471 91.7634 46.3197 91.2746 46.2694C90.8289 46.2233 90.3833 46.3192 89.9383 46.3923C88.987 46.5478 88.0357 46.5868 87.0847 46.6004C85.1073 46.6264 83.1311 46.44 81.1536 46.5684C77.3235 46.8166 73.4935 47.5111 69.6627 47.2793C67.6092 47.1568 65.5568 46.9488 63.5031 46.8388C61.6373 46.7364 59.7709 46.7949 57.905 46.8556C53.9334 46.9894 49.9632 46.9694 45.9926 46.8301C42.0719 46.6925 38.1509 46.6199 34.2304 46.4687C32.0629 46.388 29.8955 46.3463 27.7284 46.342C25.7867 46.3387 23.8427 46.666 21.9022 46.9553C17.9292 47.5464 13.9564 48.1976 9.98119 47.9435C9.00196 47.8817 8.02333 47.7322 7.04638 47.4169C6.25303 47.1639 5.45775 46.7451 4.67345 46.1718C4.06719 45.7281 3.47818 44.9593 2.88723 44.2355C2.54297 43.8145 2.20269 43.1264 1.89944 42.3083C1.29595 40.3942 0.867247 37.889 0.613211 34.7921C0.0261293 28.8508 -0.111021 21.6293 0.0816168 15.2546C0.171362 11.4101 0.434927 7.81262 0.871349 4.46328C1.08799 3.39433 1.30524 2.327 1.52248 1.25968C2.03007 -0.310966 2.55166 -0.412827 3.08663 0.954109C3.32595 1.60046 3.58119 2.11408 3.84512 2.52801Z" fill="#4156F6"/>
</svg>
