<svg width="51" height="51" viewBox="0 0 51 51" fill="none" xmlns="http://www.w3.org/2000/svg">
<g clip-path="url(#clip0_554_13896)">
<path fill-rule="evenodd" clip-rule="evenodd" d="M50.7515 25.4173C50.7515 25.1264 50.5839 24.8627 50.3215 24.7409L37.4063 18.7581L50.3215 12.7749C50.8809 12.5159 50.8813 11.6821 50.3215 11.4232L25.8627 0.0924658C25.6614 -0.000836496 25.4292 0.00193095 25.2303 0.0999775L23.0153 1.19114C22.1616 1.61179 22.8042 2.95044 23.6638 2.52781L25.5641 1.59163L29.7344 3.5237L25.5265 5.47356L20.104 2.96863C19.8329 2.8437 19.5877 2.7334 19.2915 2.8694L0.787545 11.4232C0.227722 11.6817 0.226938 12.5159 0.787153 12.7749L13.7027 18.7585L11.1711 19.9311C10.3077 20.3308 10.9193 21.6852 11.7879 21.2828L15.4296 19.5958C15.4426 19.5899 15.4551 19.5824 15.4673 19.576L25.246 24.1056C25.4406 24.1957 25.6685 24.1957 25.8627 24.1056L35.639 19.5772L48.2458 25.4173L25.5543 35.9289L2.86285 25.4173L7.82711 23.1172C8.69058 22.7175 8.07937 21.3622 7.2108 21.7655L0.786761 24.7409C0.227722 25.0002 0.226938 25.8336 0.786761 25.7372L13.7027 32.0762L0.786761 38.059C0.227722 38.3184 0.226938 39.1517 0.786761 39.4111L25.246 50.7418C25.4402 50.8315 25.6685 50.8315 25.8627 50.7418L30.0953 48.7809C30.9584 48.3808 30.3475 47.0259 29.4782 47.4288L25.5543 49.247L2.86285 38.7354L15.4701 32.895L25.246 37.4237C25.4402 37.5134 25.6685 37.5134 25.8627 37.4237L35.6829 32.8744C35.739 32.9266 35.8034 32.9713 35.8759 33.0049L48.2458 38.7347L34.3012 45.195C33.4377 45.5951 34.0494 46.9496 34.9179 46.5467L50.3215 39.4111C50.8809 39.1517 50.8813 38.3184 50.3215 38.059L37.4063 32.0762L50.3215 25.7372C50.5839 25.972 50.7515 25.7079 50.7515 25.4173ZM31.5017 19.8556L27.3217 17.9191L31.916 15.791L36.0811 17.7341L31.5017 19.8556ZM15.0326 17.7365L19.2131 15.8001L23.787 17.9191L19.6065 19.8556L15.0326 17.7365ZM8.81024 14.8544L12.9907 12.9176L17.4453 14.9817L13.2649 16.9181L8.81024 14.8544ZM13.485 7.19056L17.6368 9.12777L12.9907 11.2804L8.81808 9.34758L13.485 7.19056ZM19.3978 9.9497L23.8364 12.0209L19.2131 14.1625L14.758 12.0992L19.3978 9.9497ZM42.2984 9.34402L38.109 11.2848L33.528 9.16888L37.7241 7.22495L42.2984 9.34402ZM36.3396 12.1044L31.9183 14.1527L27.3605 12.0257L31.7587 9.98844L36.3396 12.1044ZM37.8441 16.9173L33.6794 14.9742L38.1097 12.9215L42.2961 14.8552L37.8441 16.9173ZM25.5998 11.2037L21.1609 9.13291L25.5273 7.10991L29.9886 9.17086L25.5998 11.2037ZM20.9804 14.9817L25.5975 12.8425L30.1549 14.969L25.5543 17.1004L20.9804 14.9817ZM44.0654 14.036L39.879 12.1024L44.0658 10.1628L48.2458 12.0992L44.0654 14.036ZM31.5017 4.34247L35.9568 6.40658L31.7579 8.3513L27.2966 6.29035L31.5017 4.34247ZM19.4002 8.31098L15.25 6.37456L19.5909 4.36816L23.7572 6.29272L19.4002 8.31098ZM7.04917 10.1656L11.2229 12.0992L7.04289 14.036L2.86403 12.1L7.04917 10.1656ZM25.5543 22.6111L21.3739 20.6743L25.5543 18.7379L29.7344 20.6743L25.5543 22.6111Z" fill="#4156F6"/>
</g>
<defs>
<clipPath id="clip0_554_13896">
<rect width="51" height="51" fill="white"/>
</clipPath>
</defs>
</svg>
