<svg width="131" height="52" viewBox="0 0 131 52" fill="none" xmlns="http://www.w3.org/2000/svg">
<path fill-rule="evenodd" clip-rule="evenodd" d="M101.826 0.139798V26.0148L101.495 26.29L101.163 26.5616L100.845 26.8475L100.541 27.1339L100.25 27.4201L99.9611 27.7192L99.6848 28.0199L99.4089 28.3193V0.139798H70.3486V23.6994H67.9446V0.138184H38.8843V23.7365H36.4803V0.139798H7.42031V27.0383L0 51.4276H6.52017L9.79484 40.6307H10.7355L16.1529 51.4276H24.0294L18.7777 40.6307H30.6893L27.3871 51.4276H34.5036L37.7653 40.6585H39.3409V40.6307H55.2029L52.0518 51.3998H59.2379L62.2918 40.6307H65.5243L65.6086 51.3998H71.6337L78.5566 40.6307H83.0887L80.7398 51.3998H87.8141L90.1205 40.6307H94.2123L94.1848 41.2437L94.1994 41.8713L94.2269 42.4694L94.2824 43.0708L94.3229 43.3573L94.3651 43.6435L94.4202 43.9296L94.4756 44.2158L94.5437 44.5019L94.6138 44.7752L94.6948 45.0468L94.7795 45.3204L94.8767 45.5936L94.9727 45.8523L95.083 46.1107L95.1936 46.3568L95.3187 46.6152L95.4419 46.8613L95.5801 47.0922L95.7182 47.338L95.8709 47.5693L96.0366 47.7876L96.2023 48.0189L96.381 48.2243L96.5613 48.4426L96.7416 48.6461L96.9494 48.8519L97.1556 49.0427L97.4189 49.2591L97.6806 49.4775L97.9566 49.6826L98.249 49.8734L98.5383 50.0643L98.8288 50.2423L99.1326 50.3912L99.4494 50.5543L99.7533 50.6919L100.072 50.8275L100.39 50.9503L100.721 51.0736L101.053 51.1818L101.384 51.2787L101.715 51.3727L102.048 51.4535L102.711 51.6053L103.389 51.7138L104.051 51.8107L104.714 51.8917L105.364 51.945L106 51.9725L106.621 51.9999H107.215L108.018 51.987L108.819 51.9741L109.634 51.9337L110.45 51.893L111.265 51.8236L112.079 51.7558L112.894 51.675L113.71 51.5781L114.538 51.4696L115.368 51.3469L116.197 51.2109L117.025 51.0749L117.855 50.9244L118.684 50.7613L119.514 50.5982L120.357 50.4073L122.816 40.6307H130.886V0.141413H101.826V0.139798ZM10.1133 39.622L10.1557 39.4715L10.253 39.622H10.1133ZM35.4293 25.1159L35.0153 26.4935L31.1459 39.1708L30.9932 39.622H18.2807L17.2995 37.5488L30.9932 23.7397H22.1922L11.4826 35.1235L14.9509 23.7397H8.45663V1.16203H35.4293V25.1143V25.1159ZM42.934 35.8318L42.7261 35.8447L42.5312 35.8577L42.3247 35.8706H41.5646L41.3292 35.8835H41.1081L39.3814 35.8706L40.1823 32.9534L40.5559 31.5081L41.4686 28.1122H42.0617L42.3526 28.1006H43.9687L44.7842 28.1139L45.5313 28.1397L45.8626 28.1526L46.1794 28.1801L46.4833 28.2221L46.7595 28.2624L47.0095 28.3028L47.2433 28.371L47.4645 28.4404L47.6594 28.5211L47.8251 28.6019L47.9762 28.712L48.1143 28.8222L48.2245 28.9578L48.2946 29.0679L48.3497 29.1761L48.4048 29.2989L48.4454 29.4349L48.4732 29.5854L48.4895 29.7355V30.0753L48.4732 30.2675L48.4603 30.4584L48.4194 30.6767L48.3773 30.8934L48.2537 31.3576L48.101 31.8747L47.9502 32.3116L47.7829 32.7351L47.6042 33.1298L47.409 33.4983L47.3134 33.6601L47.2158 33.8251L47.1055 33.9882L46.982 34.1388L46.8568 34.2889L46.7333 34.4249L46.5955 34.5606L46.4557 34.6836L46.3046 34.7934L46.1519 34.9165L45.9862 35.0121L45.8075 35.1203L45.6272 35.2172L45.4324 35.2979L45.2407 35.379L45.0325 35.4468L44.8117 35.5292L44.5779 35.5844L44.3276 35.6374L44.0792 35.6926L43.803 35.733L43.527 35.7753L43.2362 35.8024L42.9323 35.8302L42.934 35.8318ZM62.5823 39.622L65.4154 29.6693L65.5259 39.622H62.5823ZM66.8937 23.6981H60.1507L55.5067 39.622H48.3497L48.6811 39.4844L49.0125 39.3484L49.3309 39.2128L49.6493 39.0626L49.9528 38.9121L50.2421 38.7341L50.5329 38.5726L50.8089 38.3947L51.0851 38.2038L51.3481 38.0129L51.5968 37.822L51.8452 37.604L52.0809 37.4002L52.3018 37.1673L52.5226 36.949L52.7307 36.7048L52.937 36.472L53.1318 36.2133L53.3105 35.9675L53.4892 35.6958L53.6549 35.4226L53.8076 35.1494L53.9603 34.8629L54.0985 34.5638L54.2363 34.2631L54.3598 33.964L54.4704 33.6504L54.5823 33.3239L54.6636 32.9954L54.7609 32.6689L54.831 32.3129L54.8991 31.9735L54.9967 31.4286L55.0777 30.9112L55.1348 30.4196L55.1753 29.9555L55.1915 29.493L55.1753 29.0692L55.1623 28.6474L55.1072 28.2511L55.0518 27.8842L54.9545 27.5154L54.8585 27.1759L54.7204 26.8475L54.5677 26.5338L54.402 26.2202L54.2087 25.9341L53.9879 25.6608L53.8092 25.4699L53.6289 25.2794L53.4341 25.1176L53.2278 24.9658L53.0067 24.8165L52.7859 24.6793L52.5505 24.5582L52.3163 24.448L52.068 24.3398L51.8193 24.2571L51.5563 24.1764L51.293 24.094L51.017 24.0262L50.7408 23.9713L50.4645 23.9161L50.174 23.8757L49.5793 23.795L48.9865 23.753L48.3773 23.7126L47.7566 23.6994H39.9206V1.16333H66.8937V23.6994V23.6981ZM83.282 39.622H79.2323L85.3676 30.0786L83.282 39.622ZM98.356 24.1473L98.3431 29.6693L97.9971 30.1464L97.6806 30.638L97.3622 31.1279L97.0713 31.6195L96.7951 32.1095L96.5191 32.614L96.2834 33.1052L96.0496 33.5952L95.8288 34.0725L95.6336 34.5638L95.4403 35.0408L95.2746 35.505L95.1238 35.9675L94.9857 36.4171L94.8605 36.8534L94.75 37.2904L94.6803 37.5762L94.6122 37.8773L94.5421 38.1634L94.487 38.4625L94.4315 38.7487L94.391 39.0348L94.3489 39.3213L94.3213 39.622H90.3563L93.7412 23.7384L82.3283 23.7252L72.1158 39.622H71.3687V1.16333H98.356V24.1489V24.1473ZM113.918 46.124L113.349 46.2208L112.769 46.3016L112.19 46.3827L111.622 46.4521L111.057 46.5054L110.489 46.5477L109.936 46.5748H109.025L108.666 46.5622L108.32 46.5345L107.976 46.4925L107.643 46.4392L107.326 46.3839L107.008 46.3161L106.704 46.2354L106.413 46.1385L106.124 46.0429L105.848 45.9198L105.585 45.7971L105.321 45.6485L105.073 45.498L104.837 45.3349L104.616 45.1712L104.396 44.9806L104.202 44.7752L104.009 44.5714L103.83 44.3385L103.663 44.1076L103.512 43.8485L103.374 43.5898L103.236 43.3166L103.125 43.0304L103.028 42.7168L102.945 42.4032L102.862 42.0763L102.807 41.7369L102.765 41.3813L102.737 41.0124L102.722 40.6307H115.298L113.916 46.1252L113.918 46.124ZM129.863 39.622H123.065L124.184 35.1768H110.558L109.439 39.622H102.849V38.7083L102.93 38.3265L103 37.9451L103.083 37.5359L103.166 37.127L103.291 36.6774L103.414 36.2262L103.553 35.7766L103.705 35.3402L103.871 34.9036L104.05 34.4669L104.245 34.0467L104.438 33.623L104.659 33.2008L104.88 32.8048L105.115 32.3956L105.377 32.0139L105.64 31.6324L105.901 31.2639L106.194 30.9096L106.496 30.5698L106.814 30.2417L107.133 29.9426L107.477 29.6419L107.823 29.3557L108.182 29.097L108.569 28.8512L108.955 28.6329L109.356 28.4291L109.771 28.2385L110.2 28.0748L110.642 27.9375L111.098 27.8293L111.569 27.7321L112.051 27.6659L112.548 27.6239L113.06 27.611L113.461 27.6239L113.861 27.6514L114.262 27.7063L114.649 27.787L114.844 27.8422L115.022 27.8971L115.201 27.952L115.368 28.0331L115.534 28.1006L115.7 28.1978L115.851 28.2915L116.003 28.3887L116.142 28.5098L116.28 28.6329L116.405 28.7556L116.528 28.9061L116.639 29.0421L116.736 29.2052L116.819 29.3832L116.902 29.5611L116.972 29.7501L117.027 29.9555L117.067 30.1593L117.11 30.3922L117.124 30.6234V31.1279L117.097 31.4012H125.222L125.345 30.8418L125.456 30.2013L125.511 29.8602L125.539 29.4917L125.566 29.1245V28.7427L125.553 28.3467L125.513 27.9375L125.47 27.7466L125.443 27.5432L125.387 27.3374L125.332 27.1339L125.264 26.9156L125.194 26.7102L125.113 26.5067L125.016 26.3013L124.918 26.0975L124.793 25.8921L124.67 25.6883L124.531 25.4845L124.366 25.2661L124.187 25.061L124.005 24.8572L123.812 24.6664L123.606 24.4758L123.384 24.2975L123.164 24.1344L122.928 23.9713L122.68 23.8079L122.431 23.6703L122.168 23.5343L121.892 23.3987L121.616 23.2756L121.325 23.1529L121.021 23.0431L120.717 22.9345L120.414 22.8376L120.082 22.7566L119.764 22.6758L119.418 22.5935L119.073 22.5256L118.728 22.4575L118.369 22.4026L117.995 22.3622L117.235 22.2798L116.462 22.2117L115.646 22.1842L114.818 22.1713L114.196 22.1842L113.546 22.1972L112.868 22.2375L112.164 22.2924L111.432 22.3735L110.685 22.4707L109.925 22.5918L109.152 22.7566L108.765 22.8376L108.364 22.9345L107.977 23.0431L107.576 23.1513L107.175 23.2743L106.775 23.41L106.374 23.5475L105.987 23.6961L105.586 23.8612L105.185 24.0388L104.798 24.2152L104.397 24.406L104.011 24.6098L103.624 24.8278L103.237 25.0465L102.851 25.292V1.16203H129.864V39.6204L129.863 39.622Z" fill="#1B2A41"/>
</svg>
