<svg width="272" height="35" viewBox="0 0 272 35" fill="none" xmlns="http://www.w3.org/2000/svg">
<path d="M31 0H34.2318C34.4355 0 34.6309 0.0809399 34.775 0.225014C34.9191 0.369088 35 0.564494 35 0.768246V4H31V0Z" fill="white"/>
<path d="M30.5 8V8.5H31H34.5V34.16C34.5 34.2502 34.4642 34.3367 34.4004 34.4004C34.3367 34.4642 34.2502 34.5 34.16 34.5H0.84C0.749824 34.5 0.663345 34.4642 0.599584 34.4004C0.535822 34.3367 0.5 34.2502 0.5 34.16V0.84C0.5 0.749826 0.535821 0.663346 0.599584 0.599584C0.663346 0.535821 0.749826 0.5 0.84 0.5H26.5V4V4.5H27H30.5V8Z" stroke="white" stroke-miterlimit="10"/>
<path d="M19 7V9H20V7H19Z" fill="#E0E0E0"/>
<path d="M19 9H18V10H19V9Z" fill="#E0E0E0"/>
<path d="M19 5H18V7H19V5Z" fill="#E0E0E0"/>
<path d="M15 9H16V7H15V9Z" fill="#E0E0E0"/>
<path d="M15 9H14V10H15V9Z" fill="#E0E0E0"/>
<path d="M15 5H14V7H15V5Z" fill="#E0E0E0"/>
<path d="M11 9H12V7H11V9Z" fill="#E0E0E0"/>
<path d="M11 9H10V10H11V9Z" fill="#E0E0E0"/>
<path d="M11 5H10V7H11V5Z" fill="#E0E0E0"/>
<path d="M29.0387 15.7989V16.7486H28.0774V23.3967H29.0387V21.4973H30.0001V15.7989H29.0387Z" fill="#F2F2F2"/>
<path d="M25.1936 14.8491V16.7486H26.1549V15.7989H28.0776L29.0387 15.7989L29.0389 14.8491H25.1936Z" fill="#F2F2F2"/>
<path d="M28.0774 23.3967L27.116 23.3968V24.3465H28.0773L28.0774 23.3967Z" fill="#F2F2F2"/>
<path d="M26.1549 24.3464H25.1936V25.2962H26.1549V24.3464Z" fill="#F2F2F2"/>
<path d="M26.1549 15.7989V16.7486H25.1936V14.8491L25.1933 12.9498H23.2707V14.8492H24.232V27.1957H22.3093V28.1454H21.348V29.1005H18.464V30.0503H8.84521V31H21.348V30.0503H23.2707V28.1454H25.1933V26.2459H26.1546L26.1549 25.2962H25.1936V24.3464L25.1933 17.6984H27.116V16.7487L28.0774 16.7486L28.0776 15.7989H26.1549Z" fill="#C7C7C7"/>
<path d="M7.88407 12V12.9497H10.7681V12H7.88407Z" fill="white"/>
<path d="M7.88403 13.8995V21.4973H8.84536V20.5475H9.80669V15.7989H10.768V13.8995H7.88403Z" fill="white"/>
<path d="M29.0387 21.4973V23.3967L29.9999 23.3968L30.0001 21.4973H29.0387Z" fill="#E0E0E0"/>
<path d="M29.0387 23.3967H28.0774L28.0773 24.3465H29.0387V23.3967Z" fill="#E0E0E0"/>
<path d="M29.0387 15.7989L28.0776 15.7989L28.0774 16.7486H29.0387V15.7989Z" fill="#E0E0E0"/>
<path d="M26.1549 24.3464V25.2962H28.0772L28.0773 24.3465H27.116L26.1549 24.3464Z" fill="#E0E0E0"/>
<path d="M23.2707 12.9498L10.7681 12.9497H7.88407L5 12.9498V13.8995L7.88403 13.8995H10.768L21.3481 13.8995V25.2962H20.3868V26.2459H19.4254V27.1957H16.536V28.1454H14.6133V29.1005H6.92266V30.0503L8.84521 30.0503H18.464V29.1005H21.348V28.1454H22.3093V27.1957H24.232V14.8492H23.2707V12.9498Z" fill="#E0E0E0"/>
<path d="M10.7681 12V12.9497L23.2707 12.9498H25.1933L25.1933 12H10.7681Z" fill="#F2F2F2"/>
<path d="M10.768 13.8995V15.7989H9.80669V20.5475H8.84536V21.4973H7.88403V13.8995L5 13.8995V28.1453H5.96133V29.1005L6.92266 29.1005H14.6133V28.1454H16.536V27.1957H19.4254V26.2459H20.3868V25.2962H21.3481V13.8995L10.768 13.8995Z" fill="#F2F2F2"/>
<path d="M7.88407 12.9497V12L5 12L5 12.9498L7.88407 12.9497Z" fill="#F2F2F2"/>
<path d="M269.629 26.8011C268.897 27.4862 268.046 28.0348 267.117 28.4207C266.18 28.7978 265.177 28.9876 264.166 28.9792C261.934 28.9931 259.785 28.1436 258.174 26.6112C257.387 25.8538 256.757 24.9506 256.321 23.9528C255.86 22.9208 255.628 21.803 255.64 20.6745C255.634 19.2483 255.993 17.8439 256.681 16.5919C257.014 15.9848 257.423 15.4219 257.898 14.9165C258.632 14.142 259.518 13.5256 260.503 13.1057C261.487 12.6858 262.548 12.4714 263.62 12.4759C264.309 12.4732 264.995 12.5653 265.659 12.7496C266.959 13.1126 268.144 13.7967 269.105 14.7378C269.576 15.2095 269.986 15.7365 270.327 16.3071C270.673 16.8638 270.943 17.4627 271.133 18.0887C271.333 18.7217 271.441 19.38 271.454 20.0434C271.454 20.479 271.454 20.8364 271.454 21.1101C271.455 21.3443 271.387 21.5736 271.257 21.7691C271.117 21.9468 270.917 22.0679 270.693 22.1098C270.296 22.1831 269.892 22.2149 269.488 22.2047H260.303C260.366 22.6868 260.541 23.1476 260.815 23.5507C261.053 23.8915 261.355 24.1835 261.705 24.4107C262.038 24.6201 262.403 24.7747 262.786 24.8687C263.138 24.9565 263.499 25.0034 263.862 25.0083C264.176 25.0063 264.489 24.9745 264.797 24.9134C265.114 24.85 265.426 24.7661 265.732 24.6621C266.015 24.5623 266.29 24.4409 266.554 24.299C266.773 24.181 266.976 24.0345 267.157 23.8634C267.265 23.7709 267.382 23.6886 267.506 23.6177C267.599 23.5622 267.707 23.5333 267.816 23.5339C267.936 23.5367 268.053 23.5778 268.148 23.6512C268.289 23.7446 268.419 23.8532 268.536 23.9751L269.882 25.483C269.961 25.5687 270.02 25.6695 270.057 25.779C270.084 25.8659 270.097 25.9563 270.096 26.0471C270.101 26.204 270.051 26.3577 269.956 26.4827C269.864 26.6051 269.754 26.7125 269.629 26.8011ZM263.53 16.335C263.201 16.3362 262.875 16.4027 262.572 16.5305C262.26 16.6626 261.968 16.8374 261.705 17.0499C261.434 17.2744 261.19 17.5293 260.979 17.8094C260.775 18.0715 260.599 18.3542 260.455 18.6528H266.948C266.786 18.3366 266.597 18.034 266.385 17.748C266.181 17.4751 265.943 17.2292 265.675 17.0164C265.401 16.8046 265.093 16.6404 264.763 16.5305C264.366 16.3962 263.949 16.3301 263.53 16.335Z" fill="white"/>
<path d="M242.788 13.6823C242.789 13.5411 242.822 13.4019 242.884 13.2746C242.938 13.1561 243.019 13.0512 243.12 12.9674C243.324 12.842 243.561 12.778 243.801 12.7831H245.716C245.848 12.7753 245.98 12.8064 246.094 12.8725C246.188 12.9289 246.269 13.0052 246.33 13.0959C246.396 13.1941 246.45 13.299 246.494 13.4086C246.543 13.5301 246.601 13.6478 246.668 13.7604C246.668 13.794 246.719 13.8777 246.769 14.0062C246.82 14.1346 246.871 14.2798 246.933 14.4362C246.995 14.5926 247.045 14.7378 247.102 14.8774C247.158 15.017 247.192 15.1008 247.209 15.1455C247.462 14.8663 247.704 14.587 247.941 14.2743C248.166 13.974 248.412 13.6903 248.679 13.4254C248.937 13.1684 249.233 12.9519 249.557 12.7831C249.907 12.6099 250.293 12.5236 250.684 12.5318C251.093 12.5279 251.502 12.5616 251.906 12.6323C252.255 12.6946 252.597 12.7938 252.925 12.9283C253.259 13.064 253.58 13.2304 253.882 13.4254C254.198 13.6264 254.547 13.861 254.919 14.1291C255.049 14.1808 255.164 14.2628 255.256 14.3682C255.347 14.4736 255.412 14.5993 255.444 14.7346C255.476 14.8699 255.474 15.0109 255.44 15.1456C255.405 15.2803 255.339 15.4048 255.245 15.5085L254.091 17.4576C254.023 17.5715 253.934 17.671 253.828 17.7505C253.721 17.8301 253.6 17.888 253.471 17.9212C253.2 17.9781 252.917 17.9386 252.672 17.8095C252.345 17.4841 251.964 17.2177 251.545 17.022C251.141 16.8459 250.703 16.7583 250.261 16.7651C249.966 16.7587 249.672 16.806 249.394 16.9047C249.147 16.995 248.919 17.1273 248.718 17.2957C248.508 17.4753 248.319 17.6776 248.155 17.8988C247.98 18.1334 247.8 18.3903 247.626 18.6751V27.7449C247.645 28.0066 247.56 28.2653 247.389 28.4654C247.283 28.5569 247.16 28.626 247.026 28.6682C246.892 28.7105 246.751 28.7251 246.612 28.7111H243.762C243.629 28.7315 243.492 28.7207 243.364 28.6796C243.235 28.6385 243.118 28.5682 243.022 28.4744C242.926 28.3806 242.853 28.2658 242.81 28.1392C242.766 28.0125 242.753 27.8775 242.771 27.7449L242.788 13.6823Z" fill="white"/>
<path d="M239.42 28.4988C239.32 28.5863 239.2 28.6477 239.071 28.6775C238.956 28.7006 238.839 28.7137 238.722 28.7166H236.807C236.671 28.7198 236.536 28.6911 236.413 28.6329C236.307 28.5794 236.213 28.5053 236.137 28.415C236.058 28.3206 235.993 28.2152 235.945 28.1023C235.896 27.9842 235.854 27.863 235.821 27.7393L235.41 26.1308C235.249 26.4407 235.06 26.7359 234.847 27.0132C234.587 27.3656 234.278 27.6796 233.929 27.9459C233.524 28.2506 233.076 28.4951 232.6 28.672C232.031 28.875 231.43 28.9734 230.826 28.9624C229.948 28.9768 229.078 28.7997 228.277 28.4436C227.476 28.0875 226.764 27.561 226.191 26.9016C225.626 26.2426 225.191 25.485 224.907 24.6676C224.599 23.7936 224.444 22.8736 224.451 21.9478V13.7213C224.431 13.4641 224.505 13.2085 224.659 13.0008C224.744 12.9136 224.848 12.8463 224.963 12.8038C225.078 12.7613 225.201 12.7447 225.324 12.7551H228.252C228.516 12.7272 228.781 12.7924 229.001 12.9394C229.081 13.0381 229.14 13.1517 229.175 13.2736C229.21 13.3955 229.22 13.523 229.204 13.6487V21.8361C229.201 22.1935 229.286 22.5463 229.452 22.8637C229.613 23.1857 229.832 23.4754 230.099 23.7182C230.371 23.9644 230.684 24.1627 231.023 24.3046C231.353 24.4432 231.707 24.5153 232.065 24.5168C232.392 24.5109 232.714 24.4386 233.011 24.3046C233.337 24.1628 233.641 23.9747 233.912 23.7461C234.184 23.505 234.412 23.2199 234.588 22.9028C234.761 22.5894 234.852 22.238 234.853 21.8808V13.6878C234.853 13.5404 234.882 13.3944 234.937 13.2577C234.981 13.1241 235.068 13.0085 235.185 12.9282C235.28 12.8661 235.384 12.8208 235.495 12.7942C235.603 12.7658 235.715 12.7526 235.827 12.7551H238.693C238.835 12.7422 238.978 12.7589 239.113 12.8042C239.248 12.8494 239.372 12.9221 239.476 13.0176C239.645 13.2128 239.731 13.4646 239.718 13.7213V27.784C239.721 27.9377 239.684 28.0895 239.611 28.2252C239.544 28.3558 239.441 28.4644 239.313 28.5379L239.42 28.4988Z" fill="white"/>
<path d="M214.572 10.2643C214.569 10.1571 214.591 10.0507 214.637 9.95362C214.683 9.85658 214.752 9.77167 214.837 9.7058C215.063 9.54623 215.312 9.42018 215.575 9.33161L218.447 8.31517H218.565H218.672C218.793 8.29994 218.915 8.31734 219.026 8.36554C219.137 8.41373 219.233 8.4909 219.303 8.58883C219.419 8.80704 219.473 9.05196 219.461 9.2981V13.2578H221.573C221.815 13.2478 222.051 13.3319 222.232 13.4923C222.322 13.5887 222.39 13.7024 222.434 13.8264C222.478 13.9503 222.495 14.0819 222.485 14.2128V16.6366C222.497 16.7754 222.481 16.9152 222.438 17.0476C222.394 17.1801 222.324 17.3024 222.232 17.4073C222.144 17.4906 222.041 17.5553 221.928 17.5976C221.814 17.6398 221.694 17.6587 221.573 17.6531H219.461V27.7561C219.47 27.8893 219.45 28.0229 219.401 28.1474C219.352 28.2719 219.277 28.3843 219.179 28.4765C218.962 28.6505 218.687 28.7381 218.408 28.7222H215.547C215.413 28.7413 215.277 28.7291 215.149 28.6865C215.022 28.644 214.906 28.5723 214.811 28.4772C214.716 28.3822 214.645 28.2664 214.604 28.1392C214.562 28.012 214.552 27.877 214.572 27.7449V17.6419H213.649C212.995 17.6419 212.674 17.3012 212.674 16.6254V14.2016C212.656 14.071 212.669 13.938 212.712 13.8132C212.755 13.6884 212.826 13.5752 212.921 13.4825C213.015 13.3898 213.13 13.3202 213.257 13.2793C213.383 13.2384 213.517 13.2272 213.649 13.2466H214.572V10.2643Z" fill="white"/>
<path d="M195.373 12.7775H192.281V15.8436H195.373V12.7775Z" fill="white"/>
<path d="M199.434 15.81H195.283V27.7449C195.269 27.8797 195.285 28.0162 195.333 28.1435C195.38 28.2709 195.456 28.3858 195.555 28.4792C195.654 28.5727 195.774 28.6422 195.904 28.6824C196.035 28.7226 196.173 28.7324 196.308 28.711H199.175C199.286 28.7124 199.398 28.7012 199.507 28.6775C199.618 28.6455 199.724 28.5985 199.822 28.5379C199.936 28.4557 200.02 28.3405 200.065 28.2084C200.12 28.0735 200.148 27.9295 200.149 27.7839V19.6133C200.174 19.2452 200.28 18.8869 200.459 18.5633C200.636 18.2503 200.862 17.9675 201.129 17.7256C201.389 17.4929 201.686 17.3043 202.008 17.1671C202.3 17.038 202.617 16.9695 202.937 16.9661C203.297 16.9653 203.653 17.0375 203.984 17.1783C204.32 17.3108 204.631 17.4997 204.902 17.7368C205.2 18.0108 205.439 18.3413 205.606 18.7086C205.739 18.994 205.806 19.3048 205.803 19.6189V27.823C205.788 27.9487 205.798 28.0762 205.833 28.198C205.867 28.3198 205.926 28.4335 206.006 28.5323C206.225 28.6761 206.488 28.7393 206.75 28.711H209.678C209.8 28.7227 209.924 28.7066 210.039 28.664C210.154 28.6215 210.258 28.5535 210.343 28.4653C210.497 28.2576 210.571 28.002 210.551 27.7449V19.5128C210.557 18.5888 210.403 17.6706 210.095 16.7985C209.811 15.9811 209.375 15.2235 208.811 14.5646C208.256 13.9277 207.571 13.4155 206.8 13.0623C205.981 12.6836 205.086 12.4927 204.181 12.5038C203.575 12.4926 202.972 12.5929 202.402 12.7998C201.925 12.9743 201.477 13.219 201.073 13.5258C200.725 13.7933 200.416 14.1072 200.155 14.4585C199.958 14.7213 199.783 14.9996 199.631 15.2906C199.613 15.3245 199.598 15.36 199.586 15.3967L199.434 15.81Z" fill="white"/>
<path d="M190.823 26.801C190.093 27.486 189.244 28.0347 188.317 28.4206C187.378 28.7983 186.373 28.9881 185.36 28.9791C183.128 28.9906 180.98 28.1415 179.368 26.6111C178.582 25.8535 177.955 24.9503 177.521 23.9527C177.063 22.9276 176.831 21.8177 176.839 20.6967C176.832 19.2696 177.192 17.8643 177.887 16.6142C178.219 16.0071 178.628 15.4441 179.103 14.9387C179.574 14.4366 180.112 14.0007 180.703 13.643C181.942 12.8873 183.37 12.4907 184.825 12.4981C185.514 12.4959 186.2 12.588 186.864 12.7718C187.513 12.9524 188.135 13.2152 188.717 13.5537C189.869 14.2263 190.836 15.1701 191.532 16.3014C191.88 16.8569 192.151 17.4561 192.338 18.083C192.53 18.7171 192.626 19.3757 192.625 20.0377C192.625 20.4733 192.625 20.8308 192.625 21.1044C192.628 21.338 192.562 21.5673 192.434 21.7634C192.287 21.947 192.076 22.0687 191.842 22.1041C191.443 22.1773 191.037 22.2091 190.631 22.1991H181.508C181.571 22.6811 181.746 23.1419 182.02 23.545C182.262 23.8848 182.566 24.1766 182.916 24.4051C183.248 24.6134 183.611 24.7679 183.992 24.863C184.343 24.9505 184.704 24.9974 185.067 25.0026C185.383 25.0006 185.698 24.9688 186.008 24.9077C186.323 24.8451 186.633 24.7611 186.937 24.6564C187.22 24.5566 187.495 24.4352 187.759 24.2934C187.979 24.1766 188.182 24.03 188.362 23.8578C188.471 23.7665 188.588 23.6843 188.711 23.612C188.805 23.5571 188.912 23.5282 189.021 23.5282C189.143 23.5299 189.262 23.571 189.359 23.6455C189.498 23.7417 189.628 23.8501 189.747 23.9694L191.088 25.4774C191.167 25.563 191.228 25.6637 191.268 25.7734C191.29 25.861 191.301 25.951 191.302 26.0414C191.305 26.1973 191.258 26.3502 191.166 26.4771C191.07 26.6024 190.954 26.7118 190.823 26.801ZM184.724 16.3349C184.394 16.3357 184.069 16.4021 183.766 16.5304C183.453 16.6612 183.161 16.8362 182.899 17.0498C182.629 17.2705 182.383 17.5195 182.167 17.7926C181.963 18.0547 181.787 18.3373 181.643 18.6359H188.103C187.938 18.3209 187.75 18.0185 187.54 17.7312C187.339 17.4556 187.1 17.2094 186.83 16.9995C186.556 16.7878 186.247 16.6235 185.918 16.5137C185.532 16.3882 185.129 16.3278 184.724 16.3349Z" fill="white"/>
<path d="M170.582 12.7551H167.49V15.8212H170.582V12.7551Z" fill="white"/>
<path d="M170.554 15.7989L168.611 21.9422C168.555 21.7914 168.465 21.5401 168.341 21.1827C168.217 20.8252 168.076 20.4064 167.924 19.9261C167.772 19.4458 167.597 18.9152 167.411 18.3455C167.226 17.7759 167.034 17.1895 166.848 16.6087C166.662 16.0278 166.476 15.4582 166.285 14.9053C166.094 14.3524 165.953 13.8553 165.806 13.4085C165.751 13.2063 165.628 13.0289 165.457 12.9059C165.293 12.7905 165.095 12.7299 164.894 12.7328H161.633C161.239 12.7328 160.985 12.8556 160.878 13.0958C160.828 13.2408 160.811 13.3951 160.827 13.5476C160.844 13.7001 160.894 13.8471 160.974 13.9782L166.814 28.1526C166.878 28.3109 166.985 28.4483 167.124 28.5491C167.347 28.661 167.596 28.7093 167.845 28.6887H169.349C169.549 28.7014 169.747 28.6463 169.912 28.5323C170.042 28.4255 170.153 28.297 170.239 28.1526L175.442 15.7765L170.554 15.7989Z" fill="white"/>
<path d="M153.833 26.7452C153.608 26.9686 153.354 27.2143 153.079 27.4712C152.798 27.7384 152.497 27.9831 152.177 28.2028C151.845 28.4282 151.488 28.6155 151.113 28.7613C150.719 28.9085 150.301 28.9824 149.88 28.9791C148.819 28.9905 147.768 28.784 146.792 28.3726C145.816 27.9612 144.936 27.3539 144.208 26.5888C143.502 25.824 142.947 24.9333 142.575 23.9639C141.794 21.87 141.794 19.5682 142.575 17.4743C142.949 16.5089 143.503 15.6221 144.208 14.8606C144.911 14.1146 145.763 13.5212 146.709 13.1181C147.709 12.6864 148.789 12.4694 149.88 12.4815C150.312 12.476 150.743 12.544 151.152 12.6825C151.524 12.8095 151.878 12.9821 152.206 13.1963C152.519 13.4048 152.811 13.6423 153.079 13.9056C153.349 14.1737 153.597 14.4306 153.833 14.6819V8.95741C153.827 8.70929 153.916 8.46806 154.081 8.28164C154.177 8.1844 154.293 8.10906 154.422 8.06084C154.55 8.01262 154.687 7.99268 154.824 8.00239H157.691C157.811 8.00605 157.929 8.03063 158.04 8.075C158.163 8.12011 158.278 8.18626 158.378 8.27047C158.478 8.35395 158.561 8.45649 158.62 8.57205C158.686 8.68982 158.719 8.82281 158.716 8.95741V27.7449C158.716 28.3927 158.378 28.7111 157.691 28.7111H155.207C155.073 28.7186 154.939 28.6977 154.813 28.6496C154.721 28.6097 154.641 28.5461 154.582 28.4653C154.509 28.3759 154.451 28.2761 154.408 28.1693C154.357 28.0465 154.295 27.9068 154.222 27.7449L153.833 26.7452ZM146.551 20.747C146.546 21.2756 146.634 21.8009 146.81 22.2996C146.97 22.7621 147.223 23.1876 147.554 23.5506C147.878 23.905 148.273 24.1884 148.714 24.3828C149.186 24.5931 149.7 24.698 150.218 24.69C150.74 24.6931 151.258 24.5964 151.744 24.4051C152.208 24.22 152.632 23.949 152.994 23.6065C153.35 23.2619 153.638 22.8548 153.844 22.4057C154.064 21.9393 154.188 21.4344 154.211 20.9202V20.747C154.213 20.2202 154.109 19.6982 153.906 19.2112C153.71 18.7354 153.423 18.3013 153.062 17.9323C152.7 17.5631 152.27 17.2672 151.794 17.061C151.298 16.8421 150.761 16.7317 150.218 16.7371C149.698 16.729 149.183 16.8398 148.714 17.061C148.27 17.2677 147.875 17.5645 147.554 17.9323C147.227 18.3076 146.977 18.7419 146.816 19.2112C146.639 19.7042 146.55 20.2238 146.551 20.747Z" fill="white"/>
<path d="M134.358 25.6338H131.266V28.6999H134.358V25.6338Z" fill="white"/>
<path d="M140.491 28.1469L133.84 11.1355L133.525 10.415C133.455 10.3318 133.378 10.2551 133.294 10.186C133.192 10.0995 133.062 10.052 132.928 10.052H129.684C129.61 10.054 129.538 10.0691 129.47 10.0967C129.391 10.1245 129.317 10.1641 129.25 10.214C129.186 10.2611 129.129 10.3176 129.081 10.3815C129.041 10.4285 129.012 10.4838 128.997 10.5435L122.12 28.2084C122.053 28.3759 122.07 28.5044 122.177 28.5881C122.291 28.6739 122.433 28.7173 122.576 28.711H126.31C126.456 28.7197 126.6 28.6783 126.718 28.5939C126.836 28.5094 126.921 28.387 126.958 28.2475L127.448 26.9741C127.611 26.5497 127.775 26.1252 127.932 25.6952H131.311V21.6629H129.357C129.52 21.2385 129.684 20.7749 129.847 20.289C130.01 19.8032 130.174 19.3005 130.337 18.7979C130.5 18.2953 130.658 17.7982 130.821 17.3011C130.985 16.8041 131.148 16.3461 131.311 15.9217L135.642 28.2475C135.686 28.3892 135.772 28.5141 135.89 28.6049C136.026 28.6839 136.183 28.7208 136.341 28.711H139.979C140.065 28.7208 140.153 28.7118 140.235 28.6848C140.318 28.6578 140.394 28.6134 140.457 28.5546C140.504 28.4979 140.532 28.4287 140.538 28.356C140.544 28.2832 140.528 28.2104 140.491 28.1469Z" fill="white"/>
<path d="M105.191 8.97425C105.191 8.82904 105.191 8.70059 105.191 8.58331C105.196 8.47459 105.234 8.36976 105.298 8.28173C105.375 8.18757 105.479 8.11929 105.597 8.08626C105.78 8.0359 105.97 8.0133 106.16 8.01924H109.19C109.327 8.01322 109.465 8.04003 109.59 8.09742C109.689 8.14607 109.776 8.21678 109.843 8.30406C109.905 8.38483 109.947 8.47839 109.967 8.57772C109.989 8.66549 110 8.75545 110.001 8.8458V18.1446L114.563 13.1182C114.658 13.0048 114.778 12.9136 114.913 12.8509C115.049 12.7882 115.196 12.7555 115.345 12.7552H119.237C119.704 12.7552 119.935 12.9339 119.935 13.3137C119.937 13.3906 119.922 13.4669 119.89 13.5371C119.84 13.6291 119.778 13.7136 119.704 13.7884L114.501 19.2448L121.084 27.5718H121.056C121.158 27.6635 121.238 27.7759 121.293 27.9013C121.334 27.9988 121.356 28.1029 121.36 28.2085C121.37 28.2825 121.361 28.3578 121.334 28.4272C121.306 28.4966 121.261 28.5579 121.202 28.605C121.059 28.6864 120.894 28.7234 120.729 28.7111H116.444C116.293 28.7094 116.148 28.6516 116.038 28.5492C115.88 28.4024 115.74 28.2374 115.621 28.0577L111.476 22.2439L110.074 23.6848V27.745C110.071 27.8333 110.06 27.9213 110.04 28.0074C110.017 28.1215 109.975 28.231 109.916 28.3314C109.849 28.439 109.759 28.5305 109.652 28.5994C109.525 28.681 109.375 28.7201 109.224 28.7111H106.042C105.901 28.7144 105.763 28.6733 105.647 28.5939C105.546 28.5203 105.458 28.4295 105.388 28.3258C105.332 28.2367 105.286 28.141 105.253 28.041C105.231 27.991 105.216 27.9384 105.208 27.8846L105.191 8.97425Z" fill="white"/>
<path d="M90.6048 13.6822C90.6063 13.541 90.639 13.4018 90.7006 13.2745C90.7556 13.156 90.8364 13.0511 90.9371 12.9673C91.1382 12.8314 91.3753 12.7576 91.6186 12.7551H93.5334C93.6653 12.7473 93.7966 12.7784 93.9107 12.8444C94.0051 12.9009 94.0858 12.9771 94.1473 13.0678C94.2126 13.1661 94.2674 13.2709 94.3106 13.3806C94.3576 13.502 94.4141 13.6197 94.4795 13.7324L94.5865 13.9782C94.6316 14.1122 94.6879 14.2518 94.7499 14.4082C94.8118 14.5646 94.8625 14.7098 94.9188 14.8494C94.9751 14.989 95.0089 15.0728 95.0258 15.1175C95.2793 14.8382 95.5214 14.559 95.758 14.2462C95.983 13.946 96.2295 13.6623 96.4957 13.3973C96.7541 13.1504 97.0483 12.9433 97.3687 12.783C97.7183 12.6106 98.1047 12.5244 98.495 12.5317C98.9046 12.5278 99.3137 12.5615 99.7171 12.6322C100.067 12.6945 100.408 12.7937 100.736 12.9282C101.071 13.0639 101.391 13.2303 101.694 13.4253C102.009 13.6263 102.353 13.8609 102.725 14.1289C103.288 14.4361 103.417 14.8997 103.057 15.5084L101.936 17.4296C101.798 17.6583 101.576 17.8246 101.317 17.8931C101.045 17.9506 100.762 17.911 100.517 17.7814C100.19 17.4561 99.8092 17.1896 99.3905 16.994C98.9859 16.8184 98.548 16.7308 98.1064 16.7371C97.8112 16.7307 97.5172 16.778 97.2391 16.8767C96.9909 16.9671 96.7604 17.0993 96.5577 17.2676C96.3491 17.4485 96.1603 17.6507 95.9945 17.8708C95.8199 18.1054 95.6397 18.3623 95.4651 18.6471V27.7448C95.4846 28.0065 95.3997 28.2652 95.2286 28.4653C95.1229 28.5568 94.9994 28.6258 94.8657 28.6681C94.732 28.7104 94.591 28.725 94.4514 28.711H91.6017C91.4683 28.7314 91.332 28.7205 91.2035 28.6795C91.0751 28.6384 90.9581 28.5681 90.8619 28.4743C90.7656 28.3805 90.6928 28.2657 90.6491 28.1391C90.6055 28.0124 90.5923 27.8774 90.6105 27.7448L90.6048 13.6822Z" fill="white"/>
<path d="M71.4454 20.7471C71.4407 19.2714 71.8293 17.8206 72.5717 16.5417C72.9322 15.9324 73.3673 15.3696 73.867 14.8662C74.3714 14.3701 74.9395 13.9419 75.5566 13.5929C76.8451 12.8588 78.3057 12.4736 79.7917 12.4759C80.9017 12.4684 82.0016 12.685 83.0244 13.1126C84.0112 13.5136 84.9073 14.106 85.6601 14.855C86.4145 15.6058 87.0167 16.4931 87.4341 17.4688C88.1602 19.2019 88.285 21.1252 87.7889 22.9363C87.2254 25.0123 85.8568 26.783 83.9818 27.8622C82.7093 28.5955 81.2634 28.981 79.7917 28.9792C79.031 28.9842 78.2731 28.8865 77.539 28.6887C76.8404 28.5046 76.1699 28.2285 75.5453 27.8678C74.312 27.1585 73.287 26.142 72.5717 24.919C72.2097 24.2981 71.9296 23.6336 71.7382 22.9419C71.5422 22.2266 71.4437 21.4884 71.4454 20.7471ZM76.0691 20.7471C76.0667 21.2754 76.1542 21.8003 76.3281 22.2997C76.4911 22.7596 76.7415 23.1843 77.0659 23.5507C77.3776 23.9041 77.7616 24.1878 78.1923 24.3828C78.6722 24.5948 79.1932 24.6997 79.7185 24.69C80.2309 24.6979 80.7387 24.593 81.2053 24.3828C81.6378 24.1908 82.0224 23.9067 82.3317 23.5507C82.6619 23.18 82.9128 22.7469 83.0694 22.2773C83.3997 21.2739 83.3997 20.1923 83.0694 19.1889C82.916 18.7222 82.6752 18.2883 82.3598 17.91C82.0538 17.5407 81.6691 17.2432 81.2335 17.0387C80.7699 16.8177 80.2609 16.7068 79.7467 16.7148C79.2196 16.705 78.6973 16.8159 78.2204 17.0387C77.7867 17.2462 77.4026 17.5433 77.0941 17.91C76.7717 18.2882 76.5216 18.7216 76.3563 19.1889C76.1722 19.6884 76.0751 20.2153 76.0691 20.7471Z" fill="white"/>
<path d="M52.1112 28.4485C52.0267 28.3089 51.9422 28.1581 51.869 28.0073C51.7921 27.8608 51.7244 27.7097 51.6663 27.555C50.5737 24.7067 49.4962 21.8845 48.4336 19.0883C47.3711 16.2922 46.2766 13.4681 45.1503 10.6161C45.1562 10.5791 45.1562 10.5414 45.1503 10.5044C45.1449 10.4711 45.1449 10.4371 45.1503 10.4038C45.1503 10.1693 45.3023 10.052 45.6177 10.052H49.6951C49.8399 10.0552 49.9797 10.1056 50.0927 10.1955C50.2057 10.2853 50.2857 10.4096 50.3203 10.5491L54.2006 21.9924L57.7881 10.5491C57.8322 10.4034 57.9246 10.2767 58.0503 10.1895C58.176 10.1024 58.3277 10.0598 58.4808 10.0688H62.6033C62.7484 10.0577 62.8931 10.0951 63.0144 10.1749C63.0537 10.2111 63.0846 10.2553 63.105 10.3044C63.1254 10.3536 63.1348 10.4066 63.1327 10.4597C63.1372 10.5061 63.1372 10.5529 63.1327 10.5993V10.6328L60.8799 17.0442L62.5695 21.9813L66.6694 10.5491C66.7138 10.4024 66.807 10.275 66.9339 10.1877C67.0607 10.1005 67.2137 10.0585 67.3678 10.0688H71.3551C71.5004 10.0559 71.6457 10.0934 71.7662 10.1749C71.8071 10.2101 71.8395 10.2539 71.861 10.3033C71.8824 10.3526 71.8924 10.406 71.8901 10.4597C71.8947 10.5061 71.8947 10.5529 71.8901 10.5993V10.6328C71.327 12.1072 70.7244 13.5816 70.1274 15.0449L68.3196 19.4457C67.717 20.909 67.1144 22.3778 66.523 23.8466C65.9317 25.3154 65.3291 26.7451 64.7659 28.2363C64.7143 28.3538 64.6374 28.4586 64.5406 28.5435C64.4242 28.6541 64.2682 28.7144 64.107 28.711H61.0038C60.8552 28.722 60.7069 28.6848 60.5815 28.6049C60.4821 28.538 60.4086 28.4395 60.3731 28.3257L58.3681 23.0982C58.0809 23.8578 57.805 24.6061 57.5177 25.3322C57.2305 26.0582 56.9546 26.8122 56.6842 27.5661C56.6392 27.6834 56.5941 27.8063 56.5378 27.9347C56.4857 28.0625 56.4196 28.1843 56.3407 28.2977C56.2725 28.4075 56.1847 28.504 56.0816 28.5826C55.9861 28.6587 55.8662 28.6983 55.7437 28.6943H52.6406C52.5377 28.7109 52.4321 28.6963 52.3376 28.6525C52.2432 28.6086 52.1642 28.5376 52.1112 28.4485Z" fill="white"/>
</svg>
