<svg width="154" height="62" viewBox="0 0 154 62" fill="none" xmlns="http://www.w3.org/2000/svg">
<path fill-rule="evenodd" clip-rule="evenodd" d="M109.013 38.9373H116.739V42.0758H109.013C106.467 42.0758 100.643 42.0758 100.643 33.8218C100.643 25.5678 106.526 25.5678 109.013 25.5678C111.764 25.5678 117.5 25.5678 117.5 33.8533V34.9201H104.067C104.272 37.8701 105.092 38.9373 109.013 38.9373ZM113.93 31.782C113.725 29.8046 112.817 28.7378 108.984 28.7378C105.414 28.7378 104.536 29.7104 104.243 31.782H113.93ZM89.8449 38.9373H97.5706V42.0758H89.8449C87.2986 42.0758 81.475 42.0758 81.475 33.8218C81.475 25.5678 87.3575 25.5678 89.8449 25.5678C92.5957 25.5678 98.3314 25.5678 98.3314 33.8533V34.9201H84.8991C85.104 37.8701 85.9234 38.9373 89.8449 38.9373ZM94.7612 31.782C94.5857 29.8046 93.6494 28.7378 89.8449 28.7378C86.2747 28.7378 85.3965 29.7104 85.104 31.782H94.7612ZM70.5302 42.0758C68.7742 42.0758 66.7551 42.0131 65.1161 41.2282V50H61.6923V33.8218C61.6923 26.1954 65.8478 25.5678 70.5008 25.5678C75.154 25.5678 79.3389 26.1954 79.3389 33.8218C79.3389 41.4481 75.1831 42.0758 70.5302 42.0758ZM70.5008 28.7378C65.321 28.7378 65.087 29.8673 65.087 33.8533C65.087 37.9017 65.2919 38.9688 70.5008 38.9688C75.71 38.9688 75.9149 37.839 75.9149 33.8533C75.9149 29.8673 75.6809 28.7378 70.5008 28.7378ZM50.8936 38.9373H58.6196V42.0758H50.8936C48.3477 42.0758 42.5241 42.0758 42.5241 33.8218C42.5241 25.5678 48.4062 25.5678 50.8936 25.5678C53.6444 25.5678 59.4095 25.5678 59.3804 33.8533V34.9201H45.9478C46.1527 37.8701 46.9721 38.9373 50.8936 38.9373ZM55.8393 31.782C55.6344 29.8046 54.6981 28.7378 50.8936 28.7378C47.3234 28.7378 46.4453 29.7104 46.1527 31.782H55.8393ZM31.7253 38.9373H39.4513V42.0758H31.7253C29.1794 42.0758 23.3555 42.0758 23.3555 33.8218C23.3555 25.5678 29.2379 25.5678 31.7253 25.5678C34.4761 25.5678 40.2412 25.5678 40.2121 33.8533V34.9201H26.7795C26.9845 37.8701 27.8038 38.9373 31.7253 38.9373ZM36.6126 31.782C36.4367 29.8046 35.5004 28.7378 31.6959 28.7378C28.1257 28.7378 27.2479 29.7104 26.9551 31.782H36.6126ZM12.1766 41.7304L12.1472 41.6365L0.5 17H4.27509L4.3045 17.1257L13.6983 37.4309L23.1509 17H26.8965L15.2199 41.7304H12.1766Z" fill="#121315"/>
<path d="M148.382 39.3453C148.208 39.5021 148.12 39.5021 148.237 39.3453C152.138 34.7559 156.359 24.6039 150.886 14.5774C150.886 14.5774 148.702 16.1804 146.927 19.5435C145.18 16.6206 142.618 14.2003 139.446 12C139.446 12 131.382 21.6494 134.962 35.6991C124.715 37.2393 128.442 45.7884 130.043 46.9827C130.101 47.0455 130.188 47.0143 130.072 46.8256C129.519 45.8515 127.889 42.5509 131.207 39.3453C132.983 37.6479 136.709 37.1765 136.709 37.1765C135.865 30.45 135.923 24.3839 140.173 17.6578C140.697 18.0348 146.927 21.0205 147.16 30.953C147.683 37.1765 144.685 42.1738 141.774 44.1226C136.622 47.1087 130.829 48.5857 125.764 49.8432C125.327 49.9372 125.502 50 125.793 50C137.757 49.4658 148.382 43.6512 152.487 38.0878C153.273 37.019 153.651 35.8563 153.069 35.1961C152.603 34.536 151.642 35.5732 151.439 35.8563C150.518 37.1147 149.495 38.2822 148.382 39.3453Z" fill="#EC008C"/>
</svg>
