<svg width="149" height="35" viewBox="0 0 149 35" fill="none" xmlns="http://www.w3.org/2000/svg">
<path fill-rule="evenodd" clip-rule="evenodd" d="M142.329 22.9613H134.153C134.223 18.9083 135.236 16.4615 136.179 15.6161C137.168 14.7306 138.372 13.9752 139.729 13.9873C142.202 14.009 144.164 16.7921 144.229 19.5301C144.26 20.7745 144.483 22.9613 142.329 22.9613ZM134.258 24.7161H145.185C147.946 24.7161 148.888 22.563 148.883 21.1191C148.873 18.7693 147.93 16.7791 146.545 15.1668C144.797 13.1254 142.327 12.1575 139.612 12.1794C136.528 12.2042 134.222 13.469 132.33 15.5731C130.438 17.6776 129.31 20.1327 129.329 23.4049C129.349 26.727 130.104 29.5566 132.296 31.7419C134.505 33.9504 136.704 34.791 140.161 34.791C142.391 34.791 144.468 33.5027 145.287 32.9322C146.659 31.9726 148.262 29.4786 148.435 28.1464C148.189 27.8461 148.091 27.4541 147.7 27.4595C147.254 27.4668 146.842 27.8368 146.631 28.225C145.163 30.9156 143.278 32.4101 140.645 32.4101C135.966 32.4129 134.258 28.6886 134.258 24.7161ZM112.483 12.6592L118.916 34.2345H122.775C124.637 26.5686 127.395 19.196 131.237 12.1794H128.713C125.846 17.5255 123.712 23.2709 122.032 29.2674L116.836 12.6592H112.483ZM106.05 12.6592H110.355V34.2345H106.05V12.6592ZM108.253 5.40278C109.574 5.40278 110.654 6.46424 110.654 7.7656C110.654 9.06665 109.574 10.1275 108.253 10.1275C106.93 10.1275 105.853 9.06665 105.853 7.7656C105.853 6.46424 106.93 5.40278 108.253 5.40278ZM96.7123 4.14565C98.7702 3.17933 101.099 1.98901 102.91 1.87733V34.2351H98.6047V7.48719C98.6047 5.84315 98.0352 4.49342 96.8125 4.46797C96.6554 4.46351 96.5352 4.22806 96.7123 4.14565ZM76.1616 23.6693C76.1998 26.9717 77.1471 29.6237 79.0776 31.6712C81.0463 33.7626 83.3705 34.8168 86.1304 34.791C89.0063 34.7691 91.6227 33.7407 93.5914 31.5996C95.6422 29.3679 96.4415 26.5514 96.4143 23.2509C96.4014 21.6673 96.3345 20.1683 95.7585 18.7381C95.2042 17.3473 94.3926 16.0698 93.3645 14.9708C92.4792 14.036 91.3952 13.3051 90.1896 12.8304C89.1162 12.4002 87.4523 12.1794 86.1116 12.1794C83.1556 12.1794 81.0259 12.9723 79.0152 15.1127C77.0075 17.2525 76.1616 20.2746 76.1616 23.6693ZM91.7724 24.2105C91.7381 26.6812 91.2439 28.6803 90.2504 30.2582C89.2238 31.8889 87.7742 32.7031 86.1472 32.6786C84.4129 32.6519 82.8941 31.6407 81.866 29.5391C80.9135 27.5915 80.9432 25.2627 80.9432 22.6336C80.9432 20.1082 81.2448 18.1336 82.2179 16.5321C83.2263 14.8719 84.728 14.0605 86.3563 14.0605C88.1595 14.0605 89.516 15.1016 90.5322 17.2153C91.4634 19.1501 91.7724 21.4754 91.7724 24.2105ZM46.8623 14.5877C48.7101 14.9276 48.7605 16.6301 48.7605 18.5383V34.2351H52.9706V16.7838C54.289 15.9432 55.8168 14.7876 57.3101 14.7904C58.9235 14.793 59.2044 17.5083 59.2044 18.8854V34.2351H63.4679V16.794C64.9992 15.8169 65.5416 14.848 67.7711 14.8945C69.3584 14.9285 69.5956 16.7253 69.5956 17.956V34.2351H73.9638V18.3471C73.9638 15.5878 73.3099 12.1804 69.2886 12.1804C66.9847 12.1804 65.9873 12.6602 63.2668 14.8862C62.7755 13.532 60.655 12.1804 59.1776 12.1804C56.3136 12.1804 54.8491 13.5686 53.0747 14.6692L53.0757 12.1804C51.7916 12.1804 48.7075 12.6592 46.8623 14.5877ZM38.9785 4.14565C41.0367 3.17933 43.3668 1.98901 45.1771 1.87733V34.2351H40.8722V7.48719C40.8722 5.84315 40.3027 4.49342 39.08 4.46797C38.9229 4.46351 38.8027 4.22806 38.9785 4.14565ZM33.4807 34.2351H37.7691V13.175C36.8573 12.5017 33.6788 12.4028 32.9587 12.4028C24.8752 12.4028 18.5322 17.3871 18.5322 26.1966C18.5322 32.7161 23.4871 34.7929 26.7444 34.7929C29.9387 34.7929 31.7082 33.4925 32.4713 32.4355C32.7002 32.1208 32.5382 31.5841 32.1223 31.642C31.5893 31.7171 30.8617 33.0693 28.2163 33.1409C26.8821 33.1766 25.7806 32.649 25.1516 32.2271C23.7724 31.3041 22.6952 28.3707 22.6616 26.0082C22.5966 21.4971 25.1012 14.5944 30.5043 14.1401C31.1956 14.0821 32.6423 13.8836 33.2732 14.1941C33.8249 14.4659 33.4817 14.5852 33.4817 14.9661L33.4807 34.2351ZM4.62062 34.301V2.74628C5.81973 2.27378 6.87695 1.95242 7.96649 1.9486C12.6902 1.93238 16.1757 5.64015 16.1059 11.3948C16.0241 18.1253 12.6139 20.6163 10.0134 20.7939C7.01076 20.9978 6.50849 19.9571 5.44222 19.9908C4.99069 20.0054 4.44834 20.3898 5.23827 21.0834C6.74282 22.4039 9.72669 22.4414 11.5115 22.3682C15.7345 22.1958 20.6127 17.9735 20.691 11.1447C20.7562 5.47438 16.4139 0.272103 9.09223 0.24983C6.56246 0.24283 2.18943 0.729967 0 1.29856V34.2555L4.62062 34.301Z" fill="#AEB2BC"/>
</svg>
