<svg width="26" height="26" viewBox="0 0 26 26" fill="none" xmlns="http://www.w3.org/2000/svg">
<path d="M3.7103 1.32031C1.95044 1.32031 0.799805 2.47593 0.799805 3.99482C0.799805 5.48018 1.91616 6.66875 3.64277 6.66875H3.67617C5.47046 6.66875 6.58711 5.48018 6.58711 3.99482C6.55356 2.47593 5.47046 1.32031 3.7103 1.32031Z" fill="#1B2A41"/>
<path d="M1.10391 8.78208H6.24873V24.2605H1.10391V8.78208Z" fill="#1B2A41"/>
<path d="M18.8769 8.4188C16.1014 8.4188 14.2403 11.0268 14.2403 11.0268V8.78208H9.09536V24.2605H14.24V15.6167C14.24 15.154 14.2736 14.692 14.4095 14.3611C14.7814 13.4371 15.6278 12.4798 17.0492 12.4798C18.9108 12.4798 19.6554 13.8992 19.6554 15.98V24.2605H24.7998V15.3854C24.7998 10.6312 22.2615 8.4188 18.8769 8.4188Z" fill="#1B2A41"/>
</svg>
