<svg width="26" height="26" viewBox="0 0 26 26" fill="none" xmlns="http://www.w3.org/2000/svg">
<path d="M23.475 0.799805H2.12344C1.39233 0.800244 0.799658 1.39321 0.799805 2.12461V23.4762C0.800244 24.2073 1.39321 24.8 2.12461 24.7998H13.6201V15.5186H10.5029V11.8857H13.6201V9.21226C13.6201 6.11191 15.5128 4.42441 18.2785 4.42441C19.6031 4.42441 20.7415 4.52314 21.0732 4.56724V7.80762H19.1662C17.6615 7.80762 17.3701 8.52261 17.3701 9.57202V11.8857H20.9678L20.499 15.5186H17.3701V24.7998H23.475C24.2065 24.8 24.7997 24.2071 24.7998 23.4756C24.7998 23.4754 24.7998 23.4753 24.7998 23.475V2.12344C24.7995 1.39233 24.2064 0.799658 23.475 0.799805Z" fill="#1B2A41"/>
</svg>
