<svg width="26" height="26" viewBox="0 0 26 26" fill="none" xmlns="http://www.w3.org/2000/svg">
<path d="M8.35224 22.4565C17.4093 22.4565 22.3622 14.9531 22.3622 8.44659C22.3622 8.23348 22.3578 8.02125 22.3482 7.81019C23.3096 7.11509 24.1452 6.24768 24.8044 5.26035C23.9222 5.65267 22.9726 5.91642 21.9768 6.03574C22.9933 5.42591 23.7738 4.46163 24.1419 3.31213C23.1906 3.87617 22.1369 4.28595 21.0153 4.50728C20.1168 3.55019 18.8374 2.95166 17.4209 2.95166C14.7018 2.95166 12.4966 5.15673 12.4966 7.87492C12.4966 8.26151 12.5399 8.63724 12.6243 8.99771C8.53189 8.79179 4.90285 6.83256 2.47454 3.85312C2.05184 4.58066 1.80791 5.42606 1.80791 6.32811C1.80791 8.03622 2.67723 9.54457 3.99904 10.4267C3.19122 10.4019 2.43242 10.1801 1.76902 9.81096C1.76828 9.83166 1.76828 9.85176 1.76828 9.87378C1.76828 12.2585 3.46553 14.2496 5.71889 14.7008C5.305 14.8133 4.86954 14.8739 4.42042 14.8739C4.10369 14.8739 3.79488 14.8428 3.49489 14.7851C4.12174 16.7416 5.93964 18.1653 8.09481 18.2052C6.40945 19.5261 4.28642 20.313 1.97904 20.313C1.58218 20.313 1.18986 20.2902 0.804443 20.2447C2.98369 21.6415 5.57139 22.4567 8.35239 22.4567" fill="#1B2A41"/>
</svg>
