<svg width="606" height="72" viewBox="0 0 606 72" fill="none" xmlns="http://www.w3.org/2000/svg">
<g clip-path="url(#clip0_420_13921)">
<path d="M328.791 71.1219C328.791 71.1219 331.12 71.1219 332.451 71.1219C333.783 70.9024 336.778 71.7804 336.778 70.6829C336.778 70.0243 334.115 70.2439 332.784 70.2439C330.787 70.2439 328.458 70.4634 328.791 71.1219Z" fill="#010E52"/>
<path d="M606 28.317C604.003 28.317 602.006 28.317 600.01 28.5365C602.006 28.756 604.003 28.9756 606 28.317Z" fill="#010E52"/>
<path d="M583.038 40.6098C583.038 40.6098 585.701 40.6098 587.697 40.1708C586.366 40.1708 585.701 40.1708 585.035 40.1708C584.037 40.1708 581.707 40.1708 583.038 40.6098Z" fill="#010E52"/>
<path d="M586.033 48.9512C589.028 48.7317 591.025 48.5122 594.02 48.2927C590.692 48.2927 588.363 47.8536 586.033 48.9512Z" fill="#010E52"/>
<path d="M339.439 70.6829C339.439 70.6829 339.772 70.9024 340.771 71.1219C341.436 71.1219 342.435 71.1219 342.767 70.9024C343.1 70.9024 342.767 70.4634 341.436 70.4634C340.438 70.4634 339.772 70.4634 339.439 70.6829Z" fill="#010E52"/>
<path d="M349.424 70.4634C349.424 70.4634 349.757 70.6829 350.422 70.6829C351.421 70.6829 352.419 70.6829 352.752 70.2439C352.752 70.2439 351.753 70.0244 351.421 70.2439C350.755 70.2439 349.757 70.2439 349.424 70.6829V70.4634Z" fill="#010E52"/>
<path d="M597.348 49.6098C595.018 49.6098 592.689 49.6098 590.359 49.6098C586.033 49.3903 581.707 49.6098 577.381 50.0488C575.051 50.0488 573.055 50.0488 570.725 50.2683C570.392 50.0488 569.727 49.8293 569.394 49.6098C574.053 49.6098 578.046 49.3903 582.373 48.9513C577.381 48.9513 572.722 48.9513 568.063 49.3903C566.732 49.3903 565.401 49.1708 564.402 48.9513L565.733 48.2927C568.396 47.6342 571.724 47.4147 574.719 47.1952C576.383 47.1952 578.046 47.1952 579.378 46.7562C577.714 46.5366 576.383 46.7562 575.051 46.7562C575.051 46.7562 572.722 46.3171 575.051 46.0976C578.712 45.8781 576.383 45.6586 575.051 45.4391C572.389 45.0001 569.727 44.7805 567.065 44.3415C565.733 44.3415 564.07 44.3415 563.404 44.122C568.728 43.683 572.056 42.8049 571.391 41.2683C575.051 41.2683 574.053 39.2927 579.045 39.7318C577.714 39.7318 576.383 39.5122 575.051 39.2927C576.383 39.2927 577.714 39.0732 578.712 38.8537C580.709 38.8537 583.038 38.8537 584.702 38.1952C581.374 38.1952 578.046 37.5366 574.719 38.1952C573.72 38.1952 572.056 38.1952 571.391 37.7562C574.719 37.5366 577.714 37.3171 580.709 36.6586C581.374 36.6586 582.04 36.6586 582.705 36.6586C585.7 36.2196 590.692 36.6586 591.691 35.3415V34.9025C591.691 34.9025 593.022 34.4635 593.687 34.244C594.02 34.244 594.353 34.0244 594.686 33.8049C598.679 33.5854 597.015 32.9269 596.017 32.2683C593.354 30.9513 588.03 31.3903 584.037 31.1708C583.704 31.1708 584.037 31.1708 584.037 31.3903C584.037 31.3903 584.037 31.3903 584.037 31.1708C583.704 30.9513 583.038 30.7318 582.373 30.5122C582.373 30.2927 582.373 29.8537 581.374 29.6342C583.038 28.9757 582.373 28.7562 579.71 28.7562C579.71 28.7562 579.71 28.3171 579.71 28.0976C579.71 28.0976 582.705 28.0976 580.709 27.6586C579.045 27.4391 576.715 27.6586 575.051 27.8781H575.717C575.717 27.8781 575.384 27.8781 575.051 27.8781C574.386 27.8781 573.387 27.8781 572.722 27.8781C571.723 27.8781 571.058 27.8781 570.06 27.8781C571.058 27.6586 571.723 27.4391 572.722 27.2196C575.384 27.2196 577.714 26.7805 580.043 26.561C581.041 26.561 582.373 26.561 582.373 26.122C582.373 25.4635 583.038 25.4635 584.369 25.0244C586.033 24.5854 589.028 24.8049 590.359 24.1464C590.359 23.2683 585.368 24.1464 586.033 23.2683C587.697 23.0488 588.696 22.6098 588.696 22.1708C590.027 22.1708 590.027 21.7318 589.028 21.5122C589.028 20.8537 589.361 20.1952 589.694 19.5366C589.694 18.8781 589.694 18.0001 586.033 18.0001C586.033 18.0001 585.368 18.0001 585.035 18.0001C580.043 16.683 575.051 17.561 570.06 18.0001C568.063 17.3415 568.063 17.3415 570.725 16.9025C573.055 16.683 576.05 16.9025 576.715 15.8049C580.043 15.3659 584.369 15.5854 587.364 14.7074C590.027 14.4879 593.022 14.0488 596.682 13.8293C593.687 13.1708 591.025 12.5122 587.697 12.0732C587.697 11.6342 587.032 11.1952 584.702 11.4147C581.374 11.1952 580.043 10.7562 581.041 9.65859C582.373 8.122 577.048 6.58542 571.391 6.14639C569.061 6.14639 566.732 6.14639 564.735 6.58542C561.074 6.58542 557.747 6.58542 554.086 7.02444C553.42 7.02444 552.422 7.02444 551.756 7.02444C551.756 5.92688 547.43 6.58542 545.434 5.92688C554.086 5.04883 563.737 5.26835 573.387 3.73176C567.73 3.73176 564.07 3.73176 560.742 3.73176C555.417 3.73176 550.093 4.3903 545.101 3.51225H537.114C537.114 3.51225 536.448 3.51225 536.116 3.51225C531.789 3.07322 527.13 2.85371 522.471 2.85371C517.48 2.19518 511.822 2.19518 506.498 2.19518C495.183 1.31713 483.868 1.31713 472.221 1.31713C468.893 1.31713 465.565 1.31713 462.238 1.31713H458.91C456.913 0.878102 454.916 1.09761 452.587 1.09761C439.941 1.09761 427.295 1.09761 414.649 1.09761C402.336 1.09761 390.356 1.09761 378.043 1.09761C372.386 1.09761 366.728 0.65859 361.404 1.31713C361.071 1.31713 360.738 1.31713 360.073 1.53664C354.748 0.439078 349.424 0.65859 343.766 1.09761C343.766 1.09761 343.766 1.09761 344.099 1.09761C344.099 1.09761 344.765 1.09761 345.43 1.31713C345.43 1.31713 344.765 1.09761 344.099 1.09761C344.099 1.09761 342.435 1.09761 341.437 1.09761C337.443 0.65859 333.45 1.09761 329.457 1.09761C327.46 1.09761 325.13 1.09761 323.134 1.09761C320.804 1.09761 318.808 1.09761 316.478 1.09761C297.177 1.09761 277.875 1.09761 258.574 1.09761C251.252 1.09761 243.931 1.09761 236.61 1.31713C225.628 1.31713 214.646 1.31713 203.997 1.75615C200.004 1.75615 195.677 1.75615 191.684 1.97566C195.677 1.97566 199.671 1.97566 203.664 1.97566C199.671 1.75615 195.677 1.75615 191.351 1.97566C188.689 1.97566 186.359 1.97566 183.697 1.97566C180.369 1.97566 177.041 1.97566 173.714 2.19518C171.384 2.19518 168.722 2.19518 166.392 2.19518C162.399 2.19518 158.073 2.19518 154.079 2.41469C152.083 2.41469 149.753 2.41469 147.756 2.41469C143.097 2.41469 138.771 2.41469 134.112 2.6342C133.447 2.6342 132.448 2.6342 131.783 2.6342C128.122 2.6342 124.462 2.6342 120.801 2.85371C120.468 2.85371 120.135 2.85371 119.803 2.85371C115.809 2.85371 111.483 2.85371 107.49 3.07322C106.158 3.07322 105.16 3.07322 103.829 3.07322C103.496 3.07322 102.831 3.07322 102.498 3.07322C100.168 3.07322 97.8388 3.07322 95.8421 3.29274C91.8487 3.29274 87.8553 3.29274 83.8619 3.73176C77.8717 3.73176 72.2144 3.73176 66.5571 4.3903C66.5571 4.3903 64.2276 4.3903 62.8964 4.3903C60.567 4.3903 58.2375 4.82932 55.908 5.04883H56.2408C56.2408 5.04883 55.5752 5.04883 55.2424 5.04883C55.2424 5.04883 55.5752 5.04883 55.2424 4.60981C47.9212 5.04883 40.9327 5.26835 34.277 6.14639C33.9442 6.14639 33.6114 6.14639 33.2786 6.14639C32.2803 6.14639 31.2819 6.14639 30.6164 6.14639C24.959 6.58542 19.6345 7.02444 13.9772 7.24396C9.98375 7.24396 8.9854 8.122 8.9854 9.00005C8.9854 9.00005 7.98704 10.0976 7.98704 10.5366H8.65261C8.65261 10.5366 7.65426 12.5122 7.65426 13.3903C7.65426 13.3903 6.98869 15.1464 7.65426 16.0244C7.32148 16.683 7.65426 17.3415 8.65261 17.7805C7.98704 18.4391 7.65426 18.8781 8.65261 19.5366C6.32312 20.4147 9.98375 21.9513 5.99034 22.6098C5.99034 22.6098 5.99034 22.6098 6.32312 22.6098C4.6592 22.6098 2.99528 22.6098 2.6625 23.2683C1.33136 23.7074 1.66414 24.1464 1.66414 24.8049C1.66414 25.0244 1.66414 25.244 1.66414 25.4635C-0.332561 27.4391 1.66414 29.1952 1.66414 31.1708C1.99693 31.1708 2.6625 31.1708 2.99528 31.1708H2.32971C2.32971 31.1708 1.33136 31.1708 0.998576 31.1708C1.33136 32.0488 1.99693 32.9269 2.32971 33.5854C2.32971 33.5854 2.99528 34.683 3.66085 35.3415C3.66085 35.7805 4.32642 36.2196 5.99034 36.4391C5.99034 36.8781 5.99034 37.0976 5.99034 37.5366C3.99363 38.1952 2.32971 39.0732 7.65426 39.0732V38.8537C7.65426 38.8537 7.32148 38.8537 7.65426 39.0732C9.98375 39.5122 14.6427 38.4147 15.6411 39.7318C16.6394 39.7318 16.6394 39.7318 16.9722 39.5122C16.9722 39.5122 17.6378 39.5122 17.9706 39.5122C17.9706 39.5122 17.305 39.5122 16.9722 39.5122C16.6394 39.5122 15.9739 39.5122 15.6411 39.7318C14.6427 39.7318 13.9772 39.7318 12.9788 39.7318C9.65097 39.7318 6.32312 39.7318 3.32807 39.7318C1.66414 39.7318 0.665792 39.7318 0.333008 40.3903C0.333008 40.8293 1.99693 40.8293 2.6625 40.8293C6.65591 40.8293 10.9821 40.8293 14.9755 41.0488C14.9755 41.2683 14.9755 41.4879 14.9755 41.7074H5.65756C7.98705 43.0244 12.646 41.7074 14.3099 42.5854C14.3099 42.5854 14.3099 42.5854 14.6427 42.5854C14.6427 42.5854 14.6427 42.5854 14.3099 42.5854C14.3099 42.5854 14.3099 42.5854 14.3099 42.3659C12.3132 42.3659 9.98375 42.3659 7.98704 42.3659C6.32312 42.3659 3.99363 42.1464 2.99528 42.5854C2.6625 42.5854 3.99363 42.8049 4.99199 42.8049H4.6592C8.31983 42.5854 10.6493 43.683 13.9772 43.683C13.6444 46.5366 11.9805 49.1708 15.6411 52.0244C15.6411 52.0244 15.6411 52.244 15.6411 52.4635C15.6411 52.9025 15.6411 53.122 15.6411 53.561C15.6411 53.561 15.6411 54.0001 15.3083 54.2196C15.3083 54.2196 15.3083 54.6586 15.6411 54.8781C16.6394 54.6586 16.3067 54.4391 15.6411 54.2196C14.3099 54.8781 13.9772 55.7561 14.6427 56.4147C11.3149 57.9513 13.6444 59.9269 10.3165 61.4635C9.98375 61.9025 8.65261 62.122 10.3165 62.561C10.3165 63.0001 9.65097 63.2196 9.65097 63.6586C9.65097 63.6586 9.65097 64.5366 9.65097 64.9757C9.65097 65.4147 9.31818 65.8537 10.9821 66.0732C11.3149 66.0732 11.6477 66.0732 11.9805 66.0732C10.9821 66.0732 10.3165 66.5122 9.31818 66.7318C9.31818 66.7318 9.31818 68.0488 12.9788 67.8293C18.9689 67.8293 24.959 67.8293 30.6164 67.8293C35.6081 67.8293 40.5999 68.0488 45.2589 67.6098H45.5917H45.9244C49.9179 68.0488 54.2441 68.0488 58.5702 68.2683C65.8915 69.1464 73.5455 68.7074 81.1996 68.9269C90.1848 68.9269 98.8371 69.5854 107.822 69.3659C108.155 69.3659 108.821 69.3659 109.153 69.3659C112.814 70.0244 117.14 69.3659 121.134 69.8049C123.796 69.8049 126.458 69.8049 129.121 69.8049C128.788 69.8049 128.122 69.8049 127.789 69.5854C127.789 69.5854 128.455 69.8049 129.121 69.8049C130.452 69.8049 131.783 69.8049 133.114 69.8049C138.438 69.8049 143.763 69.8049 148.755 69.8049C153.414 70.4635 158.738 69.8049 163.397 69.8049C164.396 69.8049 164.728 69.8049 164.728 69.5854C167.058 69.5854 169.72 69.8049 171.384 69.1464C171.717 69.1464 172.382 69.1464 172.715 69.1464C176.709 70.0244 180.702 70.683 185.028 69.1464C185.361 69.1464 186.027 69.1464 186.359 68.9269C186.692 68.9269 187.025 68.9269 187.358 68.9269C188.356 68.9269 189.022 69.1464 190.02 69.3659C190.02 69.8049 191.018 70.0244 193.015 70.0244C197.674 70.0244 202 70.0244 206.326 69.8049C206.326 69.8049 206.326 69.5854 206.326 69.3659C206.326 69.3659 206.326 69.5854 206.326 69.8049C207.658 70.4635 209.987 69.8049 211.651 70.0244C214.979 70.0244 217.974 70.0244 221.302 70.0244C222.633 70.0244 224.297 70.244 225.295 69.8049C230.62 70.4635 235.611 69.8049 240.936 69.8049C243.265 69.8049 245.595 69.8049 247.592 69.3659C249.588 70.0244 251.252 70.683 254.58 69.8049C255.246 69.8049 254.913 69.3659 254.58 69.3659V69.8049C256.244 69.3659 258.241 70.4635 259.905 69.8049C260.237 69.8049 260.57 69.8049 260.903 69.8049C265.229 69.3659 269.888 70.9025 274.214 69.8049C275.213 69.8049 275.878 69.8049 276.877 69.8049C279.206 69.8049 281.203 70.244 283.532 69.8049C285.196 69.8049 287.193 69.8049 288.857 69.8049C290.521 69.5854 296.511 70.0244 291.519 68.7074C292.85 68.7074 294.181 68.7074 295.513 68.7074C299.839 68.9269 304.165 69.8049 308.824 69.3659C310.488 69.5854 312.485 69.3659 314.149 69.3659C314.814 69.3659 315.812 69.3659 316.478 69.3659C317.476 69.5854 318.475 69.8049 319.473 69.3659C321.137 69.1464 323.134 68.9269 320.804 68.2683C322.468 68.0488 324.465 67.8293 326.129 67.8293C329.789 67.8293 333.783 68.0488 337.111 67.3903C338.442 67.3903 339.44 67.3903 340.771 67.3903C341.77 67.3903 342.435 67.6098 343.434 67.8293C344.432 67.8293 345.763 68.2683 346.761 67.8293C347.76 67.3903 345.43 67.3903 345.097 66.9513C349.091 66.9513 353.084 66.9513 357.078 66.9513C356.079 66.9513 355.081 66.9513 354.083 67.1708C354.415 67.6098 355.747 67.8293 357.078 68.0488C355.747 69.1464 358.076 69.3659 361.071 69.1464C362.069 69.1464 362.735 68.9269 363.733 68.7074C365.065 68.7074 366.728 68.7074 367.727 68.2683C371.055 68.2683 374.715 68.9269 377.71 68.2683C376.379 67.6098 373.051 68.0488 371.387 67.3903C374.715 67.3903 376.712 66.5122 379.707 66.2927C380.705 66.2927 381.371 66.2927 382.369 66.2927C382.369 66.9513 383.368 67.3903 386.03 67.3903C388.692 67.3903 389.025 66.9513 389.025 66.2927C390.356 66.2927 391.687 66.2927 393.018 66.2927C393.018 66.2927 393.018 66.2927 393.018 66.0732C393.018 66.0732 393.018 66.0732 393.018 66.2927C393.351 66.2927 394.017 66.2927 394.35 66.2927C395.015 66.5122 392.353 67.1708 395.348 67.3903C398.343 67.3903 398.676 66.9513 398.676 66.2927C399.008 66.2927 399.341 66.2927 400.007 66.2927C400.34 66.7318 401.005 66.9513 401.338 67.3903C401.338 67.3903 401.338 67.3903 401.338 67.6098C399.674 67.8293 397.345 67.6098 396.013 68.2683C399.341 68.2683 402.004 67.8293 404.666 68.7074C405.664 68.9269 407.994 68.7074 409.658 68.7074C412.653 68.7074 415.981 69.1464 418.976 68.7074C420.307 68.7074 421.638 68.7074 422.636 68.4879C424.633 68.4879 424.3 67.8293 424.3 67.3903C425.298 67.3903 425.964 67.3903 426.962 67.3903C428.294 67.3903 429.625 67.3903 430.29 67.1708C430.29 67.1708 430.956 67.1708 431.289 67.1708C431.289 67.1708 430.623 67.1708 430.29 67.1708C432.953 67.8293 435.615 67.1708 438.277 67.1708C439.275 67.1708 440.274 67.1708 440.939 67.3903C442.936 68.0488 438.277 67.6098 439.275 68.2683C441.938 68.2683 445.598 68.2683 445.266 67.1708C448.593 67.1708 451.588 68.4879 455.582 67.6098C457.579 67.6098 459.242 68.2683 461.239 67.6098C462.57 67.6098 463.569 67.6098 464.9 67.6098C465.233 67.6098 465.898 67.6098 466.231 67.6098C469.559 67.6098 473.552 68.0488 475.549 66.9513C475.549 66.7318 475.549 66.5122 475.549 66.2927C475.549 66.2927 474.551 66.7318 475.549 66.9513C478.544 67.3903 481.539 67.8293 483.536 66.7318C483.536 66.7318 483.536 66.5122 483.536 66.2927C483.536 66.2927 483.536 66.5122 483.536 66.7318C485.865 66.9513 488.195 67.3903 490.524 66.7318C492.521 66.7318 494.85 66.7318 496.847 66.7318C498.844 66.7318 500.508 66.7318 502.172 66.2927C503.503 66.2927 504.834 66.2927 506.165 66.2927C508.495 65.8537 510.491 65.6342 512.821 65.1952C515.483 64.9757 518.145 66.0732 520.808 65.1952C520.475 64.9757 519.809 64.7562 519.476 64.5366C519.476 64.5366 519.476 64.3171 519.476 64.0976C520.808 63.8781 523.137 63.8781 523.803 63.2196C522.139 62.7805 520.808 63.2196 519.476 63.2196C519.144 63.2196 518.478 63.2196 518.145 63.2196C518.145 63.0001 518.145 62.7805 518.145 62.561C519.144 62.561 520.142 62.3415 520.808 62.122C523.803 61.683 527.463 62.561 530.126 61.683C532.455 61.0244 536.781 61.683 537.78 60.5854C540.442 60.8049 542.771 60.5854 545.766 60.1464H537.78C537.78 60.1464 539.443 59.7074 540.442 59.7074C541.773 59.7074 543.104 59.2683 545.766 59.0488C543.104 59.0488 541.44 59.0488 540.442 59.2683C540.109 59.2683 539.443 59.2683 539.111 59.2683C539.111 58.6098 542.439 58.1708 539.111 57.5122C540.775 57.5122 542.439 57.5122 544.102 57.5122C545.101 57.7318 544.102 58.6098 545.766 58.3903C548.096 58.1708 545.766 57.5122 545.766 57.2927C551.756 57.0732 557.414 56.6342 564.07 55.9757C558.745 55.5366 554.419 57.0732 549.76 55.9757C553.088 55.5366 557.081 55.5366 560.409 54.8781C563.404 54.6586 567.73 54.8781 568.728 53.7805C568.728 53.7805 570.392 53.7805 570.06 53.3415C571.724 53.3415 573.387 53.3415 575.051 53.3415C578.046 54.0001 580.709 53.3415 583.371 53.122C580.376 53.122 578.046 52.683 575.051 52.683C573.055 52.683 571.058 52.683 569.727 53.122C568.063 53.122 566.399 53.122 564.735 53.122L563.404 52.683C563.404 52.683 565.401 52.683 566.066 52.244C572.389 52.244 577.714 51.3659 583.371 50.7074C584.369 50.7074 585.035 50.7074 586.033 50.7074C587.697 50.4879 588.696 50.0488 589.028 49.3903C587.032 49.1708 586.033 49.3903 584.702 49.6098C584.037 49.6098 583.704 49.6098 583.038 49.6098C581.042 49.6098 579.378 49.6098 578.046 49.8293C575.717 49.8293 573.72 49.8293 571.391 49.8293C570.06 49.8293 569.061 49.3903 567.397 49.3903C567.73 49.1708 568.396 48.9513 568.728 48.7318C571.724 48.0732 576.05 48.7318 579.045 48.0732C582.373 48.0732 586.033 48.0732 589.361 48.0732C592.356 48.2927 594.686 47.6342 597.348 47.6342C598.679 47.4147 601.009 47.6342 602.007 47.1952C600.01 46.9757 598.346 46.9757 597.348 47.4147V49.6098ZM448.926 5.48786C448.926 5.48786 447.595 5.48786 446.929 5.48786C447.595 5.48786 448.261 5.48786 448.926 5.48786ZM560.076 32.2683C560.409 32.2683 561.074 32.2683 561.407 32.2683C561.407 32.2683 560.409 32.2683 560.076 32.2683ZM52.9129 53.122H52.2474C52.2474 53.122 52.5801 53.122 52.9129 53.122ZM539.443 19.9757C539.443 19.9757 539.111 19.9757 538.778 19.9757C538.778 19.9757 539.111 19.9757 539.443 19.9757ZM484.534 64.5366C484.534 64.5366 485.2 64.5366 485.532 64.5366C485.532 64.5366 484.867 64.5366 484.534 64.5366ZM36.6065 50.4879C36.6065 50.4879 36.9393 50.4879 37.2721 50.4879C36.9393 50.4879 36.6065 50.4879 36.2737 50.4879H36.6065ZM300.172 5.04883C300.172 5.04883 297.842 5.04883 296.511 5.04883C296.844 5.04883 297.509 5.04883 297.842 5.04883C298.508 5.04883 299.506 5.04883 300.172 5.04883ZM79.5357 62.122C79.5357 62.122 79.5357 62.122 79.8684 62.122H79.5357ZM414.982 56.8537C414.982 56.8537 415.981 56.8537 416.646 56.8537C415.981 56.8537 415.648 56.8537 414.982 56.8537ZM74.5439 46.3171C74.5439 46.3171 75.5422 46.3171 75.875 46.3171C75.875 46.3171 74.8767 46.3171 74.5439 46.3171ZM45.9244 33.5854C45.9244 33.5854 45.9244 33.5854 45.5917 33.5854C45.5917 33.5854 45.9244 33.5854 46.2572 33.5854H45.9244ZM185.694 61.244C185.694 61.244 185.694 61.244 185.361 61.244C185.361 61.244 185.694 61.244 186.027 61.244C186.027 61.244 186.027 61.244 186.027 61.4635L185.694 61.244ZM95.5093 13.8293C95.5093 13.8293 94.5109 13.8293 94.1782 13.8293C94.1782 13.8293 94.1782 13.8293 94.5109 13.8293C94.5109 13.8293 95.1765 13.8293 95.5093 13.8293ZM423.635 7.90249C423.635 7.90249 423.302 7.90249 422.969 7.90249C422.969 7.90249 423.302 7.90249 423.635 7.90249ZM384.033 13.1708C384.033 13.1708 383.368 13.1708 382.702 13.1708C382.702 13.1708 382.702 13.1708 383.035 13.1708H383.7H384.033ZM475.216 14.2683C474.551 14.2683 473.885 14.2683 472.887 14.2683C473.552 14.2683 474.551 14.2683 475.216 14.2683ZM239.605 11.8537C239.605 11.8537 239.605 11.8537 239.938 11.8537C239.938 11.8537 239.938 11.8537 239.605 11.8537ZM306.494 12.5122C306.494 12.5122 306.494 12.5122 306.162 12.5122H306.494ZM77.2062 23.0488C77.2062 23.0488 77.2062 23.0488 77.5389 23.0488H77.2062ZM453.252 29.1952C453.252 29.1952 452.92 29.1952 452.587 29.1952C452.587 29.1952 452.92 29.1952 453.252 29.1952ZM228.29 52.244H228.956C228.956 52.244 228.956 52.244 228.623 52.244H228.29ZM225.295 52.0244C225.295 52.0244 225.961 52.0244 226.294 52.0244C226.294 52.0244 225.628 52.0244 225.295 52.0244ZM271.219 23.7074C271.219 23.7074 272.218 23.7074 272.883 23.7074C272.883 23.7074 271.885 23.7074 271.219 23.7074ZM133.447 23.7074C133.447 23.7074 133.779 23.7074 134.112 23.7074C134.112 23.7074 133.779 23.7074 133.447 23.7074ZM260.903 27.8781C260.903 27.8781 260.903 27.8781 260.57 27.8781C260.57 27.8781 260.57 27.8781 260.903 27.8781ZM327.127 24.1464C327.127 24.1464 326.794 24.1464 326.462 24.1464C326.462 24.1464 326.462 24.1464 326.794 24.1464H327.127ZM340.438 35.122C340.438 35.122 340.438 35.122 340.771 35.122C340.771 35.122 340.771 35.122 340.438 35.122ZM305.163 41.9269C305.163 41.9269 305.496 41.9269 305.829 41.9269C305.829 41.9269 305.829 41.9269 305.496 41.9269H305.163ZM172.715 27.2196C172.715 27.2196 173.381 26.7805 173.714 26.7805C173.714 26.7805 173.714 27.0001 173.048 27.2196H172.715ZM204.995 28.5366C204.995 28.5366 205.328 28.5366 205.661 28.5366C205.328 28.5366 204.995 28.5366 204.33 28.5366C204.33 28.5366 204.663 28.5366 204.995 28.5366ZM300.504 37.3171C300.504 37.3171 300.837 37.3171 301.17 37.3171C301.17 37.3171 301.17 37.3171 301.503 37.3171C301.503 37.3171 300.837 37.3171 300.504 37.3171ZM231.951 45.4391C231.951 45.4391 231.951 45.4391 231.618 45.4391H231.951ZM327.46 21.7318C327.46 21.7318 327.46 21.7318 327.793 21.7318C327.793 21.7318 327.793 21.7318 327.46 21.7318ZM298.175 47.8537C298.175 47.8537 296.844 47.8537 296.178 47.8537C296.844 47.8537 297.509 47.8537 298.175 47.8537ZM356.079 22.6098C356.079 22.6098 356.079 22.6098 355.414 22.6098C355.414 22.6098 355.414 22.6098 355.747 22.6098H356.079ZM218.307 52.0244C218.307 52.0244 218.307 52.0244 217.974 52.0244H218.307ZM386.363 26.7805V26.122C386.363 26.122 386.363 26.561 386.363 26.7805ZM464.567 21.5122C464.567 21.5122 464.567 21.5122 464.567 21.7318C464.567 21.7318 464.567 21.7318 464.567 21.5122ZM83.8619 25.4635C83.8619 25.4635 83.8619 25.4635 83.5291 25.4635C83.5291 25.4635 83.5291 25.4635 83.8619 25.4635ZM278.873 50.0488H278.541C278.541 50.0488 278.873 50.0488 279.206 50.0488H278.873ZM432.287 25.0244C432.287 25.0244 432.287 25.0244 432.62 25.0244C432.62 25.0244 432.287 25.0244 431.954 25.0244H432.287ZM463.236 21.2927C463.236 21.2927 463.569 21.2927 463.901 21.2927C463.901 21.2927 463.901 21.2927 463.569 21.2927H463.236ZM114.478 20.8537C114.478 20.8537 114.478 20.8537 114.145 20.8537C114.145 20.8537 114.478 20.8537 114.811 20.8537H114.478ZM252.583 51.8049C252.583 51.8049 252.916 51.8049 253.249 51.8049H252.916H252.583ZM360.406 47.6342C360.406 47.6342 360.406 47.6342 361.071 47.6342C361.071 47.6342 360.738 47.6342 360.406 47.6342ZM359.74 46.9757C365.397 47.1952 371.055 46.9757 376.712 46.9757C371.055 46.5366 365.397 46.5366 359.74 46.9757ZM464.567 29.6342C464.567 29.6342 464.567 29.6342 464.9 29.6342C464.9 29.6342 464.567 29.6342 464.234 29.6342H464.567ZM252.251 22.3903C252.251 22.3903 252.583 22.3903 252.916 22.3903H252.251ZM235.944 36.4391C235.944 36.4391 235.279 36.4391 234.946 36.4391C234.946 36.4391 235.611 36.4391 235.944 36.4391ZM446.264 26.7805C446.264 26.7805 447.262 26.7805 447.595 26.7805C447.262 26.7805 446.597 26.7805 446.264 26.7805ZM78.2045 29.1952C78.2045 29.1952 78.2045 29.1952 78.5373 29.1952H78.2045ZM78.2045 29.8537C78.2045 29.8537 78.5373 29.8537 78.2045 29.6342V30.0732V29.8537ZM293.183 53.7805C293.183 53.7805 293.516 53.7805 293.849 53.7805C293.849 53.7805 293.516 53.7805 293.183 53.7805ZM462.903 26.3415C462.903 26.3415 463.901 26.3415 464.234 26.3415C463.901 26.3415 463.569 26.3415 463.236 26.3415H462.903ZM481.872 23.0488C481.872 23.0488 481.872 23.0488 481.872 22.8293C481.872 22.8293 481.872 22.8293 481.872 23.0488ZM314.149 12.2927C314.149 12.2927 314.149 12.2927 313.816 12.2927H314.149ZM251.252 19.7562C251.252 19.7562 250.92 19.7562 250.587 19.7562C250.587 19.7562 250.587 19.7562 250.92 19.7562H251.252ZM138.438 46.0976C139.104 46.0976 139.437 46.0976 140.102 46.0976C139.437 46.0976 138.771 46.0976 138.106 46.0976H138.438ZM143.43 46.0976C142.765 46.0976 142.099 46.0976 141.766 46.0976H143.763H143.43ZM241.269 54.8781C241.269 54.8781 241.269 54.8781 241.602 54.8781C241.602 54.8781 241.934 54.8781 242.267 54.8781C241.934 54.8781 241.602 54.8781 241.269 54.8781C241.269 54.8781 240.936 54.8781 240.603 54.8781C240.603 54.8781 240.603 54.8781 240.936 54.8781H241.269ZM234.613 16.683H233.948C233.948 16.683 233.615 16.683 233.282 16.683C233.615 16.683 234.28 16.683 234.613 16.683C235.611 16.683 234.28 16.683 234.613 16.683ZM129.121 42.5854C129.121 42.5854 128.455 42.5854 128.122 42.5854C127.789 42.5854 127.124 42.5854 126.458 42.5854C127.457 42.5854 128.122 42.5854 129.121 42.5854ZM198.007 56.8537C198.007 56.8537 198.007 56.8537 198.007 57.0732C198.007 57.0732 197.674 57.0732 197.341 56.8537C197.341 56.8537 197.341 56.8537 197.674 56.8537H198.007ZM120.468 36.8781C120.468 36.8781 120.468 36.8781 120.135 36.8781H120.468ZM117.473 41.7074C117.473 41.7074 117.473 41.7074 117.14 41.7074H116.807C116.807 41.7074 117.473 41.7074 117.806 41.7074H117.473ZM379.041 51.8049C379.041 51.8049 380.04 51.8049 380.373 51.8049C380.373 51.8049 379.374 51.8049 379.041 51.8049ZM465.565 41.0488C465.565 41.0488 465.898 41.0488 466.231 41.0488C466.231 41.0488 466.564 41.0488 466.896 41.0488C466.564 41.0488 466.231 41.0488 465.565 41.0488ZM287.193 9.00005H286.527H286.195C286.527 9.00005 287.193 9.00005 287.526 9.00005H287.193ZM220.636 11.6342C220.636 11.6342 220.303 11.6342 219.971 11.6342C219.971 11.6342 220.303 11.6342 220.636 11.6342ZM155.41 12.2927C155.41 12.2927 155.41 12.2927 155.078 12.2927H155.743H155.41ZM44.9261 16.4635C44.9261 16.4635 44.5933 16.4635 44.2605 16.4635C44.2605 16.4635 44.5933 16.4635 44.9261 16.4635ZM63.562 32.0488C63.562 32.0488 63.2292 32.0488 62.8964 32.0488C62.8964 32.0488 63.2292 32.0488 63.562 32.0488ZM135.111 57.2927C135.111 57.2927 135.443 57.2927 135.443 57.5122C135.443 57.5122 135.443 57.5122 135.111 57.5122C135.111 57.5122 135.111 57.5122 135.111 57.2927ZM310.488 60.3659H311.153C311.153 60.3659 310.821 60.3659 310.488 60.3659ZM383.368 54.6586H382.702C382.702 54.6586 382.702 54.6586 383.035 54.6586H383.368ZM462.57 48.7318C462.57 48.7318 462.903 48.7318 463.236 48.7318C463.236 48.7318 463.236 48.7318 462.903 48.7318H462.57ZM510.824 28.9757H511.822C511.822 28.9757 511.157 28.9757 510.491 28.9757H510.824ZM507.829 15.5854C507.829 15.5854 507.829 15.5854 507.496 15.5854C507.496 15.5854 506.831 15.5854 507.163 15.5854C507.163 15.5854 507.829 15.5854 508.162 15.5854H507.829ZM386.363 12.0732C386.363 12.0732 387.694 12.0732 388.359 12.0732C388.359 12.0732 388.027 12.0732 387.694 12.0732C387.028 12.0732 386.695 12.0732 386.363 12.0732ZM225.961 8.34152C225.961 8.34152 225.961 8.34152 226.294 8.34152H225.961ZM248.59 12.7318C248.59 12.7318 247.924 12.7318 247.592 12.7318H248.59ZM119.47 13.8293C119.47 13.8293 119.47 13.3903 118.139 13.1708C118.139 13.1708 118.804 13.6098 119.47 13.8293ZM156.409 60.5854C156.409 60.5854 156.409 60.5854 156.742 60.5854C156.742 60.5854 156.742 60.5854 156.409 60.5854ZM494.85 37.5366C495.516 37.5366 494.85 37.7562 494.85 37.5366ZM184.695 10.5366C184.695 10.5366 183.364 10.5366 182.366 10.5366C182.366 10.5366 183.697 10.5366 184.695 10.5366ZM66.5571 14.4879C66.5571 14.4879 67.8882 14.4879 68.5538 14.2683C67.8882 14.2683 67.2226 14.2683 66.5571 14.4879ZM58.5702 15.5854C58.5702 15.5854 58.5702 15.5854 58.903 15.5854C58.903 15.5854 58.903 15.5854 58.5702 15.5854ZM86.1913 54.6586C86.1913 54.6586 86.1913 54.6586 85.8586 54.6586H86.1913ZM393.351 55.7562C393.351 55.7562 392.686 55.7562 392.353 55.7562C392.686 55.7562 393.018 55.7562 393.351 55.7562ZM516.814 28.3171C516.814 28.3171 516.814 28.3171 516.481 28.3171C516.481 28.3171 516.481 28.3171 516.814 28.3171ZM520.475 18.0001C520.475 18.0001 520.475 18.0001 520.142 18.0001H520.475ZM471.223 11.6342H470.89C470.89 11.6342 470.89 11.6342 471.223 11.6342ZM308.824 8.34152C308.824 8.34152 308.824 8.34152 308.491 8.34152C308.491 8.34152 308.491 8.34152 308.824 8.34152ZM85.193 9.8781C85.193 9.8781 85.5258 9.8781 85.8586 9.8781H85.193ZM221.967 62.3415C221.967 62.3415 221.967 62.3415 221.635 62.561C221.635 62.561 221.635 62.561 222.3 62.3415H221.967ZM352.419 5.70737C352.419 5.70737 352.086 5.70737 351.753 5.70737C352.086 5.70737 352.751 5.70737 353.084 5.70737C353.084 5.70737 352.752 5.70737 352.419 5.70737ZM294.847 5.70737C294.847 5.70737 294.847 5.70737 294.514 5.70737H294.847ZM105.16 11.8537H105.493C105.493 11.8537 105.493 11.8537 105.16 11.8537ZM44.2605 40.6098C44.2605 40.6098 44.2605 40.6098 44.2605 40.8293C44.2605 40.8293 44.2605 40.8293 44.2605 40.6098ZM85.5258 41.7074C85.5258 41.7074 85.193 41.7074 84.8602 41.7074C84.8602 41.7074 84.8602 41.7074 85.193 41.7074H85.5258ZM50.9162 57.7318C51.249 57.7318 51.9146 57.7318 52.2474 57.7318C52.2474 57.7318 51.5818 57.7318 51.249 57.7318C51.249 57.7318 51.249 57.7318 50.9162 57.7318ZM55.908 62.122C55.908 62.122 55.908 62.122 56.2408 62.122C56.2408 62.122 55.5752 62.122 55.2424 62.122C55.2424 62.122 55.5752 62.122 55.908 62.122ZM307.826 64.0976C307.826 64.0976 307.493 64.0976 307.16 64.3171C307.16 64.3171 307.826 64.3171 307.826 64.0976ZM527.796 29.1952C527.796 29.1952 527.796 29.1952 527.463 29.1952H527.796ZM32.6131 48.7318C32.6131 48.7318 31.9475 48.7318 31.6147 48.7318C31.6147 48.7318 32.2803 48.7318 32.6131 48.7318ZM48.2539 56.6342C48.2539 56.6342 46.59 56.6342 45.9244 56.6342C46.59 56.6342 47.5884 56.6342 48.2539 56.6342ZM119.47 64.0976C119.47 64.0976 119.47 64.0976 119.137 64.0976H119.47ZM398.676 61.4635H398.01C398.01 61.4635 398.343 61.4635 398.676 61.4635ZM117.806 9.43908C117.806 9.43908 117.806 9.43908 117.806 9.21957C117.806 9.21957 117.806 9.21957 117.806 9.43908ZM34.277 11.4147C34.277 11.4147 34.277 11.4147 33.9442 11.4147C33.9442 11.4147 33.9442 11.4147 34.277 11.4147ZM16.9722 36.0001L17.6378 36.2196C17.6378 36.2196 17.305 36.2196 16.9722 36.0001ZM319.806 67.3903C319.806 67.3903 319.473 67.3903 319.14 67.3903C319.14 67.3903 319.14 67.3903 319.473 67.3903H319.806ZM336.778 64.9757C336.778 64.9757 336.778 64.9757 337.111 64.9757C337.111 64.9757 337.111 64.9757 336.778 64.9757ZM365.065 64.3171H365.73C365.73 64.3171 365.065 64.3171 364.732 64.3171H365.065ZM520.475 38.6342C520.475 38.6342 520.808 38.6342 521.14 38.6342C521.14 38.6342 520.808 38.6342 520.475 38.6342ZM353.084 1.53664C353.084 1.53664 353.75 1.53664 354.083 1.53664C354.083 1.53664 353.75 1.53664 353.417 1.53664H353.084ZM186.359 5.70737C186.359 5.70737 186.359 5.70737 186.692 5.70737H186.359ZM60.567 8.122C60.567 8.122 59.9014 8.122 59.5686 8.122C59.9014 8.122 60.2342 8.122 60.567 8.122ZM39.6015 43.683C39.6015 43.683 41.2655 43.9025 42.2638 44.122C42.2638 44.122 42.2638 44.122 41.931 44.122C41.5983 43.9025 40.9327 43.683 39.6015 43.683ZM178.373 66.7318C178.373 66.7318 178.373 66.7318 178.04 66.7318C178.04 66.7318 178.04 66.7318 178.373 66.7318ZM485.865 66.0732C485.865 66.0732 485.865 66.0732 485.532 66.0732H485.865ZM530.458 56.1952C530.458 56.1952 530.458 55.9757 529.793 55.7562C529.793 55.7562 530.458 55.9757 530.458 56.1952ZM90.5175 5.70737C90.5175 5.70737 90.1848 6.14639 90.5175 6.36591C90.5175 6.36591 90.5175 5.92688 90.5175 5.70737ZM32.9459 55.9757C32.9459 55.9757 32.9459 55.9757 33.2786 55.9757H32.9459ZM42.5966 66.7318H42.9294C42.9294 66.7318 42.2638 66.7318 42.5966 67.1708C42.5966 67.1708 42.5966 66.9513 42.5966 66.7318ZM448.926 66.5122C448.926 66.5122 448.926 66.5122 448.593 66.5122H448.926ZM549.76 55.3171C549.76 55.3171 549.76 55.3171 550.093 55.3171H549.76ZM543.77 15.5854C543.77 15.5854 543.77 15.5854 544.102 15.5854H543.77ZM455.582 5.70737H455.915C455.915 5.70737 455.915 5.70737 455.582 5.70737ZM383.7 1.75615C383.7 1.75615 384.033 1.75615 384.366 1.75615C384.366 1.75615 384.033 1.75615 383.7 1.75615ZM26.623 8.78054C26.623 8.78054 25.6246 8.78054 24.959 8.34152C24.959 8.34152 25.9574 8.56103 26.623 8.78054ZM13.3116 33.3659C13.3116 33.3659 11.9805 33.3659 11.9805 33.1464C11.9805 33.1464 11.6477 33.1464 11.6477 32.9269C12.3132 32.9269 12.646 33.3659 13.3116 33.3659ZM26.2902 67.1708C26.2902 67.1708 26.623 67.1708 26.9557 67.1708C27.6213 67.3903 28.2869 67.6098 29.618 67.6098C28.6197 67.6098 27.6213 67.6098 26.623 67.3903L26.2902 67.1708ZM254.913 69.8049C254.913 69.8049 254.913 69.8049 254.58 69.8049C254.58 69.8049 254.58 69.8049 254.913 69.8049ZM466.896 67.1708C466.896 67.1708 466.896 67.1708 467.229 67.1708H466.896ZM475.216 66.5122C475.216 66.5122 475.216 66.5122 475.216 66.7318C475.216 66.7318 475.216 66.7318 475.216 66.5122ZM564.402 42.8049C564.402 42.8049 564.402 42.8049 564.07 42.8049H564.402ZM160.402 2.19518C160.402 2.19518 161.401 2.19518 162.066 2.19518C161.401 2.19518 161.068 2.19518 160.402 2.19518ZM10.3165 9.65859H9.98375C9.98375 9.65859 9.98375 9.65859 10.3165 9.65859ZM179.038 70.9025C179.038 70.9025 179.038 70.9025 179.038 70.683C179.038 70.683 179.038 70.683 179.038 70.9025Z" fill="white"/>
<path d="M521.473 65.6342C521.473 65.6342 522.804 65.8537 523.137 65.8537C523.469 65.8537 523.802 65.8537 524.468 65.6342C524.135 65.6342 523.802 65.4147 523.137 65.4147C522.804 65.4147 522.138 65.4147 521.473 65.6342Z" fill="#010E52"/>
<path d="M383.7 70.2439C383.7 70.2439 384.366 70.683 385.697 70.683C386.03 70.683 387.361 70.4634 387.361 70.2439C387.361 70.0244 386.362 70.0244 385.364 70.0244C384.699 70.0244 384.033 70.0244 383.7 70.0244V70.2439Z" fill="#010E52"/>
<path d="M538.112 64.5366C540.775 64.3171 542.106 64.0976 543.104 63.8781C541.773 63.6585 540.442 63.6585 538.112 64.5366Z" fill="#010E52"/>
<path d="M545.433 67.6097C545.433 67.6097 547.097 67.8292 548.761 67.6097C547.763 67.6097 547.43 67.3902 546.764 67.1707C546.099 67.1707 544.435 66.7317 545.1 67.1707L545.433 67.6097Z" fill="#010E52"/>
<path d="M601.008 47.8536C601.008 47.8536 601.673 48.0731 602.339 48.2927C603.005 48.2927 603.337 48.2927 603.67 48.0731C603.337 48.0731 603.005 47.8536 602.339 47.8536C602.006 47.8536 601.341 47.8536 601.008 47.8536Z" fill="#010E52"/>
</g>
<defs>
<clipPath id="clip0_420_13921">
<rect width="606" height="72" fill="white"/>
</clipPath>
</defs>
</svg>
