<svg width="268" height="66" viewBox="0 0 268 66" fill="none" xmlns="http://www.w3.org/2000/svg" preserveAspectRatio="none">
<g clip-path="url(#clip0_420_13907)"
   fill="#4156F6">
<path d="M264.787 31.5168C265.815 31.5168 266.715 31.5168 268 31.5168C265.815 30.4044 263.758 31.3314 261.83 31.146C260.802 30.5898 259.902 29.8483 258.36 30.219C257.46 30.0336 256.56 30.219 255.661 30.219C255.403 29.8483 255.146 29.6629 254.889 29.2921C254.761 29.1067 254.375 28.9213 254.247 28.7359C253.604 28.3651 252.961 28.1797 252.319 27.8089C252.704 27.6235 252.961 27.4381 253.347 27.2528C254.118 27.2528 254.889 27.0674 255.532 26.5112C256.175 26.1404 256.946 25.7696 256.817 25.2134V25.028C257.846 25.028 259.003 25.028 259.26 24.1011C259.26 23.7303 259.003 23.5449 258.874 23.1741C259.645 23.1741 260.416 23.5449 260.931 22.8033C261.445 22.0617 262.087 21.5056 262.73 20.9494C263.373 20.5786 264.015 20.3932 264.787 20.0224C264.787 19.0954 265.301 18.3539 266.329 17.7977C266.843 17.7977 267.615 17.9831 268 17.6123C268.257 17.2415 267.615 17.2415 267.357 17.2415C266.586 17.2415 265.686 17.0561 264.915 16.8707C264.915 16.4999 264.915 16.1292 264.915 15.9438C265.044 15.7584 265.301 15.573 265.429 15.3876C265.429 15.3876 265.429 15.2022 265.429 15.0168C265.944 15.0168 266.458 15.3876 267.1 15.0168C266.843 14.646 266.458 14.4606 265.944 14.2752C265.686 13.9044 265.172 13.5336 264.53 13.3483C264.787 12.6067 263.116 12.4213 263.501 11.6797C264.273 11.6797 264.401 12.4213 265.429 12.4213C265.172 11.8651 264.658 11.6797 264.016 11.3089C263.63 10.9381 263.501 10.5674 262.73 10.5674C262.73 10.7528 262.987 11.1235 262.987 11.3089C262.344 11.3089 261.702 11.3089 261.059 11.3089L259.517 10.5674C259.517 10.5674 259.388 10.382 259.26 10.1966C259.645 10.1966 260.159 10.0112 260.545 9.82578C261.702 9.82578 260.545 9.08421 260.931 8.89882C261.83 8.89882 262.344 8.34264 262.987 7.97185C263.887 7.97185 265.044 8.15724 266.072 7.41567C264.787 7.41567 263.758 7.41567 262.859 7.41567C262.859 7.23028 262.73 7.04488 262.602 6.85949C263.116 6.4887 264.144 6.4887 264.273 5.93252C264.273 5.93252 264.015 5.93252 263.887 5.93252C262.602 5.37635 261.188 5.74713 259.774 5.74713C258.231 5.74713 256.817 5.74713 255.275 5.74713C254.247 5.74713 253.218 5.56174 252.319 5.37635C252.319 5.37635 252.062 5.37635 251.933 5.37635C251.933 5.37635 249.491 5.37635 250.391 4.07859C248.205 2.78084 245.506 2.59545 242.807 2.41005C242.164 2.41005 241.521 2.41005 241.007 2.41005C238.565 2.41005 236.38 1.29769 233.938 1.85387C232.781 1.85387 231.753 1.1123 230.467 1.48309C229.696 1.48309 228.925 1.29769 228.411 1.66848C228.282 1.66848 228.154 1.66848 227.897 1.66848C226.997 1.1123 225.968 1.29769 224.94 1.29769C224.683 1.29769 224.298 1.29769 224.04 1.29769C221.984 0.741514 219.67 1.1123 217.485 0.741514C216.457 0.556121 215.557 0.741514 214.529 0.741514C213.372 0.741514 212.215 0.741514 211.058 0.741514C210.93 0.741514 210.673 0.741514 210.544 0.741514C209.387 0.741514 208.359 0.741514 207.202 0.741514C203.86 0.741514 200.518 0.741514 197.176 0.741514C197.048 0.741514 196.791 0.741514 196.662 0.741514C195.634 0.741514 194.605 0.741514 193.577 0.741514C193.577 0.741514 193.577 0.926907 193.577 1.1123C193.577 1.1123 193.577 0.926907 193.577 0.741514C193.32 0.741514 193.192 0.741514 192.934 0.741514C192.292 0.370728 191.392 0.370728 190.621 0.370728C186.508 0.370728 182.266 0.370728 178.153 0.370728C177.896 0.370728 177.896 0.556121 178.153 0.741514C182.266 0.741514 186.508 0.741514 190.621 0.741514C184.837 0.741514 178.924 0.741514 173.14 0.741514V0.926907H173.011C173.011 0.926907 173.011 1.1123 173.011 1.29769C173.011 1.29769 173.14 1.1123 173.011 0.926907C173.011 0.926907 173.011 0.926907 173.011 0.741514C172.497 0.741514 171.983 0.741514 171.469 0.741514C169.284 0.741514 166.97 0.556121 164.785 0.926907C164.785 0.926907 164.785 0.926907 164.656 0.926907C164.656 0.926907 164.399 0.926907 164.271 0.926907C163.242 0.741514 162.343 0.926907 161.314 0.926907C156.044 0.926907 150.774 0.926907 145.504 1.29769C143.962 1.29769 142.291 1.29769 140.748 1.29769C140.363 1.29769 140.106 1.29769 139.72 1.29769C140.234 1.29769 140.748 0.926907 141.262 0.926907C140.491 0.926907 139.72 0.556121 139.206 0.926907C138.178 0.926907 137.278 0.926907 136.25 0.926907C135.607 0.926907 135.093 0.926907 134.707 1.29769C132.393 1.29769 130.08 0.926907 127.895 1.48309C127.895 1.48309 127.766 1.48309 127.638 1.48309C122.753 1.48309 117.74 1.48309 112.856 1.48309C112.47 1.48309 112.213 1.48309 111.827 1.48309C107.329 1.48309 102.83 1.48309 98.3311 1.48309C95.5033 1.48309 92.804 1.66848 89.9762 1.85387C89.5905 1.85387 89.3335 1.85387 88.9479 1.85387C87.4054 1.85387 85.9915 1.85387 84.4491 1.85387C82.6495 1.85387 80.7215 1.85387 78.922 1.85387C78.1507 1.85387 77.251 1.85387 76.4797 1.85387C75.4514 1.85387 74.4232 1.85387 73.5234 1.85387C73.1378 1.85387 72.8807 1.85387 72.4951 1.85387C71.0812 1.85387 69.6673 1.85387 68.1248 1.85387C66.4539 1.48309 64.7829 1.48309 62.9833 1.66848C61.698 1.66848 60.4126 1.66848 59.1272 1.66848C57.9704 1.29769 56.685 1.29769 55.5282 1.48309C55.014 1.48309 54.6284 1.48309 54.1143 1.48309C51.8006 0.926907 49.4869 1.29769 47.1733 1.1123C45.7594 0.556121 44.2169 1.1123 42.803 0.741514C42.0318 0.370728 41.3891 0.185334 41.132 1.1123C40.2323 1.85387 40.3608 2.96623 39.3325 3.70781C38.3042 4.44938 38.3042 5.19095 38.9469 6.11792C38.9469 6.11792 38.9469 6.11792 39.204 6.30331C39.7181 6.85949 40.2323 7.41567 40.6179 7.97185C38.9469 7.97185 38.0471 8.52803 37.0188 9.2696C36.5047 9.2696 36.2476 9.64039 36.1191 9.82578C36.1191 9.82578 35.3478 9.82578 35.2193 10.1966C34.4481 10.382 33.1627 9.82578 32.7771 10.7527C32.7771 10.7527 32.7771 10.7527 32.6486 10.7527C31.8773 10.7527 31.1061 10.7527 30.3349 10.7527C29.5637 10.382 28.921 10.382 27.7642 10.382C28.6639 10.9381 29.4351 11.1235 30.3349 11.1235C30.592 11.1235 30.9776 11.3089 31.2347 11.4943C31.1061 12.4213 30.9776 13.1629 30.849 14.0898C30.849 14.0898 31.1061 14.0898 31.2347 14.2752C31.2347 14.2752 30.849 14.2752 30.592 14.2752C30.0778 14.2752 29.5637 14.2752 29.1781 14.2752C28.5354 14.2752 27.8927 14.4606 27.1215 14.646C25.0649 15.0168 22.7512 15.2022 21.0802 16.3145C19.6663 16.4999 18.7666 17.4269 17.3526 17.7977C18.3809 18.1685 18.8951 17.6123 19.6663 17.7977C19.7948 17.7977 20.0519 17.9831 20.1805 18.1685C20.1805 18.1685 19.4092 18.7247 19.1522 19.0954C17.7383 19.2808 16.967 20.0224 16.0673 20.764C15.5531 20.9494 15.1675 21.3202 15.1675 21.691C15.4246 22.9887 13.1109 23.3595 12.9824 24.6572C13.6251 24.2865 14.1392 24.1011 14.6534 23.9157C14.6534 23.9157 14.6534 24.1011 14.6534 24.2865C14.2678 24.6572 14.0107 24.8426 13.6251 25.2134C14.1392 25.7696 13.8821 26.3258 13.1109 26.882C12.5968 27.0674 12.0826 27.4381 11.697 27.6235C11.3114 27.6235 10.9258 27.6235 10.6687 27.9943C8.48358 28.9213 8.48358 28.9213 11.0543 30.0336C11.0543 30.0336 11.0543 30.4044 11.0543 30.5898C9.12626 30.5898 7.45528 31.146 5.7843 31.7022C4.88454 32.073 5.27015 32.2584 6.04137 32.2584C5.65576 33.1853 4.37039 33.1853 3.47063 33.5561C2.95648 33.9269 2.31379 34.1123 1.67111 34.4831C2.57087 34.4831 3.34209 34.4831 4.11331 34.4831C4.49893 34.8539 4.37039 35.0393 3.59916 35.0393C2.57087 35.0393 1.67111 35.0393 0.385735 35.0393C2.57087 36.1516 4.62746 35.2247 6.55552 35.4101C7.58382 35.9662 8.48358 36.7078 10.026 36.337C10.9258 36.5224 11.8255 36.337 12.7253 36.337C12.9824 36.7078 13.2395 36.8932 13.4965 37.264C13.6251 37.4494 14.0107 37.6348 14.1392 37.8202C14.7819 38.191 15.4246 38.3763 16.0673 38.7471C15.6817 38.9325 15.4246 39.1179 15.039 39.3033C14.2677 39.3033 13.4965 39.4887 12.8538 40.0449C12.2112 40.4157 11.4399 40.7865 11.5685 41.3426V41.7134C10.5402 41.7134 9.38334 41.7134 9.12626 42.6404C9.12626 43.0112 9.38334 43.1966 9.51187 43.5674C8.74065 43.5674 7.96943 43.1966 7.45528 43.9381C6.94113 44.6797 6.29845 45.2359 5.65576 45.7921C5.01307 46.1629 4.37039 46.3483 3.59916 46.719C3.59916 46.719 3.08502 48.3876 2.05672 48.9438C1.54257 48.9438 0.771347 48.7584 0.385735 49.1292C0.128661 49.4999 0.771347 49.4999 1.02842 49.4999C1.79964 49.4999 2.6994 49.6853 3.47063 49.8707C3.47063 50.2415 3.47063 50.6123 3.47063 50.7977C3.34209 50.9831 3.08502 51.1685 2.95648 51.3539C2.95648 51.3539 2.95648 51.5393 2.95648 51.7247C2.44233 51.7247 1.92818 51.3539 1.2855 51.7247C1.54257 52.0954 1.92818 52.2808 2.44233 52.4662C2.6994 52.837 3.21355 53.2078 3.85624 53.3932C3.59917 54.1348 5.27015 54.3202 4.88454 55.0617C4.24185 55.0617 3.98478 54.3202 2.95648 54.3202C3.21355 54.8763 3.7277 55.0617 4.37039 55.4325C4.756 55.8033 4.88454 56.1741 5.65576 56.1741C5.65576 55.9887 5.39869 55.6179 5.39869 55.4325C6.04137 55.4325 6.68406 55.4325 7.32674 55.4325C7.84089 55.6179 8.35504 55.8033 8.86919 56.1741C8.86919 56.1741 8.99773 56.3595 9.12626 56.5449C8.74065 56.5449 8.2265 56.7303 7.84089 56.9157C6.68406 56.9157 7.84089 57.6572 7.45528 57.8426C6.55552 57.8426 6.04137 58.3988 5.39869 58.7696C4.49893 58.7696 3.34209 58.5842 2.31379 59.3258C3.59917 59.3258 4.62746 59.3258 5.52722 59.3258C5.52722 59.5112 5.65576 59.6966 5.7843 59.882C6.04137 59.882 6.16991 60.0674 6.42698 60.2527C6.42698 60.2527 6.29845 59.6966 5.7843 59.882C5.27015 60.2528 4.24185 60.2527 4.11331 60.8089C4.11331 60.8089 4.37039 60.8089 4.49893 60.8089C5.7843 61.3651 7.19821 60.9943 8.61211 60.9943C10.1546 60.9943 11.5685 60.9943 13.1109 60.9943C14.1392 60.9943 15.1675 61.1797 16.0673 61.3651C16.0673 61.3651 16.3243 61.3651 16.4529 61.3651C16.4529 61.3651 18.8951 61.3651 17.9953 62.6629C20.1805 63.9606 22.8797 64.146 25.579 64.3314C26.2217 64.3314 26.8644 64.3314 27.3785 64.3314C29.8208 64.3314 32.0059 65.4438 34.4481 64.8876C35.6049 64.8876 36.6332 65.6292 37.9186 65.2584C38.6898 65.2584 39.461 65.4438 39.9752 65.073C40.1037 65.073 40.2323 65.073 40.4893 65.073C41.3891 65.6292 42.4174 65.6292 43.4457 65.4438C43.7028 65.4438 44.0884 65.4438 44.3455 65.4438C46.402 65.9999 48.7157 65.6292 50.9008 65.9999C51.9291 66.1853 52.8289 65.9999 53.8572 65.9999C55.014 65.9999 56.1709 65.9999 57.3277 65.9999C57.4562 65.9999 57.7133 65.9999 57.8419 65.9999C58.9987 65.9999 60.027 65.9999 61.1838 65.9999C64.5258 65.9999 67.8678 65.9999 71.2097 65.9999C71.3383 65.9999 71.5953 65.9999 71.7239 65.9999C72.7522 65.9999 73.7805 65.9999 74.8088 65.9999C74.8088 65.9999 74.8088 65.8145 74.8088 65.6292C74.8088 65.6292 74.8088 65.8145 74.8088 65.9999C75.0658 65.9999 75.1944 65.9999 75.4514 65.9999C76.0941 66.3707 76.9939 66.3707 77.7651 66.3707C81.8783 66.3707 86.12 66.3707 90.2332 66.3707C90.4903 66.3707 90.4903 66.1853 90.2332 65.9999C86.12 65.9999 81.8783 65.9999 77.7651 65.9999C83.5493 65.9999 89.462 65.9999 95.2462 65.9999V65.8145H95.3747C95.3747 65.8145 95.3747 65.6292 95.3747 65.4438C95.3747 65.4438 95.2462 65.6292 95.3747 65.8145C95.3747 65.8145 95.3747 65.8145 95.3747 65.9999C95.8889 65.9999 96.403 65.9999 96.9172 65.9999C99.1023 65.9999 101.416 66.1853 103.601 65.8145C103.601 65.8145 103.601 65.8145 103.73 65.8145C103.73 65.8145 103.987 65.8145 104.115 65.8145C105.144 65.9999 106.043 65.8145 107.072 65.8145C112.342 65.8145 117.612 65.8145 122.882 65.4438C124.424 65.4438 126.095 65.4438 127.638 65.4438C128.023 65.4438 128.28 65.4438 128.666 65.4438C128.152 65.4438 127.638 65.8145 127.123 65.8145C127.895 65.8145 128.666 66.1853 129.18 65.8145C130.208 65.8145 131.108 65.8145 132.136 65.8145C132.265 65.8145 132.265 65.6292 132.136 65.4438C132.136 65.4438 132.136 65.6292 132.136 65.8145C132.779 65.8145 133.293 65.8145 133.679 65.4438C135.992 65.4438 138.435 65.8145 140.748 65.2584C145.633 65.2584 150.646 65.2584 155.53 65.2584C155.916 65.2584 156.173 65.2584 156.558 65.2584C161.057 65.2584 165.556 65.2584 170.055 65.2584C172.883 65.2584 175.582 65.073 178.41 64.8876C178.795 64.8876 179.052 64.8876 179.438 64.8876C180.98 64.8876 182.394 64.8876 183.937 64.8876H189.464C190.235 64.8876 191.135 64.8876 191.906 64.8876C192.934 64.8876 193.963 64.8876 194.862 64.8876C195.248 64.8876 195.505 64.8876 195.891 64.8876H200.261C201.932 65.2584 203.603 65.2584 205.274 65.073C206.559 65.073 207.845 65.073 209.13 65.073C210.287 65.4438 211.572 65.2584 212.729 65.2584C213.243 65.2584 213.629 65.2584 214.143 65.2584C216.457 65.8145 218.77 65.4438 221.084 65.6292C222.498 66.1853 224.04 65.6292 225.454 65.9999C226.226 66.3707 226.868 66.5561 227.125 65.6292C228.025 64.8876 227.897 63.7752 228.925 63.0337C229.953 62.2921 229.953 61.5505 229.31 60.6235C229.31 60.6235 229.31 60.6235 229.053 60.4381C228.539 59.882 228.025 59.3258 227.639 58.7696C229.31 58.7696 230.21 58.2134 231.239 57.4718C231.753 57.4718 232.01 57.1011 232.138 56.9157C232.138 56.9157 232.909 56.9157 233.038 56.5449C233.809 56.3595 235.095 56.9157 235.48 55.9887C235.48 55.9887 235.48 55.9887 235.609 55.9887C236.38 55.9887 237.151 55.9887 237.922 55.9887C238.694 56.3595 239.336 56.3595 240.493 56.3595C239.593 55.8033 238.822 55.6179 237.922 55.6179C237.665 55.6179 237.28 55.4325 237.023 55.2471C237.151 54.3202 237.28 53.5786 237.408 52.6516C237.408 52.6516 237.151 52.6516 237.023 52.4662C237.023 52.4662 237.408 52.4662 237.665 52.4662H239.079C239.722 52.4662 240.365 52.2808 241.136 52.0954C243.192 51.7247 245.506 51.5393 247.177 50.4269C248.591 50.2415 249.491 49.3145 250.905 48.9438C249.876 48.573 249.362 49.1292 248.591 48.9438L248.077 48.573C248.077 48.573 248.848 48.0168 249.105 47.646C250.519 47.4606 251.29 46.719 252.19 45.9775C252.19 45.9775 253.09 45.4213 253.09 45.0505C252.833 43.7528 255.146 43.382 255.275 42.0842C254.632 42.455 254.118 42.6404 253.604 42.8258C253.604 42.8258 253.604 42.6404 253.604 42.455C253.99 42.0842 254.247 41.8988 254.632 41.528C254.118 40.9719 254.375 40.4157 255.146 39.8595C255.661 39.6741 256.175 39.3033 256.56 39.1179C256.946 39.1179 257.332 39.1179 257.589 38.7471C259.774 37.8202 259.774 37.8202 257.203 36.7078C257.203 36.7078 257.203 36.337 257.203 36.1516C259.131 36.1516 260.802 35.5954 262.473 35.0393C263.373 34.6685 262.987 34.4831 262.216 34.4831C262.602 33.5561 263.887 33.5561 264.787 33.1853C265.301 32.8145 265.944 32.6292 266.586 32.2584C265.686 32.2584 264.915 32.2584 264.144 32.2584C263.758 31.8876 263.887 31.7022 264.658 31.7022L264.787 31.5168ZM169.027 63.7752C169.027 63.7752 169.027 63.7752 169.155 63.7752C169.155 63.7752 169.155 63.7752 169.027 63.7752ZM6.29845 60.2527C6.29845 60.2527 6.16991 60.2527 6.04137 60.2527C6.04137 60.2527 6.16991 60.2527 6.29845 60.2527ZM98.9738 2.22466C98.9738 2.22466 98.9738 2.22466 98.8452 2.22466C98.8452 2.22466 98.8452 2.22466 98.9738 2.22466ZM55.6567 8.52803C55.6567 8.52803 55.3997 8.52803 55.2711 8.52803C55.2711 8.52803 55.5282 8.52803 55.6567 8.52803ZM212.344 57.4718C212.344 57.4718 212.601 57.4718 212.729 57.4718C212.729 57.4718 212.472 57.4718 212.344 57.4718ZM75.9656 5.93252H76.3512C76.3512 5.93252 76.3512 5.93252 76.2227 5.93252C76.2227 5.93252 76.0941 5.93252 75.9656 5.93252ZM78.6649 5.56174C78.922 5.56174 78.5363 5.37635 78.6649 5.56174ZM58.2275 5.74713C58.2275 5.74713 58.2275 5.74713 58.0989 5.74713C58.0989 5.74713 58.2275 5.74713 58.356 5.74713H58.2275ZM18.2524 30.5898C18.2524 30.5898 18.1239 30.5898 17.9953 30.5898C17.9953 30.5898 17.9953 30.5898 18.1239 30.5898H18.2524ZM192.163 60.2527H191.778C191.778 60.2527 191.778 60.2527 191.906 60.2527C191.906 60.2527 192.035 60.2527 192.163 60.2527ZM189.464 60.6235C189.592 60.8089 189.207 60.6235 189.464 60.6235ZM209.901 60.4381C209.901 60.4381 209.901 60.4381 210.03 60.4381C210.03 60.4381 209.901 60.4381 209.773 60.4381H209.901ZM249.876 35.4101C249.876 35.4101 250.005 35.4101 250.133 35.4101C250.133 35.4101 250.133 35.4101 250.005 35.4101H249.876ZM65.0399 4.26399C65.0399 4.26399 65.1685 4.26399 65.297 4.26399H65.0399ZM203.089 61.7359C203.089 61.7359 202.96 61.7359 202.832 61.7359H203.089ZM223.398 3.15163C223.398 3.15163 222.884 3.15163 222.755 3.15163C222.755 3.15163 223.141 3.15163 223.398 3.15163ZM212.729 2.03927C212.729 2.03927 212.986 2.03927 213.243 2.22466C213.115 2.22466 212.858 2.22466 212.729 2.03927ZM44.6025 62.6629C44.6025 62.6629 45.1167 62.6629 45.2452 62.6629C45.2452 62.6629 44.8596 62.6629 44.6025 62.6629ZM55.2711 63.7752C55.2711 63.7752 54.8855 63.7752 54.757 63.5898C54.8855 63.5898 55.1426 63.5898 55.2711 63.7752ZM247.563 28.5505C247.563 28.5505 247.691 28.5505 247.82 28.5505H247.691H247.563ZM189.078 2.03927H189.207H188.95H189.078ZM96.6601 2.96623C96.6601 2.96623 96.5315 2.96623 96.403 2.96623C96.403 2.96623 96.403 2.96623 96.5316 2.96623H96.6601ZM40.1037 12.9775C40.1037 12.9775 39.7181 12.9775 39.5896 12.9775C39.5896 12.9775 39.9752 12.9775 40.1037 12.9775ZM20.309 37.4494H20.4375C20.4375 37.4494 20.309 37.4494 20.1805 37.4494H20.309ZM79.179 64.146H79.0505H79.3076H79.179ZM63.1119 1.85387C63.1119 1.85387 63.1119 1.85387 63.2404 1.85387H63.1119ZM171.469 63.219C171.469 63.219 171.597 63.219 171.726 63.219C171.726 63.219 171.726 63.219 171.597 63.219H171.469ZM204.888 64.5168C204.888 64.5168 204.888 64.5168 204.76 64.5168H204.888ZM261.573 31.5168C261.573 31.5168 261.573 31.5168 261.573 31.7022V31.5168ZM128.794 1.85387C128.794 1.85387 128.794 1.66848 128.794 1.48309H128.666C128.666 1.48309 128.666 1.48309 128.794 1.48309C128.794 1.48309 128.794 1.66848 128.794 1.85387ZM95.6318 2.03927C95.6318 2.03927 95.6318 2.03927 95.5032 2.03927C95.5032 2.03927 95.5033 2.03927 95.3747 2.03927C95.3747 2.03927 95.5033 2.03927 95.6318 2.03927ZM94.0893 2.03927C94.0893 2.03927 94.0893 2.03927 94.2179 2.03927C94.2179 2.03927 94.0893 2.03927 93.9608 2.03927H94.0893ZM52.5718 1.1123C52.5718 1.1123 52.5718 1.1123 52.7004 1.1123H52.5718ZM6.42698 34.8539C6.42698 34.8539 6.42698 34.8539 6.42698 34.6685V34.8539ZM139.334 64.3314C139.334 64.3314 139.334 64.146 139.334 63.9606C139.334 63.9606 139.334 64.146 139.334 64.3314H139.463C139.463 64.3314 139.463 64.3314 139.334 64.3314ZM172.626 63.9606C172.626 63.9606 172.497 63.9606 172.368 63.9606C172.368 63.9606 172.368 63.9606 172.497 63.9606C172.497 63.9606 172.497 63.9606 172.626 63.9606C173.011 63.9606 173.268 63.9606 173.654 63.9606C173.654 63.9606 173.782 63.9606 173.911 63.9606C173.911 63.9606 173.911 63.9606 173.782 63.9606C173.397 63.7752 173.14 63.7752 172.754 63.9606H172.626ZM215.428 64.8876C215.428 64.8876 215.428 64.8876 215.3 64.8876H215.428Z" />
</g>
<defs>
<clipPath id="clip0_420_13907">
<rect width="268" height="66" fill="white"/>
</clipPath>
</defs>
</svg>
