<svg width="184" height="6" viewBox="0 0 184 6" fill="none" xmlns="http://www.w3.org/2000/svg">
<path fill-rule="evenodd" clip-rule="evenodd" d="M183.997 5.22141C183.108 5.06546 182.209 5.03405 181.306 4.96598C180.411 4.89979 179.52 4.80106 178.636 4.65708C176.667 4.33583 174.698 4.01346 172.726 3.70867C168.93 3.12189 165.121 2.60917 161.294 2.22397C157.784 1.87018 154.266 1.57287 150.739 1.35633C149.827 1.30024 148.913 1.24938 147.999 1.20487C144.499 1.03247 140.996 0.866048 137.491 0.75348C129.293 0.48758 121.096 0.230283 112.886 0.133796C104.865 0.040301 96.8415 -0.0221536 88.8142 0.00739082C84.8685 0.022724 80.9233 0.0230979 76.9762 0.0646097C72.7101 0.108739 68.443 0.115845 64.1745 0.201112C55.3644 0.378004 46.5542 0.556019 37.7445 0.738147C30.0971 0.895966 22.4452 1.37391 14.8002 2.09644C9.86269 2.56242 4.92764 3.15966 0.00232569 3.83731C-0.00108249 3.83694 -0.000595606 3.84479 0.00281258 3.84517C5.50898 4.56209 11.037 5.1066 16.5895 5.49404C20.2221 5.74835 23.8577 5.89644 27.5078 5.96189C29.8629 6.00415 32.2194 6.01238 34.5793 5.98096C36.0273 5.96227 37.4782 5.88635 38.9282 5.83025C42.8106 5.67729 46.693 5.52209 50.5754 5.37774C55.0153 5.21131 59.4561 5.00525 63.896 4.88146C68.4732 4.75319 73.0509 4.62566 77.6281 4.49776C81.7408 4.38258 85.8515 4.33882 89.9623 4.26103C93.9757 4.18624 97.9842 4.18736 101.994 4.15968C106.035 4.13276 110.074 4.17165 114.112 4.19334C118.222 4.21578 122.328 4.34181 126.434 4.42633C133.934 4.58191 141.417 4.9413 148.895 5.34819C153.055 5.57482 157.225 5.67206 161.394 5.77677C165.504 5.88036 169.621 5.92935 173.736 5.91814C175.411 5.9144 177.09 5.93908 178.767 5.86316C179.58 5.82651 180.391 5.77266 181.2 5.64476C181.918 5.53032 182.628 5.35492 183.349 5.26031C183.565 5.24385 183.779 5.23375 183.996 5.22889C184.001 5.22927 184.001 5.22179 183.997 5.22141Z" fill="#4156F6"/>
</svg>
