<svg width="191" height="49" viewBox="0 0 191 49" fill="none" xmlns="http://www.w3.org/2000/svg">
<path fill-rule="evenodd" clip-rule="evenodd" d="M166.292 48.9997C152.33 48.9997 141.61 38.6076 141.61 24.5039C141.61 10.3999 152.33 0.00805664 166.292 0.00805664C180.502 0.00805664 190.973 10.3999 190.973 24.5039C190.973 38.6076 180.502 48.9997 166.292 48.9997ZM166.292 3.71957C154.325 3.71957 145.599 12.627 145.599 24.5039C145.599 36.628 154.325 45.2882 166.292 45.2882C178.259 45.2882 186.984 36.3805 186.984 24.5039C186.984 12.627 178.259 3.71957 166.292 3.71957ZM173.023 37.3704V15.3489H176.514C178.259 15.3489 179.256 16.0913 179.256 18.0705V37.3704H173.023ZM163.051 13.6169C163.051 12.3798 162.552 11.885 161.555 11.885H160.807V9.16305H166.791C168.536 9.16305 169.533 9.90542 169.533 11.885V37.3704H163.051V13.6169ZM153.328 18.0705C153.328 16.0909 154.076 15.3489 156.07 15.3489H159.561V37.3704H153.328V18.0705ZM113.438 34.1537L123.411 20.5448H118.175C116.929 20.5448 116.181 21.0396 116.181 22.2771V22.7719H113.688V18.5656C113.688 16.8333 114.436 16.0909 116.181 16.0909H130.641V20.7924L120.918 34.4013H130.89V38.8548H113.438V34.1537ZM103.092 24.3114C103.092 22.0126 102.651 21.3557 101.107 21.3557C99.5627 21.3557 98.4965 21.903 96.9524 23.326V38.6518H90.1872V20.2611C90.1872 19.0204 89.5254 18.4731 88.2019 18.4731H87.9812V16.0282H94.5625C95.8859 16.0282 96.5478 16.7215 96.5478 18.1445V19.3486C99.5996 16.7215 101.585 15.7729 104.195 15.7729C106.18 15.7729 107.467 16.3203 108.57 17.4879C109.453 18.6918 109.894 20.042 109.894 23.2168V38.6518H103.092V24.3114ZM78.1281 36.4986V35.8053C76.8411 37.0098 76.4 37.265 75.297 37.7762C74.194 38.4695 72.6867 38.834 71.1425 38.834C67.2084 38.834 65.4435 36.7907 65.4435 32.5213C65.4435 29.0913 66.7673 26.9385 69.5983 25.8074C70.4438 25.4426 71.3264 25.1505 72.2087 24.9318C73.9736 24.5302 74.8558 24.3844 77.9073 23.8733V23.326C77.9073 21.3557 77.2823 20.6258 75.0763 20.6258C74.6351 20.6258 73.7528 20.7354 73.091 20.8084C71.7675 21.0636 70.7014 21.3192 68.9365 22.0126L68.2746 22.2678L66.7673 18.0714C68.7526 17.0498 69.5983 16.7215 71.3629 16.3203C73.1278 15.9186 74.8558 15.6999 76.8411 15.6999C82.5033 15.6999 84.4886 17.6702 84.4886 23.4355V34.4919C84.4886 35.6596 85.1505 36.2434 86.4739 36.2434H86.6946V38.5787H80.1133C78.7899 38.5787 78.1281 37.9219 78.1281 36.4986ZM77.9073 27.6684C75.9589 27.9967 74.8558 28.2887 73.7528 28.7265C72.2087 29.3104 71.7675 30.0399 71.7675 31.901C71.7675 33.616 72.4291 34.2363 73.7528 34.2363C75.0763 34.2363 76.5839 33.5068 77.9073 32.1931V27.6684ZM58.0168 14.3497C55.4065 14.3497 54.0831 13.1455 54.0831 11.1022C54.0831 9.09515 55.4065 7.92748 58.0168 7.92748C60.4067 7.92748 61.9509 9.09515 61.9509 11.1022C61.9509 13.1455 60.4067 14.3497 58.0168 14.3497ZM61.7302 18.254V38.6518H54.9285V20.2611C54.9285 19.0204 54.4874 18.4731 53.1639 18.4731H52.7225V16.0282H59.5245C60.8479 16.0282 61.7302 16.8307 61.7302 18.254ZM42.6854 12.6712C42.6854 11.5035 42.0236 10.9562 40.7001 10.9562H40.259V8.4383H47.0607C48.568 8.4383 49.4503 9.20468 49.4503 10.6641V38.6518H42.6854V12.6712ZM30.4424 12.6712C30.4424 11.5035 29.7805 10.9562 28.4571 10.9562H28.0156V8.4383H34.8176C36.3249 8.4383 37.2072 9.20468 37.2072 10.6641V38.6518H30.4424V12.6712ZM18.1993 31.3175H9.22844L7.0224 38.6518H0L7.90469 14.9335C8.56656 13.4376 8.56656 12.9995 8.56656 12.3791C8.56656 11.3575 7.90469 10.9562 6.58126 10.9562H5.69865V8.4383H16.6551C18.6036 8.4383 19.4862 9.02213 19.9273 10.8467L27.832 38.6518H20.4053L18.1993 31.3175ZM14.008 14.4954L10.2946 26.5007H17.2802L14.008 14.4954Z" fill="#AEB2BC"/>
</svg>
