<svg width="182" height="61" viewBox="0 0 182 61" fill="none" xmlns="http://www.w3.org/2000/svg">
<path fill-rule="evenodd" clip-rule="evenodd" d="M175.276 36.0329C175.133 36.2371 175.24 36.2371 175.454 36.0329C176.815 34.6485 178.067 33.1282 179.195 31.4895C179.444 31.1209 180.619 29.7702 181.189 30.6298C181.902 31.4895 181.439 33.0036 180.477 34.3954C175.454 41.6401 162.451 49.2119 147.809 49.9076C147.452 49.9076 147.239 49.8258 147.773 49.7034C153.972 48.0659 161.061 46.1424 167.367 42.254C170.93 39.7162 174.599 33.2087 173.958 25.1044C173.672 12.1702 166.049 8.2822 165.407 7.79117C160.206 16.5501 160.135 24.4494 161.168 33.2087C161.168 33.2087 156.608 33.8226 154.435 36.0329C150.374 40.2073 152.369 44.5054 153.046 45.7738C153.188 46.0196 153.081 46.0602 153.01 45.9785C151.051 44.4232 146.49 33.2905 159.031 31.2848C154.649 12.9892 164.517 0.423584 164.517 0.423584C168.4 3.28885 171.535 6.44052 173.672 10.2467C175.846 5.86729 178.518 3.77988 178.518 3.77988C185.215 16.8365 180.05 30.0566 175.276 36.0329ZM178.126 9.01896C178.126 9.01896 176.701 10.2467 175.276 13.6437C176.139 15.9444 176.668 18.3918 176.843 20.8884C177.378 27.5599 176.024 33.5769 173.566 37.3424C173.459 37.5064 173.637 37.4242 173.886 37.0967C174.919 35.6643 176.879 32.308 178.482 26.7414C181.118 17.7779 178.126 9.01896 178.126 9.01896ZM132.098 46.1831H141.503V50.2762H132.098C128.998 50.2762 121.909 50.2762 121.909 39.5116C121.909 28.7471 129.07 28.7471 132.098 28.7471C135.447 28.7471 142.43 28.7471 142.43 39.5527V40.944H126.077C126.327 44.7913 127.324 46.1831 132.098 46.1831ZM138.083 36.8514C137.834 34.2725 136.729 32.8812 132.062 32.8812C127.716 32.8812 126.648 34.1497 126.291 36.8514H138.083ZM108.764 46.1831H118.168V50.2762H108.764C105.664 50.2762 98.5747 50.2762 98.5747 39.5116C98.5747 28.7471 105.736 28.7471 108.764 28.7471C112.112 28.7471 119.095 28.7471 119.095 39.5527V40.944H102.743C102.992 44.7913 103.99 46.1831 108.764 46.1831ZM114.749 36.8514C114.535 34.2725 113.395 32.8812 108.764 32.8812C104.418 32.8812 103.348 34.1497 102.992 36.8514H114.749ZM85.251 50.2762C83.1133 50.2762 80.6554 50.1944 78.6602 49.1708V60.6107H74.4923V39.5116C74.4923 29.5656 79.551 28.7471 85.2152 28.7471C90.8798 28.7471 95.9743 29.5656 95.9743 39.5116C95.9743 49.4576 90.9152 50.2762 85.251 50.2762ZM85.2152 32.8812C78.9096 32.8812 78.6248 34.3543 78.6248 39.5527C78.6248 44.8325 78.8742 46.2242 85.2152 46.2242C91.5565 46.2242 91.806 44.7507 91.806 39.5527C91.806 34.3543 91.5211 32.8812 85.2152 32.8812ZM61.3464 46.1831H70.7517V50.2762H61.3464C58.2472 50.2762 51.1578 50.2762 51.1578 39.5116C51.1578 28.7471 58.3184 28.7471 61.3464 28.7471C64.6952 28.7471 71.7133 28.7471 71.6779 39.5527V40.944H55.3257C55.5752 44.7913 56.5726 46.1831 61.3464 46.1831ZM67.3671 36.8514C67.1177 34.2725 65.9778 32.8812 61.3464 32.8812C57.0003 32.8812 55.9313 34.1497 55.5752 36.8514H67.3671ZM38.012 46.1831H47.4172V50.2762H38.012C34.9127 50.2762 27.823 50.2762 27.823 39.5116C27.823 28.7471 34.9839 28.7471 38.012 28.7471C41.3607 28.7471 48.3788 28.7471 48.3434 39.5527V40.944H31.9913C32.2408 44.7913 33.2382 46.1831 38.012 46.1831ZM43.9615 36.8514C43.7474 34.2725 42.6076 32.8812 37.9762 32.8812C33.6301 32.8812 32.5614 34.1497 32.205 36.8514H43.9615ZM14.2145 49.8258L14.1787 49.7034L0 17.5732H4.59559L4.63139 17.7372L16.0669 44.2186L27.5739 17.5732H32.1337L17.9193 49.8258H14.2145Z" fill="#1B2A41"/>
</svg>
