<svg width="200" height="201" viewBox="0 0 200 201" fill="none" xmlns="http://www.w3.org/2000/svg">
<g clip-path="url(#clip0_3482_13790)">
<path d="M13.6 68.7577C13.6 66.9904 12.1673 65.5577 10.4 65.5577V65.5577C8.63264 65.5577 7.19995 66.9904 7.19995 68.7577V68.7577C7.19995 70.525 8.63264 71.9577 10.4 71.9577V71.9577C12.1673 71.9577 13.6 70.525 13.6 68.7577V68.7577Z" fill="white"/>
<path d="M13.6 97.5577H10.3999C8.63264 97.5577 7.19995 98.9904 7.19995 100.758V100.758C7.19995 102.525 8.63264 103.958 10.4 103.958V103.958C12.1673 103.958 13.6 102.525 13.6 100.758V97.5577Z" fill="white"/>
<path d="M13.6 113.558C13.6 111.79 12.1673 110.358 10.4 110.358V110.358C8.63264 110.358 7.19995 111.79 7.19995 113.558V113.558C7.19995 115.325 8.63264 116.758 10.4 116.758H13.6V113.558Z" fill="white"/>
<path d="M13.6 129.558V129.558C13.2285 129.558 13.0428 129.558 12.8859 129.566C9.81923 129.727 7.36889 132.177 7.20817 135.244C7.19995 135.401 7.19995 135.586 7.19995 135.958V135.958H13.6V129.558Z" fill="white"/>
<path d="M13.6 135.958H7.19995V139.158C7.19995 140.925 8.63264 142.358 10.4 142.358V142.358C12.1673 142.358 13.6 140.925 13.6 139.158V135.958Z" fill="white"/>
<path d="M20 78.3577H16.7999C15.0326 78.3577 13.6 79.7904 13.6 81.5577V81.5577C13.6 83.325 15.0326 84.7577 16.8 84.7577H20V78.3577Z" fill="white"/>
<path d="M20 91.1577V91.1577C19.6285 91.1577 19.4428 91.1577 19.2859 91.1659C16.2192 91.3266 13.7689 93.777 13.6082 96.8437C13.6 97.0006 13.6 97.1863 13.6 97.5577V97.5577H20V91.1577Z" fill="white"/>
<path d="M20 116.758H13.6V123.158H20V116.758Z" fill="white"/>
<path d="M20 123.158H13.6V129.558H20V123.158Z" fill="white"/>
<path d="M20 129.558H13.6V135.958V135.958C13.9714 135.958 14.1571 135.958 14.314 135.949C17.3807 135.789 19.831 133.338 19.9917 130.272C20 130.115 20 129.929 20 129.558V129.558Z" fill="white"/>
<path d="M26.4 62.3577C26.4 60.5904 24.9673 59.1577 23.2 59.1577V59.1577C21.4326 59.1577 20 60.5904 20 62.3577V62.3577C20 64.125 21.4326 65.5577 23.2 65.5577H26.4V62.3577Z" fill="white"/>
<path d="M26.4 78.3577H20V84.7577H26.4V78.3577Z" fill="white"/>
<path d="M26.4 84.7577H20V91.1577H26.4V84.7577Z" fill="white"/>
<path d="M26.4 91.1577H20V97.5577H26.4V91.1577Z" fill="white"/>
<path d="M26.4 97.5577H20V103.958H26.4V97.5577Z" fill="white"/>
<path d="M26.4 103.958H20V103.958C20 104.329 20 104.515 20.0082 104.672C20.1689 107.738 22.6192 110.189 25.6859 110.349C25.8428 110.358 26.0285 110.358 26.4 110.358V110.358V103.958Z" fill="white"/>
<path d="M26.4 116.758H20V123.158H26.4V116.758Z" fill="white"/>
<path d="M32.7999 65.5577H26.4V71.9577H32.7999V65.5577Z" fill="white"/>
<path d="M32.7999 71.9577H26.4V78.3577H32.7999V71.9577Z" fill="white"/>
<path d="M32.7999 103.958H26.4V110.358H32.7999V103.958Z" fill="white"/>
<path d="M32.7999 110.358H26.4V116.758H32.7999V110.358Z" fill="white"/>
<path d="M32.7999 123.158H26.4V123.158C26.4 123.529 26.4 123.715 26.4082 123.872C26.5689 126.938 29.0192 129.389 32.0859 129.549C32.2428 129.558 32.4285 129.558 32.7999 129.558V129.558V123.158Z" fill="white"/>
<path d="M32.7999 139.158C32.7999 137.39 31.3673 135.958 29.5999 135.958V135.958C27.8326 135.958 26.4 137.39 26.4 139.158V139.158C26.4 140.925 27.8326 142.358 29.5999 142.358V142.358C31.3673 142.358 32.7999 140.925 32.7999 139.158V139.158Z" fill="white"/>
<path d="M39.1999 59.1577V59.1577C38.8285 59.1577 38.6428 59.1577 38.4859 59.1659C35.4192 59.3266 32.9689 61.777 32.8082 64.8437C32.7999 65.0006 32.7999 65.1863 32.7999 65.5577V65.5577H39.1999V59.1577Z" fill="white"/>
<path d="M39.1999 71.9577H32.7999V78.3577H39.1999V71.9577Z" fill="white"/>
<path d="M39.1999 78.3577H32.7999V84.7577H39.1999V78.3577Z" fill="white"/>
<path d="M39.1999 84.7577H32.7999V91.1577H39.1999V84.7577Z" fill="white"/>
<path d="M39.1999 91.1577H32.7999V97.5577H39.1999V91.1577Z" fill="white"/>
<path d="M39.1999 97.5577H32.7999V103.958V103.958C33.1714 103.958 33.3571 103.958 33.514 103.949C36.5807 103.789 39.031 101.338 39.1917 98.2717C39.1999 98.1148 39.1999 97.9291 39.1999 97.5577V97.5577Z" fill="white"/>
<path d="M39.1999 116.758H32.7999V123.158H39.1999V116.758Z" fill="white"/>
<path d="M39.1999 123.158H32.7999V129.558H39.1999V123.158Z" fill="white"/>
<path d="M45.5999 59.1577H39.1999V65.5577H45.5999V59.1577Z" fill="white"/>
<path d="M45.5999 71.9577H39.1999V78.3577H45.5999V71.9577Z" fill="white"/>
<path d="M45.5999 91.1577H39.1999V97.5577H45.5999V91.1577Z" fill="white"/>
<path d="M45.5999 116.758H39.1999V123.158H45.5999V116.758Z" fill="white"/>
<path d="M45.5999 129.558H39.1999V129.558C39.1999 129.929 39.1999 130.115 39.2082 130.272C39.3689 133.338 41.8192 135.789 44.8859 135.949C45.0428 135.958 45.2285 135.958 45.5999 135.958V135.958V129.558Z" fill="white"/>
<path d="M51.9999 62.3577C51.9999 60.5904 50.5673 59.1577 48.7999 59.1577H45.5999V65.5577H48.7999C50.5673 65.5577 51.9999 64.125 51.9999 62.3577V62.3577Z" fill="white"/>
<path d="M51.9999 78.3577C51.9999 77.9863 51.9999 77.8006 51.9917 77.6437C51.831 74.577 49.3807 72.1266 46.314 71.9659C46.1571 71.9577 45.9714 71.9577 45.5999 71.9577V71.9577V78.3577H51.9999V78.3577Z" fill="white"/>
<path d="M51.9999 84.7577V84.7577C51.6285 84.7577 51.4428 84.7577 51.2859 84.7659C48.2192 84.9266 45.7689 87.377 45.6082 90.4437C45.5999 90.6006 45.5999 90.7863 45.5999 91.1577V91.1577V91.1577C45.9714 91.1577 46.1571 91.1577 46.314 91.1495C49.3807 90.9888 51.831 88.5384 51.9917 85.4717C51.9999 85.3148 51.9999 85.1291 51.9999 84.7577V84.7577Z" fill="white"/>
<path d="M51.9999 100.758C51.9999 98.9904 50.5673 97.5577 48.7999 97.5577H45.5999V100.758C45.5999 102.525 47.0326 103.958 48.7999 103.958V103.958C50.5673 103.958 51.9999 102.525 51.9999 100.758V100.758Z" fill="white"/>
<path d="M51.9999 113.558C51.9999 111.79 50.5673 110.358 48.7999 110.358V110.358C47.0326 110.358 45.5999 111.79 45.5999 113.558V116.758H48.7999C50.5673 116.758 51.9999 115.325 51.9999 113.558V113.558Z" fill="white"/>
<path d="M51.9999 129.558C51.9999 129.186 51.9999 129.001 51.9917 128.844C51.831 125.777 49.3807 123.327 46.314 123.166C46.1571 123.158 45.9714 123.158 45.5999 123.158V123.158V129.558H51.9999V129.558Z" fill="white"/>
<path d="M51.9999 135.958H45.5999V135.958C45.5999 136.329 45.5999 136.515 45.6082 136.672C45.7689 139.738 48.2192 142.189 51.2859 142.349C51.4428 142.358 51.6285 142.358 51.9999 142.358V142.358V135.958Z" fill="white"/>
<path d="M58.3999 78.3577H51.9999V84.7577H58.3999V78.3577Z" fill="white"/>
<path d="M58.3999 135.958C58.3999 135.586 58.3999 135.401 58.3917 135.244C58.231 132.177 55.7807 129.727 52.714 129.566C52.5571 129.558 52.3714 129.558 51.9999 129.558V129.558V135.958H58.3999V135.958Z" fill="white"/>
<path d="M58.3999 135.958H51.9999V142.358H58.3999V135.958Z" fill="white"/>
<path d="M64.7999 14.3577H61.5999C59.8326 14.3577 58.3999 15.7904 58.3999 17.5577V17.5577C58.3999 19.325 59.8326 20.7577 61.5999 20.7577H64.7999V14.3577Z" fill="white"/>
<path d="M64.7999 33.5577H61.5999C59.8326 33.5577 58.3999 34.9904 58.3999 36.7577V36.7577C58.3999 38.525 59.8326 39.9577 61.5999 39.9577V39.9577C63.3673 39.9577 64.7999 38.525 64.7999 36.7577V33.5577Z" fill="white"/>
<path d="M64.7999 49.5577C64.7999 47.7904 63.3673 46.3577 61.5999 46.3577V46.3577C59.8326 46.3577 58.3999 47.7904 58.3999 49.5577V49.5577C58.3999 51.325 59.8326 52.7577 61.5999 52.7577V52.7577C63.3673 52.7577 64.7999 51.325 64.7999 49.5577V49.5577Z" fill="white"/>
<path d="M64.7999 59.1577V59.1577C64.4285 59.1577 64.2428 59.1577 64.0859 59.1659C61.0192 59.3266 58.5689 61.777 58.4082 64.8437C58.3999 65.0006 58.3999 65.1863 58.3999 65.5577V65.5577H64.7999V59.1577Z" fill="white"/>
<path d="M64.7999 65.5577H58.3999V71.9577H64.7999V65.5577Z" fill="white"/>
<path d="M64.7999 71.9577H58.3999V78.3577H64.7999V71.9577Z" fill="white"/>
<path d="M64.7999 78.3577H58.3999V84.7577H64.7999V78.3577Z" fill="white"/>
<path d="M64.7999 97.5577V97.5577C64.4285 97.5577 64.2428 97.5577 64.0859 97.5659C61.0192 97.7266 58.5689 100.177 58.4082 103.244C58.3999 103.401 58.3999 103.586 58.3999 103.958V103.958H64.7999V97.5577Z" fill="white"/>
<path d="M64.7999 103.958H58.3999V103.958C58.3999 104.329 58.3999 104.515 58.4082 104.672C58.5689 107.738 61.0192 110.189 64.0859 110.349C64.2428 110.358 64.4285 110.358 64.7999 110.358V110.358V103.958Z" fill="white"/>
<path d="M64.7999 135.958H58.3999V142.358H64.7999V135.958Z" fill="white"/>
<path d="M64.7999 142.358H58.3999V142.358C58.3999 142.729 58.3999 142.915 58.4082 143.072C58.5689 146.138 61.0192 148.589 64.0859 148.749C64.2428 148.758 64.4285 148.758 64.7999 148.758V148.758V142.358Z" fill="white"/>
<path d="M64.7999 155.158V155.158C64.4285 155.158 64.2428 155.158 64.0859 155.166C61.0192 155.327 58.5689 157.777 58.4082 160.844C58.3999 161.001 58.3999 161.186 58.3999 161.558V161.558H64.7999V155.158Z" fill="white"/>
<path d="M64.7999 161.558H58.3999V161.558C58.3999 161.929 58.3999 162.115 58.4082 162.272C58.5689 165.338 61.0192 167.789 64.0859 167.949C64.2428 167.958 64.4285 167.958 64.7999 167.958V167.958V161.558Z" fill="white"/>
<path d="M64.7999 174.358H61.5999C59.8326 174.358 58.3999 175.79 58.3999 177.558V177.558C58.3999 179.325 59.8326 180.758 61.5999 180.758H64.7999V174.358Z" fill="white"/>
<path d="M71.1999 20.7577C71.1999 20.3863 71.1999 20.2006 71.1917 20.0437C71.031 16.977 68.5807 14.5266 65.514 14.3659C65.3571 14.3577 65.1714 14.3577 64.7999 14.3577V14.3577V20.7577H71.1999V20.7577Z" fill="white"/>
<path d="M71.1999 27.1577V27.1577C70.8285 27.1577 70.6428 27.1577 70.4859 27.1659C67.4192 27.3266 64.9689 29.777 64.8082 32.8437C64.7999 33.0006 64.7999 33.1863 64.7999 33.5577V33.5577H71.1999V27.1577Z" fill="white"/>
<path d="M71.1999 65.5577C71.1999 65.1863 71.1999 65.0006 71.1917 64.8437C71.031 61.777 68.5807 59.3266 65.514 59.1659C65.3571 59.1577 65.1714 59.1577 64.7999 59.1577V59.1577V65.5577H71.1999V65.5577Z" fill="white"/>
<path d="M71.1999 65.5577H64.7999V71.9577H71.1999V65.5577Z" fill="white"/>
<path d="M71.1999 78.3577H64.7999V84.7577H71.1999V78.3577Z" fill="white"/>
<path d="M71.1999 84.7577H64.7999V91.1577H71.1999V84.7577Z" fill="white"/>
<path d="M71.1999 91.1577H64.7999V97.5577H71.1999V91.1577Z" fill="white"/>
<path d="M71.1999 97.5577H64.7999V103.958H71.1999V97.5577Z" fill="white"/>
<path d="M71.1999 103.958H64.7999V110.358H71.1999V103.958Z" fill="white"/>
<path d="M71.1999 116.758V116.758C70.8285 116.758 70.6428 116.758 70.4859 116.766C67.4192 116.927 64.9689 119.377 64.8082 122.444C64.7999 122.601 64.7999 122.786 64.7999 123.158V123.158H71.1999V116.758Z" fill="white"/>
<path d="M71.1999 123.158H64.7999V129.558H71.1999V123.158Z" fill="white"/>
<path d="M71.1999 129.558H64.7999V135.958H71.1999V129.558Z" fill="white"/>
<path d="M71.1999 148.758H64.7999V155.158V155.158C65.1714 155.158 65.3571 155.158 65.514 155.149C68.5807 154.989 71.031 152.538 71.1917 149.472C71.1999 149.315 71.1999 149.129 71.1999 148.758V148.758Z" fill="white"/>
<path d="M71.1999 164.758C71.1999 162.99 69.7673 161.558 67.9999 161.558H64.7999V167.958H67.9999C69.7673 167.958 71.1999 166.525 71.1999 164.758V164.758Z" fill="white"/>
<path d="M71.1999 180.758C71.1999 180.386 71.1999 180.201 71.1917 180.044C71.031 176.977 68.5807 174.527 65.514 174.366C65.3571 174.358 65.1714 174.358 64.7999 174.358V174.358V180.758H71.1999V180.758Z" fill="white"/>
<path d="M71.1999 180.758H64.7999V187.158H71.1999V180.758Z" fill="white"/>
<path d="M71.1999 187.158H64.7999V187.158C64.7999 187.529 64.7999 187.715 64.8082 187.872C64.9689 190.938 67.4192 193.389 70.4859 193.549C70.6428 193.558 70.8285 193.558 71.1999 193.558V193.558V187.158Z" fill="white"/>
<path d="M77.5999 23.9577C77.5999 22.1904 76.1673 20.7577 74.3999 20.7577H71.1999V27.1577H74.3999C76.1673 27.1577 77.5999 25.725 77.5999 23.9577V23.9577Z" fill="white"/>
<path d="M77.5999 39.9577C77.5999 39.5863 77.5999 39.4006 77.5917 39.2437C77.431 36.177 74.9807 33.7266 71.914 33.5659C71.7571 33.5577 71.5714 33.5577 71.1999 33.5577V33.5577V39.9577H77.5999V39.9577Z" fill="white"/>
<path d="M77.5999 39.9577H71.1999V46.3577H77.5999V39.9577Z" fill="white"/>
<path d="M77.5999 46.3577H71.1999V49.5577C71.1999 51.325 72.6326 52.7577 74.3999 52.7577V52.7577C76.1673 52.7577 77.5999 51.325 77.5999 49.5577V46.3577Z" fill="white"/>
<path d="M77.5999 71.9577H71.1999V78.3577H77.5999V71.9577Z" fill="white"/>
<path d="M77.5999 84.7577H71.1999V91.1577H77.5999V84.7577Z" fill="white"/>
<path d="M77.5999 91.1577H71.1999V97.5577V97.5577C71.5714 97.5577 71.7571 97.5577 71.914 97.5495C74.9807 97.3888 77.431 94.9384 77.5917 91.8717C77.5999 91.7148 77.5999 91.5291 77.5999 91.1577V91.1577Z" fill="white"/>
<path d="M77.5999 103.958H71.1999V110.358H77.5999V103.958Z" fill="white"/>
<path d="M77.5999 110.358H71.1999V116.758H77.5999V110.358Z" fill="white"/>
<path d="M77.5999 129.558H71.1999V135.958H77.5999V129.558Z" fill="white"/>
<path d="M77.5999 142.358V142.358C77.2285 142.358 77.0428 142.358 76.8859 142.366C73.8192 142.527 71.3689 144.977 71.2082 148.044C71.1999 148.201 71.1999 148.386 71.1999 148.758V148.758H77.5999V142.358Z" fill="white"/>
<path d="M77.5999 187.158H71.1999V193.558H77.5999V187.158Z" fill="white"/>
<path d="M83.9999 7.9577H80.7999C79.0326 7.9577 77.5999 9.39039 77.5999 11.1577V11.1577C77.5999 12.925 79.0326 14.3577 80.7999 14.3577H83.9999V7.9577Z" fill="white"/>
<path d="M83.9999 39.9577H77.5999V46.3577H83.9999V39.9577Z" fill="white"/>
<path d="M83.9999 65.5577V65.5577C83.6285 65.5577 83.4428 65.5577 83.2859 65.5659C80.2192 65.7266 77.7689 68.177 77.6082 71.2437C77.5999 71.4006 77.5999 71.5863 77.5999 71.9577V71.9577H83.9999V65.5577Z" fill="white"/>
<path d="M83.9999 71.9577H77.5999V78.3577H83.9999V71.9577Z" fill="white"/>
<path d="M83.9999 78.3577H77.5999V84.7577H83.9999V78.3577Z" fill="white"/>
<path d="M83.9999 84.7577H77.5999V91.1577H83.9999V84.7577Z" fill="white"/>
<path d="M83.9999 107.158C83.9999 105.39 82.5673 103.958 80.7999 103.958H77.5999V110.358H80.7999C82.5673 110.358 83.9999 108.925 83.9999 107.158V107.158Z" fill="white"/>
<path d="M83.9999 116.758H77.5999V123.158H83.9999V116.758Z" fill="white"/>
<path d="M83.9999 123.158H77.5999V129.558H83.9999V123.158Z" fill="white"/>
<path d="M83.9999 129.558H77.5999V135.958H83.9999V129.558Z" fill="white"/>
<path d="M83.9999 135.958H77.5999V142.358H83.9999V135.958Z" fill="white"/>
<path d="M83.9999 142.358H77.5999V148.758V148.758C77.9714 148.758 78.1571 148.758 78.314 148.749C81.3807 148.589 83.831 146.138 83.9917 143.072C83.9999 142.915 83.9999 142.729 83.9999 142.358V142.358Z" fill="white"/>
<path d="M83.9999 171.158C83.9999 169.39 82.5673 167.958 80.7999 167.958V167.958C79.0326 167.958 77.5999 169.39 77.5999 171.158V171.158C77.5999 172.925 79.0326 174.358 80.7999 174.358V174.358C82.5673 174.358 83.9999 172.925 83.9999 171.158V171.158Z" fill="white"/>
<path d="M83.9999 183.958C83.9999 182.19 82.5673 180.758 80.7999 180.758V180.758C79.0326 180.758 77.5999 182.19 77.5999 183.958V187.158H83.9999V183.958Z" fill="white"/>
<path d="M83.9999 187.158H77.5999V193.558H83.9999V187.158Z" fill="white"/>
<path d="M90.3999 11.1577C90.3999 9.39039 88.9673 7.9577 87.1999 7.9577H83.9999V14.3577H87.1999C88.9673 14.3577 90.3999 12.925 90.3999 11.1577V11.1577Z" fill="white"/>
<path d="M90.3999 27.1577V27.1577C90.0285 27.1577 89.8428 27.1577 89.6859 27.1659C86.6192 27.3266 84.1689 29.777 84.0082 32.8437C83.9999 33.0006 83.9999 33.1863 83.9999 33.5577V33.5577H90.3999V27.1577Z" fill="white"/>
<path d="M90.3999 33.5577H83.9999V39.9577H90.3999V33.5577Z" fill="white"/>
<path d="M90.3999 46.3577H83.9999V49.5577C83.9999 51.325 85.4326 52.7577 87.1999 52.7577V52.7577C88.9673 52.7577 90.3999 51.325 90.3999 49.5577V46.3577Z" fill="white"/>
<path d="M90.3999 62.3577C90.3999 60.5904 88.9673 59.1577 87.1999 59.1577V59.1577C85.4326 59.1577 83.9999 60.5904 83.9999 62.3577V65.5577H90.3999V62.3577Z" fill="white"/>
<path d="M90.3999 65.5577H83.9999V71.9577H90.3999V65.5577Z" fill="white"/>
<path d="M90.3999 91.1577H83.9999V91.1577C83.9999 91.5291 83.9999 91.7148 84.0082 91.8717C84.1689 94.9384 86.6192 97.3888 89.6859 97.5495C89.8428 97.5577 90.0285 97.5577 90.3999 97.5577V97.5577V91.1577Z" fill="white"/>
<path d="M90.3999 116.758H83.9999V123.158H90.3999V116.758Z" fill="white"/>
<path d="M90.3999 139.158C90.3999 137.39 88.9673 135.958 87.1999 135.958H83.9999V142.358H87.1999C88.9673 142.358 90.3999 140.925 90.3999 139.158V139.158Z" fill="white"/>
<path d="M90.3999 155.158H87.1999C85.4326 155.158 83.9999 156.59 83.9999 158.358V158.358C83.9999 160.125 85.4326 161.558 87.1999 161.558H90.3999V155.158Z" fill="white"/>
<path d="M90.3999 187.158H83.9999V193.558H90.3999V187.158Z" fill="white"/>
<path d="M96.7999 27.1577H90.3999V33.5577H96.7999V27.1577Z" fill="white"/>
<path d="M96.7999 33.5577H90.3999V39.9577H96.7999V33.5577Z" fill="white"/>
<path d="M96.7999 39.9577H90.3999V46.3577H96.7999V39.9577Z" fill="white"/>
<path d="M96.7999 65.5577H90.3999V71.9577H96.7999V65.5577Z" fill="white"/>
<path d="M96.7999 78.3577V78.3577C96.4285 78.3577 96.2428 78.3577 96.0859 78.3659C93.0192 78.5266 90.5689 80.977 90.4082 84.0437C90.3999 84.2006 90.3999 84.3863 90.3999 84.7577V84.7577H96.7999V78.3577Z" fill="white"/>
<path d="M96.7999 84.7577H90.3999V91.1577H96.7999V84.7577Z" fill="white"/>
<path d="M96.7999 91.1577H90.3999V97.5577H96.7999V91.1577Z" fill="white"/>
<path d="M96.7999 97.5577H90.3999V97.5577C90.3999 97.9291 90.3999 98.1148 90.4082 98.2717C90.5689 101.338 93.0192 103.789 96.0859 103.949C96.2428 103.958 96.4285 103.958 96.7999 103.958V103.958V97.5577Z" fill="white"/>
<path d="M96.7999 110.358V110.358C96.4285 110.358 96.2428 110.358 96.0859 110.366C93.0192 110.527 90.5689 112.977 90.4082 116.044C90.3999 116.201 90.3999 116.386 90.3999 116.758V116.758H96.7999V110.358Z" fill="white"/>
<path d="M96.7999 123.158H90.3999V126.358C90.3999 128.125 91.8326 129.558 93.5999 129.558V129.558C95.3673 129.558 96.7999 128.125 96.7999 126.358V123.158Z" fill="white"/>
<path d="M96.7999 151.958C96.7999 150.19 95.3673 148.758 93.5999 148.758V148.758C91.8326 148.758 90.3999 150.19 90.3999 151.958V155.158H93.5999C95.3673 155.158 96.7999 153.725 96.7999 151.958V151.958Z" fill="white"/>
<path d="M96.7999 161.558H90.3999V161.558C90.3999 161.929 90.3999 162.115 90.4082 162.272C90.5689 165.338 93.0192 167.789 96.0859 167.949C96.2428 167.958 96.4285 167.958 96.7999 167.958V167.958V161.558Z" fill="white"/>
<path d="M96.7999 177.558C96.7999 175.79 95.3673 174.358 93.5999 174.358V174.358C91.8326 174.358 90.3999 175.79 90.3999 177.558V180.758H96.7999V177.558Z" fill="white"/>
<path d="M96.7999 180.758H90.3999V187.158H96.7999V180.758Z" fill="white"/>
<path d="M96.7999 187.158H90.3999V193.558H96.7999V187.158Z" fill="white"/>
<path d="M103.2 7.9577H99.9999C98.2326 7.9577 96.7999 9.39039 96.7999 11.1577V11.1577C96.7999 12.925 98.2326 14.3577 99.9999 14.3577H103.2V7.9577Z" fill="white"/>
<path d="M103.2 20.7577V20.7577C102.829 20.7577 102.643 20.7577 102.486 20.7659C99.4192 20.9266 96.9689 23.377 96.8082 26.4437C96.7999 26.6006 96.7999 26.7863 96.7999 27.1577V27.1577H103.2V20.7577Z" fill="white"/>
<path d="M103.2 27.1577H96.7999V33.5577H103.2V27.1577Z" fill="white"/>
<path d="M103.2 33.5577H96.7999V39.9577H103.2V33.5577Z" fill="white"/>
<path d="M103.2 52.7577C103.2 52.3863 103.2 52.2006 103.192 52.0437C103.031 48.977 100.581 46.5266 97.514 46.3659C97.3571 46.3577 97.1714 46.3577 96.7999 46.3577V46.3577V46.3577C96.7999 46.7291 96.7999 46.9148 96.8082 47.0717C96.9689 50.1384 99.4192 52.5888 102.486 52.7495C102.643 52.7577 102.829 52.7577 103.2 52.7577V52.7577V52.7577Z" fill="white"/>
<path d="M103.2 59.1577V59.1577C102.829 59.1577 102.643 59.1577 102.486 59.1659C99.4192 59.3266 96.9689 61.777 96.8082 64.8437C96.7999 65.0006 96.7999 65.1863 96.7999 65.5577V65.5577H103.2V59.1577Z" fill="white"/>
<path d="M103.2 65.5577H96.7999V71.9577H103.2V65.5577Z" fill="white"/>
<path d="M103.2 71.9577H96.7999V78.3577H103.2V71.9577Z" fill="white"/>
<path d="M103.2 78.3577H96.7999V84.7577H103.2V78.3577Z" fill="white"/>
<path d="M103.2 97.5577H96.7999V103.958H103.2V97.5577Z" fill="white"/>
<path d="M103.2 110.358H96.7999V116.758H103.2V110.358Z" fill="white"/>
<path d="M103.2 116.758H96.7999V123.158H103.2V116.758Z" fill="white"/>
<path d="M103.2 135.958H99.9999C98.2326 135.958 96.7999 137.39 96.7999 139.158V139.158C96.7999 140.925 98.2326 142.358 99.9999 142.358H103.2V135.958Z" fill="white"/>
<path d="M103.2 161.558H96.7999V167.958H103.2V161.558Z" fill="white"/>
<path d="M103.2 187.158H96.7999V193.558V193.558C97.1714 193.558 97.3571 193.558 97.514 193.549C100.581 193.389 103.031 190.938 103.192 187.872C103.2 187.715 103.2 187.529 103.2 187.158V187.158Z" fill="white"/>
<path d="M109.6 7.9577H103.2V14.3577H109.6V7.9577Z" fill="white"/>
<path d="M109.6 20.7577H103.2V27.1577H109.6V20.7577Z" fill="white"/>
<path d="M109.6 27.1577H103.2V33.5577H109.6V27.1577Z" fill="white"/>
<path d="M109.6 33.5577H103.2V39.9577H109.6V33.5577Z" fill="white"/>
<path d="M109.6 52.7577H103.2V59.1577H109.6V52.7577Z" fill="white"/>
<path d="M109.6 65.5577H103.2V71.9577H109.6V65.5577Z" fill="white"/>
<path d="M109.6 71.9577H103.2V78.3577H109.6V71.9577Z" fill="white"/>
<path d="M109.6 78.3577H103.2V84.7577H109.6V78.3577Z" fill="white"/>
<path d="M109.6 97.5577H103.2V103.958H109.6V97.5577Z" fill="white"/>
<path d="M109.6 110.358H103.2V116.758H109.6V110.358Z" fill="white"/>
<path d="M109.6 116.758H103.2V123.158H109.6V116.758Z" fill="white"/>
<path d="M109.6 123.158H103.2V129.558H109.6V123.158Z" fill="white"/>
<path d="M109.6 129.558H103.2V135.958H109.6V129.558Z" fill="white"/>
<path d="M109.6 135.958H103.2V142.358V142.358C103.571 142.358 103.757 142.358 103.914 142.349C106.981 142.189 109.431 139.738 109.592 136.672C109.6 136.515 109.6 136.329 109.6 135.958V135.958Z" fill="white"/>
<path d="M109.6 158.358C109.6 156.59 108.167 155.158 106.4 155.158V155.158C104.633 155.158 103.2 156.59 103.2 158.358V161.558H106.4C108.167 161.558 109.6 160.125 109.6 158.358V158.358Z" fill="white"/>
<path d="M109.6 171.158C109.6 169.39 108.167 167.958 106.4 167.958H103.2V171.158C103.2 172.925 104.633 174.358 106.4 174.358V174.358C108.167 174.358 109.6 172.925 109.6 171.158V171.158Z" fill="white"/>
<path d="M109.6 180.758V180.758C109.229 180.758 109.043 180.758 108.886 180.766C105.819 180.927 103.369 183.377 103.208 186.444C103.2 186.601 103.2 186.786 103.2 187.158V187.158H109.6V180.758Z" fill="white"/>
<path d="M116 7.9577H109.6V14.3577H116V7.9577Z" fill="white"/>
<path d="M116 14.3577H109.6V20.7577V20.7577C109.971 20.7577 110.157 20.7577 110.314 20.7495C113.381 20.5888 115.831 18.1384 115.992 15.0717C116 14.9148 116 14.7291 116 14.3577V14.3577Z" fill="white"/>
<path d="M116 33.5577H109.6V39.9577H116V33.5577Z" fill="white"/>
<path d="M116 39.9577H109.6V46.3577H116V39.9577Z" fill="white"/>
<path d="M116 46.3577H109.6V52.7577V52.7577C109.971 52.7577 110.157 52.7577 110.314 52.7495C113.381 52.5888 115.831 50.1384 115.992 47.0717C116 46.9148 116 46.7291 116 46.3577V46.3577Z" fill="white"/>
<path d="M116 65.5577C116 65.1863 116 65.0006 115.992 64.8437C115.831 61.777 113.381 59.3266 110.314 59.1659C110.157 59.1577 109.971 59.1577 109.6 59.1577V59.1577V65.5577H116V65.5577Z" fill="white"/>
<path d="M116 71.9577H109.6V78.3577H116V71.9577Z" fill="white"/>
<path d="M116 78.3577H109.6V84.7577H116V78.3577Z" fill="white"/>
<path d="M116 91.1577V91.1577C115.629 91.1577 115.443 91.1577 115.286 91.1659C112.219 91.3266 109.769 93.777 109.608 96.8437C109.6 97.0006 109.6 97.1863 109.6 97.5577V97.5577H116V91.1577Z" fill="white"/>
<path d="M116 110.358C116 109.986 116 109.801 115.992 109.644C115.831 106.577 113.381 104.127 110.314 103.966C110.157 103.958 109.971 103.958 109.6 103.958V103.958V110.358H116V110.358Z" fill="white"/>
<path d="M116 129.558C116 129.186 116 129.001 115.992 128.844C115.831 125.777 113.381 123.327 110.314 123.166C110.157 123.158 109.971 123.158 109.6 123.158V123.158V129.558H116V129.558Z" fill="white"/>
<path d="M116 129.558H109.6V135.958H116V129.558Z" fill="white"/>
<path d="M116 180.758H109.6V187.158H116V180.758Z" fill="white"/>
<path d="M116 187.158H109.6V187.158C109.6 187.529 109.6 187.715 109.608 187.872C109.769 190.938 112.219 193.389 115.286 193.549C115.443 193.558 115.629 193.558 116 193.558V193.558V187.158Z" fill="white"/>
<path d="M122.4 11.1577C122.4 9.39039 120.967 7.9577 119.2 7.9577H116V14.3577H119.2C120.967 14.3577 122.4 12.925 122.4 11.1577V11.1577Z" fill="white"/>
<path d="M122.4 33.5577H116V39.9577H122.4V33.5577Z" fill="white"/>
<path d="M122.4 39.9577H116V46.3577H122.4V39.9577Z" fill="white"/>
<path d="M122.4 71.9577C122.4 71.5863 122.4 71.4006 122.392 71.2437C122.231 68.177 119.781 65.7266 116.714 65.5659C116.557 65.5577 116.371 65.5577 116 65.5577V65.5577V71.9577H122.4V71.9577Z" fill="white"/>
<path d="M122.4 71.9577H116V78.3577H122.4V71.9577Z" fill="white"/>
<path d="M122.4 78.3577H116V84.7577H122.4V78.3577Z" fill="white"/>
<path d="M122.4 84.7577H116V91.1577H122.4V84.7577Z" fill="white"/>
<path d="M122.4 91.1577H116V97.5577H122.4V91.1577Z" fill="white"/>
<path d="M122.4 110.358H116V110.358C116 110.729 116 110.915 116.008 111.072C116.169 114.138 118.619 116.589 121.686 116.749C121.843 116.758 122.029 116.758 122.4 116.758V116.758V110.358Z" fill="white"/>
<path d="M122.4 135.958C122.4 135.586 122.4 135.401 122.392 135.244C122.231 132.177 119.781 129.727 116.714 129.566C116.557 129.558 116.371 129.558 116 129.558V129.558V135.958H122.4V135.958Z" fill="white"/>
<path d="M122.4 135.958H116V135.958C116 136.329 116 136.515 116.008 136.672C116.169 139.738 118.619 142.189 121.686 142.349C121.843 142.358 122.029 142.358 122.4 142.358V142.358V135.958Z" fill="white"/>
<path d="M122.4 155.158V155.158C122.029 155.158 121.843 155.158 121.686 155.166C118.619 155.327 116.169 157.777 116.008 160.844C116 161.001 116 161.186 116 161.558V161.558H122.4V155.158Z" fill="white"/>
<path d="M122.4 161.558H116V161.558C116 161.929 116 162.115 116.008 162.272C116.169 165.338 118.619 167.789 121.686 167.949C121.843 167.958 122.029 167.958 122.4 167.958V167.958V161.558Z" fill="white"/>
<path d="M122.4 174.358V174.358C122.029 174.358 121.843 174.358 121.686 174.366C118.619 174.527 116.169 176.977 116.008 180.044C116 180.201 116 180.386 116 180.758V180.758V180.758C116.371 180.758 116.557 180.758 116.714 180.749C119.781 180.589 122.231 178.138 122.392 175.072C122.4 174.915 122.4 174.729 122.4 174.358V174.358Z" fill="white"/>
<path d="M122.4 187.158H116V193.558H122.4V187.158Z" fill="white"/>
<path d="M128.8 23.9577C128.8 22.1904 127.367 20.7577 125.6 20.7577V20.7577C123.833 20.7577 122.4 22.1904 122.4 23.9577V27.1577H128.8V23.9577Z" fill="white"/>
<path d="M128.8 27.1577H122.4V33.5577H128.8V27.1577Z" fill="white"/>
<path d="M128.8 39.9577H122.4V46.3577H128.8V39.9577Z" fill="white"/>
<path d="M128.8 46.3577H122.4V52.7577H128.8V46.3577Z" fill="white"/>
<path d="M128.8 52.7577H122.4V52.7577C122.4 53.1291 122.4 53.3148 122.408 53.4717C122.569 56.5384 125.019 58.9888 128.086 59.1495C128.243 59.1577 128.429 59.1577 128.8 59.1577V59.1577V52.7577Z" fill="white"/>
<path d="M128.8 71.9577H122.4V78.3577H128.8V71.9577Z" fill="white"/>
<path d="M128.8 78.3577H122.4V84.7577H128.8V78.3577Z" fill="white"/>
<path d="M128.8 84.7577H122.4V91.1577H128.8V84.7577Z" fill="white"/>
<path d="M128.8 97.5577H122.4V100.758C122.4 102.525 123.833 103.958 125.6 103.958V103.958C127.367 103.958 128.8 102.525 128.8 100.758V97.5577Z" fill="white"/>
<path d="M128.8 116.758C128.8 116.386 128.8 116.201 128.792 116.044C128.631 112.977 126.181 110.527 123.114 110.366C122.957 110.358 122.771 110.358 122.4 110.358V110.358V116.758H128.8V116.758Z" fill="white"/>
<path d="M128.8 116.758H122.4V116.758C122.4 117.129 122.4 117.315 122.408 117.472C122.569 120.538 125.019 122.989 128.086 123.149C128.243 123.158 128.429 123.158 128.8 123.158V123.158V116.758Z" fill="white"/>
<path d="M128.8 139.158C128.8 137.39 127.367 135.958 125.6 135.958H122.4V142.358H125.6C127.367 142.358 128.8 140.925 128.8 139.158V139.158Z" fill="white"/>
<path d="M128.8 155.158H122.4V161.558H128.8V155.158Z" fill="white"/>
<path d="M128.8 161.558H122.4V167.958H128.8V161.558Z" fill="white"/>
<path d="M128.8 167.958H122.4V174.358V174.358C122.771 174.358 122.957 174.358 123.114 174.349C126.181 174.189 128.631 171.738 128.792 168.672C128.8 168.515 128.8 168.329 128.8 167.958V167.958Z" fill="white"/>
<path d="M128.8 190.358C128.8 188.59 127.367 187.158 125.6 187.158H122.4V193.558H125.6C127.367 193.558 128.8 192.125 128.8 190.358V190.358Z" fill="white"/>
<path d="M135.2 27.1577H128.8V33.5577H135.2V27.1577Z" fill="white"/>
<path d="M135.2 33.5577H128.8V39.9577H135.2V33.5577Z" fill="white"/>
<path d="M135.2 39.9577H128.8V46.3577H135.2V39.9577Z" fill="white"/>
<path d="M135.2 59.1577H128.8V65.5577H135.2V59.1577Z" fill="white"/>
<path d="M135.2 65.5577H128.8V71.9577H135.2V65.5577Z" fill="white"/>
<path d="M135.2 71.9577H128.8V78.3577H135.2V71.9577Z" fill="white"/>
<path d="M135.2 78.3577H128.8V84.7577H135.2V78.3577Z" fill="white"/>
<path d="M135.2 91.1577H128.8V97.5577H135.2V91.1577Z" fill="white"/>
<path d="M135.2 116.758H128.8V123.158H135.2V116.758Z" fill="white"/>
<path d="M135.2 123.158H128.8V123.158C128.8 123.529 128.8 123.715 128.808 123.872C128.969 126.938 131.419 129.389 134.486 129.549C134.643 129.558 134.829 129.558 135.2 129.558V129.558V123.158Z" fill="white"/>
<path d="M135.2 155.158H128.8V161.558H135.2V155.158Z" fill="white"/>
<path d="M141.6 11.1577C141.6 9.39039 140.167 7.9577 138.4 7.9577V7.9577C136.633 7.9577 135.2 9.39039 135.2 11.1577V14.3577H141.6V11.1577Z" fill="white"/>
<path d="M141.6 14.3577H135.2V17.5577C135.2 19.325 136.633 20.7577 138.4 20.7577V20.7577C140.167 20.7577 141.6 19.325 141.6 17.5577V14.3577Z" fill="white"/>
<path d="M141.6 30.3577C141.6 28.5904 140.167 27.1577 138.4 27.1577H135.2V33.5577H138.4C140.167 33.5577 141.6 32.125 141.6 30.3577V30.3577Z" fill="white"/>
<path d="M141.6 49.5577C141.6 47.7904 140.167 46.3577 138.4 46.3577H135.2V49.5577C135.2 51.325 136.633 52.7577 138.4 52.7577V52.7577C140.167 52.7577 141.6 51.325 141.6 49.5577V49.5577Z" fill="white"/>
<path d="M141.6 59.1577H135.2V65.5577H141.6V59.1577Z" fill="white"/>
<path d="M141.6 65.5577H135.2V71.9577V71.9577C135.571 71.9577 135.757 71.9577 135.914 71.9495C138.981 71.7888 141.431 69.3384 141.592 66.2717C141.6 66.1148 141.6 65.9291 141.6 65.5577V65.5577Z" fill="white"/>
<path d="M141.6 78.3577H135.2V84.7577H141.6V78.3577Z" fill="white"/>
<path d="M141.6 84.7577H135.2V91.1577H141.6V84.7577Z" fill="white"/>
<path d="M141.6 91.1577H135.2V97.5577H141.6V91.1577Z" fill="white"/>
<path d="M141.6 97.5577H135.2V103.958H141.6V97.5577Z" fill="white"/>
<path d="M141.6 103.958H135.2V103.958C135.2 104.329 135.2 104.515 135.208 104.672C135.369 107.738 137.819 110.189 140.886 110.349C141.043 110.358 141.229 110.358 141.6 110.358V110.358V103.958Z" fill="white"/>
<path d="M141.6 116.758H135.2V123.158H141.6V116.758Z" fill="white"/>
<path d="M141.6 129.558H135.2V135.958H141.6V129.558Z" fill="white"/>
<path d="M141.6 135.958H135.2V142.358H141.6V135.958Z" fill="white"/>
<path d="M141.6 142.358H135.2V148.758H141.6V142.358Z" fill="white"/>
<path d="M141.6 148.758H135.2V155.158H141.6V148.758Z" fill="white"/>
<path d="M141.6 155.158H135.2V161.558H141.6V155.158Z" fill="white"/>
<path d="M141.6 161.558H135.2V167.958H141.6V161.558Z" fill="white"/>
<path d="M141.6 167.958H135.2V167.958C135.2 168.329 135.2 168.515 135.208 168.672C135.369 171.738 137.819 174.189 140.886 174.349C141.043 174.358 141.229 174.358 141.6 174.358V174.358V167.958Z" fill="white"/>
<path d="M141.6 180.758H138.4C136.633 180.758 135.2 182.19 135.2 183.958V183.958C135.2 185.725 136.633 187.158 138.4 187.158H141.6V180.758Z" fill="white"/>
<path d="M148 62.3577C148 60.5904 146.567 59.1577 144.8 59.1577H141.6V65.5577H144.8C146.567 65.5577 148 64.125 148 62.3577V62.3577Z" fill="white"/>
<path d="M148 78.3577H141.6V84.7577H148V78.3577Z" fill="white"/>
<path d="M148 84.7577H141.6V91.1577H148V84.7577Z" fill="white"/>
<path d="M148 103.958H141.6V110.358H148V103.958Z" fill="white"/>
<path d="M148 110.358H141.6V116.758H148V110.358Z" fill="white"/>
<path d="M148 116.758H141.6V123.158H148V116.758Z" fill="white"/>
<path d="M148 123.158H141.6V129.558H148V123.158Z" fill="white"/>
<path d="M148 135.958H141.6V142.358H148V135.958Z" fill="white"/>
<path d="M148 161.558H141.6V167.958H148V161.558Z" fill="white"/>
<path d="M148 177.558C148 175.79 146.567 174.358 144.8 174.358H141.6V180.758H144.8C146.567 180.758 148 179.325 148 177.558V177.558Z" fill="white"/>
<path d="M148 187.158H141.6V187.158C141.6 187.529 141.6 187.715 141.608 187.872C141.769 190.938 144.219 193.389 147.286 193.549C147.443 193.558 147.629 193.558 148 193.558V193.558V187.158Z" fill="white"/>
<path d="M154.4 71.9577V71.9577C154.029 71.9577 153.843 71.9577 153.686 71.9659C150.619 72.1266 148.169 74.577 148.008 77.6437C148 77.8006 148 77.9863 148 78.3577V78.3577H154.4V71.9577Z" fill="white"/>
<path d="M154.4 78.3577H148V84.7577H154.4V78.3577Z" fill="white"/>
<path d="M154.4 84.7577H148V91.1577H154.4V84.7577Z" fill="white"/>
<path d="M154.4 91.1577H148V97.5577H154.4V91.1577Z" fill="white"/>
<path d="M154.4 97.5577H148V103.958H154.4V97.5577Z" fill="white"/>
<path d="M154.4 103.958H148V110.358H154.4V103.958Z" fill="white"/>
<path d="M154.4 110.358H148V116.758V116.758C148.371 116.758 148.557 116.758 148.714 116.749C151.781 116.589 154.231 114.138 154.392 111.072C154.4 110.915 154.4 110.729 154.4 110.358V110.358Z" fill="white"/>
<path d="M154.4 129.558C154.4 129.186 154.4 129.001 154.392 128.844C154.231 125.777 151.781 123.327 148.714 123.166C148.557 123.158 148.371 123.158 148 123.158V123.158V129.558H154.4V129.558Z" fill="white"/>
<path d="M154.4 129.558H148V135.958H154.4V129.558Z" fill="white"/>
<path d="M154.4 135.958H148V142.358H154.4V135.958Z" fill="white"/>
<path d="M154.4 151.958C154.4 150.19 152.967 148.758 151.2 148.758V148.758C149.433 148.758 148 150.19 148 151.958V151.958C148 153.725 149.433 155.158 151.2 155.158V155.158C152.967 155.158 154.4 153.725 154.4 151.958V151.958Z" fill="white"/>
<path d="M154.4 161.558H148V167.958H154.4V161.558Z" fill="white"/>
<path d="M154.4 187.158H148V193.558H154.4V187.158Z" fill="white"/>
<path d="M160.8 65.5577V65.5577C160.429 65.5577 160.243 65.5577 160.086 65.5659C157.019 65.7266 154.569 68.177 154.408 71.2437C154.4 71.4006 154.4 71.5863 154.4 71.9577V71.9577H160.8V65.5577Z" fill="white"/>
<path d="M160.8 71.9577H154.4V78.3577H160.8V71.9577Z" fill="white"/>
<path d="M160.8 78.3577H154.4V84.7577H160.8V78.3577Z" fill="white"/>
<path d="M160.8 84.7577H154.4V91.1577H160.8V84.7577Z" fill="white"/>
<path d="M160.8 91.1577H154.4V97.5577V97.5577C154.771 97.5577 154.957 97.5577 155.114 97.5495C158.181 97.3888 160.631 94.9384 160.792 91.8717C160.8 91.7148 160.8 91.5291 160.8 91.1577V91.1577Z" fill="white"/>
<path d="M160.8 129.558H154.4V135.958H160.8V129.558Z" fill="white"/>
<path d="M160.8 135.958H154.4V142.358H160.8V135.958Z" fill="white"/>
<path d="M160.8 161.558H154.4V167.958H160.8V161.558Z" fill="white"/>
<path d="M160.8 167.958H154.4V171.158C154.4 172.925 155.833 174.358 157.6 174.358V174.358C159.367 174.358 160.8 172.925 160.8 171.158V167.958Z" fill="white"/>
<path d="M160.8 187.158H154.4V193.558V193.558C154.771 193.558 154.957 193.558 155.114 193.549C158.181 193.389 160.631 190.938 160.792 187.872C160.8 187.715 160.8 187.529 160.8 187.158V187.158Z" fill="white"/>
<path d="M167.2 62.3577C167.2 60.5904 165.767 59.1577 164 59.1577V59.1577C162.233 59.1577 160.8 60.5904 160.8 62.3577V65.5577H167.2V62.3577Z" fill="white"/>
<path d="M167.2 65.5577H160.8V71.9577H167.2V65.5577Z" fill="white"/>
<path d="M167.2 78.3577H160.8V84.7577H167.2V78.3577Z" fill="white"/>
<path d="M167.2 113.558C167.2 111.79 165.767 110.358 164 110.358V110.358C162.233 110.358 160.8 111.79 160.8 113.558V113.558C160.8 115.325 162.233 116.758 164 116.758V116.758C165.767 116.758 167.2 115.325 167.2 113.558V113.558Z" fill="white"/>
<path d="M167.2 129.558H160.8V135.958H167.2V129.558Z" fill="white"/>
<path d="M167.2 135.958H160.8V142.358H167.2V135.958Z" fill="white"/>
<path d="M167.2 142.358H160.8V148.758H167.2V142.358Z" fill="white"/>
<path d="M167.2 148.758H160.8V155.158H167.2V148.758Z" fill="white"/>
<path d="M167.2 155.158H160.8V161.558H167.2V155.158Z" fill="white"/>
<path d="M167.2 161.558H160.8V167.958V167.958C161.171 167.958 161.357 167.958 161.514 167.949C164.581 167.789 167.031 165.338 167.192 162.272C167.2 162.115 167.2 161.929 167.2 161.558V161.558Z" fill="white"/>
<path d="M167.2 180.758V180.758C166.829 180.758 166.643 180.758 166.486 180.766C163.419 180.927 160.969 183.377 160.808 186.444C160.8 186.601 160.8 186.786 160.8 187.158V187.158H167.2V180.758Z" fill="white"/>
<path d="M173.6 71.9577H167.2V78.3577H173.6V71.9577Z" fill="white"/>
<path d="M173.6 78.3577H167.2V84.7577H173.6V78.3577Z" fill="white"/>
<path d="M173.6 123.158V123.158C173.229 123.158 173.043 123.158 172.886 123.166C169.819 123.327 167.369 125.777 167.208 128.844C167.2 129.001 167.2 129.186 167.2 129.558V129.558H173.6V123.158Z" fill="white"/>
<path d="M173.6 158.358C173.6 156.59 172.167 155.158 170.4 155.158H167.2V161.558H170.4C172.167 161.558 173.6 160.125 173.6 158.358V158.358Z" fill="white"/>
<path d="M173.6 180.758H167.2V187.158H173.6V180.758Z" fill="white"/>
<path d="M180 65.5577V65.5577C179.629 65.5577 179.443 65.5577 179.286 65.5659C176.219 65.7266 173.769 68.177 173.608 71.2437C173.6 71.4006 173.6 71.5863 173.6 71.9577V71.9577H180V65.5577Z" fill="white"/>
<path d="M180 71.9577H173.6V78.3577H180V71.9577Z" fill="white"/>
<path d="M180 84.7577H173.6V84.7577C173.6 85.1291 173.6 85.3148 173.608 85.4717C173.769 88.5384 176.219 90.9888 179.286 91.1495C179.443 91.1577 179.629 91.1577 180 91.1577V91.1577V84.7577Z" fill="white"/>
<path d="M180 103.958H176.8C175.033 103.958 173.6 105.39 173.6 107.158V107.158C173.6 108.925 175.033 110.358 176.8 110.358H180V103.958Z" fill="white"/>
<path d="M180 116.758V116.758C179.629 116.758 179.443 116.758 179.286 116.766C176.219 116.927 173.769 119.377 173.608 122.444C173.6 122.601 173.6 122.786 173.6 123.158V123.158H180V116.758Z" fill="white"/>
<path d="M180 123.158H173.6V129.558H180V123.158Z" fill="white"/>
<path d="M180 129.558H173.6V135.958H180V129.558Z" fill="white"/>
<path d="M180 135.958H173.6V142.358H180V135.958Z" fill="white"/>
<path d="M180 142.358H173.6V145.558C173.6 147.325 175.033 148.758 176.8 148.758V148.758C178.567 148.758 180 147.325 180 145.558V142.358Z" fill="white"/>
<path d="M180 174.358V174.358C179.629 174.358 179.443 174.358 179.286 174.366C176.219 174.527 173.769 176.977 173.608 180.044C173.6 180.201 173.6 180.386 173.6 180.758V180.758H180V174.358Z" fill="white"/>
<path d="M180 180.758H173.6V187.158H180V180.758Z" fill="white"/>
<path d="M180 187.158H173.6V187.158C173.6 187.529 173.6 187.715 173.608 187.872C173.769 190.938 176.219 193.389 179.286 193.549C179.443 193.558 179.629 193.558 180 193.558V193.558V187.158Z" fill="white"/>
<path d="M186.4 62.3577C186.4 60.5904 184.967 59.1577 183.2 59.1577V59.1577C181.433 59.1577 180 60.5904 180 62.3577V65.5577H186.4V62.3577Z" fill="white"/>
<path d="M186.4 65.5577H180V71.9577H186.4V65.5577Z" fill="white"/>
<path d="M186.4 78.3577H180V84.7577H186.4V78.3577Z" fill="white"/>
<path d="M186.4 84.7577H180V91.1577H186.4V84.7577Z" fill="white"/>
<path d="M186.4 91.1577H180V91.1577C180 91.5291 180 91.7148 180.008 91.8717C180.169 94.9384 182.619 97.3888 185.686 97.5495C185.843 97.5577 186.029 97.5577 186.4 97.5577V97.5577V91.1577Z" fill="white"/>
<path d="M186.4 110.358C186.4 109.986 186.4 109.801 186.392 109.644C186.231 106.577 183.781 104.127 180.714 103.966C180.557 103.958 180.371 103.958 180 103.958V103.958V110.358H186.4V110.358Z" fill="white"/>
<path d="M186.4 110.358H180V116.758H186.4V110.358Z" fill="white"/>
<path d="M186.4 116.758H180V123.158H186.4V116.758Z" fill="white"/>
<path d="M186.4 155.158H183.2C181.433 155.158 180 156.59 180 158.358V158.358C180 160.125 181.433 161.558 183.2 161.558V161.558C184.967 161.558 186.4 160.125 186.4 158.358V155.158Z" fill="white"/>
<path d="M186.4 171.158C186.4 169.39 184.967 167.958 183.2 167.958V167.958C181.433 167.958 180 169.39 180 171.158V174.358H183.2C184.967 174.358 186.4 172.925 186.4 171.158V171.158Z" fill="white"/>
<path d="M186.4 187.158C186.4 186.786 186.4 186.601 186.392 186.444C186.231 183.377 183.781 180.927 180.714 180.766C180.557 180.758 180.371 180.758 180 180.758V180.758V187.158H186.4V187.158Z" fill="white"/>
<path d="M186.4 187.158H180V193.558V193.558C180.371 193.558 180.557 193.558 180.714 193.549C183.781 193.389 186.231 190.938 186.392 187.872C186.4 187.715 186.4 187.529 186.4 187.158V187.158Z" fill="white"/>
<path d="M192.8 75.1577C192.8 73.3904 191.367 71.9577 189.6 71.9577H186.4V78.3577H189.6C191.367 78.3577 192.8 76.925 192.8 75.1577V75.1577Z" fill="white"/>
<path d="M192.8 91.1577C192.8 90.7863 192.8 90.6006 192.792 90.4437C192.631 87.377 190.181 84.9266 187.114 84.7659C186.957 84.7577 186.771 84.7577 186.4 84.7577V84.7577V91.1577H192.8V91.1577Z" fill="white"/>
<path d="M192.8 91.1577H186.4V97.5577V97.5577C186.771 97.5577 186.957 97.5577 187.114 97.5495C190.181 97.3888 192.631 94.9384 192.792 91.8717C192.8 91.7148 192.8 91.5291 192.8 91.1577V91.1577Z" fill="white"/>
<path d="M192.8 116.758C192.8 116.386 192.8 116.201 192.792 116.044C192.631 112.977 190.181 110.527 187.114 110.366C186.957 110.358 186.771 110.358 186.4 110.358V110.358V116.758H192.8V116.758Z" fill="white"/>
<path d="M192.8 116.758H186.4V123.158V123.158C186.771 123.158 186.957 123.158 187.114 123.149C190.181 122.989 192.631 120.538 192.792 117.472C192.8 117.315 192.8 117.129 192.8 116.758V116.758Z" fill="white"/>
<path d="M192.8 151.958C192.8 150.19 191.367 148.758 189.6 148.758V148.758C187.833 148.758 186.4 150.19 186.4 151.958V155.158H189.6C191.367 155.158 192.8 153.725 192.8 151.958V151.958Z" fill="white"/>
<path d="M188.179 167.876C188.484 167.958 188.856 167.958 189.6 167.958C190.344 167.958 190.716 167.958 191.021 167.876C191.849 167.654 192.496 167.007 192.718 166.179C192.8 165.874 192.8 165.502 192.8 164.758C192.8 164.014 192.8 163.642 192.718 163.337C192.496 162.508 191.849 161.861 191.021 161.639C190.716 161.558 190.344 161.558 189.6 161.558C188.856 161.558 188.484 161.558 188.179 161.639C187.351 161.861 186.704 162.508 186.482 163.337C186.4 163.642 186.4 164.014 186.4 164.758C186.4 165.502 186.4 165.874 186.482 166.179C186.704 167.007 187.351 167.654 188.179 167.876Z" fill="white"/>
<path d="M188.179 187.076C188.484 187.158 188.856 187.158 189.6 187.158C190.344 187.158 190.716 187.158 191.021 187.076C191.849 186.854 192.496 186.207 192.718 185.379C192.8 185.074 192.8 184.702 192.8 183.958C192.8 183.214 192.8 182.842 192.718 182.537C192.496 181.708 191.849 181.061 191.021 180.839C190.716 180.758 190.344 180.758 189.6 180.758C188.856 180.758 188.484 180.758 188.179 180.839C187.351 181.061 186.704 181.708 186.482 182.537C186.4 182.842 186.4 183.214 186.4 183.958C186.4 184.702 186.4 185.074 186.482 185.379C186.704 186.207 187.351 186.854 188.179 187.076Z" fill="white"/>
<path fill-rule="evenodd" clip-rule="evenodd" d="M29.6 7.9577C19.8337 7.9577 14.9505 7.9577 11.6481 10.632C10.9965 11.1597 10.4019 11.7542 9.8742 12.4059C7.19995 15.7083 7.19995 20.5914 7.19995 30.3577V30.3577C7.19995 40.124 7.19995 45.0071 9.8742 48.3095C10.4019 48.9612 10.9965 49.5558 11.6481 50.0835C14.9505 52.7577 19.8337 52.7577 29.6 52.7577V52.7577C39.3662 52.7577 44.2494 52.7577 47.5518 50.0835C48.2035 49.5558 48.798 48.9612 49.3257 48.3095C52 45.0071 52 40.124 52 30.3577V30.3577C52 20.5914 52 15.7083 49.3257 12.4059C48.798 11.7542 48.2035 11.1597 47.5518 10.632C44.2494 7.9577 39.3662 7.9577 29.6 7.9577V7.9577ZM13.6 30.3577C13.6 26.6378 13.6 24.7779 14.0088 23.2519C15.1184 19.1108 18.353 15.8762 22.4941 14.7666C24.0201 14.3577 25.8801 14.3577 29.6 14.3577V14.3577C33.3198 14.3577 35.1798 14.3577 36.7058 14.7666C40.8469 15.8762 44.0815 19.1108 45.1911 23.2519C45.6 24.7779 45.6 26.6378 45.6 30.3577V30.3577C45.6 34.0776 45.6 35.9375 45.1911 37.4635C44.0815 41.6046 40.8469 44.8392 36.7058 45.9488C35.1798 46.3577 33.3198 46.3577 29.6 46.3577V46.3577C25.8801 46.3577 24.0201 46.3577 22.4941 45.9488C18.353 44.8392 15.1184 41.6046 14.0088 37.4635C13.6 35.9375 13.6 34.0776 13.6 30.3577V30.3577Z" fill="white"/>
<path fill-rule="evenodd" clip-rule="evenodd" d="M192.8 30.3577C192.8 20.5914 192.8 15.7083 190.126 12.4059C189.598 11.7542 189.003 11.1597 188.352 10.632C185.049 7.9577 180.166 7.9577 170.4 7.9577V7.9577C160.634 7.9577 155.75 7.9577 152.448 10.632C151.796 11.1597 151.202 11.7542 150.674 12.4059C148 15.7083 148 20.5914 148 30.3577V30.3577C148 40.124 148 45.0071 150.674 48.3095C151.202 48.9612 151.796 49.5558 152.448 50.0835C155.75 52.7577 160.634 52.7577 170.4 52.7577V52.7577C180.166 52.7577 185.049 52.7577 188.352 50.0835C189.003 49.5558 189.598 48.9612 190.126 48.3095C192.8 45.0071 192.8 40.124 192.8 30.3577V30.3577ZM170.4 14.3577C174.12 14.3577 175.98 14.3577 177.506 14.7666C181.647 15.8762 184.881 19.1108 185.991 23.2519C186.4 24.7779 186.4 26.6378 186.4 30.3577V30.3577C186.4 34.0776 186.4 35.9375 185.991 37.4635C184.881 41.6046 181.647 44.8392 177.506 45.9488C175.98 46.3577 174.12 46.3577 170.4 46.3577V46.3577C166.68 46.3577 164.82 46.3577 163.294 45.9488C159.153 44.8392 155.918 41.6046 154.809 37.4635C154.4 35.9375 154.4 34.0776 154.4 30.3577V30.3577C154.4 26.6378 154.4 24.7779 154.809 23.2519C155.918 19.1108 159.153 15.8762 163.294 14.7666C164.82 14.3577 166.68 14.3577 170.4 14.3577V14.3577Z" fill="white"/>
<path d="M181.021 26.9335V27.8222H180.132V34.0429H181.021V32.2655H181.91V26.9335H181.021Z" fill="#F2F2F2"/>
<path d="M177.465 26.0449V27.8222H178.354V26.9335H180.132H181.021V26.0449H177.465Z" fill="#F2F2F2"/>
<path d="M180.132 34.0429H179.243V34.9316H180.132V34.0429Z" fill="#F2F2F2"/>
<path d="M178.354 34.9316H177.465V35.8202H178.354V34.9316Z" fill="#F2F2F2"/>
<path d="M171.243 19.8191V21.6015H172.132V19.8191H171.243Z" fill="#E0E0E0"/>
<path d="M171.238 21.6015H170.349V22.4902H171.238V21.6015Z" fill="#E0E0E0"/>
<path d="M171.243 18.0417H170.349V19.8191H171.243V18.0417Z" fill="#E0E0E0"/>
<path d="M167.683 21.6015H168.571V19.8191H167.683V21.6015Z" fill="#E0E0E0"/>
<path d="M167.683 21.6015H166.794V22.4902H167.683V21.6015Z" fill="#E0E0E0"/>
<path d="M167.683 18.0417H166.794V19.8191H167.683V18.0417Z" fill="#E0E0E0"/>
<path d="M164.127 21.6015H165.016V19.8191H164.127V21.6015Z" fill="#E0E0E0"/>
<path d="M164.127 21.6015H163.238V22.4902H164.127V21.6015Z" fill="#E0E0E0"/>
<path d="M164.127 18.0417H163.238V19.8191H164.127V18.0417Z" fill="#E0E0E0"/>
<path d="M178.354 26.9335V27.8222H177.465V26.0449V24.2675H175.687V26.0449H176.576V37.5976H174.799V38.4862H173.91V39.38H171.243V40.2687H162.349V41.1573H173.91V40.2687H175.687V38.4862H177.465V36.7089H178.354V35.8202H177.465V34.9316V28.7109H179.243V27.8222H180.132V26.9335H178.354Z" fill="#C7C7C7"/>
<path d="M161.461 23.3788V24.2675H164.127V23.3788H161.461Z" fill="white"/>
<path d="M161.461 25.1562V32.2655H162.349V31.3769H163.238V26.9335H164.127V25.1562H161.461Z" fill="white"/>
<path d="M181.021 32.2655V34.0429H181.91V32.2655H181.021Z" fill="#E0E0E0"/>
<path d="M181.021 34.0429H180.132V34.9316H181.021V34.0429Z" fill="#E0E0E0"/>
<path d="M181.021 26.9335H180.132V27.8222H181.021V26.9335Z" fill="#E0E0E0"/>
<path d="M178.354 34.9316V35.8202H180.132V34.9316H179.243H178.354Z" fill="#E0E0E0"/>
<path d="M175.687 24.2675H164.127H161.461H158.794V25.1562H161.461H164.127H173.91V35.8202H173.021V36.7089H172.132V37.5976H169.46V38.4862H167.683V39.38H160.572V40.2687H162.349H171.243V39.38H173.91V38.4862H174.799V37.5976H176.576V26.0449H175.687V24.2675Z" fill="#E0E0E0"/>
<path d="M164.127 23.3788V24.2675H175.687H177.465V23.3788H164.127Z" fill="#F2F2F2"/>
<path d="M164.127 25.1562V26.9335H163.238V31.3769H162.349V32.2655H161.461V25.1562H158.794V38.4862H159.683V39.38H160.572H167.683V38.4862H169.46V37.5976H172.132V36.7089H173.021V35.8202H173.91V25.1562H164.127Z" fill="#F2F2F2"/>
<path d="M161.461 24.2675V23.3788H158.794V24.2675H161.461Z" fill="#F2F2F2"/>
<path d="M40.317 26.9335V27.8222H39.4282V34.0429H40.317V32.2655H41.2059V26.9335H40.317Z" fill="#F2F2F2"/>
<path d="M36.7616 26.0449V27.8222H37.6504V26.9335H39.4282H40.317V26.0449H36.7616Z" fill="#F2F2F2"/>
<path d="M39.4282 34.0429H38.5393V34.9316H39.4282V34.0429Z" fill="#F2F2F2"/>
<path d="M37.6504 34.9316H36.7616V35.8202H37.6504V34.9316Z" fill="#F2F2F2"/>
<path d="M30.5395 19.8191V21.6015H31.4284V19.8191H30.5395Z" fill="#E0E0E0"/>
<path d="M30.5344 21.6015H29.6456V22.4902H30.5344V21.6015Z" fill="#E0E0E0"/>
<path d="M30.5395 18.0417H29.6456V19.8191H30.5395V18.0417Z" fill="#E0E0E0"/>
<path d="M26.979 21.6015H27.8679V19.8191H26.979V21.6015Z" fill="#E0E0E0"/>
<path d="M26.979 21.6015H26.0901V22.4902H26.979V21.6015Z" fill="#E0E0E0"/>
<path d="M26.979 18.0417H26.0901V19.8191H26.979V18.0417Z" fill="#E0E0E0"/>
<path d="M23.4235 21.6015H24.3124V19.8191H23.4235V21.6015Z" fill="#E0E0E0"/>
<path d="M23.4235 21.6015H22.5347V22.4902H23.4235V21.6015Z" fill="#E0E0E0"/>
<path d="M23.4235 18.0417H22.5347V19.8191H23.4235V18.0417Z" fill="#E0E0E0"/>
<path d="M37.6504 26.9335V27.8222H36.7616V26.0449V24.2675H34.9839V26.0449H35.8727V37.5976H34.095V38.4862H33.2061V39.38H30.5395V40.2687H21.6458V41.1573H33.2061V40.2687H34.9839V38.4862H36.7616V36.7089H37.6504V35.8202H36.7616V34.9316V28.7109H38.5393V27.8222H39.4282V26.9335H37.6504Z" fill="#C7C7C7"/>
<path d="M20.7569 23.3788V24.2675H23.4235V23.3788H20.7569Z" fill="white"/>
<path d="M20.7569 25.1562V32.2655H21.6458V31.3769H22.5347V26.9335H23.4235V25.1562H20.7569Z" fill="white"/>
<path d="M40.317 32.2655V34.0429H41.2059V32.2655H40.317Z" fill="#E0E0E0"/>
<path d="M40.317 34.0429H39.4282V34.9316H40.317V34.0429Z" fill="#E0E0E0"/>
<path d="M40.317 26.9335H39.4282V27.8222H40.317V26.9335Z" fill="#E0E0E0"/>
<path d="M37.6504 34.9316V35.8202H39.4282V34.9316H38.5393H37.6504Z" fill="#E0E0E0"/>
<path d="M34.9839 24.2675H23.4235H20.7569H18.0903V25.1562H20.7569H23.4235H33.2061V35.8202H32.3173V36.7089H31.4284V37.5976H28.7567V38.4862H26.979V39.38H19.8681V40.2687H21.6458H30.5395V39.38H33.2061V38.4862H34.095V37.5976H35.8727V26.0449H34.9839V24.2675Z" fill="#E0E0E0"/>
<path d="M23.4235 23.3788V24.2675H34.9839H36.7616V23.3788H23.4235Z" fill="#F2F2F2"/>
<path d="M23.4235 25.1562V26.9335H22.5347V31.3769H21.6458V32.2655H20.7569V25.1562H18.0903V38.4862H18.9792V39.38H19.8681H26.979V38.4862H28.7567V37.5976H31.4284V36.7089H32.3173V35.8202H33.2061V25.1562H23.4235Z" fill="#F2F2F2"/>
<path d="M20.7569 24.2675V23.3788H18.0903V24.2675H20.7569Z" fill="#F2F2F2"/>
<path d="M40.317 168.642V169.531H39.4282V175.751H40.317V173.974H41.2059V168.642H40.317Z" fill="#F2F2F2"/>
<path d="M36.7616 167.753V169.531H37.6504V168.642H39.4282H40.317V167.753H36.7616Z" fill="#F2F2F2"/>
<path d="M39.4282 175.751H38.5393V176.64H39.4282V175.751Z" fill="#F2F2F2"/>
<path d="M37.6504 176.64H36.7616V177.529H37.6504V176.64Z" fill="#F2F2F2"/>
<path d="M30.5395 161.528V163.31H31.4284V161.528H30.5395Z" fill="#E0E0E0"/>
<path d="M30.5344 163.31H29.6456V164.199H30.5344V163.31Z" fill="#E0E0E0"/>
<path d="M30.5395 159.75H29.6456V161.528H30.5395V159.75Z" fill="#E0E0E0"/>
<path d="M26.979 163.31H27.8679V161.528H26.979V163.31Z" fill="#E0E0E0"/>
<path d="M26.979 163.31H26.0901V164.199H26.979V163.31Z" fill="#E0E0E0"/>
<path d="M26.979 159.75H26.0901V161.528H26.979V159.75Z" fill="#E0E0E0"/>
<path d="M23.4235 163.31H24.3124V161.528H23.4235V163.31Z" fill="#E0E0E0"/>
<path d="M23.4235 163.31H22.5347V164.199H23.4235V163.31Z" fill="#E0E0E0"/>
<path d="M23.4235 159.75H22.5347V161.528H23.4235V159.75Z" fill="#E0E0E0"/>
<path d="M37.6504 168.642V169.531H36.7616V167.753V165.976H34.9839V167.753H35.8727V179.306H34.095V180.195H33.2061V181.089H30.5395V181.977H21.6458V182.866H33.2061V181.977H34.9839V180.195H36.7616V178.417H37.6504V177.529H36.7616V176.64V170.419H38.5393V169.531H39.4282V168.642H37.6504Z" fill="#C7C7C7"/>
<path d="M20.7569 165.087V165.976H23.4235V165.087H20.7569Z" fill="white"/>
<path d="M20.7569 166.865V173.974H21.6458V173.085H22.5347V168.642H23.4235V166.865H20.7569Z" fill="white"/>
<path d="M40.317 173.974V175.751H41.2059V173.974H40.317Z" fill="#E0E0E0"/>
<path d="M40.317 175.751H39.4282V176.64H40.317V175.751Z" fill="#E0E0E0"/>
<path d="M40.317 168.642H39.4282V169.531H40.317V168.642Z" fill="#E0E0E0"/>
<path d="M37.6504 176.64V177.529H39.4282V176.64H38.5393H37.6504Z" fill="#E0E0E0"/>
<path d="M34.9839 165.976H23.4235H20.7569H18.0903V166.865H20.7569H23.4235H33.2061V177.529H32.3173V178.417H31.4284V179.306H28.7567V180.195H26.979V181.089H19.8681V181.977H21.6458H30.5395V181.089H33.2061V180.195H34.095V179.306H35.8727V167.753H34.9839V165.976Z" fill="#E0E0E0"/>
<path d="M23.4235 165.087V165.976H34.9839H36.7616V165.087H23.4235Z" fill="#F2F2F2"/>
<path d="M23.4235 166.865V168.642H22.5347V173.085H21.6458V173.974H20.7569V166.865H18.0903V180.195H18.9792V181.089H19.8681H26.979V180.195H28.7567V179.306H31.4284V178.417H32.3173V177.529H33.2061V166.865H23.4235Z" fill="#F2F2F2"/>
<path d="M20.7569 165.976V165.087H18.0903V165.976H20.7569Z" fill="#F2F2F2"/>
<path fill-rule="evenodd" clip-rule="evenodd" d="M7.19995 171.158C7.19995 180.924 7.19995 185.807 9.8742 189.11C10.4019 189.761 10.9965 190.356 11.6481 190.883C14.9505 193.558 19.8337 193.558 29.6 193.558V193.558C39.3662 193.558 44.2494 193.558 47.5518 190.883C48.2035 190.356 48.798 189.761 49.3257 189.11C52 185.807 52 180.924 52 171.158V171.158C52 161.391 52 156.508 49.3257 153.206C48.798 152.554 48.2035 151.96 47.5518 151.432C44.2494 148.758 39.3662 148.758 29.6 148.758V148.758C19.8337 148.758 14.9505 148.758 11.6481 151.432C10.9965 151.96 10.4019 152.554 9.8742 153.206C7.19995 156.508 7.19995 161.391 7.19995 171.158V171.158ZM29.6 187.158C25.8801 187.158 24.0201 187.158 22.4941 186.749C18.353 185.639 15.1184 182.405 14.0088 178.264C13.6 176.738 13.6 174.878 13.6 171.158V171.158C13.6 167.438 13.6 165.578 14.0088 164.052C15.1184 159.911 18.353 156.676 22.4941 155.567C24.0201 155.158 25.8801 155.158 29.6 155.158V155.158C33.3198 155.158 35.1798 155.158 36.7058 155.567C40.8469 156.676 44.0815 159.911 45.1911 164.052C45.6 165.578 45.6 167.438 45.6 171.158V171.158C45.6 174.878 45.6 176.738 45.1911 178.264C44.0815 182.405 40.8469 185.639 36.7058 186.749C35.1798 187.158 33.3198 187.158 29.6 187.158V187.158Z" fill="white"/>
</g>
<defs>
<clipPath id="clip0_3482_13790">
<rect width="200" height="200" fill="white" transform="translate(0 0.75769)"/>
</clipPath>
</defs>
</svg>
