<svg width="200" height="201" viewBox="0 0 200 201" fill="none" xmlns="http://www.w3.org/2000/svg">
<g clip-path="url(#clip0_3482_13802)">
<path d="M14.0001 54.3577V54.3577C11.57 54.3577 9.6001 56.3276 9.6001 58.7577V58.7577H14.0001V54.3577Z" fill="white"/>
<path d="M14.0001 58.7577H9.6001V58.7577C9.6001 61.1877 11.57 63.1577 14.0001 63.1577V63.1577V58.7577Z" fill="white"/>
<path d="M14.0001 69.7577C14.0001 68.5426 13.0151 67.5577 11.8001 67.5577V67.5577C10.5851 67.5577 9.6001 68.5426 9.6001 69.7577V71.9577H14.0001V69.7577Z" fill="white"/>
<path d="M14.0001 71.9577H9.6001V74.1577C9.6001 75.3727 10.5851 76.3577 11.8001 76.3577V76.3577C13.0151 76.3577 14.0001 75.3727 14.0001 74.1577V71.9577Z" fill="white"/>
<path d="M14.0001 93.9577V93.9577C11.57 93.9577 9.6001 95.9276 9.6001 98.3577V98.3577H14.0001V93.9577Z" fill="white"/>
<path d="M14.0001 98.3577H9.6001V98.3577C9.6001 100.788 11.57 102.758 14.0001 102.758V102.758V98.3577Z" fill="white"/>
<path d="M14.0001 124.758H11.8001C10.5851 124.758 9.6001 125.743 9.6001 126.958V126.958C9.6001 128.173 10.5851 129.158 11.8001 129.158H14.0001V124.758Z" fill="white"/>
<path d="M14.0001 135.758C14.0001 134.543 13.0151 133.558 11.8001 133.558V133.558C10.5851 133.558 9.6001 134.543 9.6001 135.758V135.758C9.6001 136.973 10.5851 137.958 11.8001 137.958V137.958C13.0151 137.958 14.0001 136.973 14.0001 135.758V135.758Z" fill="white"/>
<path d="M14.0001 142.358V142.358C11.57 142.358 9.6001 144.328 9.6001 146.758V146.758H14.0001V142.358Z" fill="white"/>
<path d="M14.0001 146.758H9.6001V151.158H14.0001V146.758Z" fill="white"/>
<path d="M14.0001 151.158H9.6001V153.358C9.6001 154.573 10.5851 155.558 11.8001 155.558V155.558C13.0151 155.558 14.0001 154.573 14.0001 153.358V151.158Z" fill="white"/>
<path d="M18.4001 45.5577V45.5577C15.97 45.5577 14.0001 47.5276 14.0001 49.9577V49.9577H18.4001V45.5577Z" fill="white"/>
<path d="M18.4001 49.9577H14.0001V54.3577H18.4001V49.9577Z" fill="white"/>
<path d="M18.4001 54.3577H14.0001V58.7577H18.4001V54.3577Z" fill="white"/>
<path d="M18.4001 58.7577H14.0001V63.1577H18.4001V58.7577Z" fill="white"/>
<path d="M18.4001 80.7577H16.2001C14.9851 80.7577 14.0001 81.7426 14.0001 82.9577V82.9577C14.0001 84.1727 14.9851 85.1577 16.2001 85.1577H18.4001V80.7577Z" fill="white"/>
<path d="M18.4001 91.7577C18.4001 90.5426 17.4151 89.5577 16.2001 89.5577V89.5577C14.9851 89.5577 14.0001 90.5426 14.0001 91.7577V93.9577H18.4001V91.7577Z" fill="white"/>
<path d="M18.4001 93.9577H14.0001V98.3577H18.4001V93.9577Z" fill="white"/>
<path d="M18.4001 98.3577H14.0001V102.758H18.4001V98.3577Z" fill="white"/>
<path d="M18.4001 107.158V107.158C15.97 107.158 14.0001 109.128 14.0001 111.558V111.558H18.4001V107.158Z" fill="white"/>
<path d="M18.4001 111.558H14.0001V115.958H18.4001V111.558Z" fill="white"/>
<path d="M18.4001 115.958H14.0001V115.958C14.0001 118.388 15.97 120.358 18.4001 120.358V120.358V115.958Z" fill="white"/>
<path d="M18.4001 124.758H14.0001V129.158H18.4001V124.758Z" fill="white"/>
<path d="M18.4001 142.358H14.0001V146.758H18.4001V142.358Z" fill="white"/>
<path d="M22.8001 49.9577C22.8001 47.5276 20.8302 45.5577 18.4001 45.5577V45.5577V49.9577H22.8001V49.9577Z" fill="white"/>
<path d="M22.8001 67.5577C22.8001 65.1276 20.8302 63.1577 18.4001 63.1577V63.1577V67.5577H22.8001V67.5577Z" fill="white"/>
<path d="M22.8001 67.5577H18.4001V71.9577H22.8001V67.5577Z" fill="white"/>
<path d="M22.8001 71.9577H18.4001V76.3577H22.8001V71.9577Z" fill="white"/>
<path d="M22.8001 76.3577H18.4001V80.7577H22.8001V76.3577Z" fill="white"/>
<path d="M22.8001 80.7577H18.4001V85.1577H22.8001V80.7577Z" fill="white"/>
<path d="M22.8001 93.9577H18.4001V98.3577H22.8001V93.9577Z" fill="white"/>
<path d="M22.8001 98.3577H18.4001V102.758H22.8001V98.3577Z" fill="white"/>
<path d="M22.8001 107.158H18.4001V111.558H22.8001V107.158Z" fill="white"/>
<path d="M22.8001 120.358C22.8001 117.928 20.8302 115.958 18.4001 115.958V115.958V120.358H22.8001V120.358Z" fill="white"/>
<path d="M22.8001 120.358H18.4001V124.758H22.8001V120.358Z" fill="white"/>
<path d="M22.8001 124.758H18.4001V129.158H22.8001V124.758Z" fill="white"/>
<path d="M22.8001 129.158H18.4001V131.358C18.4001 132.573 19.3851 133.558 20.6001 133.558V133.558C21.8151 133.558 22.8001 132.573 22.8001 131.358V129.158Z" fill="white"/>
<path d="M22.8001 142.358H18.4001V146.758H22.8001V142.358Z" fill="white"/>
<path d="M27.2001 49.9577H22.8001V54.3577H27.2001V49.9577Z" fill="white"/>
<path d="M27.2001 54.3577H22.8001V56.5577C22.8001 57.7727 23.7851 58.7577 25.0001 58.7577V58.7577C26.2151 58.7577 27.2001 57.7727 27.2001 56.5577V54.3577Z" fill="white"/>
<path d="M27.2001 67.5577H22.8001V71.9577H27.2001V67.5577Z" fill="white"/>
<path d="M27.2001 76.3577H22.8001V80.7577H27.2001V76.3577Z" fill="white"/>
<path d="M27.2001 85.1577H22.8001V89.5577H27.2001V85.1577Z" fill="white"/>
<path d="M27.2001 89.5577H22.8001V93.9577H27.2001V89.5577Z" fill="white"/>
<path d="M27.2001 93.9577H22.8001V98.3577H27.2001V93.9577Z" fill="white"/>
<path d="M27.2001 98.3577H22.8001V102.758H27.2001V98.3577Z" fill="white"/>
<path d="M27.2001 102.758H22.8001V107.158H27.2001V102.758Z" fill="white"/>
<path d="M27.2001 107.158H22.8001V111.558H27.2001V107.158Z" fill="white"/>
<path d="M27.2001 137.958V137.958C24.77 137.958 22.8001 139.928 22.8001 142.358V142.358H27.2001V137.958Z" fill="white"/>
<path d="M27.2001 146.758H22.8001V151.158H27.2001V146.758Z" fill="white"/>
<path d="M27.2001 151.158H22.8001V153.358C22.8001 154.573 23.7851 155.558 25.0001 155.558V155.558C26.2151 155.558 27.2001 154.573 27.2001 153.358V151.158Z" fill="white"/>
<path d="M31.6001 52.1577C31.6001 50.9426 30.6151 49.9577 29.4001 49.9577H27.2001V54.3577H29.4001C30.6151 54.3577 31.6001 53.3727 31.6001 52.1577V52.1577Z" fill="white"/>
<path d="M31.6001 63.1577V63.1577C29.17 63.1577 27.2001 65.1276 27.2001 67.5577V67.5577H31.6001V63.1577Z" fill="white"/>
<path d="M31.6001 67.5577H27.2001V71.9577H31.6001V67.5577Z" fill="white"/>
<path d="M31.6001 71.9577H27.2001V76.3577H31.6001V71.9577Z" fill="white"/>
<path d="M31.6001 76.3577H27.2001V80.7577H31.6001V76.3577Z" fill="white"/>
<path d="M31.6001 80.7577H27.2001V85.1577H31.6001V80.7577Z" fill="white"/>
<path d="M31.6001 89.5577H27.2001V93.9577H31.6001V89.5577Z" fill="white"/>
<path d="M31.6001 93.9577H27.2001V98.3577H31.6001V93.9577Z" fill="white"/>
<path d="M31.6001 111.558H27.2001V115.958H31.6001V111.558Z" fill="white"/>
<path d="M31.6001 115.958H27.2001V115.958C27.2001 118.388 29.17 120.358 31.6001 120.358V120.358V115.958Z" fill="white"/>
<path d="M31.6001 131.358C31.6001 130.143 30.6151 129.158 29.4001 129.158V129.158C28.1851 129.158 27.2001 130.143 27.2001 131.358V131.358C27.2001 132.573 28.1851 133.558 29.4001 133.558V133.558C30.6151 133.558 31.6001 132.573 31.6001 131.358V131.358Z" fill="white"/>
<path d="M31.6001 140.158C31.6001 138.943 30.6151 137.958 29.4001 137.958H27.2001V142.358H29.4001C30.6151 142.358 31.6001 141.373 31.6001 140.158V140.158Z" fill="white"/>
<path d="M31.6001 146.758H27.2001V151.158H31.6001V146.758Z" fill="white"/>
<path d="M36.0001 63.1577H31.6001V67.5577H36.0001V63.1577Z" fill="white"/>
<path d="M36.0001 67.5577H31.6001V71.9577H36.0001V67.5577Z" fill="white"/>
<path d="M36.0001 71.9577H31.6001V76.3577H36.0001V71.9577Z" fill="white"/>
<path d="M36.0001 76.3577H31.6001V80.7577H36.0001V76.3577Z" fill="white"/>
<path d="M36.0001 85.1577H31.6001V89.5577H36.0001V85.1577Z" fill="white"/>
<path d="M36.0001 89.5577H31.6001V93.9577H36.0001V89.5577Z" fill="white"/>
<path d="M36.0001 93.9577H31.6001V98.3577H36.0001V93.9577Z" fill="white"/>
<path d="M36.0001 102.758V102.758C33.57 102.758 31.6001 104.728 31.6001 107.158V107.158H36.0001V102.758Z" fill="white"/>
<path d="M36.0001 107.158H31.6001V111.558H36.0001V107.158Z" fill="white"/>
<path d="M36.0001 111.558H31.6001V115.958H36.0001V111.558Z" fill="white"/>
<path d="M36.0001 115.958H31.6001V120.358H36.0001V115.958Z" fill="white"/>
<path d="M36.0001 146.758H31.6001V151.158H36.0001V146.758Z" fill="white"/>
<path d="M40.4001 47.7577C40.4001 46.5426 39.4151 45.5577 38.2001 45.5577V45.5577C36.9851 45.5577 36.0001 46.5426 36.0001 47.7577V47.7577C36.0001 48.9727 36.9851 49.9577 38.2001 49.9577V49.9577C39.4151 49.9577 40.4001 48.9727 40.4001 47.7577V47.7577Z" fill="white"/>
<path d="M40.4001 54.3577H38.2001C36.9851 54.3577 36.0001 55.3426 36.0001 56.5577V56.5577C36.0001 57.7727 36.9851 58.7577 38.2001 58.7577H40.4001V54.3577Z" fill="white"/>
<path d="M40.4001 65.3577C40.4001 64.1426 39.4151 63.1577 38.2001 63.1577H36.0001V67.5577H38.2001C39.4151 67.5577 40.4001 66.5727 40.4001 65.3577V65.3577Z" fill="white"/>
<path d="M40.4001 71.9577H36.0001V76.3577H40.4001V71.9577Z" fill="white"/>
<path d="M40.4001 80.7577H36.0001V85.1577H40.4001V80.7577Z" fill="white"/>
<path d="M40.4001 89.5577H36.0001V93.9577H40.4001V89.5577Z" fill="white"/>
<path d="M40.4001 98.3577H36.0001V102.758H40.4001V98.3577Z" fill="white"/>
<path d="M40.4001 107.158H36.0001V111.558V111.558C38.4301 111.558 40.4001 109.588 40.4001 107.158V107.158Z" fill="white"/>
<path d="M40.4001 118.158C40.4001 116.943 39.4151 115.958 38.2001 115.958H36.0001V120.358H38.2001C39.4151 120.358 40.4001 119.373 40.4001 118.158V118.158Z" fill="white"/>
<path d="M40.4001 126.958C40.4001 125.743 39.4151 124.758 38.2001 124.758V124.758C36.9851 124.758 36.0001 125.743 36.0001 126.958V126.958C36.0001 128.173 36.9851 129.158 38.2001 129.158V129.158C39.4151 129.158 40.4001 128.173 40.4001 126.958V126.958Z" fill="white"/>
<path d="M40.4001 133.558H38.2001C36.9851 133.558 36.0001 134.543 36.0001 135.758V135.758C36.0001 136.973 36.9851 137.958 38.2001 137.958H40.4001V133.558Z" fill="white"/>
<path d="M40.4001 142.358V142.358C37.97 142.358 36.0001 144.328 36.0001 146.758V146.758V146.758C38.4301 146.758 40.4001 144.788 40.4001 142.358V142.358Z" fill="white"/>
<path d="M40.4001 153.358C40.4001 152.143 39.4151 151.158 38.2001 151.158H36.0001V153.358C36.0001 154.573 36.9851 155.558 38.2001 155.558V155.558C39.4151 155.558 40.4001 154.573 40.4001 153.358V153.358Z" fill="white"/>
<path d="M44.8001 56.5577C44.8001 55.3426 43.8151 54.3577 42.6001 54.3577H40.4001V58.7577H42.6001C43.8151 58.7577 44.8001 57.7727 44.8001 56.5577V56.5577Z" fill="white"/>
<path d="M44.8001 74.1577C44.8001 72.9426 43.8151 71.9577 42.6001 71.9577H40.4001V76.3577H42.6001C43.8151 76.3577 44.8001 75.3727 44.8001 74.1577V74.1577Z" fill="white"/>
<path d="M44.8001 80.7577H40.4001V85.1577H44.8001V80.7577Z" fill="white"/>
<path d="M44.8001 89.5577H40.4001V93.9577H44.8001V89.5577Z" fill="white"/>
<path d="M44.8001 93.9577H40.4001V98.3577V98.3577C42.8301 98.3577 44.8001 96.3877 44.8001 93.9577V93.9577Z" fill="white"/>
<path d="M44.8001 102.758H40.4001V107.158H44.8001V102.758Z" fill="white"/>
<path d="M44.8001 137.958C44.8001 135.528 42.8301 133.558 40.4001 133.558V133.558V137.958H44.8001V137.958Z" fill="white"/>
<path d="M44.8001 137.958H40.4001V142.358H44.8001V137.958Z" fill="white"/>
<path d="M49.2001 14.7577V14.7577C46.77 14.7577 44.8001 16.7276 44.8001 19.1577V19.1577H49.2001V14.7577Z" fill="white"/>
<path d="M49.2001 19.1577H44.8001V23.5577H49.2001V19.1577Z" fill="white"/>
<path d="M49.2001 23.5577H44.8001V25.7577C44.8001 26.9727 45.7851 27.9577 47.0001 27.9577V27.9577C48.2151 27.9577 49.2001 26.9727 49.2001 25.7577V23.5577Z" fill="white"/>
<path d="M49.2001 34.5577C49.2001 33.3426 48.2151 32.3577 47.0001 32.3577V32.3577C45.7851 32.3577 44.8001 33.3426 44.8001 34.5577V36.7577H49.2001V34.5577Z" fill="white"/>
<path d="M49.2001 36.7577H44.8001V38.9577C44.8001 40.1727 45.7851 41.1577 47.0001 41.1577V41.1577C48.2151 41.1577 49.2001 40.1727 49.2001 38.9577V36.7577Z" fill="white"/>
<path d="M49.2001 80.7577H44.8001V85.1577H49.2001V80.7577Z" fill="white"/>
<path d="M49.2001 93.9577C49.2001 91.5276 47.2301 89.5577 44.8001 89.5577V89.5577V93.9577H49.2001V93.9577Z" fill="white"/>
<path d="M49.2001 102.758H44.8001V107.158H49.2001V102.758Z" fill="white"/>
<path d="M49.2001 113.758C49.2001 112.543 48.2151 111.558 47.0001 111.558V111.558C45.7851 111.558 44.8001 112.543 44.8001 113.758V115.958H49.2001V113.758Z" fill="white"/>
<path d="M49.2001 115.958H44.8001V115.958C44.8001 118.388 46.77 120.358 49.2001 120.358V120.358V115.958Z" fill="white"/>
<path d="M49.2001 124.758H47.0001C45.7851 124.758 44.8001 125.743 44.8001 126.958V126.958C44.8001 128.173 45.7851 129.158 47.0001 129.158H49.2001V124.758Z" fill="white"/>
<path d="M49.2001 137.958H44.8001V142.358H49.2001V137.958Z" fill="white"/>
<path d="M49.2001 142.358H44.8001V146.758H49.2001V142.358Z" fill="white"/>
<path d="M49.2001 146.758H44.8001V151.158H49.2001V146.758Z" fill="white"/>
<path d="M49.2001 151.158H44.8001V151.158C44.8001 153.588 46.77 155.558 49.2001 155.558V155.558V151.158Z" fill="white"/>
<path d="M49.2001 177.558V177.558C46.77 177.558 44.8001 179.528 44.8001 181.958V181.958H49.2001V177.558Z" fill="white"/>
<path d="M49.2001 181.958H44.8001V181.958C44.8001 184.388 46.77 186.358 49.2001 186.358V186.358V181.958Z" fill="white"/>
<path d="M53.6001 12.5577C53.6001 11.3426 52.6151 10.3577 51.4001 10.3577V10.3577C50.1851 10.3577 49.2001 11.3426 49.2001 12.5577V14.7577H53.6001V12.5577Z" fill="white"/>
<path d="M53.6001 47.7577C53.6001 46.5426 52.6151 45.5577 51.4001 45.5577V45.5577C50.1851 45.5577 49.2001 46.5426 49.2001 47.7577V49.9577H53.6001V47.7577Z" fill="white"/>
<path d="M53.6001 49.9577H49.2001V49.9577C49.2001 52.3877 51.17 54.3577 53.6001 54.3577V54.3577V49.9577Z" fill="white"/>
<path d="M53.6001 58.7577H51.4001C50.1851 58.7577 49.2001 59.7426 49.2001 60.9577V60.9577C49.2001 62.1727 50.1851 63.1577 51.4001 63.1577V63.1577C52.6151 63.1577 53.6001 62.1727 53.6001 60.9577V58.7577Z" fill="white"/>
<path d="M53.6001 71.9577V71.9577C51.17 71.9577 49.2001 73.9276 49.2001 76.3577V76.3577H53.6001V71.9577Z" fill="white"/>
<path d="M53.6001 76.3577H49.2001V80.7577H53.6001V76.3577Z" fill="white"/>
<path d="M53.6001 80.7577H49.2001V85.1577H53.6001V80.7577Z" fill="white"/>
<path d="M53.6001 93.9577H49.2001V98.3577H53.6001V93.9577Z" fill="white"/>
<path d="M53.6001 98.3577H49.2001V102.758H53.6001V98.3577Z" fill="white"/>
<path d="M53.6001 102.758H49.2001V107.158H53.6001V102.758Z" fill="white"/>
<path d="M53.6001 115.958H49.2001V120.358H53.6001V115.958Z" fill="white"/>
<path d="M53.6001 120.358H49.2001V124.758H53.6001V120.358Z" fill="white"/>
<path d="M53.6001 124.758H49.2001V129.158V129.158C51.6301 129.158 53.6001 127.188 53.6001 124.758V124.758Z" fill="white"/>
<path d="M53.6001 135.758C53.6001 134.543 52.6151 133.558 51.4001 133.558V133.558C50.1851 133.558 49.2001 134.543 49.2001 135.758V137.958H51.4001C52.6151 137.958 53.6001 136.973 53.6001 135.758V135.758Z" fill="white"/>
<path d="M53.6001 142.358H49.2001V146.758H53.6001V142.358Z" fill="white"/>
<path d="M53.6001 146.758H49.2001V151.158H53.6001V146.758Z" fill="white"/>
<path d="M53.6001 151.158H49.2001V155.558V155.558C51.6301 155.558 53.6001 153.588 53.6001 151.158V151.158Z" fill="white"/>
<path d="M53.6001 159.958V159.958C51.17 159.958 49.2001 161.928 49.2001 164.358V164.358H53.6001V159.958Z" fill="white"/>
<path d="M53.6001 164.358H49.2001V168.758H53.6001V164.358Z" fill="white"/>
<path d="M53.6001 168.758H49.2001V168.758C49.2001 171.188 51.17 173.158 53.6001 173.158V173.158V168.758Z" fill="white"/>
<path d="M53.6001 177.558H49.2001V181.958H53.6001V177.558Z" fill="white"/>
<path d="M53.6001 181.958H49.2001V186.358H53.6001V181.958Z" fill="white"/>
<path d="M53.6001 186.358H49.2001V188.558C49.2001 189.773 50.1851 190.758 51.4001 190.758V190.758C52.6151 190.758 53.6001 189.773 53.6001 188.558V186.358Z" fill="white"/>
<path d="M58.0001 14.7577H53.6001V14.7577C53.6001 17.1877 55.57 19.1577 58.0001 19.1577V19.1577V14.7577Z" fill="white"/>
<path d="M58.0001 27.9577H55.8001C54.5851 27.9577 53.6001 28.9426 53.6001 30.1577V30.1577C53.6001 31.3727 54.5851 32.3577 55.8001 32.3577H58.0001V27.9577Z" fill="white"/>
<path d="M58.0001 36.7577H55.8001C54.5851 36.7577 53.6001 37.7426 53.6001 38.9577V38.9577C53.6001 40.1727 54.5851 41.1577 55.8001 41.1577V41.1577C57.0151 41.1577 58.0001 40.1727 58.0001 38.9577V36.7577Z" fill="white"/>
<path d="M58.0001 54.3577C58.0001 51.9276 56.0301 49.9577 53.6001 49.9577V49.9577V54.3577H58.0001V54.3577Z" fill="white"/>
<path d="M58.0001 54.3577H53.6001V58.7577H58.0001V54.3577Z" fill="white"/>
<path d="M58.0001 71.9577H53.6001V76.3577H58.0001V71.9577Z" fill="white"/>
<path d="M58.0001 76.3577H53.6001V80.7577H58.0001V76.3577Z" fill="white"/>
<path d="M58.0001 80.7577H53.6001V85.1577H58.0001V80.7577Z" fill="white"/>
<path d="M58.0001 85.1577H53.6001V87.3577C53.6001 88.5727 54.5851 89.5577 55.8001 89.5577V89.5577C57.0151 89.5577 58.0001 88.5727 58.0001 87.3577V85.1577Z" fill="white"/>
<path d="M58.0001 98.3577C58.0001 95.9276 56.0301 93.9577 53.6001 93.9577V93.9577V98.3577H58.0001V98.3577Z" fill="white"/>
<path d="M58.0001 98.3577H53.6001V102.758H58.0001V98.3577Z" fill="white"/>
<path d="M58.0001 102.758H53.6001V107.158H58.0001V102.758Z" fill="white"/>
<path d="M58.0001 115.958H53.6001V120.358H58.0001V115.958Z" fill="white"/>
<path d="M58.0001 120.358H53.6001V124.758H58.0001V120.358Z" fill="white"/>
<path d="M58.0001 144.558C58.0001 143.343 57.0151 142.358 55.8001 142.358H53.6001V146.758H55.8001C57.0151 146.758 58.0001 145.773 58.0001 144.558V144.558Z" fill="white"/>
<path d="M58.0001 159.958H53.6001V164.358H58.0001V159.958Z" fill="white"/>
<path d="M58.0001 168.758H53.6001V173.158H58.0001V168.758Z" fill="white"/>
<path d="M58.0001 181.958C58.0001 179.528 56.0301 177.558 53.6001 177.558V177.558V181.958H58.0001V181.958Z" fill="white"/>
<path d="M58.0001 181.958H53.6001V186.358H58.0001V181.958Z" fill="white"/>
<path d="M62.4001 10.3577V10.3577C59.97 10.3577 58.0001 12.3276 58.0001 14.7577V14.7577H62.4001V10.3577Z" fill="white"/>
<path d="M62.4001 14.7577H58.0001V19.1577H62.4001V14.7577Z" fill="white"/>
<path d="M62.4001 19.1577H58.0001V19.1577C58.0001 21.5877 59.97 23.5577 62.4001 23.5577V23.5577V19.1577Z" fill="white"/>
<path d="M62.4001 32.3577C62.4001 29.9276 60.4301 27.9577 58.0001 27.9577V27.9577V32.3577H62.4001V32.3577Z" fill="white"/>
<path d="M62.4001 32.3577H58.0001V36.7577H62.4001V32.3577Z" fill="white"/>
<path d="M62.4001 58.7577H58.0001V63.1577H62.4001V58.7577Z" fill="white"/>
<path d="M62.4001 63.1577H58.0001V63.1577C58.0001 65.5877 59.97 67.5577 62.4001 67.5577V67.5577V63.1577Z" fill="white"/>
<path d="M62.4001 71.9577H58.0001V76.3577H62.4001V71.9577Z" fill="white"/>
<path d="M62.4001 76.3577H58.0001V80.7577H62.4001V76.3577Z" fill="white"/>
<path d="M62.4001 80.7577H58.0001V85.1577V85.1577C60.4301 85.1577 62.4001 83.1877 62.4001 80.7577V80.7577Z" fill="white"/>
<path d="M62.4001 98.3577H58.0001V102.758H62.4001V98.3577Z" fill="white"/>
<path d="M62.4001 107.158H58.0001V111.558H62.4001V107.158Z" fill="white"/>
<path d="M62.4001 111.558H58.0001V115.958H62.4001V111.558Z" fill="white"/>
<path d="M62.4001 120.358H58.0001V124.758H62.4001V120.358Z" fill="white"/>
<path d="M62.4001 129.158H60.2001C58.9851 129.158 58.0001 130.143 58.0001 131.358V131.358C58.0001 132.573 58.9851 133.558 60.2001 133.558V133.558C61.4151 133.558 62.4001 132.573 62.4001 131.358V129.158Z" fill="white"/>
<path d="M62.4001 151.158V151.158C59.97 151.158 58.0001 153.128 58.0001 155.558V155.558H62.4001V151.158Z" fill="white"/>
<path d="M62.4001 155.558H58.0001V159.958H62.4001V155.558Z" fill="white"/>
<path d="M62.4001 159.958H58.0001V164.358H62.4001V159.958Z" fill="white"/>
<path d="M62.4001 164.358H58.0001V168.758H62.4001V164.358Z" fill="white"/>
<path d="M62.4001 168.758H58.0001V173.158H62.4001V168.758Z" fill="white"/>
<path d="M62.4001 181.958H58.0001V186.358V186.358C60.4301 186.358 62.4001 184.388 62.4001 181.958V181.958Z" fill="white"/>
<path d="M66.8001 10.3577H62.4001V14.7577H66.8001V10.3577Z" fill="white"/>
<path d="M66.8001 14.7577H62.4001V19.1577H66.8001V14.7577Z" fill="white"/>
<path d="M66.8001 19.1577H62.4001V23.5577H66.8001V19.1577Z" fill="white"/>
<path d="M66.8001 32.3577H62.4001V36.7577H66.8001V32.3577Z" fill="white"/>
<path d="M66.8001 36.7577H62.4001V38.9577C62.4001 40.1727 63.3851 41.1577 64.6001 41.1577V41.1577C65.8151 41.1577 66.8001 40.1727 66.8001 38.9577V36.7577Z" fill="white"/>
<path d="M66.8001 45.5577H64.6001C63.3851 45.5577 62.4001 46.5426 62.4001 47.7577V47.7577C62.4001 48.9727 63.3851 49.9577 64.6001 49.9577H66.8001V45.5577Z" fill="white"/>
<path d="M66.8001 58.7577H62.4001V63.1577H66.8001V58.7577Z" fill="white"/>
<path d="M66.8001 63.1577H62.4001V67.5577H66.8001V63.1577Z" fill="white"/>
<path d="M66.8001 67.5577H62.4001V71.9577H66.8001V67.5577Z" fill="white"/>
<path d="M66.8001 71.9577H62.4001V76.3577H66.8001V71.9577Z" fill="white"/>
<path d="M66.8001 76.3577H62.4001V80.7577V80.7577C64.8301 80.7577 66.8001 78.7877 66.8001 76.3577V76.3577Z" fill="white"/>
<path d="M66.8001 89.5577V89.5577C64.37 89.5577 62.4001 91.5276 62.4001 93.9577V93.9577H66.8001V89.5577Z" fill="white"/>
<path d="M66.8001 93.9577H62.4001V98.3577H66.8001V93.9577Z" fill="white"/>
<path d="M66.8001 102.758H62.4001V107.158H66.8001V102.758Z" fill="white"/>
<path d="M66.8001 111.558H62.4001V115.958H66.8001V111.558Z" fill="white"/>
<path d="M66.8001 124.758C66.8001 122.328 64.8301 120.358 62.4001 120.358V120.358V124.758H66.8001V124.758Z" fill="white"/>
<path d="M66.8001 124.758H62.4001V129.158V129.158C64.8301 129.158 66.8001 127.188 66.8001 124.758V124.758Z" fill="white"/>
<path d="M66.8001 137.958H64.6001C63.3851 137.958 62.4001 138.943 62.4001 140.158V140.158C62.4001 141.373 63.3851 142.358 64.6001 142.358H66.8001V137.958Z" fill="white"/>
<path d="M66.8001 146.758V146.758C64.37 146.758 62.4001 148.728 62.4001 151.158V151.158H66.8001V146.758Z" fill="white"/>
<path d="M66.8001 164.358H62.4001V168.758V168.758C64.8301 168.758 66.8001 166.788 66.8001 164.358V164.358Z" fill="white"/>
<path d="M66.8001 173.158H62.4001V177.558H66.8001V173.158Z" fill="white"/>
<path d="M66.8001 177.558H62.4001V181.958H66.8001V177.558Z" fill="white"/>
<path d="M71.2001 12.5577C71.2001 11.3426 70.2151 10.3577 69.0001 10.3577H66.8001V14.7577H69.0001C70.2151 14.7577 71.2001 13.7727 71.2001 12.5577V12.5577Z" fill="white"/>
<path d="M71.2001 23.5577H66.8001V23.5577C66.8001 25.9877 68.77 27.9577 71.2001 27.9577V27.9577V23.5577Z" fill="white"/>
<path d="M71.2001 36.7577C71.2001 34.3276 69.2301 32.3577 66.8001 32.3577V32.3577V36.7577H71.2001V36.7577Z" fill="white"/>
<path d="M71.2001 45.5577H66.8001V49.9577H71.2001V45.5577Z" fill="white"/>
<path d="M71.2001 49.9577H66.8001V54.3577H71.2001V49.9577Z" fill="white"/>
<path d="M71.2001 54.3577H66.8001V58.7577H71.2001V54.3577Z" fill="white"/>
<path d="M71.2001 71.9577H66.8001V76.3577H71.2001V71.9577Z" fill="white"/>
<path d="M71.2001 87.3577C71.2001 86.1426 70.2151 85.1577 69.0001 85.1577V85.1577C67.7851 85.1577 66.8001 86.1426 66.8001 87.3577V89.5577H71.2001V87.3577Z" fill="white"/>
<path d="M71.2001 93.9577H66.8001V98.3577H71.2001V93.9577Z" fill="white"/>
<path d="M71.2001 102.758H66.8001V107.158H71.2001V102.758Z" fill="white"/>
<path d="M71.2001 107.158H66.8001V111.558H71.2001V107.158Z" fill="white"/>
<path d="M71.2001 111.558H66.8001V115.958H71.2001V111.558Z" fill="white"/>
<path d="M71.2001 133.558V133.558C68.77 133.558 66.8001 135.528 66.8001 137.958V137.958H71.2001V133.558Z" fill="white"/>
<path d="M71.2001 137.958H66.8001V142.358V142.358C69.2301 142.358 71.2001 140.388 71.2001 137.958V137.958Z" fill="white"/>
<path d="M71.2001 146.758H66.8001V151.158H71.2001V146.758Z" fill="white"/>
<path d="M71.2001 159.958V159.958C68.77 159.958 66.8001 161.928 66.8001 164.358V164.358H71.2001V159.958Z" fill="white"/>
<path d="M71.2001 173.158H66.8001V177.558H71.2001V173.158Z" fill="white"/>
<path d="M71.2001 177.558H66.8001V181.958H71.2001V177.558Z" fill="white"/>
<path d="M71.2001 181.958H66.8001V186.358H71.2001V181.958Z" fill="white"/>
<path d="M71.2001 186.358H66.8001V186.358C66.8001 188.788 68.77 190.758 71.2001 190.758V190.758V186.358Z" fill="white"/>
<path d="M75.6001 21.3577C75.6001 20.1426 74.6151 19.1577 73.4001 19.1577V19.1577C72.1851 19.1577 71.2001 20.1426 71.2001 21.3577V23.5577H75.6001V21.3577Z" fill="white"/>
<path d="M75.6001 23.5577H71.2001V27.9577H75.6001V23.5577Z" fill="white"/>
<path d="M75.6001 41.1577C75.6001 38.7276 73.6301 36.7577 71.2001 36.7577V36.7577V41.1577H75.6001V41.1577Z" fill="white"/>
<path d="M75.6001 41.1577H71.2001V45.5577H75.6001V41.1577Z" fill="white"/>
<path d="M75.6001 54.3577H71.2001V58.7577H75.6001V54.3577Z" fill="white"/>
<path d="M75.6001 58.7577H71.2001V60.9577C71.2001 62.1727 72.1851 63.1577 73.4001 63.1577V63.1577C74.6151 63.1577 75.6001 62.1727 75.6001 60.9577V58.7577Z" fill="white"/>
<path d="M75.6001 71.9577H71.2001V76.3577H75.6001V71.9577Z" fill="white"/>
<path d="M75.6001 76.3577H71.2001V76.3577C71.2001 78.7877 73.17 80.7577 75.6001 80.7577V80.7577V76.3577Z" fill="white"/>
<path d="M75.6001 93.9577C75.6001 91.5276 73.6301 89.5577 71.2001 89.5577V89.5577V93.9577H75.6001V93.9577Z" fill="white"/>
<path d="M75.6001 93.9577H71.2001V98.3577H75.6001V93.9577Z" fill="white"/>
<path d="M75.6001 107.158C75.6001 104.728 73.6301 102.758 71.2001 102.758V102.758V107.158H75.6001V107.158Z" fill="white"/>
<path d="M75.6001 107.158H71.2001V111.558H75.6001V107.158Z" fill="white"/>
<path d="M75.6001 115.958H71.2001V120.358H75.6001V115.958Z" fill="white"/>
<path d="M75.6001 120.358H71.2001V124.758H75.6001V120.358Z" fill="white"/>
<path d="M75.6001 124.758H71.2001V129.158H75.6001V124.758Z" fill="white"/>
<path d="M75.6001 129.158H71.2001V133.558H75.6001V129.158Z" fill="white"/>
<path d="M75.6001 133.558H71.2001V137.958H75.6001V133.558Z" fill="white"/>
<path d="M75.6001 151.158C75.6001 148.728 73.6301 146.758 71.2001 146.758V146.758V151.158H75.6001V151.158Z" fill="white"/>
<path d="M75.6001 151.158H71.2001V153.358C71.2001 154.573 72.1851 155.558 73.4001 155.558V155.558C74.6151 155.558 75.6001 154.573 75.6001 153.358V151.158Z" fill="white"/>
<path d="M75.6001 159.958H71.2001V164.358H75.6001V159.958Z" fill="white"/>
<path d="M75.6001 164.358H71.2001V168.758H75.6001V164.358Z" fill="white"/>
<path d="M75.6001 168.758H71.2001V173.158V173.158C73.6301 173.158 75.6001 171.188 75.6001 168.758V168.758Z" fill="white"/>
<path d="M75.6001 181.958C75.6001 179.528 73.6301 177.558 71.2001 177.558V177.558V181.958H75.6001V181.958Z" fill="white"/>
<path d="M75.6001 181.958H71.2001V186.358H75.6001V181.958Z" fill="white"/>
<path d="M75.6001 186.358H71.2001V190.758H75.6001V186.358Z" fill="white"/>
<path d="M80.0001 10.3577H77.8001C76.5851 10.3577 75.6001 11.3426 75.6001 12.5577V12.5577C75.6001 13.7727 76.5851 14.7577 77.8001 14.7577H80.0001V10.3577Z" fill="white"/>
<path d="M80.0001 23.5577H75.6001V27.9577H80.0001V23.5577Z" fill="white"/>
<path d="M80.0001 27.9577H75.6001V27.9577C75.6001 30.3877 77.57 32.3577 80.0001 32.3577V32.3577V27.9577Z" fill="white"/>
<path d="M80.0001 41.1577H75.6001V45.5577H80.0001V41.1577Z" fill="white"/>
<path d="M80.0001 54.3577H75.6001V58.7577H80.0001V54.3577Z" fill="white"/>
<path d="M80.0001 67.5577V67.5577C77.57 67.5577 75.6001 69.5276 75.6001 71.9577V71.9577H80.0001V67.5577Z" fill="white"/>
<path d="M80.0001 80.7577H75.6001V80.7577C75.6001 83.1877 77.57 85.1577 80.0001 85.1577V85.1577V80.7577Z" fill="white"/>
<path d="M80.0001 93.9577H75.6001V98.3577H80.0001V93.9577Z" fill="white"/>
<path d="M80.0001 111.558C80.0001 109.128 78.0301 107.158 75.6001 107.158V107.158V111.558H80.0001V111.558Z" fill="white"/>
<path d="M80.0001 115.958H75.6001V120.358H80.0001V115.958Z" fill="white"/>
<path d="M80.0001 133.558H75.6001V137.958V137.958C78.0301 137.958 80.0001 135.988 80.0001 133.558V133.558Z" fill="white"/>
<path d="M80.0001 164.358C80.0001 161.928 78.0301 159.958 75.6001 159.958V159.958V164.358H80.0001V164.358Z" fill="white"/>
<path d="M80.0001 164.358H75.6001V168.758H80.0001V164.358Z" fill="white"/>
<path d="M80.0001 186.358H75.6001V190.758H80.0001V186.358Z" fill="white"/>
<path d="M84.4001 14.7577C84.4001 12.3276 82.4301 10.3577 80.0001 10.3577V10.3577V14.7577H84.4001V14.7577Z" fill="white"/>
<path d="M84.4001 14.7577H80.0001V19.1577H84.4001V14.7577Z" fill="white"/>
<path d="M84.4001 19.1577H80.0001V23.5577H84.4001V19.1577Z" fill="white"/>
<path d="M84.4001 32.3577H80.0001V36.7577H84.4001V32.3577Z" fill="white"/>
<path d="M84.4001 36.7577H80.0001V41.1577V41.1577C82.4301 41.1577 84.4001 39.1877 84.4001 36.7577V36.7577Z" fill="white"/>
<path d="M84.4001 45.5577H80.0001V45.5577C80.0001 47.9877 81.97 49.9577 84.4001 49.9577V49.9577V45.5577Z" fill="white"/>
<path d="M84.4001 56.5577C84.4001 55.3426 83.4151 54.3577 82.2001 54.3577H80.0001V58.7577H82.2001C83.4151 58.7577 84.4001 57.7727 84.4001 56.5577V56.5577Z" fill="white"/>
<path d="M84.4001 65.3577C84.4001 64.1426 83.4151 63.1577 82.2001 63.1577V63.1577C80.9851 63.1577 80.0001 64.1426 80.0001 65.3577V67.5577H84.4001V65.3577Z" fill="white"/>
<path d="M84.4001 67.5577H80.0001V71.9577H84.4001V67.5577Z" fill="white"/>
<path d="M84.4001 71.9577H80.0001V76.3577H84.4001V71.9577Z" fill="white"/>
<path d="M84.4001 76.3577H80.0001V80.7577H84.4001V76.3577Z" fill="white"/>
<path d="M84.4001 85.1577H80.0001V89.5577H84.4001V85.1577Z" fill="white"/>
<path d="M84.4001 89.5577H80.0001V93.9577H84.4001V89.5577Z" fill="white"/>
<path d="M84.4001 98.3577H80.0001V100.558C80.0001 101.773 80.9851 102.758 82.2001 102.758V102.758C83.4151 102.758 84.4001 101.773 84.4001 100.558V98.3577Z" fill="white"/>
<path d="M84.4001 111.558H80.0001V115.958H84.4001V111.558Z" fill="white"/>
<path d="M84.4001 124.758C84.4001 122.328 82.4301 120.358 80.0001 120.358V120.358V120.358C80.0001 122.788 81.97 124.758 84.4001 124.758V124.758V124.758Z" fill="white"/>
<path d="M84.4001 129.158V129.158C81.97 129.158 80.0001 131.128 80.0001 133.558V133.558H84.4001V129.158Z" fill="white"/>
<path d="M84.4001 144.558C84.4001 143.343 83.4151 142.358 82.2001 142.358V142.358C80.9851 142.358 80.0001 143.343 80.0001 144.558V144.558C80.0001 145.773 80.9851 146.758 82.2001 146.758V146.758C83.4151 146.758 84.4001 145.773 84.4001 144.558V144.558Z" fill="white"/>
<path d="M84.4001 151.158H82.2001C80.9851 151.158 80.0001 152.143 80.0001 153.358V153.358C80.0001 154.573 80.9851 155.558 82.2001 155.558H84.4001V151.158Z" fill="white"/>
<path d="M84.4001 168.758H80.0001V170.958C80.0001 172.173 80.9851 173.158 82.2001 173.158V173.158C83.4151 173.158 84.4001 172.173 84.4001 170.958V168.758Z" fill="white"/>
<path d="M84.4001 184.158C84.4001 182.943 83.4151 181.958 82.2001 181.958V181.958C80.9851 181.958 80.0001 182.943 80.0001 184.158V186.358H84.4001V184.158Z" fill="white"/>
<path d="M84.4001 186.358H80.0001V190.758V190.758C82.4301 190.758 84.4001 188.788 84.4001 186.358V186.358Z" fill="white"/>
<path d="M88.8001 19.1577C88.8001 16.7276 86.8301 14.7577 84.4001 14.7577V14.7577V19.1577H88.8001V19.1577Z" fill="white"/>
<path d="M88.8001 19.1577H84.4001V23.5577H88.8001V19.1577Z" fill="white"/>
<path d="M88.8001 23.5577H84.4001V23.5577C84.4001 25.9877 86.37 27.9577 88.8001 27.9577V27.9577V23.5577Z" fill="white"/>
<path d="M88.8001 32.3577H84.4001V36.7577H88.8001V32.3577Z" fill="white"/>
<path d="M88.8001 45.5577H84.4001V49.9577V49.9577C86.8301 49.9577 88.8001 47.9877 88.8001 45.5577V45.5577Z" fill="white"/>
<path d="M88.8001 71.9577C88.8001 69.5276 86.8301 67.5577 84.4001 67.5577V67.5577V71.9577H88.8001V71.9577Z" fill="white"/>
<path d="M88.8001 85.1577C88.8001 82.7276 86.8301 80.7577 84.4001 80.7577V80.7577V85.1577H88.8001V85.1577Z" fill="white"/>
<path d="M88.8001 89.5577H84.4001V93.9577H88.8001V89.5577Z" fill="white"/>
<path d="M88.8001 93.9577H84.4001V98.3577H88.8001V93.9577Z" fill="white"/>
<path d="M88.8001 107.158V107.158C86.37 107.158 84.4001 109.128 84.4001 111.558V111.558H88.8001V107.158Z" fill="white"/>
<path d="M88.8001 111.558H84.4001V115.958V115.958C86.8301 115.958 88.8001 113.988 88.8001 111.558V111.558Z" fill="white"/>
<path d="M88.8001 124.758H84.4001V129.158H88.8001V124.758Z" fill="white"/>
<path d="M88.8001 129.158H84.4001V133.558H88.8001V129.158Z" fill="white"/>
<path d="M88.8001 155.558C88.8001 153.128 86.8301 151.158 84.4001 151.158V151.158V155.558H88.8001V155.558Z" fill="white"/>
<path d="M88.8001 155.558H84.4001V155.558C84.4001 157.988 86.37 159.958 88.8001 159.958V159.958V155.558Z" fill="white"/>
<path d="M88.8001 166.558C88.8001 165.343 87.8151 164.358 86.6001 164.358V164.358C85.3851 164.358 84.4001 165.343 84.4001 166.558V168.758H88.8001V166.558Z" fill="white"/>
<path d="M93.2001 27.9577H88.8001V32.3577H93.2001V27.9577Z" fill="white"/>
<path d="M93.2001 32.3577H88.8001V36.7577H93.2001V32.3577Z" fill="white"/>
<path d="M93.2001 36.7577H88.8001V41.1577H93.2001V36.7577Z" fill="white"/>
<path d="M93.2001 41.1577H88.8001V45.5577H93.2001V41.1577Z" fill="white"/>
<path d="M93.2001 54.3577H91.0001C89.7851 54.3577 88.8001 55.3426 88.8001 56.5577V56.5577C88.8001 57.7727 89.7851 58.7577 91.0001 58.7577H93.2001V54.3577Z" fill="white"/>
<path d="M93.2001 71.9577H88.8001V71.9577C88.8001 74.3877 90.77 76.3577 93.2001 76.3577V76.3577V71.9577Z" fill="white"/>
<path d="M93.2001 85.1577H88.8001V89.5577H93.2001V85.1577Z" fill="white"/>
<path d="M93.2001 89.5577H88.8001V93.9577H93.2001V89.5577Z" fill="white"/>
<path d="M93.2001 93.9577H88.8001V98.3577V98.3577C91.2301 98.3577 93.2001 96.3877 93.2001 93.9577V93.9577Z" fill="white"/>
<path d="M93.2001 104.958C93.2001 103.743 92.2151 102.758 91.0001 102.758V102.758C89.7851 102.758 88.8001 103.743 88.8001 104.958V107.158H91.0001C92.2151 107.158 93.2001 106.173 93.2001 104.958V104.958Z" fill="white"/>
<path d="M93.2001 120.358V120.358C90.77 120.358 88.8001 122.328 88.8001 124.758V124.758H93.2001V120.358Z" fill="white"/>
<path d="M93.2001 124.758H88.8001V129.158H93.2001V124.758Z" fill="white"/>
<path d="M93.2001 129.158H88.8001V133.558H93.2001V129.158Z" fill="white"/>
<path d="M93.2001 133.558H88.8001V133.558C88.8001 135.988 90.77 137.958 93.2001 137.958V137.958V133.558Z" fill="white"/>
<path d="M93.2001 155.558H88.8001V159.958H93.2001V155.558Z" fill="white"/>
<path d="M93.2001 168.758H88.8001V168.758C88.8001 171.188 90.77 173.158 93.2001 173.158V173.158V168.758Z" fill="white"/>
<path d="M97.6001 14.7577H95.4001C94.1851 14.7577 93.2001 15.7426 93.2001 16.9577V16.9577C93.2001 18.1727 94.1851 19.1577 95.4001 19.1577H97.6001V14.7577Z" fill="white"/>
<path d="M97.6001 23.5577V23.5577C95.17 23.5577 93.2001 25.5276 93.2001 27.9577V27.9577H97.6001V23.5577Z" fill="white"/>
<path d="M97.6001 27.9577H93.2001V32.3577V32.3577C95.6301 32.3577 97.6001 30.3877 97.6001 27.9577V27.9577Z" fill="white"/>
<path d="M97.6001 41.1577H93.2001V45.5577H97.6001V41.1577Z" fill="white"/>
<path d="M97.6001 45.5577H93.2001V49.9577H97.6001V45.5577Z" fill="white"/>
<path d="M97.6001 49.9577H93.2001V54.3577H97.6001V49.9577Z" fill="white"/>
<path d="M97.6001 54.3577H93.2001V58.7577H97.6001V54.3577Z" fill="white"/>
<path d="M97.6001 58.7577H93.2001V58.7577C93.2001 61.1877 95.17 63.1577 97.6001 63.1577V63.1577V58.7577Z" fill="white"/>
<path d="M97.6001 69.7577C97.6001 68.5426 96.6151 67.5577 95.4001 67.5577V67.5577C94.1851 67.5577 93.2001 68.5426 93.2001 69.7577V71.9577H97.6001V69.7577Z" fill="white"/>
<path d="M97.6001 71.9577H93.2001V76.3577V76.3577C95.6301 76.3577 97.6001 74.3877 97.6001 71.9577V71.9577Z" fill="white"/>
<path d="M97.6001 85.1577H93.2001V89.5577H97.6001V85.1577Z" fill="white"/>
<path d="M97.6001 113.758C97.6001 112.543 96.6151 111.558 95.4001 111.558V111.558C94.1851 111.558 93.2001 112.543 93.2001 113.758V115.958H97.6001V113.758Z" fill="white"/>
<path d="M97.6001 115.958H93.2001V120.358H97.6001V115.958Z" fill="white"/>
<path d="M97.6001 120.358H93.2001V124.758H97.6001V120.358Z" fill="white"/>
<path d="M97.6001 124.758H93.2001V129.158H97.6001V124.758Z" fill="white"/>
<path d="M97.6001 137.958C97.6001 135.528 95.6301 133.558 93.2001 133.558V133.558V137.958H97.6001V137.958Z" fill="white"/>
<path d="M97.6001 137.958H93.2001V142.358H97.6001V137.958Z" fill="white"/>
<path d="M97.6001 142.358H93.2001V146.758H97.6001V142.358Z" fill="white"/>
<path d="M97.6001 146.758H93.2001V151.158H97.6001V146.758Z" fill="white"/>
<path d="M97.6001 151.158H93.2001V155.558H97.6001V151.158Z" fill="white"/>
<path d="M97.6001 159.958H93.2001V164.358H97.6001V159.958Z" fill="white"/>
<path d="M97.6001 164.358H93.2001V168.758H97.6001V164.358Z" fill="white"/>
<path d="M97.6001 173.158H93.2001V177.558H97.6001V173.158Z" fill="white"/>
<path d="M97.6001 177.558H93.2001V177.558C93.2001 179.988 95.17 181.958 97.6001 181.958V181.958V177.558Z" fill="white"/>
<path d="M97.6001 186.358H95.4001C94.1851 186.358 93.2001 187.343 93.2001 188.558V188.558C93.2001 189.773 94.1851 190.758 95.4001 190.758V190.758C96.6151 190.758 97.6001 189.773 97.6001 188.558V186.358Z" fill="white"/>
<path d="M102 10.3577V10.3577C99.57 10.3577 97.6001 12.3276 97.6001 14.7577V14.7577H102V10.3577Z" fill="white"/>
<path d="M102 14.7577H97.6001V19.1577H102V14.7577Z" fill="white"/>
<path d="M102 19.1577H97.6001V23.5577V23.5577C100.03 23.5577 102 21.5877 102 19.1577V19.1577Z" fill="white"/>
<path d="M102 38.9577C102 37.7426 101.015 36.7577 99.8001 36.7577V36.7577C98.5851 36.7577 97.6001 37.7426 97.6001 38.9577V41.1577H99.8001C101.015 41.1577 102 40.1727 102 38.9577V38.9577Z" fill="white"/>
<path d="M102 49.9577C102 47.5276 100.03 45.5577 97.6001 45.5577V45.5577V49.9577H102V49.9577Z" fill="white"/>
<path d="M102 49.9577H97.6001V54.3577H102V49.9577Z" fill="white"/>
<path d="M102 54.3577H97.6001V58.7577H102V54.3577Z" fill="white"/>
<path d="M102 58.7577H97.6001V63.1577H102V58.7577Z" fill="white"/>
<path d="M102 80.7577V80.7577C99.57 80.7577 97.6001 82.7276 97.6001 85.1577V85.1577V85.1577C100.03 85.1577 102 83.1877 102 80.7577V80.7577Z" fill="white"/>
<path d="M102 93.9577C102 91.5276 100.03 89.5577 97.6001 89.5577V89.5577V93.9577H102V93.9577Z" fill="white"/>
<path d="M102 93.9577H97.6001V98.3577H102V93.9577Z" fill="white"/>
<path d="M102 98.3577H97.6001V98.3577C97.6001 100.788 99.57 102.758 102 102.758V102.758V98.3577Z" fill="white"/>
<path d="M102 124.758C102 122.328 100.03 120.358 97.6001 120.358V120.358V124.758H102V124.758Z" fill="white"/>
<path d="M102 124.758H97.6001V129.158V129.158C100.03 129.158 102 127.188 102 124.758V124.758Z" fill="white"/>
<path d="M102 146.758H97.6001V151.158H102V146.758Z" fill="white"/>
<path d="M102 155.558H97.6001V159.958H102V155.558Z" fill="white"/>
<path d="M102 159.958H97.6001V164.358H102V159.958Z" fill="white"/>
<path d="M102 168.758H97.6001V173.158H102V168.758Z" fill="white"/>
<path d="M102 173.158H97.6001V177.558H102V173.158Z" fill="white"/>
<path d="M102 177.558H97.6001V181.958H102V177.558Z" fill="white"/>
<path d="M102 181.958H97.6001V186.358H102V181.958Z" fill="white"/>
<path d="M106.4 10.3577H102V14.7577H106.4V10.3577Z" fill="white"/>
<path d="M106.4 30.1577C106.4 28.9426 105.415 27.9577 104.2 27.9577V27.9577C102.985 27.9577 102 28.9426 102 30.1577V30.1577C102 31.3727 102.985 32.3577 104.2 32.3577H106.4V30.1577Z" fill="white"/>
<path d="M106.4 54.3577H102V58.7577H106.4V54.3577Z" fill="white"/>
<path d="M106.4 58.7577H102V63.1577H106.4V58.7577Z" fill="white"/>
<path d="M106.4 63.1577H102V63.1577C102 65.5877 103.97 67.5577 106.4 67.5577V67.5577V63.1577Z" fill="white"/>
<path d="M106.4 76.3577V76.3577C103.97 76.3577 102 78.3276 102 80.7577V80.7577H106.4V76.3577Z" fill="white"/>
<path d="M106.4 93.9577H102V98.3577H106.4V93.9577Z" fill="white"/>
<path d="M106.4 98.3577H102V102.758V102.758C104.43 102.758 106.4 100.788 106.4 98.3577V98.3577Z" fill="white"/>
<path d="M106.4 135.758C106.4 134.543 105.415 133.558 104.2 133.558V133.558C102.985 133.558 102 134.543 102 135.758V137.958H106.4V135.758Z" fill="white"/>
<path d="M106.4 137.958H102V142.358H106.4V137.958Z" fill="white"/>
<path d="M106.4 142.358H102V146.758H106.4V142.358Z" fill="white"/>
<path d="M106.4 146.758H102V151.158H106.4V146.758Z" fill="white"/>
<path d="M106.4 151.158H102V155.558H106.4V151.158Z" fill="white"/>
<path d="M106.4 155.558H102V159.958H106.4V155.558Z" fill="white"/>
<path d="M106.4 159.958H102V164.358H106.4V159.958Z" fill="white"/>
<path d="M106.4 164.358H102V168.758H106.4V164.358Z" fill="white"/>
<path d="M106.4 168.758H102V173.158H106.4V168.758Z" fill="white"/>
<path d="M106.4 181.958H102V186.358H106.4V181.958Z" fill="white"/>
<path d="M106.4 186.358H102V188.558C102 189.773 102.985 190.758 104.2 190.758V190.758C105.415 190.758 106.4 189.773 106.4 188.558V186.358Z" fill="white"/>
<path d="M110.8 10.3577H106.4V14.7577H110.8V10.3577Z" fill="white"/>
<path d="M110.8 32.3577H106.4V36.7577H110.8V32.3577Z" fill="white"/>
<path d="M110.8 36.7577H106.4V38.9577C106.4 40.1727 107.385 41.1577 108.6 41.1577V41.1577C109.815 41.1577 110.8 40.1727 110.8 38.9577V36.7577Z" fill="white"/>
<path d="M110.8 47.7577C110.8 46.5426 109.815 45.5577 108.6 45.5577V45.5577C107.385 45.5577 106.4 46.5426 106.4 47.7577V49.9577H110.8V47.7577Z" fill="white"/>
<path d="M110.8 49.9577H106.4V54.3577H110.8V49.9577Z" fill="white"/>
<path d="M110.8 58.7577H106.4V63.1577H110.8V58.7577Z" fill="white"/>
<path d="M110.8 63.1577H106.4V67.5577V67.5577C108.83 67.5577 110.8 65.5877 110.8 63.1577V63.1577Z" fill="white"/>
<path d="M110.8 74.1577C110.8 72.9426 109.815 71.9577 108.6 71.9577V71.9577C107.385 71.9577 106.4 72.9426 106.4 74.1577V76.3577H108.6C109.815 76.3577 110.8 75.3727 110.8 74.1577V74.1577Z" fill="white"/>
<path d="M110.8 85.1577C110.8 82.7276 108.83 80.7577 106.4 80.7577V80.7577V80.7577C106.4 83.1877 108.37 85.1577 110.8 85.1577V85.1577V85.1577Z" fill="white"/>
<path d="M110.8 89.5577V89.5577C108.37 89.5577 106.4 91.5276 106.4 93.9577V93.9577H110.8V89.5577Z" fill="white"/>
<path d="M110.8 111.558V111.558C108.37 111.558 106.4 113.528 106.4 115.958V115.958H110.8V111.558Z" fill="white"/>
<path d="M110.8 115.958H106.4V115.958C106.4 118.388 108.37 120.358 110.8 120.358V120.358V115.958Z" fill="white"/>
<path d="M110.8 142.358C110.8 139.928 108.83 137.958 106.4 137.958V137.958V142.358H110.8V142.358Z" fill="white"/>
<path d="M110.8 142.358H106.4V146.758H110.8V142.358Z" fill="white"/>
<path d="M110.8 155.558H106.4V159.958H110.8V155.558Z" fill="white"/>
<path d="M110.8 164.358H106.4V168.758H110.8V164.358Z" fill="white"/>
<path d="M110.8 168.758H106.4V173.158H110.8V168.758Z" fill="white"/>
<path d="M110.8 173.158H106.4V177.558H110.8V173.158Z" fill="white"/>
<path d="M110.8 177.558H106.4V181.958H110.8V177.558Z" fill="white"/>
<path d="M110.8 181.958H106.4V186.358V186.358C108.83 186.358 110.8 184.388 110.8 181.958V181.958Z" fill="white"/>
<path d="M115.2 14.7577C115.2 12.3276 113.23 10.3577 110.8 10.3577V10.3577V14.7577H115.2V14.7577Z" fill="white"/>
<path d="M115.2 14.7577H110.8V14.7577C110.8 17.1877 112.77 19.1577 115.2 19.1577V19.1577V14.7577Z" fill="white"/>
<path d="M115.2 23.5577H113C111.785 23.5577 110.8 24.5426 110.8 25.7577V25.7577C110.8 26.9727 111.785 27.9577 113 27.9577H115.2V23.5577Z" fill="white"/>
<path d="M115.2 32.3577H110.8V36.7577H115.2V32.3577Z" fill="white"/>
<path d="M115.2 49.9577H110.8V54.3577H115.2V49.9577Z" fill="white"/>
<path d="M115.2 54.3577H110.8V58.7577H115.2V54.3577Z" fill="white"/>
<path d="M115.2 58.7577H110.8V63.1577H115.2V58.7577Z" fill="white"/>
<path d="M115.2 87.3577C115.2 86.1426 114.215 85.1577 113 85.1577H110.8V89.5577H113C114.215 89.5577 115.2 88.5727 115.2 87.3577V87.3577Z" fill="white"/>
<path d="M115.2 93.9577H110.8V98.3577H115.2V93.9577Z" fill="white"/>
<path d="M115.2 98.3577H110.8V98.3577C110.8 100.788 112.77 102.758 115.2 102.758V102.758V98.3577Z" fill="white"/>
<path d="M115.2 111.558H110.8V115.958H115.2V111.558Z" fill="white"/>
<path d="M115.2 115.958H110.8V120.358H115.2V115.958Z" fill="white"/>
<path d="M115.2 120.358H110.8V120.358C110.8 122.788 112.77 124.758 115.2 124.758V124.758V120.358Z" fill="white"/>
<path d="M115.2 148.958C115.2 147.743 114.215 146.758 113 146.758H110.8V148.958C110.8 150.173 111.785 151.158 113 151.158V151.158C114.215 151.158 115.2 150.173 115.2 148.958V148.958Z" fill="white"/>
<path d="M115.2 157.758C115.2 156.543 114.215 155.558 113 155.558H110.8V159.958H113C114.215 159.958 115.2 158.973 115.2 157.758V157.758Z" fill="white"/>
<path d="M115.2 166.558C115.2 165.343 114.215 164.358 113 164.358H110.8V168.758H113C114.215 168.758 115.2 167.773 115.2 166.558V166.558Z" fill="white"/>
<path d="M115.2 177.558C115.2 175.128 113.23 173.158 110.8 173.158V173.158V177.558H115.2V177.558Z" fill="white"/>
<path d="M119.6 14.7577H115.2V19.1577H119.6V14.7577Z" fill="white"/>
<path d="M119.6 23.5577H115.2V27.9577H119.6V23.5577Z" fill="white"/>
<path d="M119.6 32.3577H115.2V36.7577H119.6V32.3577Z" fill="white"/>
<path d="M119.6 36.7577H115.2V36.7577C115.2 39.1877 117.17 41.1577 119.6 41.1577V41.1577V36.7577Z" fill="white"/>
<path d="M119.6 45.5577V45.5577C117.17 45.5577 115.2 47.5276 115.2 49.9577V49.9577H119.6V45.5577Z" fill="white"/>
<path d="M119.6 49.9577H115.2V54.3577H119.6V49.9577Z" fill="white"/>
<path d="M119.6 63.1577H115.2V67.5577H119.6V63.1577Z" fill="white"/>
<path d="M119.6 67.5577H115.2V69.7577C115.2 70.9727 116.185 71.9577 117.4 71.9577V71.9577C118.615 71.9577 119.6 70.9727 119.6 69.7577V67.5577Z" fill="white"/>
<path d="M119.6 76.3577H117.4C116.185 76.3577 115.2 77.3426 115.2 78.5577V78.5577C115.2 79.7727 116.185 80.7577 117.4 80.7577H119.6V76.3577Z" fill="white"/>
<path d="M119.6 98.3577C119.6 95.9276 117.63 93.9577 115.2 93.9577V93.9577V98.3577H119.6V98.3577Z" fill="white"/>
<path d="M119.6 98.3577H115.2V102.758H119.6V98.3577Z" fill="white"/>
<path d="M119.6 115.958C119.6 113.528 117.63 111.558 115.2 111.558V111.558V115.958H119.6V115.958Z" fill="white"/>
<path d="M119.6 115.958H115.2V120.358H119.6V115.958Z" fill="white"/>
<path d="M119.6 120.358H115.2V124.758H119.6V120.358Z" fill="white"/>
<path d="M119.6 124.758H115.2V129.158H119.6V124.758Z" fill="white"/>
<path d="M119.6 129.158H115.2V129.158C115.2 131.588 117.17 133.558 119.6 133.558V133.558V129.158Z" fill="white"/>
<path d="M119.6 137.958H117.4C116.185 137.958 115.2 138.943 115.2 140.158V140.158C115.2 141.373 116.185 142.358 117.4 142.358H119.6V137.958Z" fill="white"/>
<path d="M119.6 177.558H115.2V181.958H119.6V177.558Z" fill="white"/>
<path d="M119.6 181.958H115.2V181.958C115.2 184.388 117.17 186.358 119.6 186.358V186.358V181.958Z" fill="white"/>
<path d="M124 12.5577C124 11.3426 123.015 10.3577 121.8 10.3577V10.3577C120.585 10.3577 119.6 11.3426 119.6 12.5577V14.7577H121.8C123.015 14.7577 124 13.7727 124 12.5577V12.5577Z" fill="white"/>
<path d="M124 19.1577H119.6V23.5577H124V19.1577Z" fill="white"/>
<path d="M124 23.5577H119.6V27.9577H124V23.5577Z" fill="white"/>
<path d="M124 27.9577H119.6V32.3577V32.3577C122.03 32.3577 124 30.3877 124 27.9577V27.9577Z" fill="white"/>
<path d="M124 41.1577H119.6V45.5577H124V41.1577Z" fill="white"/>
<path d="M124 45.5577H119.6V49.9577H124V45.5577Z" fill="white"/>
<path d="M124 49.9577H119.6V54.3577H124V49.9577Z" fill="white"/>
<path d="M124 63.1577H119.6V67.5577V67.5577C122.03 67.5577 124 65.5877 124 63.1577V63.1577Z" fill="white"/>
<path d="M124 76.3577H119.6V80.7577H124V76.3577Z" fill="white"/>
<path d="M124 80.7577H119.6V80.7577C119.6 83.1877 121.57 85.1577 124 85.1577V85.1577V80.7577Z" fill="white"/>
<path d="M124 98.3577H119.6V102.758H124V98.3577Z" fill="white"/>
<path d="M124 115.958H119.6V120.358H124V115.958Z" fill="white"/>
<path d="M124 129.158C124 126.728 122.03 124.758 119.6 124.758V124.758V129.158H124V129.158Z" fill="white"/>
<path d="M124 129.158H119.6V133.558V133.558C122.03 133.558 124 131.588 124 129.158V129.158Z" fill="white"/>
<path d="M124 142.358C124 139.928 122.03 137.958 119.6 137.958V137.958V142.358H124V142.358Z" fill="white"/>
<path d="M124 146.758V146.758C121.57 146.758 119.6 148.728 119.6 151.158V151.158H124V146.758Z" fill="white"/>
<path d="M124 151.158H119.6V151.158C119.6 153.588 121.57 155.558 124 155.558V155.558V151.158Z" fill="white"/>
<path d="M124 159.958V159.958C121.57 159.958 119.6 161.928 119.6 164.358V164.358H124V159.958Z" fill="white"/>
<path d="M124 164.358H119.6V164.358C119.6 166.788 121.57 168.758 124 168.758V168.758V164.358Z" fill="white"/>
<path d="M124 173.158V173.158C121.57 173.158 119.6 175.128 119.6 177.558V177.558H124V173.158Z" fill="white"/>
<path d="M124 177.558H119.6V181.958H124V177.558Z" fill="white"/>
<path d="M124 181.958H119.6V186.358H124V181.958Z" fill="white"/>
<path d="M124 186.358H119.6V186.358C119.6 188.788 121.57 190.758 124 190.758V190.758V186.358Z" fill="white"/>
<path d="M128.4 19.1577H124V23.5577H128.4V19.1577Z" fill="white"/>
<path d="M128.4 23.5577H124V27.9577V27.9577C126.43 27.9577 128.4 25.9877 128.4 23.5577V23.5577Z" fill="white"/>
<path d="M128.4 36.7577V36.7577C125.97 36.7577 124 38.7276 124 41.1577V41.1577H128.4V36.7577Z" fill="white"/>
<path d="M128.4 49.9577H124V54.3577H128.4V49.9577Z" fill="white"/>
<path d="M128.4 60.9577C128.4 59.7426 127.415 58.7577 126.2 58.7577V58.7577C124.985 58.7577 124 59.7426 124 60.9577V63.1577H128.4V60.9577Z" fill="white"/>
<path d="M128.4 74.1577C128.4 72.9426 127.415 71.9577 126.2 71.9577V71.9577C124.985 71.9577 124 72.9426 124 74.1577V76.3577H128.4V74.1577Z" fill="white"/>
<path d="M128.4 76.3577H124V80.7577H128.4V76.3577Z" fill="white"/>
<path d="M128.4 80.7577H124V85.1577V85.1577C126.43 85.1577 128.4 83.1877 128.4 80.7577V80.7577Z" fill="white"/>
<path d="M128.4 91.7577C128.4 90.5426 127.415 89.5577 126.2 89.5577V89.5577C124.985 89.5577 124 90.5426 124 91.7577V93.9577H128.4V91.7577Z" fill="white"/>
<path d="M128.4 93.9577H124V98.3577H128.4V93.9577Z" fill="white"/>
<path d="M128.4 102.758H124V102.758C124 105.188 125.97 107.158 128.4 107.158V107.158V102.758Z" fill="white"/>
<path d="M128.4 115.958H124V120.358V120.358C126.43 120.358 128.4 118.388 128.4 115.958V115.958Z" fill="white"/>
<path d="M128.4 146.758C128.4 144.328 126.43 142.358 124 142.358V142.358V146.758H128.4V146.758Z" fill="white"/>
<path d="M128.4 146.758H124V151.158H128.4V146.758Z" fill="white"/>
<path d="M128.4 151.158H124V155.558H128.4V151.158Z" fill="white"/>
<path d="M128.4 155.558H124V159.958H128.4V155.558Z" fill="white"/>
<path d="M128.4 164.358H124V168.758H128.4V164.358Z" fill="white"/>
<path d="M128.4 173.158H124V177.558H128.4V173.158Z" fill="white"/>
<path d="M128.4 186.358C128.4 183.928 126.43 181.958 124 181.958V181.958V186.358H128.4V186.358Z" fill="white"/>
<path d="M128.4 186.358H124V190.758H128.4V186.358Z" fill="white"/>
<path d="M132.8 10.3577V10.3577C130.37 10.3577 128.4 12.3276 128.4 14.7577V14.7577H132.8V10.3577Z" fill="white"/>
<path d="M132.8 14.7577H128.4V19.1577H132.8V14.7577Z" fill="white"/>
<path d="M132.8 32.3577V32.3577C130.37 32.3577 128.4 34.3276 128.4 36.7577V36.7577H132.8V32.3577Z" fill="white"/>
<path d="M132.8 41.1577H128.4V45.5577H132.8V41.1577Z" fill="white"/>
<path d="M132.8 45.5577H128.4V49.9577H132.8V45.5577Z" fill="white"/>
<path d="M132.8 49.9577H128.4V54.3577V54.3577C130.83 54.3577 132.8 52.3877 132.8 49.9577V49.9577Z" fill="white"/>
<path d="M132.8 63.1577H128.4V63.1577C128.4 65.5877 130.37 67.5577 132.8 67.5577V67.5577V63.1577Z" fill="white"/>
<path d="M132.8 98.3577C132.8 95.9276 130.83 93.9577 128.4 93.9577V93.9577V98.3577H132.8V98.3577Z" fill="white"/>
<path d="M132.8 102.758H128.4V107.158H132.8V102.758Z" fill="white"/>
<path d="M132.8 107.158H128.4V111.558H132.8V107.158Z" fill="white"/>
<path d="M132.8 111.558H128.4V115.958H132.8V111.558Z" fill="white"/>
<path d="M132.8 129.158H130.6C129.385 129.158 128.4 130.143 128.4 131.358V131.358C128.4 132.573 129.385 133.558 130.6 133.558H132.8V129.158Z" fill="white"/>
<path d="M132.8 146.758H128.4V151.158H132.8V146.758Z" fill="white"/>
<path d="M132.8 151.158H128.4V155.558H132.8V151.158Z" fill="white"/>
<path d="M132.8 155.558H128.4V159.958H132.8V155.558Z" fill="white"/>
<path d="M132.8 164.358H128.4V168.758H132.8V164.358Z" fill="white"/>
<path d="M132.8 173.158H128.4V177.558H132.8V173.158Z" fill="white"/>
<path d="M132.8 186.358H128.4V190.758H132.8V186.358Z" fill="white"/>
<path d="M137.2 14.7577C137.2 12.3276 135.23 10.3577 132.8 10.3577V10.3577V14.7577H137.2V14.7577Z" fill="white"/>
<path d="M137.2 14.7577H132.8V19.1577H137.2V14.7577Z" fill="white"/>
<path d="M137.2 32.3577H132.8V36.7577H137.2V32.3577Z" fill="white"/>
<path d="M137.2 36.7577H132.8V41.1577H137.2V36.7577Z" fill="white"/>
<path d="M137.2 41.1577H132.8V45.5577H137.2V41.1577Z" fill="white"/>
<path d="M137.2 45.5577H132.8V49.9577H137.2V45.5577Z" fill="white"/>
<path d="M137.2 60.9577C137.2 59.7426 136.215 58.7577 135 58.7577V58.7577C133.785 58.7577 132.8 59.7426 132.8 60.9577V63.1577H137.2V60.9577Z" fill="white"/>
<path d="M137.2 63.1577H132.8V67.5577H137.2V63.1577Z" fill="white"/>
<path d="M137.2 67.5577H132.8V71.9577H137.2V67.5577Z" fill="white"/>
<path d="M137.2 71.9577H132.8V76.3577H137.2V71.9577Z" fill="white"/>
<path d="M137.2 76.3577H132.8V80.7577H137.2V76.3577Z" fill="white"/>
<path d="M137.2 80.7577H132.8V85.1577H137.2V80.7577Z" fill="white"/>
<path d="M137.2 85.1577H132.8V85.1577C132.8 87.5877 134.77 89.5577 137.2 89.5577V89.5577V85.1577Z" fill="white"/>
<path d="M137.2 98.3577H132.8V102.758V102.758C135.23 102.758 137.2 100.788 137.2 98.3577V98.3577Z" fill="white"/>
<path d="M137.2 115.958C137.2 113.528 135.23 111.558 132.8 111.558V111.558V115.958H137.2V115.958Z" fill="white"/>
<path d="M137.2 120.358H135C133.785 120.358 132.8 121.343 132.8 122.558V122.558C132.8 123.773 133.785 124.758 135 124.758H137.2V120.358Z" fill="white"/>
<path d="M137.2 133.558C137.2 131.128 135.23 129.158 132.8 129.158V129.158V133.558H137.2V133.558Z" fill="white"/>
<path d="M137.2 133.558H132.8V133.558C132.8 135.988 134.77 137.958 137.2 137.958V137.958V133.558Z" fill="white"/>
<path d="M137.2 144.558C137.2 143.343 136.215 142.358 135 142.358V142.358C133.785 142.358 132.8 143.343 132.8 144.558V146.758H137.2V144.558Z" fill="white"/>
<path d="M137.2 146.758H132.8V151.158H137.2V146.758Z" fill="white"/>
<path d="M137.2 151.158H132.8V155.558H137.2V151.158Z" fill="white"/>
<path d="M137.2 155.558H132.8V159.958V159.958C135.23 159.958 137.2 157.988 137.2 155.558V155.558Z" fill="white"/>
<path d="M137.2 164.358H132.8V168.758H137.2V164.358Z" fill="white"/>
<path d="M137.2 168.758H132.8V173.158H137.2V168.758Z" fill="white"/>
<path d="M137.2 173.158H132.8V177.558H137.2V173.158Z" fill="white"/>
<path d="M137.2 181.958V181.958C134.77 181.958 132.8 183.928 132.8 186.358V186.358H137.2V181.958Z" fill="white"/>
<path d="M137.2 186.358H132.8V190.758V190.758C135.23 190.758 137.2 188.788 137.2 186.358V186.358Z" fill="white"/>
<path d="M141.6 14.7577H137.2V19.1577H141.6V14.7577Z" fill="white"/>
<path d="M141.6 19.1577H137.2V19.1577C137.2 21.5877 139.17 23.5577 141.6 23.5577V23.5577V19.1577Z" fill="white"/>
<path d="M141.6 30.1577C141.6 28.9426 140.615 27.9577 139.4 27.9577V27.9577C138.185 27.9577 137.2 28.9426 137.2 30.1577V32.3577H139.4C140.615 32.3577 141.6 31.3727 141.6 30.1577V30.1577Z" fill="white"/>
<path d="M141.6 45.5577H137.2V49.9577V49.9577C139.63 49.9577 141.6 47.9877 141.6 45.5577V45.5577Z" fill="white"/>
<path d="M141.6 63.1577H137.2V67.5577H141.6V63.1577Z" fill="white"/>
<path d="M141.6 76.3577H137.2V80.7577H141.6V76.3577Z" fill="white"/>
<path d="M141.6 80.7577H137.2V85.1577V85.1577C139.63 85.1577 141.6 83.1877 141.6 80.7577V80.7577Z" fill="white"/>
<path d="M141.6 89.5577H137.2V93.9577H141.6V89.5577Z" fill="white"/>
<path d="M141.6 93.9577H137.2V98.3577H141.6V93.9577Z" fill="white"/>
<path d="M141.6 115.958H137.2V120.358H141.6V115.958Z" fill="white"/>
<path d="M141.6 120.358H137.2V124.758H141.6V120.358Z" fill="white"/>
<path d="M141.6 133.558H137.2V137.958H141.6V133.558Z" fill="white"/>
<path d="M141.6 155.558C141.6 153.128 139.63 151.158 137.2 151.158V151.158V155.558H141.6V155.558Z" fill="white"/>
<path d="M141.6 164.358H137.2V168.758H141.6V164.358Z" fill="white"/>
<path d="M141.6 177.558H137.2V181.958H141.6V177.558Z" fill="white"/>
<path d="M146 12.5577C146 11.3426 145.015 10.3577 143.8 10.3577V10.3577C142.585 10.3577 141.6 11.3426 141.6 12.5577V14.7577H143.8C145.015 14.7577 146 13.7727 146 12.5577V12.5577Z" fill="white"/>
<path d="M146 19.1577H141.6V23.5577H146V19.1577Z" fill="white"/>
<path d="M146 38.9577C146 37.7426 145.015 36.7577 143.8 36.7577V36.7577C142.585 36.7577 141.6 37.7426 141.6 38.9577V41.1577H146V38.9577Z" fill="white"/>
<path d="M146 41.1577H141.6V45.5577H146V41.1577Z" fill="white"/>
<path d="M146 54.3577V54.3577C143.57 54.3577 141.6 56.3276 141.6 58.7577V58.7577H146V54.3577Z" fill="white"/>
<path d="M146 58.7577H141.6V63.1577H146V58.7577Z" fill="white"/>
<path d="M146 63.1577H141.6V67.5577H146V63.1577Z" fill="white"/>
<path d="M146 71.9577V71.9577C143.57 71.9577 141.6 73.9276 141.6 76.3577V76.3577H146V71.9577Z" fill="white"/>
<path d="M146 76.3577H141.6V80.7577H146V76.3577Z" fill="white"/>
<path d="M146 89.5577H141.6V93.9577H146V89.5577Z" fill="white"/>
<path d="M146 93.9577H141.6V98.3577H146V93.9577Z" fill="white"/>
<path d="M146 102.758V102.758C143.57 102.758 141.6 104.728 141.6 107.158V107.158H146V102.758Z" fill="white"/>
<path d="M146 107.158H141.6V111.558H146V107.158Z" fill="white"/>
<path d="M146 111.558H141.6V115.958H146V111.558Z" fill="white"/>
<path d="M146 115.958H141.6V120.358H146V115.958Z" fill="white"/>
<path d="M146 129.158C146 126.728 144.03 124.758 141.6 124.758V124.758V129.158H146V129.158Z" fill="white"/>
<path d="M146 129.158H141.6V133.558H146V129.158Z" fill="white"/>
<path d="M146 133.558H141.6V137.958H146V133.558Z" fill="white"/>
<path d="M146 159.958C146 157.528 144.03 155.558 141.6 155.558V155.558V159.958H146V159.958Z" fill="white"/>
<path d="M146 159.958H141.6V164.358H146V159.958Z" fill="white"/>
<path d="M146 164.358H141.6V168.758V168.758C144.03 168.758 146 166.788 146 164.358V164.358Z" fill="white"/>
<path d="M146 177.558H141.6V181.958H146V177.558Z" fill="white"/>
<path d="M146 181.958H141.6V184.158C141.6 185.373 142.585 186.358 143.8 186.358V186.358C145.015 186.358 146 185.373 146 184.158V181.958Z" fill="white"/>
<path d="M150.4 19.1577H146V23.5577H150.4V19.1577Z" fill="white"/>
<path d="M150.4 27.9577H148.2C146.985 27.9577 146 28.9426 146 30.1577V30.1577C146 31.3727 146.985 32.3577 148.2 32.3577V32.3577C149.415 32.3577 150.4 31.3727 150.4 30.1577V27.9577Z" fill="white"/>
<path d="M150.4 41.1577H146V45.5577H150.4V41.1577Z" fill="white"/>
<path d="M150.4 45.5577H146V47.7577C146 48.9727 146.985 49.9577 148.2 49.9577V49.9577C149.415 49.9577 150.4 48.9727 150.4 47.7577V45.5577Z" fill="white"/>
<path d="M150.4 58.7577C150.4 56.3276 148.43 54.3577 146 54.3577V54.3577V58.7577H150.4V58.7577Z" fill="white"/>
<path d="M150.4 58.7577H146V63.1577H150.4V58.7577Z" fill="white"/>
<path d="M150.4 63.1577H146V67.5577H150.4V63.1577Z" fill="white"/>
<path d="M150.4 76.3577C150.4 73.9276 148.43 71.9577 146 71.9577V71.9577V76.3577H150.4V76.3577Z" fill="white"/>
<path d="M150.4 76.3577H146V80.7577H150.4V76.3577Z" fill="white"/>
<path d="M150.4 89.5577H146V93.9577H150.4V89.5577Z" fill="white"/>
<path d="M150.4 98.3577H146V102.758H150.4V98.3577Z" fill="white"/>
<path d="M150.4 107.158H146V111.558H150.4V107.158Z" fill="white"/>
<path d="M150.4 115.958H146V120.358V120.358C148.43 120.358 150.4 118.388 150.4 115.958V115.958Z" fill="white"/>
<path d="M150.4 137.958H146V137.958C146 140.388 147.97 142.358 150.4 142.358V142.358V137.958Z" fill="white"/>
<path d="M150.4 159.958H146V164.358H150.4V159.958Z" fill="white"/>
<path d="M150.4 173.158V173.158C147.97 173.158 146 175.128 146 177.558V177.558H150.4V173.158Z" fill="white"/>
<path d="M150.4 177.558H146V181.958H150.4V177.558Z" fill="white"/>
<path d="M154.8 16.9577C154.8 15.7426 153.815 14.7577 152.6 14.7577V14.7577C151.385 14.7577 150.4 15.7426 150.4 16.9577V19.1577H154.8V16.9577Z" fill="white"/>
<path d="M154.8 19.1577H150.4V23.5577H154.8V19.1577Z" fill="white"/>
<path d="M154.8 23.5577H150.4V27.9577V27.9577C152.83 27.9577 154.8 25.9877 154.8 23.5577V23.5577Z" fill="white"/>
<path d="M154.8 38.9577C154.8 37.7426 153.815 36.7577 152.6 36.7577V36.7577C151.385 36.7577 150.4 37.7426 150.4 38.9577V41.1577H154.8V38.9577Z" fill="white"/>
<path d="M154.8 41.1577H150.4V45.5577H154.8V41.1577Z" fill="white"/>
<path d="M154.8 63.1577H150.4V67.5577V67.5577C152.83 67.5577 154.8 65.5877 154.8 63.1577V63.1577Z" fill="white"/>
<path d="M154.8 76.3577H150.4V80.7577H154.8V76.3577Z" fill="white"/>
<path d="M154.8 80.7577H150.4V82.9577C150.4 84.1727 151.385 85.1577 152.6 85.1577V85.1577C153.815 85.1577 154.8 84.1727 154.8 82.9577V80.7577Z" fill="white"/>
<path d="M154.8 93.9577C154.8 91.5276 152.83 89.5577 150.4 89.5577V89.5577V93.9577H154.8V93.9577Z" fill="white"/>
<path d="M154.8 98.3577H150.4V102.758H154.8V98.3577Z" fill="white"/>
<path d="M154.8 111.558C154.8 109.128 152.83 107.158 150.4 107.158V107.158V111.558H154.8V111.558Z" fill="white"/>
<path d="M154.8 111.558H150.4V115.958H154.8V111.558Z" fill="white"/>
<path d="M154.8 124.758H152.6C151.385 124.758 150.4 125.743 150.4 126.958V126.958C150.4 128.173 151.385 129.158 152.6 129.158H154.8V124.758Z" fill="white"/>
<path d="M154.8 133.558V133.558C152.37 133.558 150.4 135.528 150.4 137.958V137.958H154.8V133.558Z" fill="white"/>
<path d="M154.8 137.958H150.4V142.358H154.8V137.958Z" fill="white"/>
<path d="M154.8 142.358H150.4V142.358C150.4 144.788 152.37 146.758 154.8 146.758V146.758V142.358Z" fill="white"/>
<path d="M154.8 151.158V151.158C152.37 151.158 150.4 153.128 150.4 155.558V155.558H154.8V151.158Z" fill="white"/>
<path d="M154.8 155.558H150.4V159.958H154.8V155.558Z" fill="white"/>
<path d="M154.8 159.958H150.4V164.358H154.8V159.958Z" fill="white"/>
<path d="M154.8 164.358H150.4V168.758H154.8V164.358Z" fill="white"/>
<path d="M154.8 168.758H150.4V173.158H154.8V168.758Z" fill="white"/>
<path d="M154.8 181.958C154.8 179.528 152.83 177.558 150.4 177.558V177.558V181.958H154.8V181.958Z" fill="white"/>
<path d="M154.8 186.358H152.6C151.385 186.358 150.4 187.343 150.4 188.558V188.558C150.4 189.773 151.385 190.758 152.6 190.758H154.8V186.358Z" fill="white"/>
<path d="M159.2 47.7577C159.2 46.5426 158.215 45.5577 157 45.5577H154.8V47.7577C154.8 48.9727 155.785 49.9577 157 49.9577V49.9577C158.215 49.9577 159.2 48.9727 159.2 47.7577V47.7577Z" fill="white"/>
<path d="M159.2 60.9577C159.2 59.7426 158.215 58.7577 157 58.7577V58.7577C155.785 58.7577 154.8 59.7426 154.8 60.9577V63.1577H157C158.215 63.1577 159.2 62.1727 159.2 60.9577V60.9577Z" fill="white"/>
<path d="M159.2 76.3577H154.8V80.7577H159.2V76.3577Z" fill="white"/>
<path d="M159.2 93.9577H154.8V98.3577H159.2V93.9577Z" fill="white"/>
<path d="M159.2 98.3577H154.8V102.758H159.2V98.3577Z" fill="white"/>
<path d="M159.2 111.558H154.8V115.958H159.2V111.558Z" fill="white"/>
<path d="M159.2 124.758H154.8V129.158H159.2V124.758Z" fill="white"/>
<path d="M159.2 137.958C159.2 135.528 157.23 133.558 154.8 133.558V133.558V137.958H159.2V137.958Z" fill="white"/>
<path d="M159.2 137.958H154.8V142.358H159.2V137.958Z" fill="white"/>
<path d="M159.2 146.758H154.8V151.158H159.2V146.758Z" fill="white"/>
<path d="M159.2 151.158H154.8V155.558H159.2V151.158Z" fill="white"/>
<path d="M159.2 168.758H154.8V173.158H159.2V168.758Z" fill="white"/>
<path d="M159.2 181.958H154.8V186.358H159.2V181.958Z" fill="white"/>
<path d="M159.2 186.358H154.8V190.758V190.758C157.23 190.758 159.2 188.788 159.2 186.358V186.358Z" fill="white"/>
<path d="M163.6 67.5577V67.5577C161.17 67.5577 159.2 69.5276 159.2 71.9577V71.9577H163.6V67.5577Z" fill="white"/>
<path d="M163.6 71.9577H159.2V76.3577H163.6V71.9577Z" fill="white"/>
<path d="M163.6 80.7577H159.2V85.1577H163.6V80.7577Z" fill="white"/>
<path d="M163.6 85.1577H159.2V85.1577C159.2 87.5877 161.17 89.5577 163.6 89.5577V89.5577V85.1577Z" fill="white"/>
<path d="M163.6 93.9577H159.2V98.3577H163.6V93.9577Z" fill="white"/>
<path d="M163.6 98.3577H159.2V102.758H163.6V98.3577Z" fill="white"/>
<path d="M163.6 102.758H159.2V107.158H163.6V102.758Z" fill="white"/>
<path d="M163.6 107.158H159.2V111.558H163.6V107.158Z" fill="white"/>
<path d="M163.6 111.558H159.2V115.958H163.6V111.558Z" fill="white"/>
<path d="M163.6 124.758H159.2V129.158H163.6V124.758Z" fill="white"/>
<path d="M163.6 142.358H159.2V146.758H163.6V142.358Z" fill="white"/>
<path d="M163.6 146.758H159.2V151.158H163.6V146.758Z" fill="white"/>
<path d="M163.6 151.158H159.2V155.558H163.6V151.158Z" fill="white"/>
<path d="M163.6 162.158C163.6 160.943 162.615 159.958 161.4 159.958V159.958C160.185 159.958 159.2 160.943 159.2 162.158V162.158C159.2 163.373 160.185 164.358 161.4 164.358V164.358C162.615 164.358 163.6 163.373 163.6 162.158V162.158Z" fill="white"/>
<path d="M163.6 168.758H159.2V173.158H163.6V168.758Z" fill="white"/>
<path d="M163.6 173.158H159.2V175.358C159.2 176.573 160.185 177.558 161.4 177.558V177.558C162.615 177.558 163.6 176.573 163.6 175.358V173.158Z" fill="white"/>
<path d="M163.6 181.958H159.2V186.358H163.6V181.958Z" fill="white"/>
<path d="M168 47.7577C168 46.5426 167.015 45.5577 165.8 45.5577V45.5577C164.585 45.5577 163.6 46.5426 163.6 47.7577V49.9577H168V47.7577Z" fill="white"/>
<path d="M168 49.9577H163.6V52.1577C163.6 53.3727 164.585 54.3577 165.8 54.3577V54.3577C167.015 54.3577 168 53.3727 168 52.1577V49.9577Z" fill="white"/>
<path d="M168 58.7577H165.8C164.585 58.7577 163.6 59.7426 163.6 60.9577V60.9577C163.6 62.1727 164.585 63.1577 165.8 63.1577H168V58.7577Z" fill="white"/>
<path d="M168 67.5577H163.6V71.9577H168V67.5577Z" fill="white"/>
<path d="M168 71.9577H163.6V76.3577H168V71.9577Z" fill="white"/>
<path d="M168 80.7577H163.6V85.1577H168V80.7577Z" fill="white"/>
<path d="M168 85.1577H163.6V89.5577H168V85.1577Z" fill="white"/>
<path d="M168 89.5577H163.6V93.9577V93.9577C166.03 93.9577 168 91.9877 168 89.5577V89.5577Z" fill="white"/>
<path d="M168 111.558C168 109.128 166.03 107.158 163.6 107.158V107.158V111.558H168V111.558Z" fill="white"/>
<path d="M168 111.558H163.6V115.958H168V111.558Z" fill="white"/>
<path d="M168 120.358V120.358C165.57 120.358 163.6 122.328 163.6 124.758V124.758H168V120.358Z" fill="white"/>
<path d="M168 124.758H163.6V129.158H168V124.758Z" fill="white"/>
<path d="M168 129.158H163.6V129.158C163.6 131.588 165.57 133.558 168 133.558V133.558V129.158Z" fill="white"/>
<path d="M168 137.958V137.958C165.57 137.958 163.6 139.928 163.6 142.358V142.358V142.358C166.03 142.358 168 140.388 168 137.958V137.958Z" fill="white"/>
<path d="M168 151.158H163.6V155.558H168V151.158Z" fill="white"/>
<path d="M168 168.758H163.6V173.158H168V168.758Z" fill="white"/>
<path d="M168 181.958H163.6V186.358H168V181.958Z" fill="white"/>
<path d="M168 186.358H163.6V186.358C163.6 188.788 165.57 190.758 168 190.758V190.758V186.358Z" fill="white"/>
<path d="M172.4 63.1577C172.4 60.7276 170.43 58.7577 168 58.7577V58.7577V63.1577H172.4V63.1577Z" fill="white"/>
<path d="M172.4 63.1577H168V67.5577H172.4V63.1577Z" fill="white"/>
<path d="M172.4 67.5577H168V71.9577H172.4V67.5577Z" fill="white"/>
<path d="M172.4 80.7577C172.4 78.3276 170.43 76.3577 168 76.3577V76.3577V80.7577H172.4V80.7577Z" fill="white"/>
<path d="M172.4 85.1577H168V89.5577H172.4V85.1577Z" fill="white"/>
<path d="M172.4 100.558C172.4 99.3426 171.415 98.3577 170.2 98.3577V98.3577C168.985 98.3577 168 99.3426 168 100.558V100.558C168 101.773 168.985 102.758 170.2 102.758H172.4V100.558Z" fill="white"/>
<path d="M172.4 118.158C172.4 116.943 171.415 115.958 170.2 115.958H168V120.358H170.2C171.415 120.358 172.4 119.373 172.4 118.158V118.158Z" fill="white"/>
<path d="M172.4 129.158H168V133.558H172.4V129.158Z" fill="white"/>
<path d="M172.4 133.558H168V137.958H172.4V133.558Z" fill="white"/>
<path d="M172.4 151.158H168V155.558H172.4V151.158Z" fill="white"/>
<path d="M172.4 155.558H168V159.958H172.4V155.558Z" fill="white"/>
<path d="M172.4 159.958H168V164.358H172.4V159.958Z" fill="white"/>
<path d="M172.4 164.358H168V168.758H172.4V164.358Z" fill="white"/>
<path d="M172.4 168.758H168V173.158H172.4V168.758Z" fill="white"/>
<path d="M172.4 177.558V177.558C169.97 177.558 168 179.528 168 181.958V181.958H172.4V177.558Z" fill="white"/>
<path d="M172.4 181.958H168V186.358H172.4V181.958Z" fill="white"/>
<path d="M172.4 186.358H168V190.758V190.758C170.43 190.758 172.4 188.788 172.4 186.358V186.358Z" fill="white"/>
<path d="M176.8 45.5577H174.6C173.385 45.5577 172.4 46.5426 172.4 47.7577V47.7577C172.4 48.9727 173.385 49.9577 174.6 49.9577H176.8V45.5577Z" fill="white"/>
<path d="M176.8 67.5577H172.4V71.9577H176.8V67.5577Z" fill="white"/>
<path d="M176.8 80.7577H172.4V85.1577H176.8V80.7577Z" fill="white"/>
<path d="M176.8 93.9577C176.8 91.5276 174.83 89.5577 172.4 89.5577V89.5577V89.5577C172.4 91.9877 174.37 93.9577 176.8 93.9577V93.9577V93.9577Z" fill="white"/>
<path d="M176.8 102.758H172.4V102.758C172.4 105.188 174.37 107.158 176.8 107.158V107.158V102.758Z" fill="white"/>
<path d="M176.8 133.558C176.8 131.128 174.83 129.158 172.4 129.158V129.158V133.558H176.8V133.558Z" fill="white"/>
<path d="M176.8 133.558H172.4V137.958H176.8V133.558Z" fill="white"/>
<path d="M176.8 137.958H172.4V140.158C172.4 141.373 173.385 142.358 174.6 142.358V142.358C175.815 142.358 176.8 141.373 176.8 140.158V137.958Z" fill="white"/>
<path d="M176.8 148.958C176.8 147.743 175.815 146.758 174.6 146.758V146.758C173.385 146.758 172.4 147.743 172.4 148.958V151.158H176.8V148.958Z" fill="white"/>
<path d="M176.8 168.758H172.4V173.158H176.8V168.758Z" fill="white"/>
<path d="M176.8 173.158H172.4V177.558V177.558C174.83 177.558 176.8 175.588 176.8 173.158V173.158Z" fill="white"/>
<path d="M181.2 45.5577H176.8V49.9577H181.2V45.5577Z" fill="white"/>
<path d="M181.2 49.9577H176.8V49.9577C176.8 52.3877 178.77 54.3577 181.2 54.3577V54.3577V49.9577Z" fill="white"/>
<path d="M181.2 60.9577C181.2 59.7426 180.215 58.7577 179 58.7577V58.7577C177.785 58.7577 176.8 59.7426 176.8 60.9577V63.1577H181.2V60.9577Z" fill="white"/>
<path d="M181.2 63.1577H176.8V67.5577H181.2V63.1577Z" fill="white"/>
<path d="M181.2 67.5577H176.8V71.9577V71.9577C179.23 71.9577 181.2 69.9877 181.2 67.5577V67.5577Z" fill="white"/>
<path d="M181.2 80.7577H176.8V85.1577H181.2V80.7577Z" fill="white"/>
<path d="M181.2 93.9577H176.8V98.3577H181.2V93.9577Z" fill="white"/>
<path d="M181.2 98.3577H176.8V102.758H181.2V98.3577Z" fill="white"/>
<path d="M181.2 107.158H176.8V107.158C176.8 109.588 178.77 111.558 181.2 111.558V111.558V107.158Z" fill="white"/>
<path d="M181.2 118.158C181.2 116.943 180.215 115.958 179 115.958V115.958C177.785 115.958 176.8 116.943 176.8 118.158V120.358H181.2V118.158Z" fill="white"/>
<path d="M181.2 120.358H176.8V120.358C176.8 122.788 178.77 124.758 181.2 124.758V124.758V120.358Z" fill="white"/>
<path d="M181.2 133.558H176.8V137.958H181.2V133.558Z" fill="white"/>
<path d="M181.2 151.158H176.8V151.158C176.8 153.588 178.77 155.558 181.2 155.558V155.558V151.158Z" fill="white"/>
<path d="M181.2 164.358V164.358C178.77 164.358 176.8 166.328 176.8 168.758V168.758H181.2V164.358Z" fill="white"/>
<path d="M181.2 181.958V181.958C178.77 181.958 176.8 183.928 176.8 186.358V186.358H181.2V181.958Z" fill="white"/>
<path d="M181.2 186.358H176.8V188.558C176.8 189.773 177.785 190.758 179 190.758V190.758C180.215 190.758 181.2 189.773 181.2 188.558V186.358Z" fill="white"/>
<path d="M185.6 49.9577C185.6 47.5276 183.63 45.5577 181.2 45.5577V45.5577V49.9577H185.6V49.9577Z" fill="white"/>
<path d="M185.6 49.9577H181.2V54.3577H185.6V49.9577Z" fill="white"/>
<path d="M185.6 63.1577H181.2V67.5577V67.5577C183.63 67.5577 185.6 65.5877 185.6 63.1577V63.1577Z" fill="white"/>
<path d="M185.6 80.7577H181.2V85.1577H185.6V80.7577Z" fill="white"/>
<path d="M185.6 85.1577H181.2V89.5577H185.6V85.1577Z" fill="white"/>
<path d="M185.6 89.5577H181.2V93.9577H185.6V89.5577Z" fill="white"/>
<path d="M185.6 98.3577H181.2V102.758V102.758C183.63 102.758 185.6 100.788 185.6 98.3577V98.3577Z" fill="white"/>
<path d="M185.6 111.558C185.6 109.128 183.63 107.158 181.2 107.158V107.158V111.558H185.6V111.558Z" fill="white"/>
<path d="M185.6 124.758H181.2V124.758C181.2 127.188 183.17 129.158 185.6 129.158V129.158V124.758Z" fill="white"/>
<path d="M185.6 133.558H181.2V137.958H185.6V133.558Z" fill="white"/>
<path d="M185.6 151.158H181.2V155.558H185.6V151.158Z" fill="white"/>
<path d="M185.6 155.558H181.2V159.958H185.6V155.558Z" fill="white"/>
<path d="M185.6 159.958H181.2V164.358H185.6V159.958Z" fill="white"/>
<path d="M185.6 173.158C185.6 170.728 183.63 168.758 181.2 168.758V168.758V173.158H185.6V173.158Z" fill="white"/>
<path d="M185.6 173.158H181.2V173.158C181.2 175.588 183.17 177.558 185.6 177.558V177.558V173.158Z" fill="white"/>
<path d="M185.6 181.958H181.2V186.358H185.6V181.958Z" fill="white"/>
<path d="M190 52.1577C190 50.9426 189.015 49.9577 187.8 49.9577H185.6V54.3577H187.8C189.015 54.3577 190 53.3727 190 52.1577V52.1577Z" fill="white"/>
<path d="M190 60.9577C190 59.7426 189.015 58.7577 187.8 58.7577V58.7577C186.585 58.7577 185.6 59.7426 185.6 60.9577V63.1577H187.8C189.015 63.1577 190 62.1727 190 60.9577V60.9577Z" fill="white"/>
<path d="M190 74.1577C190 72.9426 189.015 71.9577 187.8 71.9577V71.9577C186.585 71.9577 185.6 72.9426 185.6 74.1577V74.1577C185.6 75.3727 186.585 76.3577 187.8 76.3577V76.3577C189.015 76.3577 190 75.3727 190 74.1577V74.1577Z" fill="white"/>
<path d="M190 82.9577C190 81.7426 189.015 80.7577 187.8 80.7577H185.6V85.1577H187.8C189.015 85.1577 190 84.1727 190 82.9577V82.9577Z" fill="white"/>
<path d="M190 93.9577C190 91.5276 188.03 89.5577 185.6 89.5577V89.5577V93.9577H190V93.9577Z" fill="white"/>
<path d="M190 93.9577H185.6V98.3577V98.3577C188.03 98.3577 190 96.3877 190 93.9577V93.9577Z" fill="white"/>
<path d="M190 113.758C190 112.543 189.015 111.558 187.8 111.558H185.6V113.758C185.6 114.973 186.585 115.958 187.8 115.958V115.958C189.015 115.958 190 114.973 190 113.758V113.758Z" fill="white"/>
<path d="M190 122.558C190 121.343 189.015 120.358 187.8 120.358V120.358C186.585 120.358 185.6 121.343 185.6 122.558V124.758H187.8C189.015 124.758 190 123.773 190 122.558V122.558Z" fill="white"/>
<path d="M190 133.558C190 131.128 188.03 129.158 185.6 129.158V129.158V133.558H190V133.558Z" fill="white"/>
<path d="M190 133.558H185.6V137.958V137.958C188.03 137.958 190 135.988 190 133.558V133.558Z" fill="white"/>
<path d="M190 144.558C190 143.343 189.015 142.358 187.8 142.358V142.358C186.585 142.358 185.6 143.343 185.6 144.558V146.758H190V144.558Z" fill="white"/>
<path d="M190 146.758H185.6V151.158H190V146.758Z" fill="white"/>
<path d="M190 151.158H185.6V155.558H190V151.158Z" fill="white"/>
<path d="M190 155.558H185.6V159.958H190V155.558Z" fill="white"/>
<path d="M190 159.958H185.6V164.358V164.358C188.03 164.358 190 162.388 190 159.958V159.958Z" fill="white"/>
<path d="M190 175.358C190 174.143 189.015 173.158 187.8 173.158H185.6V177.558H187.8C189.015 177.558 190 176.573 190 175.358V175.358Z" fill="white"/>
<path d="M190 184.158C190 182.943 189.015 181.958 187.8 181.958H185.6V186.358H187.8C189.015 186.358 190 185.373 190 184.158V184.158Z" fill="white"/>
<path fill-rule="evenodd" clip-rule="evenodd" d="M21.6001 10.3577C14.9727 10.3577 9.6001 15.7303 9.6001 22.3577V29.1577C9.6001 35.7851 14.9727 41.1577 21.6001 41.1577H28.4001C35.0275 41.1577 40.4001 35.7851 40.4001 29.1577V22.3577C40.4001 15.7303 35.0275 10.3577 28.4001 10.3577H21.6001ZM14.0001 25.7577C14.0001 19.6825 18.925 14.7577 25.0001 14.7577V14.7577C31.0752 14.7577 36.0001 19.6825 36.0001 25.7577V25.7577C36.0001 31.8328 31.0752 36.7577 25.0001 36.7577V36.7577C18.925 36.7577 14.0001 31.8328 14.0001 25.7577V25.7577Z" fill="white"/>
<path d="M31.5001 23.956V24.4558H31.0002V27.9542H31.5001V26.9547H32V23.956H31.5001Z" fill="#F2F2F2"/>
<path d="M29.5005 23.4562V24.4558H30.0004V23.956H31.0002H31.5001V23.4562H29.5005Z" fill="#F2F2F2"/>
<path d="M31.0002 27.9542H30.5003V28.454H31.0002V27.9542Z" fill="#F2F2F2"/>
<path d="M30.0004 28.454H29.5005V28.9538H30.0004V28.454Z" fill="#F2F2F2"/>
<path d="M26.0013 19.9549V20.9573H26.5012V19.9549H26.0013Z" fill="#E0E0E0"/>
<path d="M25.9985 20.9573H25.4986V21.4571H25.9985V20.9573Z" fill="#E0E0E0"/>
<path d="M26.0013 18.9553H25.4986V19.9549H26.0013V18.9553Z" fill="#E0E0E0"/>
<path d="M23.9989 20.9573H24.4988V19.9549H23.9989V20.9573Z" fill="#E0E0E0"/>
<path d="M23.9989 20.9573H23.499V21.4571H23.9989V20.9573Z" fill="#E0E0E0"/>
<path d="M23.9989 18.9553H23.499V19.9549H23.9989V18.9553Z" fill="#E0E0E0"/>
<path d="M21.9993 20.9573H22.4992V19.9549H21.9993V20.9573Z" fill="#E0E0E0"/>
<path d="M21.9993 20.9573H21.4995V21.4571H21.9993V20.9573Z" fill="#E0E0E0"/>
<path d="M21.9993 18.9553H21.4995V19.9549H21.9993V18.9553Z" fill="#E0E0E0"/>
<path d="M30.0004 23.956V24.4558H29.5005V23.4562V22.4566H28.5008V23.4562H29.0007V29.9533H28.0009V30.4531H27.501V30.9558H26.0013V31.4555H20.9996V31.9553H27.501V31.4555H28.5008V30.4531H29.5005V29.4536H30.0004V28.9538H29.5005V28.454V24.9555H30.5003V24.4558H31.0002V23.956H30.0004Z" fill="#C7C7C7"/>
<path d="M20.4997 21.9569V22.4566H21.9993V21.9569H20.4997Z" fill="white"/>
<path d="M20.4997 22.9564V26.9547H20.9996V26.4549H21.4995V23.956H21.9993V22.9564H20.4997Z" fill="white"/>
<path d="M31.5001 26.9547V27.9542H32V26.9547H31.5001Z" fill="#E0E0E0"/>
<path d="M31.5001 27.9542H31.0002V28.454H31.5001V27.9542Z" fill="#E0E0E0"/>
<path d="M31.5001 23.956H31.0002V24.4558H31.5001V23.956Z" fill="#E0E0E0"/>
<path d="M30.0004 28.454V28.9538H31.0002V28.454H30.5003H30.0004Z" fill="#E0E0E0"/>
<path d="M28.5008 22.4566H21.9993H20.4997H19V22.9564H20.4997H21.9993H27.501V28.9538H27.0011V29.4536H26.5012V29.9533H24.9987V30.4531H23.9989V30.9558H19.9998V31.4555H20.9996H26.0013V30.9558H27.501V30.4531H28.0009V29.9533H29.0007V23.4562H28.5008V22.4566Z" fill="#E0E0E0"/>
<path d="M21.9993 21.9569V22.4566H28.5008H29.5005V21.9569H21.9993Z" fill="#F2F2F2"/>
<path d="M21.9993 22.9564V23.956H21.4995V26.4549H20.9996V26.9547H20.4997V22.9564H19V30.4531H19.4999V30.9558H19.9998H23.9989V30.4531H24.9987V29.9533H26.5012V29.4536H27.0011V28.9538H27.501V22.9564H21.9993Z" fill="#F2F2F2"/>
<path d="M20.4997 22.4566V21.9569H19V22.4566H20.4997Z" fill="#F2F2F2"/>
<path d="M31.5001 172.956V173.456H31.0002V176.954H31.5001V175.955H32V172.956H31.5001Z" fill="#F2F2F2"/>
<path d="M29.5005 172.456V173.456H30.0004V172.956H31.0002H31.5001V172.456H29.5005Z" fill="#F2F2F2"/>
<path d="M31.0002 176.954H30.5003V177.454H31.0002V176.954Z" fill="#F2F2F2"/>
<path d="M30.0004 177.454H29.5005V177.954H30.0004V177.454Z" fill="#F2F2F2"/>
<path d="M26.0013 168.955V169.957H26.5012V168.955H26.0013Z" fill="#E0E0E0"/>
<path d="M25.9985 169.957H25.4986V170.457H25.9985V169.957Z" fill="#E0E0E0"/>
<path d="M26.0013 167.955H25.4986V168.955H26.0013V167.955Z" fill="#E0E0E0"/>
<path d="M23.9989 169.957H24.4988V168.955H23.9989V169.957Z" fill="#E0E0E0"/>
<path d="M23.9989 169.957H23.499V170.457H23.9989V169.957Z" fill="#E0E0E0"/>
<path d="M23.9989 167.955H23.499V168.955H23.9989V167.955Z" fill="#E0E0E0"/>
<path d="M21.9993 169.957H22.4992V168.955H21.9993V169.957Z" fill="#E0E0E0"/>
<path d="M21.9993 169.957H21.4995V170.457H21.9993V169.957Z" fill="#E0E0E0"/>
<path d="M21.9993 167.955H21.4995V168.955H21.9993V167.955Z" fill="#E0E0E0"/>
<path d="M30.0004 172.956V173.456H29.5005V172.456V171.457H28.5008V172.456H29.0007V178.953H28.0009V179.453H27.501V179.956H26.0013V180.456H20.9996V180.955H27.501V180.456H28.5008V179.453H29.5005V178.454H30.0004V177.954H29.5005V177.454V173.956H30.5003V173.456H31.0002V172.956H30.0004Z" fill="#C7C7C7"/>
<path d="M20.4997 170.957V171.457H21.9993V170.957H20.4997Z" fill="white"/>
<path d="M20.4997 171.956V175.955H20.9996V175.455H21.4995V172.956H21.9993V171.956H20.4997Z" fill="white"/>
<path d="M31.5001 175.955V176.954H32V175.955H31.5001Z" fill="#E0E0E0"/>
<path d="M31.5001 176.954H31.0002V177.454H31.5001V176.954Z" fill="#E0E0E0"/>
<path d="M31.5001 172.956H31.0002V173.456H31.5001V172.956Z" fill="#E0E0E0"/>
<path d="M30.0004 177.454V177.954H31.0002V177.454H30.5003H30.0004Z" fill="#E0E0E0"/>
<path d="M28.5008 171.457H21.9993H20.4997H19V171.956H20.4997H21.9993H27.501V177.954H27.0011V178.454H26.5012V178.953H24.9987V179.453H23.9989V179.956H19.9998V180.456H20.9996H26.0013V179.956H27.501V179.453H28.0009V178.953H29.0007V172.456H28.5008V171.457Z" fill="#E0E0E0"/>
<path d="M21.9993 170.957V171.457H28.5008H29.5005V170.957H21.9993Z" fill="#F2F2F2"/>
<path d="M21.9993 171.956V172.956H21.4995V175.455H20.9996V175.955H20.4997V171.956H19V179.453H19.4999V179.956H19.9998H23.9989V179.453H24.9987V178.953H26.5012V178.454H27.0011V177.954H27.501V171.956H21.9993Z" fill="#F2F2F2"/>
<path d="M20.4997 171.457V170.957H19V171.457H20.4997Z" fill="#F2F2F2"/>
<path d="M180.5 23.956V24.4558H180V27.9542H180.5V26.9547H181V23.956H180.5Z" fill="#F2F2F2"/>
<path d="M178.501 23.4562V24.4558H179V23.956H180H180.5V23.4562H178.501Z" fill="#F2F2F2"/>
<path d="M180 27.9542H179.5V28.454H180V27.9542Z" fill="#F2F2F2"/>
<path d="M179 28.454H178.501V28.9538H179V28.454Z" fill="#F2F2F2"/>
<path d="M175.001 19.9549V20.9573H175.501V19.9549H175.001Z" fill="#E0E0E0"/>
<path d="M174.998 20.9573H174.499V21.4571H174.998V20.9573Z" fill="#E0E0E0"/>
<path d="M175.001 18.9553H174.499V19.9549H175.001V18.9553Z" fill="#E0E0E0"/>
<path d="M172.999 20.9573H173.499V19.9549H172.999V20.9573Z" fill="#E0E0E0"/>
<path d="M172.999 20.9573H172.499V21.4571H172.999V20.9573Z" fill="#E0E0E0"/>
<path d="M172.999 18.9553H172.499V19.9549H172.999V18.9553Z" fill="#E0E0E0"/>
<path d="M170.999 20.9573H171.499V19.9549H170.999V20.9573Z" fill="#E0E0E0"/>
<path d="M170.999 20.9573H170.499V21.4571H170.999V20.9573Z" fill="#E0E0E0"/>
<path d="M170.999 18.9553H170.499V19.9549H170.999V18.9553Z" fill="#E0E0E0"/>
<path d="M179 23.956V24.4558H178.501V23.4562V22.4566H177.501V23.4562H178.001V29.9533H177.001V30.4531H176.501V30.9558H175.001V31.4555H170V31.9553H176.501V31.4555H177.501V30.4531H178.501V29.4536H179V28.9538H178.501V28.454V24.9555H179.5V24.4558H180V23.956H179Z" fill="#C7C7C7"/>
<path d="M169.5 21.9569V22.4566H170.999V21.9569H169.5Z" fill="white"/>
<path d="M169.5 22.9564V26.9547H170V26.4549H170.499V23.956H170.999V22.9564H169.5Z" fill="white"/>
<path d="M180.5 26.9547V27.9542H181V26.9547H180.5Z" fill="#E0E0E0"/>
<path d="M180.5 27.9542H180V28.454H180.5V27.9542Z" fill="#E0E0E0"/>
<path d="M180.5 23.956H180V24.4558H180.5V23.956Z" fill="#E0E0E0"/>
<path d="M179 28.454V28.9538H180V28.454H179.5H179Z" fill="#E0E0E0"/>
<path d="M177.501 22.4566H170.999H169.5H168V22.9564H169.5H170.999H176.501V28.9538H176.001V29.4536H175.501V29.9533H173.999V30.4531H172.999V30.9558H169V31.4555H170H175.001V30.9558H176.501V30.4531H177.001V29.9533H178.001V23.4562H177.501V22.4566Z" fill="#E0E0E0"/>
<path d="M170.999 21.9569V22.4566H177.501H178.501V21.9569H170.999Z" fill="#F2F2F2"/>
<path d="M170.999 22.9564V23.956H170.499V26.4549H170V26.9547H169.5V22.9564H168V30.4531H168.5V30.9558H169H172.999V30.4531H173.999V29.9533H175.501V29.4536H176.001V28.9538H176.501V22.9564H170.999Z" fill="#F2F2F2"/>
<path d="M169.5 22.4566V21.9569H168V22.4566H169.5Z" fill="#F2F2F2"/>
<path fill-rule="evenodd" clip-rule="evenodd" d="M190 22.3577C190 15.7303 184.627 10.3577 178 10.3577L171.2 10.3577C164.573 10.3577 159.2 15.7303 159.2 22.3577V29.1577C159.2 35.7851 164.573 41.1577 171.2 41.1577H178C184.627 41.1577 190 35.7851 190 29.1577V22.3577ZM174.6 14.7577C180.675 14.7577 185.6 19.6825 185.6 25.7577V25.7577C185.6 31.8328 180.675 36.7577 174.6 36.7577V36.7577C168.525 36.7577 163.6 31.8328 163.6 25.7577V25.7577C163.6 19.6825 168.525 14.7577 174.6 14.7577V14.7577Z" fill="white"/>
<path fill-rule="evenodd" clip-rule="evenodd" d="M9.6001 178.758C9.6001 185.385 14.9727 190.758 21.6001 190.758H28.4001C35.0275 190.758 40.4001 185.385 40.4001 178.758V171.958C40.4001 165.33 35.0275 159.958 28.4001 159.958H21.6001C14.9727 159.958 9.6001 165.33 9.6001 171.958L9.6001 178.758ZM25.0001 186.358C18.925 186.358 14.0001 181.433 14.0001 175.358V175.358C14.0001 169.283 18.925 164.358 25.0001 164.358V164.358C31.0752 164.358 36.0001 169.283 36.0001 175.358V175.358C36.0001 181.433 31.0752 186.358 25.0001 186.358V186.358Z" fill="white"/>
</g>
<defs>
<clipPath id="clip0_3482_13802">
<rect width="200" height="200" fill="white" transform="translate(0 0.75769)"/>
</clipPath>
</defs>
</svg>
