<svg width="200" height="201" viewBox="0 0 200 201" fill="none" xmlns="http://www.w3.org/2000/svg">
<g clip-path="url(#clip0_3482_13744)">
<path d="M14.0124 54.4807V54.4807C11.5756 54.4807 9.6001 56.4562 9.6001 58.893V58.893H14.0124V54.4807Z" fill="#1B2A41"/>
<path d="M14.0124 58.893H9.6001V58.893C9.6001 61.3299 11.5756 63.3053 14.0124 63.3053V63.3053V58.893Z" fill="#1B2A41"/>
<path d="M14.0124 69.9238C14.0124 68.7054 13.0247 67.7176 11.8063 67.7176V67.7176C10.5878 67.7176 9.6001 68.7054 9.6001 69.9238V72.1299H14.0124V69.9238Z" fill="#1B2A41"/>
<path d="M14.0124 72.1299H9.6001V74.3361C9.6001 75.5545 10.5878 76.5423 11.8063 76.5423V76.5423C13.0247 76.5423 14.0124 75.5545 14.0124 74.3361V72.1299Z" fill="#1B2A41"/>
<path d="M14.0124 94.1915V94.1915C11.5756 94.1915 9.6001 96.1669 9.6001 98.6038V98.6038H14.0124V94.1915Z" fill="#1B2A41"/>
<path d="M14.0124 98.6038H9.6001V98.6038C9.6001 101.041 11.5756 103.016 14.0124 103.016V103.016V98.6038Z" fill="#1B2A41"/>
<path d="M14.0124 125.078H11.8063C10.5878 125.078 9.6001 126.065 9.6001 127.284V127.284C9.6001 128.502 10.5878 129.49 11.8062 129.49H14.0124V125.078Z" fill="#1B2A41"/>
<path d="M14.0124 136.108C14.0124 134.89 13.0247 133.902 11.8063 133.902V133.902C10.5878 133.902 9.6001 134.89 9.6001 136.108V136.108C9.6001 137.327 10.5878 138.315 11.8063 138.315V138.315C13.0247 138.315 14.0124 137.327 14.0124 136.108V136.108Z" fill="#1B2A41"/>
<path d="M14.0124 142.727V142.727C11.5756 142.727 9.6001 144.702 9.6001 147.139V147.139H14.0124V142.727Z" fill="#1B2A41"/>
<path d="M14.0124 147.139H9.6001V151.551H14.0124V147.139Z" fill="#1B2A41"/>
<path d="M14.0124 151.551H9.6001V153.758C9.6001 154.976 10.5878 155.964 11.8063 155.964V155.964C13.0247 155.964 14.0124 154.976 14.0124 153.758V151.551Z" fill="#1B2A41"/>
<path d="M18.4247 45.6561V45.6561C15.9879 45.6561 14.0124 47.6316 14.0124 50.0684V50.0684H18.4247V45.6561Z" fill="#1B2A41"/>
<path d="M18.4247 50.0684H14.0124V54.4807H18.4247V50.0684Z" fill="#1B2A41"/>
<path d="M18.4247 54.4807H14.0124V58.893H18.4247V54.4807Z" fill="#1B2A41"/>
<path d="M18.4247 58.893H14.0124V63.3053H18.4247V58.893Z" fill="#1B2A41"/>
<path d="M18.4247 80.9546H16.2186C15.0001 80.9546 14.0124 81.9423 14.0124 83.1607V83.1607C14.0124 84.3791 15.0001 85.3669 16.2186 85.3669H18.4247V80.9546Z" fill="#1B2A41"/>
<path d="M18.4247 91.9853C18.4247 90.7669 17.437 89.7792 16.2186 89.7792V89.7792C15.0001 89.7792 14.0124 90.7669 14.0124 91.9853V94.1915H18.4247V91.9853Z" fill="#1B2A41"/>
<path d="M18.4247 94.1915H14.0124V98.6038H18.4247V94.1915Z" fill="#1B2A41"/>
<path d="M18.4247 98.6038H14.0124V103.016H18.4247V98.6038Z" fill="#1B2A41"/>
<path d="M18.4247 107.428V107.428C15.9879 107.428 14.0124 109.404 14.0124 111.841V111.841H18.4247V107.428Z" fill="#1B2A41"/>
<path d="M18.4247 111.841H14.0124V116.253H18.4247V111.841Z" fill="#1B2A41"/>
<path d="M18.4247 116.253H14.0124V116.253C14.0124 118.69 15.9879 120.665 18.4247 120.665V120.665V116.253Z" fill="#1B2A41"/>
<path d="M18.4247 125.078H14.0124V129.49H18.4247V125.078Z" fill="#1B2A41"/>
<path d="M18.4247 142.727H14.0124V147.139H18.4247V142.727Z" fill="#1B2A41"/>
<path d="M22.837 50.0684C22.837 47.6316 20.8616 45.6561 18.4247 45.6561V45.6561V50.0684H22.837V50.0684Z" fill="#1B2A41"/>
<path d="M22.837 67.7176C22.837 65.2808 20.8616 63.3053 18.4247 63.3053V63.3053V67.7176H22.837V67.7176Z" fill="#1B2A41"/>
<path d="M22.837 67.7176H18.4247V72.1299H22.837V67.7176Z" fill="#1B2A41"/>
<path d="M22.837 72.1299H18.4247V76.5423H22.837V72.1299Z" fill="#1B2A41"/>
<path d="M22.837 76.5423H18.4247V80.9546H22.837V76.5423Z" fill="#1B2A41"/>
<path d="M22.837 80.9546H18.4247V85.3669H22.837V80.9546Z" fill="#1B2A41"/>
<path d="M22.837 94.1915H18.4247V98.6038H22.837V94.1915Z" fill="#1B2A41"/>
<path d="M22.837 98.6038H18.4247V103.016H22.837V98.6038Z" fill="#1B2A41"/>
<path d="M22.837 107.428H18.4247V111.841H22.837V107.428Z" fill="#1B2A41"/>
<path d="M22.837 120.665C22.837 118.228 20.8616 116.253 18.4247 116.253V116.253V120.665H22.837V120.665Z" fill="#1B2A41"/>
<path d="M22.837 120.665H18.4247V125.078H22.837V120.665Z" fill="#1B2A41"/>
<path d="M22.837 125.078H18.4247V129.49H22.837V125.078Z" fill="#1B2A41"/>
<path d="M22.837 129.49H18.4247V131.696C18.4247 132.914 19.4124 133.902 20.6309 133.902V133.902C21.8493 133.902 22.837 132.914 22.837 131.696V129.49Z" fill="#1B2A41"/>
<path d="M22.837 142.727H18.4247V147.139H22.837V142.727Z" fill="#1B2A41"/>
<path d="M27.2493 50.0684H22.837V54.4807H27.2493V50.0684Z" fill="#1B2A41"/>
<path d="M27.2493 54.4807H22.837V56.6869C22.837 57.9053 23.8247 58.893 25.0432 58.893V58.893C26.2616 58.893 27.2493 57.9053 27.2493 56.6869V54.4807Z" fill="#1B2A41"/>
<path d="M27.2493 67.7176H22.837V72.1299H27.2493V67.7176Z" fill="#1B2A41"/>
<path d="M27.2493 76.5423H22.837V80.9546H27.2493V76.5423Z" fill="#1B2A41"/>
<path d="M27.2493 85.3669H22.837V89.7792H27.2493V85.3669Z" fill="#1B2A41"/>
<path d="M27.2493 89.7792H22.837V94.1915H27.2493V89.7792Z" fill="#1B2A41"/>
<path d="M27.2493 94.1915H22.837V98.6038H27.2493V94.1915Z" fill="#1B2A41"/>
<path d="M27.2493 98.6038H22.837V103.016H27.2493V98.6038Z" fill="#1B2A41"/>
<path d="M27.2493 103.016H22.837V107.428H27.2493V103.016Z" fill="#1B2A41"/>
<path d="M27.2493 107.428H22.837V111.841H27.2493V107.428Z" fill="#1B2A41"/>
<path d="M27.2493 138.315V138.315C24.8125 138.315 22.837 140.29 22.837 142.727V142.727H27.2493V138.315Z" fill="#1B2A41"/>
<path d="M27.2493 147.139H22.837V151.551H27.2493V147.139Z" fill="#1B2A41"/>
<path d="M27.2493 151.551H22.837V153.758C22.837 154.976 23.8247 155.964 25.0432 155.964V155.964C26.2616 155.964 27.2493 154.976 27.2493 153.758V151.551Z" fill="#1B2A41"/>
<path d="M31.6616 52.2746C31.6616 51.0561 30.6739 50.0684 29.4555 50.0684H27.2493V54.4807H29.4555C30.6739 54.4807 31.6616 53.493 31.6616 52.2746V52.2746Z" fill="#1B2A41"/>
<path d="M31.6616 63.3053V63.3053C29.2248 63.3053 27.2493 65.2808 27.2493 67.7176V67.7176H31.6616V63.3053Z" fill="#1B2A41"/>
<path d="M31.6616 67.7176H27.2493V72.1299H31.6616V67.7176Z" fill="#1B2A41"/>
<path d="M31.6616 72.1299H27.2493V76.5423H31.6616V72.1299Z" fill="#1B2A41"/>
<path d="M31.6616 76.5423H27.2493V80.9546H31.6616V76.5423Z" fill="#1B2A41"/>
<path d="M31.6616 80.9546H27.2493V85.3669H31.6616V80.9546Z" fill="#1B2A41"/>
<path d="M31.6616 89.7792H27.2493V94.1915H31.6616V89.7792Z" fill="#1B2A41"/>
<path d="M31.6616 94.1915H27.2493V98.6038H31.6616V94.1915Z" fill="#1B2A41"/>
<path d="M31.6616 111.841H27.2493V116.253H31.6616V111.841Z" fill="#1B2A41"/>
<path d="M31.6616 116.253H27.2493V116.253C27.2493 118.69 29.2248 120.665 31.6616 120.665V120.665V116.253Z" fill="#1B2A41"/>
<path d="M31.6616 131.696C31.6616 130.478 30.6739 129.49 29.4555 129.49V129.49C28.237 129.49 27.2493 130.478 27.2493 131.696V131.696C27.2493 132.914 28.237 133.902 29.4555 133.902V133.902C30.6739 133.902 31.6616 132.914 31.6616 131.696V131.696Z" fill="#1B2A41"/>
<path d="M31.6616 140.521C31.6616 139.302 30.6739 138.315 29.4555 138.315H27.2493V142.727H29.4555C30.6739 142.727 31.6616 141.739 31.6616 140.521V140.521Z" fill="#1B2A41"/>
<path d="M31.6616 147.139H27.2493V151.551H31.6616V147.139Z" fill="#1B2A41"/>
<path d="M36.0739 63.3053H31.6616V67.7176H36.0739V63.3053Z" fill="#1B2A41"/>
<path d="M36.0739 67.7176H31.6616V72.1299H36.0739V67.7176Z" fill="#1B2A41"/>
<path d="M36.0739 72.1299H31.6616V76.5423H36.0739V72.1299Z" fill="#1B2A41"/>
<path d="M36.0739 76.5423H31.6616V80.9546H36.0739V76.5423Z" fill="#1B2A41"/>
<path d="M36.0739 85.3669H31.6616V89.7792H36.0739V85.3669Z" fill="#1B2A41"/>
<path d="M36.0739 89.7792H31.6616V94.1915H36.0739V89.7792Z" fill="#1B2A41"/>
<path d="M36.0739 94.1915H31.6616V98.6038H36.0739V94.1915Z" fill="#1B2A41"/>
<path d="M36.0739 103.016V103.016C33.6371 103.016 31.6616 104.992 31.6616 107.428V107.428H36.0739V103.016Z" fill="#1B2A41"/>
<path d="M36.0739 107.428H31.6616V111.841H36.0739V107.428Z" fill="#1B2A41"/>
<path d="M36.0739 111.841H31.6616V116.253H36.0739V111.841Z" fill="#1B2A41"/>
<path d="M36.0739 116.253H31.6616V120.665H36.0739V116.253Z" fill="#1B2A41"/>
<path d="M36.0739 147.139H31.6616V151.551H36.0739V147.139Z" fill="#1B2A41"/>
<path d="M40.4862 47.8623C40.4862 46.6438 39.4985 45.6561 38.2801 45.6561V45.6561C37.0617 45.6561 36.0739 46.6438 36.0739 47.8623V47.8623C36.0739 49.0807 37.0617 50.0684 38.2801 50.0684V50.0684C39.4985 50.0684 40.4862 49.0807 40.4862 47.8623V47.8623Z" fill="#1B2A41"/>
<path d="M40.4862 54.4807H38.2801C37.0617 54.4807 36.0739 55.4685 36.0739 56.6869V56.6869C36.0739 57.9053 37.0617 58.893 38.2801 58.893H40.4862V54.4807Z" fill="#1B2A41"/>
<path d="M40.4862 65.5115C40.4862 64.2931 39.4985 63.3053 38.2801 63.3053H36.0739V67.7176H38.2801C39.4985 67.7176 40.4862 66.7299 40.4862 65.5115V65.5115Z" fill="#1B2A41"/>
<path d="M40.4862 72.1299H36.0739V76.5423H40.4862V72.1299Z" fill="#1B2A41"/>
<path d="M40.4862 80.9546H36.0739V85.3669H40.4862V80.9546Z" fill="#1B2A41"/>
<path d="M40.4862 89.7792H36.0739V94.1915H40.4862V89.7792Z" fill="#1B2A41"/>
<path d="M40.4862 98.6038H36.0739V103.016H40.4862V98.6038Z" fill="#1B2A41"/>
<path d="M40.4862 107.428H36.0739V111.841V111.841C38.5108 111.841 40.4862 109.865 40.4862 107.428V107.428Z" fill="#1B2A41"/>
<path d="M40.4862 118.459C40.4862 117.241 39.4985 116.253 38.2801 116.253H36.0739V120.665H38.2801C39.4985 120.665 40.4862 119.678 40.4862 118.459V118.459Z" fill="#1B2A41"/>
<path d="M40.4862 127.284C40.4862 126.065 39.4985 125.078 38.2801 125.078V125.078C37.0617 125.078 36.0739 126.065 36.0739 127.284V127.284C36.0739 128.502 37.0617 129.49 38.2801 129.49V129.49C39.4985 129.49 40.4862 128.502 40.4862 127.284V127.284Z" fill="#1B2A41"/>
<path d="M40.4862 133.902H38.2801C37.0617 133.902 36.0739 134.89 36.0739 136.108V136.108C36.0739 137.327 37.0617 138.315 38.2801 138.315H40.4862V133.902Z" fill="#1B2A41"/>
<path d="M40.4862 142.727V142.727C38.0494 142.727 36.0739 144.702 36.0739 147.139V147.139V147.139C38.5108 147.139 40.4862 145.164 40.4862 142.727V142.727Z" fill="#1B2A41"/>
<path d="M40.4862 153.758C40.4862 152.539 39.4985 151.551 38.2801 151.551H36.0739V153.758C36.0739 154.976 37.0617 155.964 38.2801 155.964V155.964C39.4985 155.964 40.4862 154.976 40.4862 153.758V153.758Z" fill="#1B2A41"/>
<path d="M44.8985 56.6869C44.8985 55.4685 43.9108 54.4807 42.6924 54.4807H40.4862V58.893H42.6924C43.9108 58.893 44.8985 57.9053 44.8985 56.6869V56.6869Z" fill="#1B2A41"/>
<path d="M44.8985 74.3361C44.8985 73.1177 43.9108 72.1299 42.6924 72.1299H40.4862V76.5423H42.6924C43.9108 76.5423 44.8985 75.5545 44.8985 74.3361V74.3361Z" fill="#1B2A41"/>
<path d="M44.8985 80.9546H40.4862V85.3669H44.8985V80.9546Z" fill="#1B2A41"/>
<path d="M44.8985 89.7792H40.4862V94.1915H44.8985V89.7792Z" fill="#1B2A41"/>
<path d="M44.8985 94.1915H40.4862V98.6038V98.6038C42.9231 98.6038 44.8985 96.6283 44.8985 94.1915V94.1915Z" fill="#1B2A41"/>
<path d="M44.8985 103.016H40.4862V107.428H44.8985V103.016Z" fill="#1B2A41"/>
<path d="M44.8985 138.315C44.8985 135.878 42.9231 133.902 40.4862 133.902V133.902V138.315H44.8985V138.315Z" fill="#1B2A41"/>
<path d="M44.8985 138.315H40.4862V142.727H44.8985V138.315Z" fill="#1B2A41"/>
<path d="M49.3108 14.77V14.77C46.874 14.77 44.8985 16.7454 44.8985 19.1823V19.1823H49.3108V14.77Z" fill="#1B2A41"/>
<path d="M49.3108 19.1823H44.8985V23.5946H49.3108V19.1823Z" fill="#1B2A41"/>
<path d="M49.3108 23.5946H44.8985V25.8007C44.8985 27.0192 45.8863 28.0069 47.1047 28.0069V28.0069C48.3231 28.0069 49.3108 27.0192 49.3108 25.8007V23.5946Z" fill="#1B2A41"/>
<path d="M49.3108 34.6253C49.3108 33.4069 48.3231 32.4192 47.1047 32.4192V32.4192C45.8863 32.4192 44.8985 33.4069 44.8985 34.6253V36.8315H49.3108V34.6253Z" fill="#1B2A41"/>
<path d="M49.3108 36.8315H44.8985V39.0377C44.8985 40.2561 45.8863 41.2438 47.1047 41.2438V41.2438C48.3231 41.2438 49.3108 40.2561 49.3108 39.0377V36.8315Z" fill="#1B2A41"/>
<path d="M49.3108 80.9546H44.8985V85.3669H49.3108V80.9546Z" fill="#1B2A41"/>
<path d="M49.3108 94.1915C49.3108 91.7546 47.3354 89.7792 44.8985 89.7792V89.7792V94.1915H49.3108V94.1915Z" fill="#1B2A41"/>
<path d="M49.3108 103.016H44.8985V107.428H49.3108V103.016Z" fill="#1B2A41"/>
<path d="M49.3108 114.047C49.3108 112.828 48.3231 111.841 47.1047 111.841V111.841C45.8863 111.841 44.8985 112.828 44.8985 114.047V116.253H49.3108V114.047Z" fill="#1B2A41"/>
<path d="M49.3108 116.253H44.8985V116.253C44.8985 118.69 46.874 120.665 49.3108 120.665V120.665V116.253Z" fill="#1B2A41"/>
<path d="M49.3108 125.078H47.1047C45.8863 125.078 44.8985 126.065 44.8985 127.284V127.284C44.8985 128.502 45.8863 129.49 47.1047 129.49H49.3108V125.078Z" fill="#1B2A41"/>
<path d="M49.3108 138.315H44.8985V142.727H49.3108V138.315Z" fill="#1B2A41"/>
<path d="M49.3108 142.727H44.8985V147.139H49.3108V142.727Z" fill="#1B2A41"/>
<path d="M49.3108 147.139H44.8985V151.551H49.3108V147.139Z" fill="#1B2A41"/>
<path d="M49.3108 151.551H44.8985V151.551C44.8985 153.988 46.874 155.964 49.3108 155.964V155.964V151.551Z" fill="#1B2A41"/>
<path d="M49.3108 178.025V178.025C46.874 178.025 44.8985 180.001 44.8985 182.438V182.438H49.3108V178.025Z" fill="#1B2A41"/>
<path d="M49.3108 182.438H44.8985V182.438C44.8985 184.874 46.874 186.85 49.3108 186.85V186.85V182.438Z" fill="#1B2A41"/>
<path d="M53.7232 12.5638C53.7232 11.3454 52.7354 10.3577 51.517 10.3577V10.3577C50.2986 10.3577 49.3108 11.3454 49.3108 12.5638V14.77H53.7232V12.5638Z" fill="#1B2A41"/>
<path d="M53.7232 47.8623C53.7232 46.6438 52.7354 45.6561 51.517 45.6561V45.6561C50.2986 45.6561 49.3108 46.6438 49.3108 47.8623V50.0684H53.7232V47.8623Z" fill="#1B2A41"/>
<path d="M53.7232 50.0684H49.3108V50.0684C49.3108 52.5053 51.2863 54.4807 53.7232 54.4807V54.4807V50.0684Z" fill="#1B2A41"/>
<path d="M53.7232 58.893H51.517C50.2986 58.893 49.3108 59.8808 49.3108 61.0992V61.0992C49.3108 62.3176 50.2986 63.3053 51.517 63.3053V63.3053C52.7354 63.3053 53.7232 62.3176 53.7232 61.0992V58.893Z" fill="#1B2A41"/>
<path d="M53.7232 72.1299V72.1299C51.2863 72.1299 49.3108 74.1054 49.3108 76.5423V76.5423H53.7232V72.1299Z" fill="#1B2A41"/>
<path d="M53.7232 76.5423H49.3108V80.9546H53.7232V76.5423Z" fill="#1B2A41"/>
<path d="M53.7232 80.9546H49.3108V85.3669H53.7232V80.9546Z" fill="#1B2A41"/>
<path d="M53.7232 94.1915H49.3108V98.6038H53.7232V94.1915Z" fill="#1B2A41"/>
<path d="M53.7232 98.6038H49.3108V103.016H53.7232V98.6038Z" fill="#1B2A41"/>
<path d="M53.7232 103.016H49.3108V107.428H53.7232V103.016Z" fill="#1B2A41"/>
<path d="M53.7232 116.253H49.3108V120.665H53.7232V116.253Z" fill="#1B2A41"/>
<path d="M53.7232 120.665H49.3108V125.078H53.7232V120.665Z" fill="#1B2A41"/>
<path d="M53.7232 125.078H49.3108V129.49V129.49C51.7477 129.49 53.7232 127.514 53.7232 125.078V125.078Z" fill="#1B2A41"/>
<path d="M53.7232 136.108C53.7232 134.89 52.7354 133.902 51.517 133.902V133.902C50.2986 133.902 49.3108 134.89 49.3108 136.108V138.315H51.517C52.7354 138.315 53.7232 137.327 53.7232 136.108V136.108Z" fill="#1B2A41"/>
<path d="M53.7232 142.727H49.3108V147.139H53.7232V142.727Z" fill="#1B2A41"/>
<path d="M53.7232 147.139H49.3108V151.551H53.7232V147.139Z" fill="#1B2A41"/>
<path d="M53.7232 151.551H49.3108V155.964V155.964C51.7477 155.964 53.7232 153.988 53.7232 151.551V151.551Z" fill="#1B2A41"/>
<path d="M53.7232 160.376V160.376C51.2863 160.376 49.3108 162.352 49.3108 164.788V164.788H53.7232V160.376Z" fill="#1B2A41"/>
<path d="M53.7232 164.788H49.3108V169.201H53.7232V164.788Z" fill="#1B2A41"/>
<path d="M53.7232 169.201H49.3108V169.201C49.3108 171.638 51.2863 173.613 53.7232 173.613V173.613V169.201Z" fill="#1B2A41"/>
<path d="M53.7232 178.025H49.3108V182.438H53.7232V178.025Z" fill="#1B2A41"/>
<path d="M53.7232 182.438H49.3108V186.85H53.7232V182.438Z" fill="#1B2A41"/>
<path d="M53.7232 186.85H49.3108V189.056C49.3108 190.274 50.2986 191.262 51.517 191.262V191.262C52.7354 191.262 53.7232 190.274 53.7232 189.056V186.85Z" fill="#1B2A41"/>
<path d="M58.1355 14.77H53.7232V14.77C53.7232 17.2068 55.6986 19.1823 58.1355 19.1823V19.1823V14.77Z" fill="#1B2A41"/>
<path d="M58.1355 28.0069H55.9293C54.7109 28.0069 53.7232 28.9946 53.7232 30.213V30.213C53.7232 31.4315 54.7109 32.4192 55.9293 32.4192H58.1355V28.0069Z" fill="#1B2A41"/>
<path d="M58.1355 36.8315H55.9293C54.7109 36.8315 53.7232 37.8192 53.7232 39.0377V39.0377C53.7232 40.2561 54.7109 41.2438 55.9293 41.2438V41.2438C57.1477 41.2438 58.1355 40.2561 58.1355 39.0377V36.8315Z" fill="#1B2A41"/>
<path d="M58.1355 54.4807C58.1355 52.0439 56.16 50.0684 53.7232 50.0684V50.0684V54.4807H58.1355V54.4807Z" fill="#1B2A41"/>
<path d="M58.1355 54.4807H53.7232V58.893H58.1355V54.4807Z" fill="#1B2A41"/>
<path d="M58.1355 72.1299H53.7232V76.5423H58.1355V72.1299Z" fill="#1B2A41"/>
<path d="M58.1355 76.5423H53.7232V80.9546H58.1355V76.5423Z" fill="#1B2A41"/>
<path d="M58.1355 80.9546H53.7232V85.3669H58.1355V80.9546Z" fill="#1B2A41"/>
<path d="M58.1355 85.3669H53.7232V87.573C53.7232 88.7914 54.7109 89.7792 55.9293 89.7792V89.7792C57.1477 89.7792 58.1355 88.7914 58.1355 87.573V85.3669Z" fill="#1B2A41"/>
<path d="M58.1355 98.6038C58.1355 96.1669 56.16 94.1915 53.7232 94.1915V94.1915V98.6038H58.1355V98.6038Z" fill="#1B2A41"/>
<path d="M58.1355 98.6038H53.7232V103.016H58.1355V98.6038Z" fill="#1B2A41"/>
<path d="M58.1355 103.016H53.7232V107.428H58.1355V103.016Z" fill="#1B2A41"/>
<path d="M58.1355 116.253H53.7232V120.665H58.1355V116.253Z" fill="#1B2A41"/>
<path d="M58.1355 120.665H53.7232V125.078H58.1355V120.665Z" fill="#1B2A41"/>
<path d="M58.1355 144.933C58.1355 143.715 57.1477 142.727 55.9293 142.727H53.7232V147.139H55.9293C57.1477 147.139 58.1355 146.151 58.1355 144.933V144.933Z" fill="#1B2A41"/>
<path d="M58.1355 160.376H53.7232V164.788H58.1355V160.376Z" fill="#1B2A41"/>
<path d="M58.1355 169.201H53.7232V173.613H58.1355V169.201Z" fill="#1B2A41"/>
<path d="M58.1355 182.438C58.1355 180.001 56.16 178.025 53.7232 178.025V178.025V182.438H58.1355V182.438Z" fill="#1B2A41"/>
<path d="M58.1355 182.438H53.7232V186.85H58.1355V182.438Z" fill="#1B2A41"/>
<path d="M62.5478 10.3577V10.3577C60.1109 10.3577 58.1355 12.3331 58.1355 14.77V14.77H62.5478V10.3577Z" fill="#1B2A41"/>
<path d="M62.5478 14.77H58.1355V19.1823H62.5478V14.77Z" fill="#1B2A41"/>
<path d="M62.5478 19.1823H58.1355V19.1823C58.1355 21.6191 60.1109 23.5946 62.5478 23.5946V23.5946V19.1823Z" fill="#1B2A41"/>
<path d="M62.5478 32.4192C62.5478 29.9823 60.5723 28.0069 58.1355 28.0069V28.0069V32.4192H62.5478V32.4192Z" fill="#1B2A41"/>
<path d="M62.5478 32.4192H58.1355V36.8315H62.5478V32.4192Z" fill="#1B2A41"/>
<path d="M62.5478 58.893H58.1355V63.3053H62.5478V58.893Z" fill="#1B2A41"/>
<path d="M62.5478 63.3053H58.1355V63.3053C58.1355 65.7422 60.1109 67.7176 62.5478 67.7176V67.7176V63.3053Z" fill="#1B2A41"/>
<path d="M62.5478 72.1299H58.1355V76.5423H62.5478V72.1299Z" fill="#1B2A41"/>
<path d="M62.5478 76.5423H58.1355V80.9546H62.5478V76.5423Z" fill="#1B2A41"/>
<path d="M62.5478 80.9546H58.1355V85.3669V85.3669C60.5723 85.3669 62.5478 83.3914 62.5478 80.9546V80.9546Z" fill="#1B2A41"/>
<path d="M62.5478 98.6038H58.1355V103.016H62.5478V98.6038Z" fill="#1B2A41"/>
<path d="M62.5478 107.428H58.1355V111.841H62.5478V107.428Z" fill="#1B2A41"/>
<path d="M62.5478 111.841H58.1355V116.253H62.5478V111.841Z" fill="#1B2A41"/>
<path d="M62.5478 120.665H58.1355V125.078H62.5478V120.665Z" fill="#1B2A41"/>
<path d="M62.5478 129.49H60.3416C59.1232 129.49 58.1355 130.478 58.1355 131.696V131.696C58.1355 132.914 59.1232 133.902 60.3416 133.902V133.902C61.56 133.902 62.5478 132.914 62.5478 131.696V129.49Z" fill="#1B2A41"/>
<path d="M62.5478 151.551V151.551C60.1109 151.551 58.1355 153.527 58.1355 155.964V155.964H62.5478V151.551Z" fill="#1B2A41"/>
<path d="M62.5478 155.964H58.1355V160.376H62.5478V155.964Z" fill="#1B2A41"/>
<path d="M62.5478 160.376H58.1355V164.788H62.5478V160.376Z" fill="#1B2A41"/>
<path d="M62.5478 164.788H58.1355V169.201H62.5478V164.788Z" fill="#1B2A41"/>
<path d="M62.5478 169.201H58.1355V173.613H62.5478V169.201Z" fill="#1B2A41"/>
<path d="M62.5478 182.438H58.1355V186.85V186.85C60.5723 186.85 62.5478 184.874 62.5478 182.438V182.438Z" fill="#1B2A41"/>
<path d="M66.9601 10.3577H62.5478V14.77H66.9601V10.3577Z" fill="#1B2A41"/>
<path d="M66.9601 14.77H62.5478V19.1823H66.9601V14.77Z" fill="#1B2A41"/>
<path d="M66.9601 19.1823H62.5478V23.5946H66.9601V19.1823Z" fill="#1B2A41"/>
<path d="M66.9601 32.4192H62.5478V36.8315H66.9601V32.4192Z" fill="#1B2A41"/>
<path d="M66.9601 36.8315H62.5478V39.0377C62.5478 40.2561 63.5355 41.2438 64.7539 41.2438V41.2438C65.9723 41.2438 66.9601 40.2561 66.9601 39.0377V36.8315Z" fill="#1B2A41"/>
<path d="M66.9601 45.6561H64.7539C63.5355 45.6561 62.5478 46.6438 62.5478 47.8623V47.8623C62.5478 49.0807 63.5355 50.0684 64.7539 50.0684H66.9601V45.6561Z" fill="#1B2A41"/>
<path d="M66.9601 58.893H62.5478V63.3053H66.9601V58.893Z" fill="#1B2A41"/>
<path d="M66.9601 63.3053H62.5478V67.7176H66.9601V63.3053Z" fill="#1B2A41"/>
<path d="M66.9601 67.7176H62.5478V72.1299H66.9601V67.7176Z" fill="#1B2A41"/>
<path d="M66.9601 72.1299H62.5478V76.5423H66.9601V72.1299Z" fill="#1B2A41"/>
<path d="M66.9601 76.5423H62.5478V80.9546V80.9546C64.9846 80.9546 66.9601 78.9791 66.9601 76.5423V76.5423Z" fill="#1B2A41"/>
<path d="M66.9601 89.7792V89.7792C64.5232 89.7792 62.5478 91.7546 62.5478 94.1915V94.1915H66.9601V89.7792Z" fill="#1B2A41"/>
<path d="M66.9601 94.1915H62.5478V98.6038H66.9601V94.1915Z" fill="#1B2A41"/>
<path d="M66.9601 103.016H62.5478V107.428H66.9601V103.016Z" fill="#1B2A41"/>
<path d="M66.9601 111.841H62.5478V116.253H66.9601V111.841Z" fill="#1B2A41"/>
<path d="M66.9601 125.078C66.9601 122.641 64.9846 120.665 62.5478 120.665V120.665V125.078H66.9601V125.078Z" fill="#1B2A41"/>
<path d="M66.9601 125.078H62.5478V129.49V129.49C64.9846 129.49 66.9601 127.514 66.9601 125.078V125.078Z" fill="#1B2A41"/>
<path d="M66.9601 138.315H64.7539C63.5355 138.315 62.5478 139.302 62.5478 140.521V140.521C62.5478 141.739 63.5355 142.727 64.7539 142.727H66.9601V138.315Z" fill="#1B2A41"/>
<path d="M66.9601 147.139V147.139C64.5232 147.139 62.5478 149.115 62.5478 151.551V151.551H66.9601V147.139Z" fill="#1B2A41"/>
<path d="M66.9601 164.788H62.5478V169.201V169.201C64.9846 169.201 66.9601 167.225 66.9601 164.788V164.788Z" fill="#1B2A41"/>
<path d="M66.9601 173.613H62.5478V178.025H66.9601V173.613Z" fill="#1B2A41"/>
<path d="M66.9601 178.025H62.5478V182.438H66.9601V178.025Z" fill="#1B2A41"/>
<path d="M71.3724 12.5638C71.3724 11.3454 70.3846 10.3577 69.1662 10.3577H66.9601V14.77H69.1662C70.3846 14.77 71.3724 13.7822 71.3724 12.5638V12.5638Z" fill="#1B2A41"/>
<path d="M71.3724 23.5946H66.9601V23.5946C66.9601 26.0314 68.9355 28.0069 71.3724 28.0069V28.0069V23.5946Z" fill="#1B2A41"/>
<path d="M71.3724 36.8315C71.3724 34.3947 69.3969 32.4192 66.9601 32.4192V32.4192V36.8315H71.3724V36.8315Z" fill="#1B2A41"/>
<path d="M71.3724 45.6561H66.9601V50.0684H71.3724V45.6561Z" fill="#1B2A41"/>
<path d="M71.3724 50.0684H66.9601V54.4807H71.3724V50.0684Z" fill="#1B2A41"/>
<path d="M71.3724 54.4807H66.9601V58.893H71.3724V54.4807Z" fill="#1B2A41"/>
<path d="M71.3724 72.1299H66.9601V76.5423H71.3724V72.1299Z" fill="#1B2A41"/>
<path d="M71.3724 87.573C71.3724 86.3546 70.3846 85.3669 69.1662 85.3669V85.3669C67.9478 85.3669 66.9601 86.3546 66.9601 87.573V89.7792H71.3724V87.573Z" fill="#1B2A41"/>
<path d="M71.3724 94.1915H66.9601V98.6038H71.3724V94.1915Z" fill="#1B2A41"/>
<path d="M71.3724 103.016H66.9601V107.428H71.3724V103.016Z" fill="#1B2A41"/>
<path d="M71.3724 107.428H66.9601V111.841H71.3724V107.428Z" fill="#1B2A41"/>
<path d="M71.3724 111.841H66.9601V116.253H71.3724V111.841Z" fill="#1B2A41"/>
<path d="M71.3724 133.902V133.902C68.9355 133.902 66.9601 135.878 66.9601 138.315V138.315H71.3724V133.902Z" fill="#1B2A41"/>
<path d="M71.3724 138.315H66.9601V142.727V142.727C69.3969 142.727 71.3724 140.751 71.3724 138.315V138.315Z" fill="#1B2A41"/>
<path d="M71.3724 147.139H66.9601V151.551H71.3724V147.139Z" fill="#1B2A41"/>
<path d="M71.3724 160.376V160.376C68.9355 160.376 66.9601 162.352 66.9601 164.788V164.788H71.3724V160.376Z" fill="#1B2A41"/>
<path d="M71.3724 173.613H66.9601V178.025H71.3724V173.613Z" fill="#1B2A41"/>
<path d="M71.3724 178.025H66.9601V182.438H71.3724V178.025Z" fill="#1B2A41"/>
<path d="M71.3724 182.438H66.9601V186.85H71.3724V182.438Z" fill="#1B2A41"/>
<path d="M71.3724 186.85H66.9601V186.85C66.9601 189.287 68.9355 191.262 71.3724 191.262V191.262V186.85Z" fill="#1B2A41"/>
<path d="M75.7847 21.3884C75.7847 20.17 74.797 19.1823 73.5785 19.1823V19.1823C72.3601 19.1823 71.3724 20.17 71.3724 21.3884V23.5946H75.7847V21.3884Z" fill="#1B2A41"/>
<path d="M75.7847 23.5946H71.3724V28.0069H75.7847V23.5946Z" fill="#1B2A41"/>
<path d="M75.7847 41.2438C75.7847 38.807 73.8092 36.8315 71.3724 36.8315V36.8315V41.2438H75.7847V41.2438Z" fill="#1B2A41"/>
<path d="M75.7847 41.2438H71.3724V45.6561H75.7847V41.2438Z" fill="#1B2A41"/>
<path d="M75.7847 54.4807H71.3724V58.893H75.7847V54.4807Z" fill="#1B2A41"/>
<path d="M75.7847 58.893H71.3724V61.0992C71.3724 62.3176 72.3601 63.3053 73.5785 63.3053V63.3053C74.797 63.3053 75.7847 62.3176 75.7847 61.0992V58.893Z" fill="#1B2A41"/>
<path d="M75.7847 72.1299H71.3724V76.5423H75.7847V72.1299Z" fill="#1B2A41"/>
<path d="M75.7847 76.5423H71.3724V76.5423C71.3724 78.9791 73.3478 80.9546 75.7847 80.9546V80.9546V76.5423Z" fill="#1B2A41"/>
<path d="M75.7847 94.1915C75.7847 91.7546 73.8092 89.7792 71.3724 89.7792V89.7792V94.1915H75.7847V94.1915Z" fill="#1B2A41"/>
<path d="M75.7847 94.1915H71.3724V98.6038H75.7847V94.1915Z" fill="#1B2A41"/>
<path d="M75.7847 107.428C75.7847 104.992 73.8092 103.016 71.3724 103.016V103.016V107.428H75.7847V107.428Z" fill="#1B2A41"/>
<path d="M75.7847 107.428H71.3724V111.841H75.7847V107.428Z" fill="#1B2A41"/>
<path d="M75.7847 116.253H71.3724V120.665H75.7847V116.253Z" fill="#1B2A41"/>
<path d="M75.7847 120.665H71.3724V125.078H75.7847V120.665Z" fill="#1B2A41"/>
<path d="M75.7847 125.078H71.3724V129.49H75.7847V125.078Z" fill="#1B2A41"/>
<path d="M75.7847 129.49H71.3724V133.902H75.7847V129.49Z" fill="#1B2A41"/>
<path d="M75.7847 133.902H71.3724V138.315H75.7847V133.902Z" fill="#1B2A41"/>
<path d="M75.7847 151.551C75.7847 149.115 73.8092 147.139 71.3724 147.139V147.139V151.551H75.7847V151.551Z" fill="#1B2A41"/>
<path d="M75.7847 151.551H71.3724V153.758C71.3724 154.976 72.3601 155.964 73.5785 155.964V155.964C74.797 155.964 75.7847 154.976 75.7847 153.758V151.551Z" fill="#1B2A41"/>
<path d="M75.7847 160.376H71.3724V164.788H75.7847V160.376Z" fill="#1B2A41"/>
<path d="M75.7847 164.788H71.3724V169.201H75.7847V164.788Z" fill="#1B2A41"/>
<path d="M75.7847 169.201H71.3724V173.613V173.613C73.8092 173.613 75.7847 171.638 75.7847 169.201V169.201Z" fill="#1B2A41"/>
<path d="M75.7847 182.438C75.7847 180.001 73.8092 178.025 71.3724 178.025V178.025V182.438H75.7847V182.438Z" fill="#1B2A41"/>
<path d="M75.7847 182.438H71.3724V186.85H75.7847V182.438Z" fill="#1B2A41"/>
<path d="M75.7847 186.85H71.3724V191.262H75.7847V186.85Z" fill="#1B2A41"/>
<path d="M80.197 10.3577H77.9908C76.7724 10.3577 75.7847 11.3454 75.7847 12.5638V12.5638C75.7847 13.7822 76.7724 14.77 77.9908 14.77H80.197V10.3577Z" fill="#1B2A41"/>
<path d="M80.197 23.5946H75.7847V28.0069H80.197V23.5946Z" fill="#1B2A41"/>
<path d="M80.197 28.0069H75.7847V28.0069C75.7847 30.4437 77.7601 32.4192 80.197 32.4192V32.4192V28.0069Z" fill="#1B2A41"/>
<path d="M80.197 41.2438H75.7847V45.6561H80.197V41.2438Z" fill="#1B2A41"/>
<path d="M80.197 54.4807H75.7847V58.893H80.197V54.4807Z" fill="#1B2A41"/>
<path d="M80.197 67.7176V67.7176C77.7601 67.7176 75.7847 69.6931 75.7847 72.1299V72.1299H80.197V67.7176Z" fill="#1B2A41"/>
<path d="M80.197 80.9546H75.7847V80.9546C75.7847 83.3914 77.7601 85.3669 80.197 85.3669V85.3669V80.9546Z" fill="#1B2A41"/>
<path d="M80.197 94.1915H75.7847V98.6038H80.197V94.1915Z" fill="#1B2A41"/>
<path d="M80.197 111.841C80.197 109.404 78.2215 107.428 75.7847 107.428V107.428V111.841H80.197V111.841Z" fill="#1B2A41"/>
<path d="M80.197 116.253H75.7847V120.665H80.197V116.253Z" fill="#1B2A41"/>
<path d="M80.197 133.902H75.7847V138.315V138.315C78.2215 138.315 80.197 136.339 80.197 133.902V133.902Z" fill="#1B2A41"/>
<path d="M80.197 164.788C80.197 162.352 78.2215 160.376 75.7847 160.376V160.376V164.788H80.197V164.788Z" fill="#1B2A41"/>
<path d="M80.197 164.788H75.7847V169.201H80.197V164.788Z" fill="#1B2A41"/>
<path d="M80.197 186.85H75.7847V191.262H80.197V186.85Z" fill="#1B2A41"/>
<path d="M84.6093 14.77C84.6093 12.3331 82.6338 10.3577 80.197 10.3577V10.3577V14.77H84.6093V14.77Z" fill="#1B2A41"/>
<path d="M84.6093 14.77H80.197V19.1823H84.6093V14.77Z" fill="#1B2A41"/>
<path d="M84.6093 19.1823H80.197V23.5946H84.6093V19.1823Z" fill="#1B2A41"/>
<path d="M84.6093 32.4192H80.197V36.8315H84.6093V32.4192Z" fill="#1B2A41"/>
<path d="M84.6093 36.8315H80.197V41.2438V41.2438C82.6338 41.2438 84.6093 39.2683 84.6093 36.8315V36.8315Z" fill="#1B2A41"/>
<path d="M84.6093 45.6561H80.197V45.6561C80.197 48.093 82.1724 50.0684 84.6093 50.0684V50.0684V45.6561Z" fill="#1B2A41"/>
<path d="M84.6093 56.6869C84.6093 55.4685 83.6216 54.4807 82.4031 54.4807H80.197V58.893H82.4031C83.6216 58.893 84.6093 57.9053 84.6093 56.6869V56.6869Z" fill="#1B2A41"/>
<path d="M84.6093 65.5115C84.6093 64.2931 83.6216 63.3053 82.4031 63.3053V63.3053C81.1847 63.3053 80.197 64.2931 80.197 65.5115V67.7176H84.6093V65.5115Z" fill="#1B2A41"/>
<path d="M84.6093 67.7176H80.197V72.1299H84.6093V67.7176Z" fill="#1B2A41"/>
<path d="M84.6093 72.1299H80.197V76.5423H84.6093V72.1299Z" fill="#1B2A41"/>
<path d="M84.6093 76.5423H80.197V80.9546H84.6093V76.5423Z" fill="#1B2A41"/>
<path d="M84.6093 85.3669H80.197V89.7792H84.6093V85.3669Z" fill="#1B2A41"/>
<path d="M84.6093 89.7792H80.197V94.1915H84.6093V89.7792Z" fill="#1B2A41"/>
<path d="M84.6093 98.6038H80.197V100.81C80.197 102.028 81.1847 103.016 82.4031 103.016V103.016C83.6216 103.016 84.6093 102.028 84.6093 100.81V98.6038Z" fill="#1B2A41"/>
<path d="M84.6093 111.841H80.197V116.253H84.6093V111.841Z" fill="#1B2A41"/>
<path d="M84.6093 125.078C84.6093 122.641 82.6338 120.665 80.197 120.665V120.665V120.665C80.197 123.102 82.1724 125.078 84.6093 125.078V125.078V125.078Z" fill="#1B2A41"/>
<path d="M84.6093 129.49V129.49C82.1724 129.49 80.197 131.465 80.197 133.902V133.902H84.6093V129.49Z" fill="#1B2A41"/>
<path d="M84.6093 144.933C84.6093 143.715 83.6216 142.727 82.4031 142.727V142.727C81.1847 142.727 80.197 143.715 80.197 144.933V144.933C80.197 146.151 81.1847 147.139 82.4031 147.139V147.139C83.6216 147.139 84.6093 146.151 84.6093 144.933V144.933Z" fill="#1B2A41"/>
<path d="M84.6093 151.551H82.4031C81.1847 151.551 80.197 152.539 80.197 153.758V153.758C80.197 154.976 81.1847 155.964 82.4031 155.964H84.6093V151.551Z" fill="#1B2A41"/>
<path d="M84.6093 169.201H80.197V171.407C80.197 172.625 81.1847 173.613 82.4031 173.613V173.613C83.6216 173.613 84.6093 172.625 84.6093 171.407V169.201Z" fill="#1B2A41"/>
<path d="M84.6093 184.644C84.6093 183.425 83.6216 182.438 82.4031 182.438V182.438C81.1847 182.438 80.197 183.425 80.197 184.644V186.85H84.6093V184.644Z" fill="#1B2A41"/>
<path d="M84.6093 186.85H80.197V191.262V191.262C82.6338 191.262 84.6093 189.287 84.6093 186.85V186.85Z" fill="#1B2A41"/>
<path d="M89.0216 19.1823C89.0216 16.7454 87.0461 14.77 84.6093 14.77V14.77V19.1823H89.0216V19.1823Z" fill="#1B2A41"/>
<path d="M89.0216 19.1823H84.6093V23.5946H89.0216V19.1823Z" fill="#1B2A41"/>
<path d="M89.0216 23.5946H84.6093V23.5946C84.6093 26.0314 86.5848 28.0069 89.0216 28.0069V28.0069V23.5946Z" fill="#1B2A41"/>
<path d="M89.0216 32.4192H84.6093V36.8315H89.0216V32.4192Z" fill="#1B2A41"/>
<path d="M89.0216 45.6561H84.6093V50.0684V50.0684C87.0461 50.0684 89.0216 48.093 89.0216 45.6561V45.6561Z" fill="#1B2A41"/>
<path d="M89.0216 72.1299C89.0216 69.6931 87.0461 67.7176 84.6093 67.7176V67.7176V72.1299H89.0216V72.1299Z" fill="#1B2A41"/>
<path d="M89.0216 85.3669C89.0216 82.93 87.0461 80.9546 84.6093 80.9546V80.9546V85.3669H89.0216V85.3669Z" fill="#1B2A41"/>
<path d="M89.0216 89.7792H84.6093V94.1915H89.0216V89.7792Z" fill="#1B2A41"/>
<path d="M89.0216 94.1915H84.6093V98.6038H89.0216V94.1915Z" fill="#1B2A41"/>
<path d="M89.0216 107.428V107.428C86.5848 107.428 84.6093 109.404 84.6093 111.841V111.841H89.0216V107.428Z" fill="#1B2A41"/>
<path d="M89.0216 111.841H84.6093V116.253V116.253C87.0461 116.253 89.0216 114.278 89.0216 111.841V111.841Z" fill="#1B2A41"/>
<path d="M89.0216 125.078H84.6093V129.49H89.0216V125.078Z" fill="#1B2A41"/>
<path d="M89.0216 129.49H84.6093V133.902H89.0216V129.49Z" fill="#1B2A41"/>
<path d="M89.0216 155.964C89.0216 153.527 87.0461 151.551 84.6093 151.551V151.551V155.964H89.0216V155.964Z" fill="#1B2A41"/>
<path d="M89.0216 155.964H84.6093V155.964C84.6093 158.401 86.5848 160.376 89.0216 160.376V160.376V155.964Z" fill="#1B2A41"/>
<path d="M89.0216 166.995C89.0216 165.776 88.0339 164.788 86.8154 164.788V164.788C85.597 164.788 84.6093 165.776 84.6093 166.995V169.201H89.0216V166.995Z" fill="#1B2A41"/>
<path d="M93.4339 28.0069H89.0216V32.4192H93.4339V28.0069Z" fill="#1B2A41"/>
<path d="M93.4339 32.4192H89.0216V36.8315H93.4339V32.4192Z" fill="#1B2A41"/>
<path d="M93.4339 36.8315H89.0216V41.2438H93.4339V36.8315Z" fill="#1B2A41"/>
<path d="M93.4339 41.2438H89.0216V45.6561H93.4339V41.2438Z" fill="#1B2A41"/>
<path d="M93.4339 54.4807H91.2278C90.0093 54.4807 89.0216 55.4685 89.0216 56.6869V56.6869C89.0216 57.9053 90.0093 58.893 91.2278 58.893H93.4339V54.4807Z" fill="#1B2A41"/>
<path d="M93.4339 72.1299H89.0216V72.1299C89.0216 74.5668 90.9971 76.5423 93.4339 76.5423V76.5423V72.1299Z" fill="#1B2A41"/>
<path d="M93.4339 85.3669H89.0216V89.7792H93.4339V85.3669Z" fill="#1B2A41"/>
<path d="M93.4339 89.7792H89.0216V94.1915H93.4339V89.7792Z" fill="#1B2A41"/>
<path d="M93.4339 94.1915H89.0216V98.6038V98.6038C91.4584 98.6038 93.4339 96.6283 93.4339 94.1915V94.1915Z" fill="#1B2A41"/>
<path d="M93.4339 105.222C93.4339 104.004 92.4462 103.016 91.2278 103.016V103.016C90.0093 103.016 89.0216 104.004 89.0216 105.222V107.428H91.2278C92.4462 107.428 93.4339 106.441 93.4339 105.222V105.222Z" fill="#1B2A41"/>
<path d="M93.4339 120.665V120.665C90.9971 120.665 89.0216 122.641 89.0216 125.078V125.078H93.4339V120.665Z" fill="#1B2A41"/>
<path d="M93.4339 125.078H89.0216V129.49H93.4339V125.078Z" fill="#1B2A41"/>
<path d="M93.4339 129.49H89.0216V133.902H93.4339V129.49Z" fill="#1B2A41"/>
<path d="M93.4339 133.902H89.0216V133.902C89.0216 136.339 90.9971 138.315 93.4339 138.315V138.315V133.902Z" fill="#1B2A41"/>
<path d="M93.4339 155.964H89.0216V160.376H93.4339V155.964Z" fill="#1B2A41"/>
<path d="M93.4339 169.201H89.0216V169.201C89.0216 171.638 90.9971 173.613 93.4339 173.613V173.613V169.201Z" fill="#1B2A41"/>
<path d="M97.8462 14.77H95.6401C94.4216 14.77 93.4339 15.7577 93.4339 16.9761V16.9761C93.4339 18.1945 94.4216 19.1823 95.6401 19.1823H97.8462V14.77Z" fill="#1B2A41"/>
<path d="M97.8462 23.5946V23.5946C95.4094 23.5946 93.4339 25.57 93.4339 28.0069V28.0069H97.8462V23.5946Z" fill="#1B2A41"/>
<path d="M97.8462 28.0069H93.4339V32.4192V32.4192C95.8708 32.4192 97.8462 30.4437 97.8462 28.0069V28.0069Z" fill="#1B2A41"/>
<path d="M97.8462 41.2438H93.4339V45.6561H97.8462V41.2438Z" fill="#1B2A41"/>
<path d="M97.8462 45.6561H93.4339V50.0684H97.8462V45.6561Z" fill="#1B2A41"/>
<path d="M97.8462 50.0684H93.4339V54.4807H97.8462V50.0684Z" fill="#1B2A41"/>
<path d="M97.8462 54.4807H93.4339V58.893H97.8462V54.4807Z" fill="#1B2A41"/>
<path d="M97.8462 58.893H93.4339V58.893C93.4339 61.3299 95.4094 63.3053 97.8462 63.3053V63.3053V58.893Z" fill="#1B2A41"/>
<path d="M97.8462 69.9238C97.8462 68.7054 96.8585 67.7176 95.6401 67.7176V67.7176C94.4216 67.7176 93.4339 68.7054 93.4339 69.9238V72.1299H97.8462V69.9238Z" fill="#1B2A41"/>
<path d="M97.8462 72.1299H93.4339V76.5423V76.5423C95.8708 76.5423 97.8462 74.5668 97.8462 72.1299V72.1299Z" fill="#1B2A41"/>
<path d="M97.8462 85.3669H93.4339V89.7792H97.8462V85.3669Z" fill="#1B2A41"/>
<path d="M97.8462 114.047C97.8462 112.828 96.8585 111.841 95.6401 111.841V111.841C94.4216 111.841 93.4339 112.828 93.4339 114.047V116.253H97.8462V114.047Z" fill="#1B2A41"/>
<path d="M97.8462 116.253H93.4339V120.665H97.8462V116.253Z" fill="#1B2A41"/>
<path d="M97.8462 120.665H93.4339V125.078H97.8462V120.665Z" fill="#1B2A41"/>
<path d="M97.8462 125.078H93.4339V129.49H97.8462V125.078Z" fill="#1B2A41"/>
<path d="M97.8462 138.315C97.8462 135.878 95.8708 133.902 93.4339 133.902V133.902V138.315H97.8462V138.315Z" fill="#1B2A41"/>
<path d="M97.8462 138.315H93.4339V142.727H97.8462V138.315Z" fill="#1B2A41"/>
<path d="M97.8462 142.727H93.4339V147.139H97.8462V142.727Z" fill="#1B2A41"/>
<path d="M97.8462 147.139H93.4339V151.551H97.8462V147.139Z" fill="#1B2A41"/>
<path d="M97.8462 151.551H93.4339V155.964H97.8462V151.551Z" fill="#1B2A41"/>
<path d="M97.8462 160.376H93.4339V164.788H97.8462V160.376Z" fill="#1B2A41"/>
<path d="M97.8462 164.788H93.4339V169.201H97.8462V164.788Z" fill="#1B2A41"/>
<path d="M97.8462 173.613H93.4339V178.025H97.8462V173.613Z" fill="#1B2A41"/>
<path d="M97.8462 178.025H93.4339V178.025C93.4339 180.462 95.4094 182.438 97.8462 182.438V182.438V178.025Z" fill="#1B2A41"/>
<path d="M97.8462 186.85H95.6401C94.4216 186.85 93.4339 187.838 93.4339 189.056V189.056C93.4339 190.274 94.4216 191.262 95.6401 191.262V191.262C96.8585 191.262 97.8462 190.274 97.8462 189.056V186.85Z" fill="#1B2A41"/>
<path d="M102.259 10.3577V10.3577C99.8217 10.3577 97.8462 12.3331 97.8462 14.77V14.77H102.259V10.3577Z" fill="#1B2A41"/>
<path d="M102.259 14.77H97.8462V19.1823H102.259V14.77Z" fill="#1B2A41"/>
<path d="M102.259 19.1823H97.8462V23.5946V23.5946C100.283 23.5946 102.259 21.6191 102.259 19.1823V19.1823Z" fill="#1B2A41"/>
<path d="M102.259 39.0377C102.259 37.8192 101.271 36.8315 100.052 36.8315V36.8315C98.8339 36.8315 97.8462 37.8192 97.8462 39.0377V41.2438H100.052C101.271 41.2438 102.259 40.2561 102.259 39.0377V39.0377Z" fill="#1B2A41"/>
<path d="M102.259 50.0684C102.259 47.6316 100.283 45.6561 97.8462 45.6561V45.6561V50.0684H102.259V50.0684Z" fill="#1B2A41"/>
<path d="M102.259 50.0684H97.8462V54.4807H102.259V50.0684Z" fill="#1B2A41"/>
<path d="M102.259 54.4807H97.8462V58.893H102.259V54.4807Z" fill="#1B2A41"/>
<path d="M102.259 58.893H97.8462V63.3053H102.259V58.893Z" fill="#1B2A41"/>
<path d="M102.259 80.9546V80.9546C99.8217 80.9546 97.8462 82.93 97.8462 85.3669V85.3669V85.3669C100.283 85.3669 102.259 83.3914 102.259 80.9546V80.9546Z" fill="#1B2A41"/>
<path d="M102.259 94.1915C102.259 91.7546 100.283 89.7792 97.8462 89.7792V89.7792V94.1915H102.259V94.1915Z" fill="#1B2A41"/>
<path d="M102.259 94.1915H97.8462V98.6038H102.259V94.1915Z" fill="#1B2A41"/>
<path d="M102.259 98.6038H97.8462V98.6038C97.8462 101.041 99.8217 103.016 102.259 103.016V103.016V98.6038Z" fill="#1B2A41"/>
<path d="M102.259 125.078C102.259 122.641 100.283 120.665 97.8462 120.665V120.665V125.078H102.259V125.078Z" fill="#1B2A41"/>
<path d="M102.259 125.078H97.8462V129.49V129.49C100.283 129.49 102.259 127.514 102.259 125.078V125.078Z" fill="#1B2A41"/>
<path d="M102.259 147.139H97.8462V151.551H102.259V147.139Z" fill="#1B2A41"/>
<path d="M102.259 155.964H97.8462V160.376H102.259V155.964Z" fill="#1B2A41"/>
<path d="M102.259 160.376H97.8462V164.788H102.259V160.376Z" fill="#1B2A41"/>
<path d="M102.259 169.201H97.8462V173.613H102.259V169.201Z" fill="#1B2A41"/>
<path d="M102.259 173.613H97.8462V178.025H102.259V173.613Z" fill="#1B2A41"/>
<path d="M102.259 178.025H97.8462V182.438H102.259V178.025Z" fill="#1B2A41"/>
<path d="M102.259 182.438H97.8462V186.85H102.259V182.438Z" fill="#1B2A41"/>
<path d="M106.671 10.3577H102.259V14.77H106.671V10.3577Z" fill="#1B2A41"/>
<path d="M106.671 30.213C106.671 28.9946 105.683 28.0069 104.465 28.0069V28.0069C103.246 28.0069 102.259 28.9946 102.259 30.213V30.213C102.259 31.4315 103.246 32.4192 104.465 32.4192H106.671V30.213Z" fill="#1B2A41"/>
<path d="M106.671 54.4807H102.259V58.893H106.671V54.4807Z" fill="#1B2A41"/>
<path d="M106.671 58.893H102.259V63.3053H106.671V58.893Z" fill="#1B2A41"/>
<path d="M106.671 63.3053H102.259V63.3053C102.259 65.7422 104.234 67.7176 106.671 67.7176V67.7176V63.3053Z" fill="#1B2A41"/>
<path d="M106.671 76.5423V76.5423C104.234 76.5423 102.259 78.5177 102.259 80.9546V80.9546H106.671V76.5423Z" fill="#1B2A41"/>
<path d="M106.671 94.1915H102.259V98.6038H106.671V94.1915Z" fill="#1B2A41"/>
<path d="M106.671 98.6038H102.259V103.016V103.016C104.695 103.016 106.671 101.041 106.671 98.6038V98.6038Z" fill="#1B2A41"/>
<path d="M106.671 136.108C106.671 134.89 105.683 133.902 104.465 133.902V133.902C103.246 133.902 102.259 134.89 102.259 136.108V138.315H106.671V136.108Z" fill="#1B2A41"/>
<path d="M106.671 138.315H102.259V142.727H106.671V138.315Z" fill="#1B2A41"/>
<path d="M106.671 142.727H102.259V147.139H106.671V142.727Z" fill="#1B2A41"/>
<path d="M106.671 147.139H102.259V151.551H106.671V147.139Z" fill="#1B2A41"/>
<path d="M106.671 151.551H102.259V155.964H106.671V151.551Z" fill="#1B2A41"/>
<path d="M106.671 155.964H102.259V160.376H106.671V155.964Z" fill="#1B2A41"/>
<path d="M106.671 160.376H102.259V164.788H106.671V160.376Z" fill="#1B2A41"/>
<path d="M106.671 164.788H102.259V169.201H106.671V164.788Z" fill="#1B2A41"/>
<path d="M106.671 169.201H102.259V173.613H106.671V169.201Z" fill="#1B2A41"/>
<path d="M106.671 182.438H102.259V186.85H106.671V182.438Z" fill="#1B2A41"/>
<path d="M106.671 186.85H102.259V189.056C102.259 190.274 103.246 191.262 104.465 191.262V191.262C105.683 191.262 106.671 190.274 106.671 189.056V186.85Z" fill="#1B2A41"/>
<path d="M111.083 10.3577H106.671V14.77H111.083V10.3577Z" fill="#1B2A41"/>
<path d="M111.083 32.4192H106.671V36.8315H111.083V32.4192Z" fill="#1B2A41"/>
<path d="M111.083 36.8315H106.671V39.0377C106.671 40.2561 107.659 41.2438 108.877 41.2438V41.2438C110.095 41.2438 111.083 40.2561 111.083 39.0377V36.8315Z" fill="#1B2A41"/>
<path d="M111.083 47.8623C111.083 46.6438 110.095 45.6561 108.877 45.6561V45.6561C107.659 45.6561 106.671 46.6438 106.671 47.8623V50.0684H111.083V47.8623Z" fill="#1B2A41"/>
<path d="M111.083 50.0684H106.671V54.4807H111.083V50.0684Z" fill="#1B2A41"/>
<path d="M111.083 58.893H106.671V63.3053H111.083V58.893Z" fill="#1B2A41"/>
<path d="M111.083 63.3053H106.671V67.7176V67.7176C109.108 67.7176 111.083 65.7422 111.083 63.3053V63.3053Z" fill="#1B2A41"/>
<path d="M111.083 74.3361C111.083 73.1177 110.095 72.1299 108.877 72.1299V72.1299C107.659 72.1299 106.671 73.1177 106.671 74.3361V76.5423H108.877C110.095 76.5423 111.083 75.5545 111.083 74.3361V74.3361Z" fill="#1B2A41"/>
<path d="M111.083 85.3669C111.083 82.93 109.108 80.9546 106.671 80.9546V80.9546V80.9546C106.671 83.3914 108.646 85.3669 111.083 85.3669V85.3669V85.3669Z" fill="#1B2A41"/>
<path d="M111.083 89.7792V89.7792C108.646 89.7792 106.671 91.7546 106.671 94.1915V94.1915H111.083V89.7792Z" fill="#1B2A41"/>
<path d="M111.083 111.841V111.841C108.646 111.841 106.671 113.816 106.671 116.253V116.253H111.083V111.841Z" fill="#1B2A41"/>
<path d="M111.083 116.253H106.671V116.253C106.671 118.69 108.646 120.665 111.083 120.665V120.665V116.253Z" fill="#1B2A41"/>
<path d="M111.083 142.727C111.083 140.29 109.108 138.315 106.671 138.315V138.315V142.727H111.083V142.727Z" fill="#1B2A41"/>
<path d="M111.083 142.727H106.671V147.139H111.083V142.727Z" fill="#1B2A41"/>
<path d="M111.083 155.964H106.671V160.376H111.083V155.964Z" fill="#1B2A41"/>
<path d="M111.083 164.788H106.671V169.201H111.083V164.788Z" fill="#1B2A41"/>
<path d="M111.083 169.201H106.671V173.613H111.083V169.201Z" fill="#1B2A41"/>
<path d="M111.083 173.613H106.671V178.025H111.083V173.613Z" fill="#1B2A41"/>
<path d="M111.083 178.025H106.671V182.438H111.083V178.025Z" fill="#1B2A41"/>
<path d="M111.083 182.438H106.671V186.85V186.85C109.108 186.85 111.083 184.874 111.083 182.438V182.438Z" fill="#1B2A41"/>
<path d="M115.495 14.77C115.495 12.3331 113.52 10.3577 111.083 10.3577V10.3577V14.77H115.495V14.77Z" fill="#1B2A41"/>
<path d="M115.495 14.77H111.083V14.77C111.083 17.2068 113.059 19.1823 115.495 19.1823V19.1823V14.77Z" fill="#1B2A41"/>
<path d="M115.495 23.5946H113.289C112.071 23.5946 111.083 24.5823 111.083 25.8007V25.8007C111.083 27.0192 112.071 28.0069 113.289 28.0069H115.495V23.5946Z" fill="#1B2A41"/>
<path d="M115.495 32.4192H111.083V36.8315H115.495V32.4192Z" fill="#1B2A41"/>
<path d="M115.495 50.0684H111.083V54.4807H115.495V50.0684Z" fill="#1B2A41"/>
<path d="M115.495 54.4807H111.083V58.893H115.495V54.4807Z" fill="#1B2A41"/>
<path d="M115.495 58.893H111.083V63.3053H115.495V58.893Z" fill="#1B2A41"/>
<path d="M115.495 87.573C115.495 86.3546 114.508 85.3669 113.289 85.3669H111.083V89.7792H113.289C114.508 89.7792 115.495 88.7914 115.495 87.573V87.573Z" fill="#1B2A41"/>
<path d="M115.495 94.1915H111.083V98.6038H115.495V94.1915Z" fill="#1B2A41"/>
<path d="M115.495 98.6038H111.083V98.6038C111.083 101.041 113.059 103.016 115.495 103.016V103.016V98.6038Z" fill="#1B2A41"/>
<path d="M115.495 111.841H111.083V116.253H115.495V111.841Z" fill="#1B2A41"/>
<path d="M115.495 116.253H111.083V120.665H115.495V116.253Z" fill="#1B2A41"/>
<path d="M115.495 120.665H111.083V120.665C111.083 123.102 113.059 125.078 115.495 125.078V125.078V120.665Z" fill="#1B2A41"/>
<path d="M115.495 149.345C115.495 148.127 114.508 147.139 113.289 147.139H111.083V149.345C111.083 150.564 112.071 151.551 113.289 151.551V151.551C114.508 151.551 115.495 150.564 115.495 149.345V149.345Z" fill="#1B2A41"/>
<path d="M115.495 158.17C115.495 156.951 114.508 155.964 113.289 155.964H111.083V160.376H113.289C114.508 160.376 115.495 159.388 115.495 158.17V158.17Z" fill="#1B2A41"/>
<path d="M115.495 166.995C115.495 165.776 114.508 164.788 113.289 164.788H111.083V169.201H113.289C114.508 169.201 115.495 168.213 115.495 166.995V166.995Z" fill="#1B2A41"/>
<path d="M115.495 178.025C115.495 175.588 113.52 173.613 111.083 173.613V173.613V178.025H115.495V178.025Z" fill="#1B2A41"/>
<path d="M119.908 14.77H115.495V19.1823H119.908V14.77Z" fill="#1B2A41"/>
<path d="M119.908 23.5946H115.495V28.0069H119.908V23.5946Z" fill="#1B2A41"/>
<path d="M119.908 32.4192H115.495V36.8315H119.908V32.4192Z" fill="#1B2A41"/>
<path d="M119.908 36.8315H115.495V36.8315C115.495 39.2683 117.471 41.2438 119.908 41.2438V41.2438V36.8315Z" fill="#1B2A41"/>
<path d="M119.908 45.6561V45.6561C117.471 45.6561 115.495 47.6316 115.495 50.0684V50.0684H119.908V45.6561Z" fill="#1B2A41"/>
<path d="M119.908 50.0684H115.495V54.4807H119.908V50.0684Z" fill="#1B2A41"/>
<path d="M119.908 63.3053H115.495V67.7176H119.908V63.3053Z" fill="#1B2A41"/>
<path d="M119.908 67.7176H115.495V69.9238C115.495 71.1422 116.483 72.1299 117.702 72.1299V72.1299C118.92 72.1299 119.908 71.1422 119.908 69.9238V67.7176Z" fill="#1B2A41"/>
<path d="M119.908 76.5423H117.702C116.483 76.5423 115.495 77.53 115.495 78.7484V78.7484C115.495 79.9668 116.483 80.9546 117.702 80.9546H119.908V76.5423Z" fill="#1B2A41"/>
<path d="M119.908 98.6038C119.908 96.1669 117.932 94.1915 115.495 94.1915V94.1915V98.6038H119.908V98.6038Z" fill="#1B2A41"/>
<path d="M119.908 98.6038H115.495V103.016H119.908V98.6038Z" fill="#1B2A41"/>
<path d="M119.908 116.253C119.908 113.816 117.932 111.841 115.495 111.841V111.841V116.253H119.908V116.253Z" fill="#1B2A41"/>
<path d="M119.908 116.253H115.495V120.665H119.908V116.253Z" fill="#1B2A41"/>
<path d="M119.908 120.665H115.495V125.078H119.908V120.665Z" fill="#1B2A41"/>
<path d="M119.908 125.078H115.495V129.49H119.908V125.078Z" fill="#1B2A41"/>
<path d="M119.908 129.49H115.495V129.49C115.495 131.927 117.471 133.902 119.908 133.902V133.902V129.49Z" fill="#1B2A41"/>
<path d="M119.908 138.315H117.702C116.483 138.315 115.495 139.302 115.495 140.521V140.521C115.495 141.739 116.483 142.727 117.702 142.727H119.908V138.315Z" fill="#1B2A41"/>
<path d="M119.908 178.025H115.495V182.438H119.908V178.025Z" fill="#1B2A41"/>
<path d="M119.908 182.438H115.495V182.438C115.495 184.874 117.471 186.85 119.908 186.85V186.85V182.438Z" fill="#1B2A41"/>
<path d="M124.32 12.5638C124.32 11.3454 123.332 10.3577 122.114 10.3577V10.3577C120.895 10.3577 119.908 11.3454 119.908 12.5638V14.77H122.114C123.332 14.77 124.32 13.7822 124.32 12.5638V12.5638Z" fill="#1B2A41"/>
<path d="M124.32 19.1823H119.908V23.5946H124.32V19.1823Z" fill="#1B2A41"/>
<path d="M124.32 23.5946H119.908V28.0069H124.32V23.5946Z" fill="#1B2A41"/>
<path d="M124.32 28.0069H119.908V32.4192V32.4192C122.345 32.4192 124.32 30.4437 124.32 28.0069V28.0069Z" fill="#1B2A41"/>
<path d="M124.32 41.2438H119.908V45.6561H124.32V41.2438Z" fill="#1B2A41"/>
<path d="M124.32 45.6561H119.908V50.0684H124.32V45.6561Z" fill="#1B2A41"/>
<path d="M124.32 50.0684H119.908V54.4807H124.32V50.0684Z" fill="#1B2A41"/>
<path d="M124.32 63.3053H119.908V67.7176V67.7176C122.345 67.7176 124.32 65.7422 124.32 63.3053V63.3053Z" fill="#1B2A41"/>
<path d="M124.32 76.5423H119.908V80.9546H124.32V76.5423Z" fill="#1B2A41"/>
<path d="M124.32 80.9546H119.908V80.9546C119.908 83.3914 121.883 85.3669 124.32 85.3669V85.3669V80.9546Z" fill="#1B2A41"/>
<path d="M124.32 98.6038H119.908V103.016H124.32V98.6038Z" fill="#1B2A41"/>
<path d="M124.32 116.253H119.908V120.665H124.32V116.253Z" fill="#1B2A41"/>
<path d="M124.32 129.49C124.32 127.053 122.345 125.078 119.908 125.078V125.078V129.49H124.32V129.49Z" fill="#1B2A41"/>
<path d="M124.32 129.49H119.908V133.902V133.902C122.345 133.902 124.32 131.927 124.32 129.49V129.49Z" fill="#1B2A41"/>
<path d="M124.32 142.727C124.32 140.29 122.345 138.315 119.908 138.315V138.315V142.727H124.32V142.727Z" fill="#1B2A41"/>
<path d="M124.32 147.139V147.139C121.883 147.139 119.908 149.115 119.908 151.551V151.551H124.32V147.139Z" fill="#1B2A41"/>
<path d="M124.32 151.551H119.908V151.551C119.908 153.988 121.883 155.964 124.32 155.964V155.964V151.551Z" fill="#1B2A41"/>
<path d="M124.32 160.376V160.376C121.883 160.376 119.908 162.352 119.908 164.788V164.788H124.32V160.376Z" fill="#1B2A41"/>
<path d="M124.32 164.788H119.908V164.788C119.908 167.225 121.883 169.201 124.32 169.201V169.201V164.788Z" fill="#1B2A41"/>
<path d="M124.32 173.613V173.613C121.883 173.613 119.908 175.588 119.908 178.025V178.025H124.32V173.613Z" fill="#1B2A41"/>
<path d="M124.32 178.025H119.908V182.438H124.32V178.025Z" fill="#1B2A41"/>
<path d="M124.32 182.438H119.908V186.85H124.32V182.438Z" fill="#1B2A41"/>
<path d="M124.32 186.85H119.908V186.85C119.908 189.287 121.883 191.262 124.32 191.262V191.262V186.85Z" fill="#1B2A41"/>
<path d="M128.732 19.1823H124.32V23.5946H128.732V19.1823Z" fill="#1B2A41"/>
<path d="M128.732 23.5946H124.32V28.0069V28.0069C126.757 28.0069 128.732 26.0314 128.732 23.5946V23.5946Z" fill="#1B2A41"/>
<path d="M128.732 36.8315V36.8315C126.296 36.8315 124.32 38.807 124.32 41.2438V41.2438H128.732V36.8315Z" fill="#1B2A41"/>
<path d="M128.732 50.0684H124.32V54.4807H128.732V50.0684Z" fill="#1B2A41"/>
<path d="M128.732 61.0992C128.732 59.8808 127.745 58.893 126.526 58.893V58.893C125.308 58.893 124.32 59.8808 124.32 61.0992V63.3053H128.732V61.0992Z" fill="#1B2A41"/>
<path d="M128.732 74.3361C128.732 73.1177 127.745 72.1299 126.526 72.1299V72.1299C125.308 72.1299 124.32 73.1177 124.32 74.3361V76.5423H128.732V74.3361Z" fill="#1B2A41"/>
<path d="M128.732 76.5423H124.32V80.9546H128.732V76.5423Z" fill="#1B2A41"/>
<path d="M128.732 80.9546H124.32V85.3669V85.3669C126.757 85.3669 128.732 83.3914 128.732 80.9546V80.9546Z" fill="#1B2A41"/>
<path d="M128.732 91.9853C128.732 90.7669 127.745 89.7792 126.526 89.7792V89.7792C125.308 89.7792 124.32 90.7669 124.32 91.9853V94.1915H128.732V91.9853Z" fill="#1B2A41"/>
<path d="M128.732 94.1915H124.32V98.6038H128.732V94.1915Z" fill="#1B2A41"/>
<path d="M128.732 103.016H124.32V103.016C124.32 105.453 126.296 107.428 128.732 107.428V107.428V103.016Z" fill="#1B2A41"/>
<path d="M128.732 116.253H124.32V120.665V120.665C126.757 120.665 128.732 118.69 128.732 116.253V116.253Z" fill="#1B2A41"/>
<path d="M128.732 147.139C128.732 144.702 126.757 142.727 124.32 142.727V142.727V147.139H128.732V147.139Z" fill="#1B2A41"/>
<path d="M128.732 147.139H124.32V151.551H128.732V147.139Z" fill="#1B2A41"/>
<path d="M128.732 151.551H124.32V155.964H128.732V151.551Z" fill="#1B2A41"/>
<path d="M128.732 155.964H124.32V160.376H128.732V155.964Z" fill="#1B2A41"/>
<path d="M128.732 164.788H124.32V169.201H128.732V164.788Z" fill="#1B2A41"/>
<path d="M128.732 173.613H124.32V178.025H128.732V173.613Z" fill="#1B2A41"/>
<path d="M128.732 186.85C128.732 184.413 126.757 182.438 124.32 182.438V182.438V186.85H128.732V186.85Z" fill="#1B2A41"/>
<path d="M128.732 186.85H124.32V191.262H128.732V186.85Z" fill="#1B2A41"/>
<path d="M133.145 10.3577V10.3577C130.708 10.3577 128.732 12.3331 128.732 14.77V14.77H133.145V10.3577Z" fill="#1B2A41"/>
<path d="M133.145 14.77H128.732V19.1823H133.145V14.77Z" fill="#1B2A41"/>
<path d="M133.145 32.4192V32.4192C130.708 32.4192 128.732 34.3947 128.732 36.8315V36.8315H133.145V32.4192Z" fill="#1B2A41"/>
<path d="M133.145 41.2438H128.732V45.6561H133.145V41.2438Z" fill="#1B2A41"/>
<path d="M133.145 45.6561H128.732V50.0684H133.145V45.6561Z" fill="#1B2A41"/>
<path d="M133.145 50.0684H128.732V54.4807V54.4807C131.169 54.4807 133.145 52.5053 133.145 50.0684V50.0684Z" fill="#1B2A41"/>
<path d="M133.145 63.3053H128.732V63.3053C128.732 65.7422 130.708 67.7176 133.145 67.7176V67.7176V63.3053Z" fill="#1B2A41"/>
<path d="M133.145 98.6038C133.145 96.1669 131.169 94.1915 128.732 94.1915V94.1915V98.6038H133.145V98.6038Z" fill="#1B2A41"/>
<path d="M133.145 103.016H128.732V107.428H133.145V103.016Z" fill="#1B2A41"/>
<path d="M133.145 107.428H128.732V111.841H133.145V107.428Z" fill="#1B2A41"/>
<path d="M133.145 111.841H128.732V116.253H133.145V111.841Z" fill="#1B2A41"/>
<path d="M133.145 129.49H130.939C129.72 129.49 128.732 130.478 128.732 131.696V131.696C128.732 132.914 129.72 133.902 130.939 133.902H133.145V129.49Z" fill="#1B2A41"/>
<path d="M133.145 147.139H128.732V151.551H133.145V147.139Z" fill="#1B2A41"/>
<path d="M133.145 151.551H128.732V155.964H133.145V151.551Z" fill="#1B2A41"/>
<path d="M133.145 155.964H128.732V160.376H133.145V155.964Z" fill="#1B2A41"/>
<path d="M133.145 164.788H128.732V169.201H133.145V164.788Z" fill="#1B2A41"/>
<path d="M133.145 173.613H128.732V178.025H133.145V173.613Z" fill="#1B2A41"/>
<path d="M133.145 186.85H128.732V191.262H133.145V186.85Z" fill="#1B2A41"/>
<path d="M137.557 14.77C137.557 12.3331 135.582 10.3577 133.145 10.3577V10.3577V14.77H137.557V14.77Z" fill="#1B2A41"/>
<path d="M137.557 14.77H133.145V19.1823H137.557V14.77Z" fill="#1B2A41"/>
<path d="M137.557 32.4192H133.145V36.8315H137.557V32.4192Z" fill="#1B2A41"/>
<path d="M137.557 36.8315H133.145V41.2438H137.557V36.8315Z" fill="#1B2A41"/>
<path d="M137.557 41.2438H133.145V45.6561H137.557V41.2438Z" fill="#1B2A41"/>
<path d="M137.557 45.6561H133.145V50.0684H137.557V45.6561Z" fill="#1B2A41"/>
<path d="M137.557 61.0992C137.557 59.8808 136.569 58.893 135.351 58.893V58.893C134.132 58.893 133.145 59.8808 133.145 61.0992V63.3053H137.557V61.0992Z" fill="#1B2A41"/>
<path d="M137.557 63.3053H133.145V67.7176H137.557V63.3053Z" fill="#1B2A41"/>
<path d="M137.557 67.7176H133.145V72.1299H137.557V67.7176Z" fill="#1B2A41"/>
<path d="M137.557 72.1299H133.145V76.5423H137.557V72.1299Z" fill="#1B2A41"/>
<path d="M137.557 76.5423H133.145V80.9546H137.557V76.5423Z" fill="#1B2A41"/>
<path d="M137.557 80.9546H133.145V85.3669H137.557V80.9546Z" fill="#1B2A41"/>
<path d="M137.557 85.3669H133.145V85.3669C133.145 87.8037 135.12 89.7792 137.557 89.7792V89.7792V85.3669Z" fill="#1B2A41"/>
<path d="M137.557 98.6038H133.145V103.016V103.016C135.582 103.016 137.557 101.041 137.557 98.6038V98.6038Z" fill="#1B2A41"/>
<path d="M137.557 116.253C137.557 113.816 135.582 111.841 133.145 111.841V111.841V116.253H137.557V116.253Z" fill="#1B2A41"/>
<path d="M137.557 120.665H135.351C134.132 120.665 133.145 121.653 133.145 122.871V122.871C133.145 124.09 134.132 125.078 135.351 125.078H137.557V120.665Z" fill="#1B2A41"/>
<path d="M137.557 133.902C137.557 131.465 135.582 129.49 133.145 129.49V129.49V133.902H137.557V133.902Z" fill="#1B2A41"/>
<path d="M137.557 133.902H133.145V133.902C133.145 136.339 135.12 138.315 137.557 138.315V138.315V133.902Z" fill="#1B2A41"/>
<path d="M137.557 144.933C137.557 143.715 136.569 142.727 135.351 142.727V142.727C134.132 142.727 133.145 143.715 133.145 144.933V147.139H137.557V144.933Z" fill="#1B2A41"/>
<path d="M137.557 147.139H133.145V151.551H137.557V147.139Z" fill="#1B2A41"/>
<path d="M137.557 151.551H133.145V155.964H137.557V151.551Z" fill="#1B2A41"/>
<path d="M137.557 155.964H133.145V160.376V160.376C135.582 160.376 137.557 158.401 137.557 155.964V155.964Z" fill="#1B2A41"/>
<path d="M137.557 164.788H133.145V169.201H137.557V164.788Z" fill="#1B2A41"/>
<path d="M137.557 169.201H133.145V173.613H137.557V169.201Z" fill="#1B2A41"/>
<path d="M137.557 173.613H133.145V178.025H137.557V173.613Z" fill="#1B2A41"/>
<path d="M137.557 182.438V182.438C135.12 182.438 133.145 184.413 133.145 186.85V186.85H137.557V182.438Z" fill="#1B2A41"/>
<path d="M137.557 186.85H133.145V191.262V191.262C135.582 191.262 137.557 189.287 137.557 186.85V186.85Z" fill="#1B2A41"/>
<path d="M141.969 14.77H137.557V19.1823H141.969V14.77Z" fill="#1B2A41"/>
<path d="M141.969 19.1823H137.557V19.1823C137.557 21.6191 139.532 23.5946 141.969 23.5946V23.5946V19.1823Z" fill="#1B2A41"/>
<path d="M141.969 30.213C141.969 28.9946 140.982 28.0069 139.763 28.0069V28.0069C138.545 28.0069 137.557 28.9946 137.557 30.213V32.4192H139.763C140.982 32.4192 141.969 31.4315 141.969 30.213V30.213Z" fill="#1B2A41"/>
<path d="M141.969 45.6561H137.557V50.0684V50.0684C139.994 50.0684 141.969 48.093 141.969 45.6561V45.6561Z" fill="#1B2A41"/>
<path d="M141.969 63.3053H137.557V67.7176H141.969V63.3053Z" fill="#1B2A41"/>
<path d="M141.969 76.5423H137.557V80.9546H141.969V76.5423Z" fill="#1B2A41"/>
<path d="M141.969 80.9546H137.557V85.3669V85.3669C139.994 85.3669 141.969 83.3914 141.969 80.9546V80.9546Z" fill="#1B2A41"/>
<path d="M141.969 89.7792H137.557V94.1915H141.969V89.7792Z" fill="#1B2A41"/>
<path d="M141.969 94.1915H137.557V98.6038H141.969V94.1915Z" fill="#1B2A41"/>
<path d="M141.969 116.253H137.557V120.665H141.969V116.253Z" fill="#1B2A41"/>
<path d="M141.969 120.665H137.557V125.078H141.969V120.665Z" fill="#1B2A41"/>
<path d="M141.969 133.902H137.557V138.315H141.969V133.902Z" fill="#1B2A41"/>
<path d="M141.969 155.964C141.969 153.527 139.994 151.551 137.557 151.551V151.551V155.964H141.969V155.964Z" fill="#1B2A41"/>
<path d="M141.969 164.788H137.557V169.201H141.969V164.788Z" fill="#1B2A41"/>
<path d="M141.969 178.025H137.557V182.438H141.969V178.025Z" fill="#1B2A41"/>
<path d="M146.382 12.5638C146.382 11.3454 145.394 10.3577 144.175 10.3577V10.3577C142.957 10.3577 141.969 11.3454 141.969 12.5638V14.77H144.175C145.394 14.77 146.382 13.7822 146.382 12.5638V12.5638Z" fill="#1B2A41"/>
<path d="M146.382 19.1823H141.969V23.5946H146.382V19.1823Z" fill="#1B2A41"/>
<path d="M146.382 39.0377C146.382 37.8192 145.394 36.8315 144.175 36.8315V36.8315C142.957 36.8315 141.969 37.8192 141.969 39.0377V41.2438H146.382V39.0377Z" fill="#1B2A41"/>
<path d="M146.382 41.2438H141.969V45.6561H146.382V41.2438Z" fill="#1B2A41"/>
<path d="M146.382 54.4807V54.4807C143.945 54.4807 141.969 56.4562 141.969 58.893V58.893H146.382V54.4807Z" fill="#1B2A41"/>
<path d="M146.382 58.893H141.969V63.3053H146.382V58.893Z" fill="#1B2A41"/>
<path d="M146.382 63.3053H141.969V67.7176H146.382V63.3053Z" fill="#1B2A41"/>
<path d="M146.382 72.1299V72.1299C143.945 72.1299 141.969 74.1054 141.969 76.5423V76.5423H146.382V72.1299Z" fill="#1B2A41"/>
<path d="M146.382 76.5423H141.969V80.9546H146.382V76.5423Z" fill="#1B2A41"/>
<path d="M146.382 89.7792H141.969V94.1915H146.382V89.7792Z" fill="#1B2A41"/>
<path d="M146.382 94.1915H141.969V98.6038H146.382V94.1915Z" fill="#1B2A41"/>
<path d="M146.382 103.016V103.016C143.945 103.016 141.969 104.992 141.969 107.428V107.428H146.382V103.016Z" fill="#1B2A41"/>
<path d="M146.382 107.428H141.969V111.841H146.382V107.428Z" fill="#1B2A41"/>
<path d="M146.382 111.841H141.969V116.253H146.382V111.841Z" fill="#1B2A41"/>
<path d="M146.382 116.253H141.969V120.665H146.382V116.253Z" fill="#1B2A41"/>
<path d="M146.382 129.49C146.382 127.053 144.406 125.078 141.969 125.078V125.078V129.49H146.382V129.49Z" fill="#1B2A41"/>
<path d="M146.382 129.49H141.969V133.902H146.382V129.49Z" fill="#1B2A41"/>
<path d="M146.382 133.902H141.969V138.315H146.382V133.902Z" fill="#1B2A41"/>
<path d="M146.382 160.376C146.382 157.939 144.406 155.964 141.969 155.964V155.964V160.376H146.382V160.376Z" fill="#1B2A41"/>
<path d="M146.382 160.376H141.969V164.788H146.382V160.376Z" fill="#1B2A41"/>
<path d="M146.382 164.788H141.969V169.201V169.201C144.406 169.201 146.382 167.225 146.382 164.788V164.788Z" fill="#1B2A41"/>
<path d="M146.382 178.025H141.969V182.438H146.382V178.025Z" fill="#1B2A41"/>
<path d="M146.382 182.438H141.969V184.644C141.969 185.862 142.957 186.85 144.175 186.85V186.85C145.394 186.85 146.382 185.862 146.382 184.644V182.438Z" fill="#1B2A41"/>
<path d="M150.794 19.1823H146.382V23.5946H150.794V19.1823Z" fill="#1B2A41"/>
<path d="M150.794 28.0069H148.588C147.369 28.0069 146.382 28.9946 146.382 30.213V30.213C146.382 31.4315 147.369 32.4192 148.588 32.4192V32.4192C149.806 32.4192 150.794 31.4315 150.794 30.213V28.0069Z" fill="#1B2A41"/>
<path d="M150.794 41.2438H146.382V45.6561H150.794V41.2438Z" fill="#1B2A41"/>
<path d="M150.794 45.6561H146.382V47.8623C146.382 49.0807 147.369 50.0684 148.588 50.0684V50.0684C149.806 50.0684 150.794 49.0807 150.794 47.8623V45.6561Z" fill="#1B2A41"/>
<path d="M150.794 58.893C150.794 56.4562 148.818 54.4807 146.382 54.4807V54.4807V58.893H150.794V58.893Z" fill="#1B2A41"/>
<path d="M150.794 58.893H146.382V63.3053H150.794V58.893Z" fill="#1B2A41"/>
<path d="M150.794 63.3053H146.382V67.7176H150.794V63.3053Z" fill="#1B2A41"/>
<path d="M150.794 76.5423C150.794 74.1054 148.818 72.1299 146.382 72.1299V72.1299V76.5423H150.794V76.5423Z" fill="#1B2A41"/>
<path d="M150.794 76.5423H146.382V80.9546H150.794V76.5423Z" fill="#1B2A41"/>
<path d="M150.794 89.7792H146.382V94.1915H150.794V89.7792Z" fill="#1B2A41"/>
<path d="M150.794 98.6038H146.382V103.016H150.794V98.6038Z" fill="#1B2A41"/>
<path d="M150.794 107.428H146.382V111.841H150.794V107.428Z" fill="#1B2A41"/>
<path d="M150.794 116.253H146.382V120.665V120.665C148.818 120.665 150.794 118.69 150.794 116.253V116.253Z" fill="#1B2A41"/>
<path d="M150.794 138.315H146.382V138.315C146.382 140.751 148.357 142.727 150.794 142.727V142.727V138.315Z" fill="#1B2A41"/>
<path d="M150.794 160.376H146.382V164.788H150.794V160.376Z" fill="#1B2A41"/>
<path d="M150.794 173.613V173.613C148.357 173.613 146.382 175.588 146.382 178.025V178.025H150.794V173.613Z" fill="#1B2A41"/>
<path d="M150.794 178.025H146.382V182.438H150.794V178.025Z" fill="#1B2A41"/>
<path d="M155.206 16.9761C155.206 15.7577 154.218 14.77 153 14.77V14.77C151.782 14.77 150.794 15.7577 150.794 16.9761V19.1823H155.206V16.9761Z" fill="#1B2A41"/>
<path d="M155.206 19.1823H150.794V23.5946H155.206V19.1823Z" fill="#1B2A41"/>
<path d="M155.206 23.5946H150.794V28.0069V28.0069C153.231 28.0069 155.206 26.0314 155.206 23.5946V23.5946Z" fill="#1B2A41"/>
<path d="M155.206 39.0377C155.206 37.8192 154.218 36.8315 153 36.8315V36.8315C151.782 36.8315 150.794 37.8192 150.794 39.0377V41.2438H155.206V39.0377Z" fill="#1B2A41"/>
<path d="M155.206 41.2438H150.794V45.6561H155.206V41.2438Z" fill="#1B2A41"/>
<path d="M155.206 63.3053H150.794V67.7176V67.7176C153.231 67.7176 155.206 65.7422 155.206 63.3053V63.3053Z" fill="#1B2A41"/>
<path d="M155.206 76.5423H150.794V80.9546H155.206V76.5423Z" fill="#1B2A41"/>
<path d="M155.206 80.9546H150.794V83.1607C150.794 84.3791 151.782 85.3669 153 85.3669V85.3669C154.218 85.3669 155.206 84.3791 155.206 83.1607V80.9546Z" fill="#1B2A41"/>
<path d="M155.206 94.1915C155.206 91.7546 153.231 89.7792 150.794 89.7792V89.7792V94.1915H155.206V94.1915Z" fill="#1B2A41"/>
<path d="M155.206 98.6038H150.794V103.016H155.206V98.6038Z" fill="#1B2A41"/>
<path d="M155.206 111.841C155.206 109.404 153.231 107.428 150.794 107.428V107.428V111.841H155.206V111.841Z" fill="#1B2A41"/>
<path d="M155.206 111.841H150.794V116.253H155.206V111.841Z" fill="#1B2A41"/>
<path d="M155.206 125.078H153C151.782 125.078 150.794 126.065 150.794 127.284V127.284C150.794 128.502 151.782 129.49 153 129.49H155.206V125.078Z" fill="#1B2A41"/>
<path d="M155.206 133.902V133.902C152.769 133.902 150.794 135.878 150.794 138.315V138.315H155.206V133.902Z" fill="#1B2A41"/>
<path d="M155.206 138.315H150.794V142.727H155.206V138.315Z" fill="#1B2A41"/>
<path d="M155.206 142.727H150.794V142.727C150.794 145.164 152.769 147.139 155.206 147.139V147.139V142.727Z" fill="#1B2A41"/>
<path d="M155.206 151.551V151.551C152.769 151.551 150.794 153.527 150.794 155.964V155.964H155.206V151.551Z" fill="#1B2A41"/>
<path d="M155.206 155.964H150.794V160.376H155.206V155.964Z" fill="#1B2A41"/>
<path d="M155.206 160.376H150.794V164.788H155.206V160.376Z" fill="#1B2A41"/>
<path d="M155.206 164.788H150.794V169.201H155.206V164.788Z" fill="#1B2A41"/>
<path d="M155.206 169.201H150.794V173.613H155.206V169.201Z" fill="#1B2A41"/>
<path d="M155.206 182.438C155.206 180.001 153.231 178.025 150.794 178.025V178.025V182.438H155.206V182.438Z" fill="#1B2A41"/>
<path d="M155.206 186.85H153C151.782 186.85 150.794 187.838 150.794 189.056V189.056C150.794 190.274 151.782 191.262 153 191.262H155.206V186.85Z" fill="#1B2A41"/>
<path d="M159.618 47.8623C159.618 46.6438 158.631 45.6561 157.412 45.6561H155.206V47.8623C155.206 49.0807 156.194 50.0684 157.412 50.0684V50.0684C158.631 50.0684 159.618 49.0807 159.618 47.8623V47.8623Z" fill="#1B2A41"/>
<path d="M159.618 61.0992C159.618 59.8808 158.631 58.893 157.412 58.893V58.893C156.194 58.893 155.206 59.8808 155.206 61.0992V63.3053H157.412C158.631 63.3053 159.618 62.3176 159.618 61.0992V61.0992Z" fill="#1B2A41"/>
<path d="M159.618 76.5423H155.206V80.9546H159.618V76.5423Z" fill="#1B2A41"/>
<path d="M159.618 94.1915H155.206V98.6038H159.618V94.1915Z" fill="#1B2A41"/>
<path d="M159.618 98.6038H155.206V103.016H159.618V98.6038Z" fill="#1B2A41"/>
<path d="M159.618 111.841H155.206V116.253H159.618V111.841Z" fill="#1B2A41"/>
<path d="M159.618 125.078H155.206V129.49H159.618V125.078Z" fill="#1B2A41"/>
<path d="M159.618 138.315C159.618 135.878 157.643 133.902 155.206 133.902V133.902V138.315H159.618V138.315Z" fill="#1B2A41"/>
<path d="M159.618 138.315H155.206V142.727H159.618V138.315Z" fill="#1B2A41"/>
<path d="M159.618 147.139H155.206V151.551H159.618V147.139Z" fill="#1B2A41"/>
<path d="M159.618 151.551H155.206V155.964H159.618V151.551Z" fill="#1B2A41"/>
<path d="M159.618 169.201H155.206V173.613H159.618V169.201Z" fill="#1B2A41"/>
<path d="M159.618 182.438H155.206V186.85H159.618V182.438Z" fill="#1B2A41"/>
<path d="M159.618 186.85H155.206V191.262V191.262C157.643 191.262 159.618 189.287 159.618 186.85V186.85Z" fill="#1B2A41"/>
<path d="M164.031 67.7176V67.7176C161.594 67.7176 159.618 69.6931 159.618 72.1299V72.1299H164.031V67.7176Z" fill="#1B2A41"/>
<path d="M164.031 72.1299H159.618V76.5423H164.031V72.1299Z" fill="#1B2A41"/>
<path d="M164.031 80.9546H159.618V85.3669H164.031V80.9546Z" fill="#1B2A41"/>
<path d="M164.031 85.3669H159.618V85.3669C159.618 87.8037 161.594 89.7792 164.031 89.7792V89.7792V85.3669Z" fill="#1B2A41"/>
<path d="M164.031 94.1915H159.618V98.6038H164.031V94.1915Z" fill="#1B2A41"/>
<path d="M164.031 98.6038H159.618V103.016H164.031V98.6038Z" fill="#1B2A41"/>
<path d="M164.031 103.016H159.618V107.428H164.031V103.016Z" fill="#1B2A41"/>
<path d="M164.031 107.428H159.618V111.841H164.031V107.428Z" fill="#1B2A41"/>
<path d="M164.031 111.841H159.618V116.253H164.031V111.841Z" fill="#1B2A41"/>
<path d="M164.031 125.078H159.618V129.49H164.031V125.078Z" fill="#1B2A41"/>
<path d="M164.031 142.727H159.618V147.139H164.031V142.727Z" fill="#1B2A41"/>
<path d="M164.031 147.139H159.618V151.551H164.031V147.139Z" fill="#1B2A41"/>
<path d="M164.031 151.551H159.618V155.964H164.031V151.551Z" fill="#1B2A41"/>
<path d="M164.031 162.582C164.031 161.364 163.043 160.376 161.825 160.376V160.376C160.606 160.376 159.618 161.364 159.618 162.582V162.582C159.618 163.801 160.606 164.788 161.825 164.788V164.788C163.043 164.788 164.031 163.801 164.031 162.582V162.582Z" fill="#1B2A41"/>
<path d="M164.031 169.201H159.618V173.613H164.031V169.201Z" fill="#1B2A41"/>
<path d="M164.031 173.613H159.618V175.819C159.618 177.038 160.606 178.025 161.825 178.025V178.025C163.043 178.025 164.031 177.038 164.031 175.819V173.613Z" fill="#1B2A41"/>
<path d="M164.031 182.438H159.618V186.85H164.031V182.438Z" fill="#1B2A41"/>
<path d="M168.443 47.8623C168.443 46.6438 167.455 45.6561 166.237 45.6561V45.6561C165.019 45.6561 164.031 46.6438 164.031 47.8623V50.0684H168.443V47.8623Z" fill="#1B2A41"/>
<path d="M168.443 50.0684H164.031V52.2746C164.031 53.493 165.019 54.4807 166.237 54.4807V54.4807C167.455 54.4807 168.443 53.493 168.443 52.2746V50.0684Z" fill="#1B2A41"/>
<path d="M168.443 58.893H166.237C165.019 58.893 164.031 59.8808 164.031 61.0992V61.0992C164.031 62.3176 165.019 63.3053 166.237 63.3053H168.443V58.893Z" fill="#1B2A41"/>
<path d="M168.443 67.7176H164.031V72.1299H168.443V67.7176Z" fill="#1B2A41"/>
<path d="M168.443 72.1299H164.031V76.5423H168.443V72.1299Z" fill="#1B2A41"/>
<path d="M168.443 80.9546H164.031V85.3669H168.443V80.9546Z" fill="#1B2A41"/>
<path d="M168.443 85.3669H164.031V89.7792H168.443V85.3669Z" fill="#1B2A41"/>
<path d="M168.443 89.7792H164.031V94.1915V94.1915C166.468 94.1915 168.443 92.216 168.443 89.7792V89.7792Z" fill="#1B2A41"/>
<path d="M168.443 111.841C168.443 109.404 166.468 107.428 164.031 107.428V107.428V111.841H168.443V111.841Z" fill="#1B2A41"/>
<path d="M168.443 111.841H164.031V116.253H168.443V111.841Z" fill="#1B2A41"/>
<path d="M168.443 120.665V120.665C166.006 120.665 164.031 122.641 164.031 125.078V125.078H168.443V120.665Z" fill="#1B2A41"/>
<path d="M168.443 125.078H164.031V129.49H168.443V125.078Z" fill="#1B2A41"/>
<path d="M168.443 129.49H164.031V129.49C164.031 131.927 166.006 133.902 168.443 133.902V133.902V129.49Z" fill="#1B2A41"/>
<path d="M168.443 138.315V138.315C166.006 138.315 164.031 140.29 164.031 142.727V142.727V142.727C166.468 142.727 168.443 140.751 168.443 138.315V138.315Z" fill="#1B2A41"/>
<path d="M168.443 151.551H164.031V155.964H168.443V151.551Z" fill="#1B2A41"/>
<path d="M168.443 169.201H164.031V173.613H168.443V169.201Z" fill="#1B2A41"/>
<path d="M168.443 182.438H164.031V186.85H168.443V182.438Z" fill="#1B2A41"/>
<path d="M168.443 186.85H164.031V186.85C164.031 189.287 166.006 191.262 168.443 191.262V191.262V186.85Z" fill="#1B2A41"/>
<path d="M172.855 63.3053C172.855 60.8685 170.88 58.893 168.443 58.893V58.893V63.3053H172.855V63.3053Z" fill="#1B2A41"/>
<path d="M172.855 63.3053H168.443V67.7176H172.855V63.3053Z" fill="#1B2A41"/>
<path d="M172.855 67.7176H168.443V72.1299H172.855V67.7176Z" fill="#1B2A41"/>
<path d="M172.855 80.9546C172.855 78.5177 170.88 76.5423 168.443 76.5423V76.5423V80.9546H172.855V80.9546Z" fill="#1B2A41"/>
<path d="M172.855 85.3669H168.443V89.7792H172.855V85.3669Z" fill="#1B2A41"/>
<path d="M172.855 100.81C172.855 99.5915 171.868 98.6038 170.649 98.6038V98.6038C169.431 98.6038 168.443 99.5915 168.443 100.81V100.81C168.443 102.028 169.431 103.016 170.649 103.016H172.855V100.81Z" fill="#1B2A41"/>
<path d="M172.855 118.459C172.855 117.241 171.868 116.253 170.649 116.253H168.443V120.665H170.649C171.868 120.665 172.855 119.678 172.855 118.459V118.459Z" fill="#1B2A41"/>
<path d="M172.855 129.49H168.443V133.902H172.855V129.49Z" fill="#1B2A41"/>
<path d="M172.855 133.902H168.443V138.315H172.855V133.902Z" fill="#1B2A41"/>
<path d="M172.855 151.551H168.443V155.964H172.855V151.551Z" fill="#1B2A41"/>
<path d="M172.855 155.964H168.443V160.376H172.855V155.964Z" fill="#1B2A41"/>
<path d="M172.855 160.376H168.443V164.788H172.855V160.376Z" fill="#1B2A41"/>
<path d="M172.855 164.788H168.443V169.201H172.855V164.788Z" fill="#1B2A41"/>
<path d="M172.855 169.201H168.443V173.613H172.855V169.201Z" fill="#1B2A41"/>
<path d="M172.855 178.025V178.025C170.419 178.025 168.443 180.001 168.443 182.438V182.438H172.855V178.025Z" fill="#1B2A41"/>
<path d="M172.855 182.438H168.443V186.85H172.855V182.438Z" fill="#1B2A41"/>
<path d="M172.855 186.85H168.443V191.262V191.262C170.88 191.262 172.855 189.287 172.855 186.85V186.85Z" fill="#1B2A41"/>
<path d="M177.268 45.6561H175.062C173.843 45.6561 172.855 46.6438 172.855 47.8623V47.8623C172.855 49.0807 173.843 50.0684 175.062 50.0684H177.268V45.6561Z" fill="#1B2A41"/>
<path d="M177.268 67.7176H172.855V72.1299H177.268V67.7176Z" fill="#1B2A41"/>
<path d="M177.268 80.9546H172.855V85.3669H177.268V80.9546Z" fill="#1B2A41"/>
<path d="M177.268 94.1915C177.268 91.7546 175.292 89.7792 172.855 89.7792V89.7792V89.7792C172.855 92.216 174.831 94.1915 177.268 94.1915V94.1915V94.1915Z" fill="#1B2A41"/>
<path d="M177.268 103.016H172.855V103.016C172.855 105.453 174.831 107.428 177.268 107.428V107.428V103.016Z" fill="#1B2A41"/>
<path d="M177.268 133.902C177.268 131.465 175.292 129.49 172.855 129.49V129.49V133.902H177.268V133.902Z" fill="#1B2A41"/>
<path d="M177.268 133.902H172.855V138.315H177.268V133.902Z" fill="#1B2A41"/>
<path d="M177.268 138.315H172.855V140.521C172.855 141.739 173.843 142.727 175.062 142.727V142.727C176.28 142.727 177.268 141.739 177.268 140.521V138.315Z" fill="#1B2A41"/>
<path d="M177.268 149.345C177.268 148.127 176.28 147.139 175.062 147.139V147.139C173.843 147.139 172.855 148.127 172.855 149.345V151.551H177.268V149.345Z" fill="#1B2A41"/>
<path d="M177.268 169.201H172.855V173.613H177.268V169.201Z" fill="#1B2A41"/>
<path d="M177.268 173.613H172.855V178.025V178.025C175.292 178.025 177.268 176.05 177.268 173.613V173.613Z" fill="#1B2A41"/>
<path d="M181.68 45.6561H177.268V50.0684H181.68V45.6561Z" fill="#1B2A41"/>
<path d="M181.68 50.0684H177.268V50.0684C177.268 52.5053 179.243 54.4807 181.68 54.4807V54.4807V50.0684Z" fill="#1B2A41"/>
<path d="M181.68 61.0992C181.68 59.8808 180.692 58.893 179.474 58.893V58.893C178.255 58.893 177.268 59.8808 177.268 61.0992V63.3053H181.68V61.0992Z" fill="#1B2A41"/>
<path d="M181.68 63.3053H177.268V67.7176H181.68V63.3053Z" fill="#1B2A41"/>
<path d="M181.68 67.7176H177.268V72.1299V72.1299C179.705 72.1299 181.68 70.1545 181.68 67.7176V67.7176Z" fill="#1B2A41"/>
<path d="M181.68 80.9546H177.268V85.3669H181.68V80.9546Z" fill="#1B2A41"/>
<path d="M181.68 94.1915H177.268V98.6038H181.68V94.1915Z" fill="#1B2A41"/>
<path d="M181.68 98.6038H177.268V103.016H181.68V98.6038Z" fill="#1B2A41"/>
<path d="M181.68 107.428H177.268V107.428C177.268 109.865 179.243 111.841 181.68 111.841V111.841V107.428Z" fill="#1B2A41"/>
<path d="M181.68 118.459C181.68 117.241 180.692 116.253 179.474 116.253V116.253C178.255 116.253 177.268 117.241 177.268 118.459V120.665H181.68V118.459Z" fill="#1B2A41"/>
<path d="M181.68 120.665H177.268V120.665C177.268 123.102 179.243 125.078 181.68 125.078V125.078V120.665Z" fill="#1B2A41"/>
<path d="M181.68 133.902H177.268V138.315H181.68V133.902Z" fill="#1B2A41"/>
<path d="M181.68 151.551H177.268V151.551C177.268 153.988 179.243 155.964 181.68 155.964V155.964V151.551Z" fill="#1B2A41"/>
<path d="M181.68 164.788V164.788C179.243 164.788 177.268 166.764 177.268 169.201V169.201H181.68V164.788Z" fill="#1B2A41"/>
<path d="M181.68 182.438V182.438C179.243 182.438 177.268 184.413 177.268 186.85V186.85H181.68V182.438Z" fill="#1B2A41"/>
<path d="M181.68 186.85H177.268V189.056C177.268 190.274 178.255 191.262 179.474 191.262V191.262C180.692 191.262 181.68 190.274 181.68 189.056V186.85Z" fill="#1B2A41"/>
<path d="M186.092 50.0684C186.092 47.6316 184.117 45.6561 181.68 45.6561V45.6561V50.0684H186.092V50.0684Z" fill="#1B2A41"/>
<path d="M186.092 50.0684H181.68V54.4807H186.092V50.0684Z" fill="#1B2A41"/>
<path d="M186.092 63.3053H181.68V67.7176V67.7176C184.117 67.7176 186.092 65.7422 186.092 63.3053V63.3053Z" fill="#1B2A41"/>
<path d="M186.092 80.9546H181.68V85.3669H186.092V80.9546Z" fill="#1B2A41"/>
<path d="M186.092 85.3669H181.68V89.7792H186.092V85.3669Z" fill="#1B2A41"/>
<path d="M186.092 89.7792H181.68V94.1915H186.092V89.7792Z" fill="#1B2A41"/>
<path d="M186.092 98.6038H181.68V103.016V103.016C184.117 103.016 186.092 101.041 186.092 98.6038V98.6038Z" fill="#1B2A41"/>
<path d="M186.092 111.841C186.092 109.404 184.117 107.428 181.68 107.428V107.428V111.841H186.092V111.841Z" fill="#1B2A41"/>
<path d="M186.092 125.078H181.68V125.078C181.68 127.514 183.655 129.49 186.092 129.49V129.49V125.078Z" fill="#1B2A41"/>
<path d="M186.092 133.902H181.68V138.315H186.092V133.902Z" fill="#1B2A41"/>
<path d="M186.092 151.551H181.68V155.964H186.092V151.551Z" fill="#1B2A41"/>
<path d="M186.092 155.964H181.68V160.376H186.092V155.964Z" fill="#1B2A41"/>
<path d="M186.092 160.376H181.68V164.788H186.092V160.376Z" fill="#1B2A41"/>
<path d="M186.092 173.613C186.092 171.176 184.117 169.201 181.68 169.201V169.201V173.613H186.092V173.613Z" fill="#1B2A41"/>
<path d="M186.092 173.613H181.68V173.613C181.68 176.05 183.655 178.025 186.092 178.025V178.025V173.613Z" fill="#1B2A41"/>
<path d="M186.092 182.438H181.68V186.85H186.092V182.438Z" fill="#1B2A41"/>
<path d="M190.505 52.2746C190.505 51.0561 189.517 50.0684 188.298 50.0684H186.092V54.4807H188.298C189.517 54.4807 190.505 53.493 190.505 52.2746V52.2746Z" fill="#1B2A41"/>
<path d="M190.505 61.0992C190.505 59.8808 189.517 58.893 188.298 58.893V58.893C187.08 58.893 186.092 59.8808 186.092 61.0992V63.3053H188.298C189.517 63.3053 190.505 62.3176 190.505 61.0992V61.0992Z" fill="#1B2A41"/>
<path d="M190.505 74.3361C190.505 73.1177 189.517 72.1299 188.298 72.1299V72.1299C187.08 72.1299 186.092 73.1177 186.092 74.3361V74.3361C186.092 75.5545 187.08 76.5423 188.298 76.5423V76.5423C189.517 76.5423 190.505 75.5545 190.505 74.3361V74.3361Z" fill="#1B2A41"/>
<path d="M190.505 83.1607C190.505 81.9423 189.517 80.9546 188.298 80.9546H186.092V85.3669H188.298C189.517 85.3669 190.505 84.3791 190.505 83.1607V83.1607Z" fill="#1B2A41"/>
<path d="M190.505 94.1915C190.505 91.7546 188.529 89.7792 186.092 89.7792V89.7792V94.1915H190.505V94.1915Z" fill="#1B2A41"/>
<path d="M190.505 94.1915H186.092V98.6038V98.6038C188.529 98.6038 190.505 96.6283 190.505 94.1915V94.1915Z" fill="#1B2A41"/>
<path d="M190.505 114.047C190.505 112.828 189.517 111.841 188.298 111.841H186.092V114.047C186.092 115.265 187.08 116.253 188.298 116.253V116.253C189.517 116.253 190.505 115.265 190.505 114.047V114.047Z" fill="#1B2A41"/>
<path d="M190.505 122.871C190.505 121.653 189.517 120.665 188.298 120.665V120.665C187.08 120.665 186.092 121.653 186.092 122.871V125.078H188.298C189.517 125.078 190.505 124.09 190.505 122.871V122.871Z" fill="#1B2A41"/>
<path d="M190.505 133.902C190.505 131.465 188.529 129.49 186.092 129.49V129.49V133.902H190.505V133.902Z" fill="#1B2A41"/>
<path d="M190.505 133.902H186.092V138.315V138.315C188.529 138.315 190.505 136.339 190.505 133.902V133.902Z" fill="#1B2A41"/>
<path d="M190.505 144.933C190.505 143.715 189.517 142.727 188.298 142.727V142.727C187.08 142.727 186.092 143.715 186.092 144.933V147.139H190.505V144.933Z" fill="#1B2A41"/>
<path d="M190.505 147.139H186.092V151.551H190.505V147.139Z" fill="#1B2A41"/>
<path d="M190.505 151.551H186.092V155.964H190.505V151.551Z" fill="#1B2A41"/>
<path d="M190.505 155.964H186.092V160.376H190.505V155.964Z" fill="#1B2A41"/>
<path d="M190.505 160.376H186.092V164.788V164.788C188.529 164.788 190.505 162.813 190.505 160.376V160.376Z" fill="#1B2A41"/>
<path d="M190.505 175.819C190.505 174.601 189.517 173.613 188.298 173.613H186.092V178.025H188.298C189.517 178.025 190.505 177.038 190.505 175.819V175.819Z" fill="#1B2A41"/>
<path d="M190.505 184.644C190.505 183.425 189.517 182.438 188.298 182.438H186.092V186.85H188.298C189.517 186.85 190.505 185.862 190.505 184.644V184.644Z" fill="#1B2A41"/>
<path fill-rule="evenodd" clip-rule="evenodd" d="M21.6001 10.3577C14.9727 10.3577 9.6001 15.7302 9.6001 22.3577V29.2438C9.6001 35.8712 14.9727 41.2438 21.6001 41.2438H28.4862C35.1136 41.2438 40.4862 35.8712 40.4862 29.2438V22.3577C40.4862 15.7303 35.1137 10.3577 28.4862 10.3577H21.6001ZM14.0124 25.8007C14.0124 19.7086 18.951 14.77 25.0432 14.77V14.77C31.1353 14.77 36.0739 19.7086 36.0739 25.8007V25.8007C36.0739 31.8929 31.1353 36.8315 25.0432 36.8315V36.8315C18.951 36.8315 14.0124 31.8929 14.0124 25.8007V25.8007Z" fill="#1B2A41"/>
<path d="M31.5617 23.9941V24.4953H31.0604V28.0036H31.5617V27.0012H32.063V23.9941H31.5617Z" fill="#32435D"/>
<path d="M29.5565 23.493V24.4953H30.0578V23.9941H31.0604H31.5617V23.493H29.5565Z" fill="#32435D"/>
<path d="M31.0604 28.0036H30.5591V28.5047H31.0604V28.0036Z" fill="#32435D"/>
<path d="M30.0578 28.5047H29.5565V29.0059H30.0578V28.5047Z" fill="#32435D"/>
<path d="M26.0475 19.9818V20.9871H26.5488V19.9818H26.0475Z" fill="#13243F"/>
<path d="M26.0446 20.9871H25.5434V21.4882H26.0446V20.9871Z" fill="#13243F"/>
<path d="M26.0475 18.9795H25.5434V19.9818H26.0475V18.9795Z" fill="#13243F"/>
<path d="M24.0395 20.9871H24.5408V19.9818H24.0395V20.9871Z" fill="#13243F"/>
<path d="M24.0395 20.9871H23.5382V21.4882H24.0395V20.9871Z" fill="#13243F"/>
<path d="M24.0395 18.9795H23.5382V19.9818H24.0395V18.9795Z" fill="#13243F"/>
<path d="M22.0343 20.9871H22.5356V19.9818H22.0343V20.9871Z" fill="#13243F"/>
<path d="M22.0343 20.9871H21.5331V21.4882H22.0343V20.9871Z" fill="#13243F"/>
<path d="M22.0343 18.9795H21.5331V19.9818H22.0343V18.9795Z" fill="#13243F"/>
<path d="M30.0578 23.9941V24.4953H29.5565V23.493V22.4906H28.554V23.493H29.0552V30.0083H28.0527V30.5095H27.5514V31.0135H26.0475V31.5147H21.0318V32.0158H27.5514V31.5147H28.554V30.5095H29.5565V29.5071H30.0578V29.0059H29.5565V28.5047V24.9965H30.5591V24.4953H31.0604V23.9941H30.0578Z" fill="#080F1A"/>
<path d="M20.5305 21.9894V22.4906H22.0343V21.9894H20.5305Z" fill="#1B2A41"/>
<path d="M20.5305 22.9918V27.0012H21.0318V26.5H21.5331V23.9941H22.0343V22.9918H20.5305Z" fill="#1B2A41"/>
<path d="M31.5617 27.0012V28.0036H32.063V27.0012H31.5617Z" fill="#13243F"/>
<path d="M31.5617 28.0036H31.0604V28.5047H31.5617V28.0036Z" fill="#13243F"/>
<path d="M31.5617 23.9941H31.0604V24.4953H31.5617V23.9941Z" fill="#13243F"/>
<path d="M30.0578 28.5047V29.0059H31.0604V28.5047H30.5591H30.0578Z" fill="#13243F"/>
<path d="M28.554 22.4906H22.0343H20.5305H19.0266V22.9918H20.5305H22.0343H27.5514V29.0059H27.0501V29.5071H26.5488V30.0083H25.0421V30.5095H24.0395V31.0135H20.0292V31.5147H21.0318H26.0475V31.0135H27.5514V30.5095H28.0527V30.0083H29.0552V23.493H28.554V22.4906Z" fill="#13243F"/>
<path d="M22.0343 21.9894V22.4906H28.554H29.5565V21.9894H22.0343Z" fill="#32435D"/>
<path d="M22.0343 22.9918V23.9941H21.5331V26.5H21.0318V27.0012H20.5305V22.9918H19.0266V30.5095H19.5279V31.0135H20.0292H24.0395V30.5095H25.0421V30.0083H26.5488V29.5071H27.0501V29.0059H27.5514V22.9918H22.0343Z" fill="#32435D"/>
<path d="M20.5305 22.4906V21.9894H19.0266V22.4906H20.5305Z" fill="#32435D"/>
<path d="M31.5617 173.411V173.912H31.0604V177.42H31.5617V176.418H32.063V173.411H31.5617Z" fill="#32435D"/>
<path d="M29.5565 172.91V173.912H30.0578V173.411H31.0604H31.5617V172.91H29.5565Z" fill="#32435D"/>
<path d="M31.0604 177.42H30.5591V177.921H31.0604V177.42Z" fill="#32435D"/>
<path d="M30.0578 177.921H29.5565V178.423H30.0578V177.921Z" fill="#32435D"/>
<path d="M26.0475 169.399V170.404H26.5488V169.399H26.0475Z" fill="#13243F"/>
<path d="M26.0446 170.404H25.5434V170.905H26.0446V170.404Z" fill="#13243F"/>
<path d="M26.0475 168.396H25.5434V169.399H26.0475V168.396Z" fill="#13243F"/>
<path d="M24.0395 170.404H24.5408V169.399H24.0395V170.404Z" fill="#13243F"/>
<path d="M24.0395 170.404H23.5382V170.905H24.0395V170.404Z" fill="#13243F"/>
<path d="M24.0395 168.396H23.5382V169.399H24.0395V168.396Z" fill="#13243F"/>
<path d="M22.0343 170.404H22.5356V169.399H22.0343V170.404Z" fill="#13243F"/>
<path d="M22.0343 170.404H21.5331V170.905H22.0343V170.404Z" fill="#13243F"/>
<path d="M22.0343 168.396H21.5331V169.399H22.0343V168.396Z" fill="#13243F"/>
<path d="M30.0578 173.411V173.912H29.5565V172.91V171.907H28.554V172.91H29.0552V179.425H28.0527V179.926H27.5514V180.43H26.0475V180.931H21.0318V181.433H27.5514V180.931H28.554V179.926H29.5565V178.924H30.0578V178.423H29.5565V177.921V174.413H30.5591V173.912H31.0604V173.411H30.0578Z" fill="#080F1A"/>
<path d="M20.5305 171.406V171.907H22.0343V171.406H20.5305Z" fill="#1B2A41"/>
<path d="M20.5305 172.408V176.418H21.0318V175.917H21.5331V173.411H22.0343V172.408H20.5305Z" fill="#1B2A41"/>
<path d="M31.5617 176.418V177.42H32.063V176.418H31.5617Z" fill="#13243F"/>
<path d="M31.5617 177.42H31.0604V177.921H31.5617V177.42Z" fill="#13243F"/>
<path d="M31.5617 173.411H31.0604V173.912H31.5617V173.411Z" fill="#13243F"/>
<path d="M30.0578 177.921V178.423H31.0604V177.921H30.5591H30.0578Z" fill="#13243F"/>
<path d="M28.554 171.907H22.0343H20.5305H19.0266V172.408H20.5305H22.0343H27.5514V178.423H27.0501V178.924H26.5488V179.425H25.0421V179.926H24.0395V180.43H20.0292V180.931H21.0318H26.0475V180.43H27.5514V179.926H28.0527V179.425H29.0552V172.91H28.554V171.907Z" fill="#13243F"/>
<path d="M22.0343 171.406V171.907H28.554H29.5565V171.406H22.0343Z" fill="#32435D"/>
<path d="M22.0343 172.408V173.411H21.5331V175.917H21.0318V176.418H20.5305V172.408H19.0266V179.926H19.5279V180.43H20.0292H24.0395V179.926H25.0421V179.425H26.5488V178.924H27.0501V178.423H27.5514V172.408H22.0343Z" fill="#32435D"/>
<path d="M20.5305 171.907V171.406H19.0266V171.907H20.5305Z" fill="#32435D"/>
<path d="M180.978 23.9941V24.4953H180.477V28.0036H180.978V27.0012H181.479V23.9941H180.978Z" fill="#32435D"/>
<path d="M178.973 23.493V24.4953H179.474V23.9941H180.477H180.978V23.493H178.973Z" fill="#32435D"/>
<path d="M180.477 28.0036H179.976V28.5047H180.477V28.0036Z" fill="#32435D"/>
<path d="M179.474 28.5047H178.973V29.0059H179.474V28.5047Z" fill="#32435D"/>
<path d="M175.464 19.9818V20.9871H175.965V19.9818H175.464Z" fill="#13243F"/>
<path d="M175.461 20.9871H174.96V21.4882H175.461V20.9871Z" fill="#13243F"/>
<path d="M175.464 18.9795H174.96V19.9818H175.464V18.9795Z" fill="#13243F"/>
<path d="M173.456 20.9871H173.957V19.9818H173.456V20.9871Z" fill="#13243F"/>
<path d="M173.456 20.9871H172.955V21.4882H173.456V20.9871Z" fill="#13243F"/>
<path d="M173.456 18.9795H172.955V19.9818H173.456V18.9795Z" fill="#13243F"/>
<path d="M171.451 20.9871H171.952V19.9818H171.451V20.9871Z" fill="#13243F"/>
<path d="M171.451 20.9871H170.95V21.4882H171.451V20.9871Z" fill="#13243F"/>
<path d="M171.451 18.9795H170.95V19.9818H171.451V18.9795Z" fill="#13243F"/>
<path d="M179.474 23.9941V24.4953H178.973V23.493V22.4906H177.97V23.493H178.472V30.0083H177.469V30.5095H176.968V31.0135H175.464V31.5147H170.448V32.0158H176.968V31.5147H177.97V30.5095H178.973V29.5071H179.474V29.0059H178.973V28.5047V24.9965H179.976V24.4953H180.477V23.9941H179.474Z" fill="#080F1A"/>
<path d="M169.947 21.9894V22.4906H171.451V21.9894H169.947Z" fill="#1B2A41"/>
<path d="M169.947 22.9918V27.0012H170.448V26.5H170.95V23.9941H171.451V22.9918H169.947Z" fill="#1B2A41"/>
<path d="M180.978 27.0012V28.0036H181.479V27.0012H180.978Z" fill="#13243F"/>
<path d="M180.978 28.0036H180.477V28.5047H180.978V28.0036Z" fill="#13243F"/>
<path d="M180.978 23.9941H180.477V24.4953H180.978V23.9941Z" fill="#13243F"/>
<path d="M179.474 28.5047V29.0059H180.477V28.5047H179.976H179.474Z" fill="#13243F"/>
<path d="M177.97 22.4906H171.451H169.947H168.443V22.9918H169.947H171.451H176.968V29.0059H176.467V29.5071H175.965V30.0083H174.459V30.5095H173.456V31.0135H169.446V31.5147H170.448H175.464V31.0135H176.968V30.5095H177.469V30.0083H178.472V23.493H177.97V22.4906Z" fill="#13243F"/>
<path d="M171.451 21.9894V22.4906H177.97H178.973V21.9894H171.451Z" fill="#32435D"/>
<path d="M171.451 22.9918V23.9941H170.95V26.5H170.448V27.0012H169.947V22.9918H168.443V30.5095H168.944V31.0135H169.446H173.456V30.5095H174.459V30.0083H175.965V29.5071H176.467V29.0059H176.968V22.9918H171.451Z" fill="#32435D"/>
<path d="M169.947 22.4906V21.9894H168.443V22.4906H169.947Z" fill="#32435D"/>
<path fill-rule="evenodd" clip-rule="evenodd" d="M190.505 22.3577C190.505 15.7303 185.132 10.3577 178.505 10.3577L171.619 10.3577C164.991 10.3577 159.619 15.7302 159.619 22.3577V29.2438C159.619 35.8712 164.991 41.2438 171.619 41.2438H178.505C185.132 41.2438 190.505 35.8712 190.505 29.2438V22.3577ZM175.062 14.77C181.154 14.77 186.093 19.7086 186.093 25.8007V25.8007C186.093 31.8929 181.154 36.8315 175.062 36.8315V36.8315C168.97 36.8315 164.031 31.8929 164.031 25.8007V25.8007C164.031 19.7086 168.97 14.77 175.062 14.77V14.77Z" fill="#1B2A41"/>
<path fill-rule="evenodd" clip-rule="evenodd" d="M9.6001 179.262C9.6001 185.89 14.9727 191.262 21.6001 191.262H28.4862C35.1136 191.262 40.4862 185.89 40.4862 179.262V172.376C40.4862 165.749 35.1137 160.376 28.4862 160.376H21.6001C14.9727 160.376 9.6001 165.749 9.6001 172.376L9.6001 179.262ZM25.0432 186.85C18.951 186.85 14.0124 181.911 14.0124 175.819V175.819C14.0124 169.727 18.951 164.788 25.0432 164.788V164.788C31.1353 164.788 36.0739 169.727 36.0739 175.819V175.819C36.0739 181.911 31.1353 186.85 25.0432 186.85V186.85Z" fill="#1B2A41"/>
</g>
<defs>
<clipPath id="clip0_3482_13744">
<rect width="200" height="200" fill="white" transform="translate(0 0.75769)"/>
</clipPath>
</defs>
</svg>
